<svg xmlns="http://www.w3.org/2000/svg" width="106" height="62.905" viewBox="0 0 106 62.905">
  <g id="Trazado_919816" data-name="Trazado 919816" fill="none">
    <path d="M0,0H106V44.672S77.41,32.91,53.348,51.125,0,61,0,61Z" stroke="none"/>
    <path d="M 1 0.9999923706054688 L 1 60.22302627563477 C 2.963981628417969 60.69478988647461 8.742233276367188 61.90553665161133 16.30495452880859 61.90553665161133 C 22.39070129394531 61.90553665161133 28.27274322509766 61.13540649414062 33.78767395019531 59.61652374267578 C 40.76090240478516 57.69602203369141 47.13877105712891 54.57079315185547 52.74409866333008 50.32767868041992 C 61.853271484375 43.43220520019531 72.59971618652344 39.93590545654297 84.68492889404297 39.93590545654297 C 91.10366821289062 39.93590545654297 96.64762878417969 40.96745300292969 100.1681594848633 41.83279418945312 C 102.287712097168 42.35378646850586 103.9353256225586 42.87265014648438 105 43.23867797851562 L 105 0.9999923706054688 L 1 0.9999923706054688 M 0 -7.62939453125e-06 L 106 -7.62939453125e-06 L 106 44.67187881469727 C 106 44.67187881469727 96.91691589355469 40.93590545654297 84.68492126464844 40.93590545654297 C 75.21118927001953 40.93590545654297 63.85003280639648 43.17490005493164 53.34765625 51.12499237060547 C 29.28515625 69.33983612060547 -7.62939453125e-06 60.99999237060547 0 60.99999237060547 L 0 -7.62939453125e-06 Z" stroke="none" fill="#12263f"/>
  </g>
</svg>
