<svg xmlns="http://www.w3.org/2000/svg" width="19.307" height="17" viewBox="0 0 19.307 17">
  <g id="Speech_Bubble_48_" transform="translate(0 -30.536)">
    <g id="Grupo_1121586" data-name="Grupo 1121586" transform="translate(0 30.536)">
      <path id="Trazado_919812" data-name="Trazado 919812" d="M2.81,47.536H1.442l.967-.967a3.274,3.274,0,0,0,.935-1.936A7.373,7.373,0,0,1,.455,41.216a6.69,6.69,0,0,1-.193-4.287,8.393,8.393,0,0,1,3.216-4.49,10.508,10.508,0,0,1,6.208-1.9,10.407,10.407,0,0,1,7.176,2.446,7.342,7.342,0,0,1,1.831,8.411,7.552,7.552,0,0,1-1.836,2.554A10.383,10.383,0,0,1,9.685,46.4,13.048,13.048,0,0,1,6.44,45.99a5.069,5.069,0,0,1-3.63,1.546ZM9.685,31.669c-4.686,0-7.561,2.794-8.332,5.564a5.706,5.706,0,0,0,2.873,6.615l.282.17-.009.33A4.463,4.463,0,0,1,4.049,46.2a4.014,4.014,0,0,0,1.775-1.215l.24-.283.355.106a11.722,11.722,0,0,0,3.267.462c5.832,0,8.488-3.531,8.488-6.812A6.232,6.232,0,0,0,16.1,33.818a9.3,9.3,0,0,0-6.411-2.149Z" transform="translate(0 -30.536)"/>
    </g>
  </g>
</svg>
