<svg xmlns="http://www.w3.org/2000/svg" width="23" height="23" viewBox="0 0 23 23">
  <g id="Grupo_1121588" data-name="Grupo 1121588" transform="translate(-388.051 -12981)">
    <rect id="Rectángulo_405659" data-name="Rectángulo 405659" width="23" height="23" rx="3" transform="translate(388.051 12981)" fill="#1993fb"/>
    <path id="Trazado_919813" data-name="Trazado 919813" d="M.621,30.247A.621.621,0,0,1,0,29.626v-4.4a3.167,3.167,0,0,1,3.164-3.164H11.51l-.9-.9a.621.621,0,0,1,.878-.878l1.959,1.959a.621.621,0,0,1,0,.878l-2.018,2.018a.621.621,0,0,1-.878-.878l.958-.957H3.164a1.924,1.924,0,0,0-1.922,1.922v4.4a.621.621,0,0,1-.621.621ZM15.277,24.6a.621.621,0,0,0-.621.621v4.4a1.924,1.924,0,0,1-1.922,1.922H4.389l.957-.957a.621.621,0,0,0-.878-.878L2.45,31.729a.621.621,0,0,0,0,.878L4.41,34.567a.621.621,0,0,0,.878-.878l-.9-.9h8.346A3.167,3.167,0,0,0,15.9,29.626v-4.4A.621.621,0,0,0,15.277,24.6Z" transform="translate(392.051 12964.901)" fill="#fff"/>
    <path id="Trazado_919813_-_Contorno" data-name="Trazado 919813 - Contorno" d="M4.849,35.249a1.114,1.114,0,0,1-.793-.328L2.1,32.961a1.121,1.121,0,0,1,0-1.585l2.018-2.018A1.121,1.121,0,0,1,5.7,30.944l-.1.1h7.139a1.426,1.426,0,0,0,1.422-1.422v-4.4a1.121,1.121,0,0,1,2.242,0v4.4a3.673,3.673,0,0,1-3.663,3.664H5.6l.046.046a1.121,1.121,0,0,1-.793,1.914Zm.058-5.219a.119.119,0,0,0-.086.035L2.8,32.083a.121.121,0,0,0,0,.171l1.959,1.959a.121.121,0,0,0,.171-.171L3.181,32.29h9.553A2.671,2.671,0,0,0,15.4,29.625v-4.4a.121.121,0,0,0-.242,0v4.4a2.428,2.428,0,0,1-2.421,2.422H3.181l1.811-1.811a.121.121,0,0,0,0-.171A.119.119,0,0,0,4.907,30.03Zm-4.286.717A1.122,1.122,0,0,1-.5,29.626v-4.4a3.673,3.673,0,0,1,3.663-3.664H10.3l-.046-.046a1.121,1.121,0,1,1,1.585-1.585L13.8,21.887a1.122,1.122,0,0,1,0,1.585l-2.018,2.018A1.121,1.121,0,1,1,10.2,23.9l.1-.1H3.164a1.426,1.426,0,0,0-1.422,1.422v4.4A1.122,1.122,0,0,1,.621,30.747Zm2.543-8.189A2.671,2.671,0,0,0,.5,25.223v4.4a.121.121,0,0,0,.242,0v-4.4A2.428,2.428,0,0,1,3.163,22.8h9.554l-1.811,1.811a.121.121,0,0,0,0,.171.121.121,0,0,0,.171,0l2.018-2.018a.121.121,0,0,0,0-.171l-1.959-1.959a.121.121,0,1,0-.171.171l1.753,1.753Z" transform="translate(392.051 12964.901)" fill="#fff"/>
  </g>
</svg>
