<svg xmlns="http://www.w3.org/2000/svg" width="77" height="77" viewBox="0 0 77 77">
  <g id="Grupo_1121365" data-name="Grupo 1121365" transform="translate(-3875 4202)">
    <g id="Grupo_1098742" data-name="Grupo 1098742" transform="translate(3875 -4202)">
      <rect id="Rect치ngulo_400898" data-name="Rect치ngulo 400898" width="77" height="77" rx="38.5" transform="translate(0 0)" fill="#ccda2d"/>
      <rect id="Rect치ngulo_400907" data-name="Rect치ngulo 400907" width="77" height="77" rx="38.5" transform="translate(0 0)" fill="none"/>
    </g>
    <g id="Grupo_1121364" data-name="Grupo 1121364" transform="translate(3890 -4187)">
      <g id="Grupo_1121362" data-name="Grupo 1121362" transform="translate(1.723 1.723)">
        <g id="Grupo_1121350" data-name="Grupo 1121350" transform="translate(4.341 0)">
          <path id="Trazado_919378" data-name="Trazado 919378" d="M10.894,2H32.6a2.893,2.893,0,0,1,2.894,2.894v7.372a4.294,4.294,0,0,0-2,1.136l-.9.9V8.511a.726.726,0,0,0-.723-.723H11.617a.726.726,0,0,0-.723.723v21.7a.726.726,0,0,0,.723.723h.34a21.422,21.422,0,0,1-1.418,3.6A1.341,1.341,0,0,1,8,33.942V4.894A2.893,2.893,0,0,1,10.894,2Z" transform="translate(-8 -2)" fill="#969faa"/>
        </g>
        <g id="Grupo_1121351" data-name="Grupo 1121351" transform="translate(12.618 20.981)">
          <path id="Trazado_919379" data-name="Trazado 919379" d="M19.845,44.508c0-.326-.014-.644-.036-.962l-.355-4.587H35.039a.726.726,0,0,0,.723-.723V33.894L38.656,31V44.746a2.893,2.893,0,0,1-2.894,2.894H19.44A12.364,12.364,0,0,0,19.845,44.508Z" transform="translate(-19.44 -31)" fill="#969faa"/>
        </g>
        <g id="Grupo_1121352" data-name="Grupo 1121352" transform="translate(7.235 5.788)">
          <path id="Trazado_919380" data-name="Trazado 919380" d="M32.981,10H12.723a.726.726,0,0,0-.723.723v21.7a.726.726,0,0,0,.723.723H32.981a.726.726,0,0,0,.723-.723v-21.7A.726.726,0,0,0,32.981,10Z" transform="translate(-12 -10)" fill="#69d6f4"/>
        </g>
        <g id="Grupo_1121353" data-name="Grupo 1121353" transform="translate(14.47 31.834)">
          <path id="Trazado_919381" data-name="Trazado 919381" d="M29.235,46.723a2.174,2.174,0,0,1-2.17,2.17H24.17A2.168,2.168,0,0,1,22,46.723.726.726,0,0,1,22.723,46h5.788A.726.726,0,0,1,29.235,46.723Z" transform="translate(-22 -46)" fill="#e6e9ed"/>
        </g>
        <g id="Grupo_1121354" data-name="Grupo 1121354" transform="translate(10.129 8.682)">
          <path id="Trazado_919382" data-name="Trazado 919382" d="M16,14H31.917v2.894H16Z" transform="translate(-16 -14)" fill="#ef7385"/>
        </g>
        <g id="Grupo_1121355" data-name="Grupo 1121355" transform="translate(2.894 40.516)">
          <path id="Trazado_919383" data-name="Trazado 919383" d="M6,58h8.682v2.894H6Z" transform="translate(-6 -58)" fill="#ef7385"/>
        </g>
        <g id="Grupo_1121356" data-name="Grupo 1121356" transform="translate(23.152 20.981)">
          <path id="Trazado_919384" data-name="Trazado 919384" d="M39.064,34.617l-3.4,1.36A1.213,1.213,0,0,1,34.087,34.4l1.36-3.4Z" transform="translate(-34 -31)" fill="#cf9e76"/>
        </g>
        <g id="Grupo_1121357" data-name="Grupo 1121357" transform="translate(31.016 5.788)">
          <path id="Trazado_919385" data-name="Trazado 919385" d="M57.263,12.561a2.558,2.558,0,0,1-.752,1.809l-2.453,2.453-4.753,4.753-2.236-1.787a5.02,5.02,0,0,0-2.2-1.013l4.435-4.435,3.589-3.589a2.561,2.561,0,0,1,4.37,1.809Z" transform="translate(-44.87 -10)" fill="#b4dd7f"/>
        </g>
        <g id="Grupo_1121358" data-name="Grupo 1121358" transform="translate(24.599 17.161)">
          <path id="Trazado_919386" data-name="Trazado 919386" d="M39.82,25.72a5.024,5.024,0,0,0,.695.738l3.625,2.178-.9.9-2.894,2.894-.723.723L36,29.54,38.243,27.3Z" transform="translate(-36 -25.72)" fill="#b4dd7f"/>
        </g>
        <g id="Grupo_1121359" data-name="Grupo 1121359" transform="translate(25.322 10.129)">
          <path id="Trazado_919387" data-name="Trazado 919387" d="M40.437,20.884a1.8,1.8,0,0,0-.543,1.3,1.85,1.85,0,0,0,.2.846L38.519,24.61a2.073,2.073,0,0,1-1.085-.716A2.026,2.026,0,0,1,37,22.634a2.048,2.048,0,0,1,.6-1.447l3.017-3.017.9-.9a4.294,4.294,0,0,1,2-1.136A4.117,4.117,0,0,1,44.589,16h2.539l-4.435,4.435a4.648,4.648,0,0,0-.955-.094,1.8,1.8,0,0,0-1.3.543Z" transform="translate(-37 -16)" fill="#f0d0b4"/>
        </g>
        <g id="Grupo_1121360" data-name="Grupo 1121360" transform="translate(28.216 12.611)">
          <path id="Trazado_919388" data-name="Trazado 919388" d="M41.9,24.719a5.023,5.023,0,0,1-.695-.738,1.85,1.85,0,0,1-.2-.846,1.853,1.853,0,0,1,1.845-1.845,4.648,4.648,0,0,1,.955.094A5.02,5.02,0,0,1,46,22.4l2.236,1.787,4.753-4.753,2.482,1.859h.723v5.788H55.47l-3.328,1.107a6.561,6.561,0,0,1-5.47-.6l-1.15-.687Z" transform="translate(-41 -19.43)" fill="#f0d0b4"/>
        </g>
        <g id="Grupo_1121361" data-name="Grupo 1121361" transform="translate(0 20.258)">
          <path id="Trazado_919389" data-name="Trazado 919389" d="M14.987,43.269c.022.318.036.637.036.962a12.364,12.364,0,0,1-.405,3.133,12.815,12.815,0,0,1-.492,1.519l-.55,1.375H4.894L3.953,47.9a12.494,12.494,0,0,1-.731-2.6L2.1,38.552A7.386,7.386,0,0,1,2,37.358a7.283,7.283,0,0,1,2.134-5.151L6.341,30V41.684a1.341,1.341,0,0,0,2.539.6,21.422,21.422,0,0,0,1.418-3.6l.246-.89.543-2.163a1.687,1.687,0,0,1,1.642-1.288A1.7,1.7,0,0,1,14.422,35.9l.21,2.778Z" transform="translate(-2 -30)" fill="#f0d0b4"/>
        </g>
      </g>
      <g id="Grupo_1121363" data-name="Grupo 1121363" transform="translate(1 1)">
        <path id="Trazado_919390" data-name="Trazado 919390" d="M28.235,45H22.447A1.448,1.448,0,0,0,21,46.447a2.9,2.9,0,0,0,2.894,2.894h2.894a2.9,2.9,0,0,0,2.894-2.894A1.448,1.448,0,0,0,28.235,45Zm-1.447,2.894H23.894a1.448,1.448,0,0,1-1.447-1.447h5.788A1.448,1.448,0,0,1,26.788,47.894Z" transform="translate(-6.53 -13.166)"/>
        <circle id="Elipse_11914" data-name="Elipse 11914" cx="0.5" cy="0.5" r="0.5" transform="translate(29 2.857)"/>
        <circle id="Elipse_11915" data-name="Elipse 11915" cx="0.5" cy="0.5" r="0.5" transform="translate(26 2.857)"/>
        <path id="Trazado_919391" data-name="Trazado 919391" d="M23,5h5.788V6.447H23Z" transform="translate(-7.083 -2.106)"/>
        <path id="Trazado_919392" data-name="Trazado 919392" d="M43.03,14.254,44.9,12.389a3.281,3.281,0,0,0-4.64-4.64l-3.379,3.38H34.632c-.118,0-.234.009-.351.017V4.617A3.622,3.622,0,0,0,30.663,1H8.958A3.622,3.622,0,0,0,5.341,4.617V21.682l-2,2A7.946,7.946,0,0,0,1,29.337a8.107,8.107,0,0,0,.109,1.315L2.234,37.4A13.228,13.228,0,0,0,3,40.148l.892,2.231v3.478H14.023V42.379l.5-1.248c.14-.349.258-.7.368-1.062H30.663a3.622,3.622,0,0,0,3.617-3.617V23l.293-.293.664.4a7.3,7.3,0,0,0,6.074.666L44.527,22.7h1.33V15.47H44.651ZM41.278,8.772a1.835,1.835,0,1,1,2.594,2.594l-6.751,6.752-1.73-1.384a5.74,5.74,0,0,0-1.3-.778Zm-5.849,3.8-2.942,2.942a5.776,5.776,0,0,0-.7-.048A2.567,2.567,0,0,0,29.3,18.7l-.905.905a1.314,1.314,0,0,1-.242-2.054l3.917-3.917a3.593,3.593,0,0,1,2.558-1.059ZM6.788,4.617a2.173,2.173,0,0,1,2.17-2.17h21.7a2.173,2.173,0,0,1,2.17,2.17v6.844a5.013,5.013,0,0,0-1.447.846V8.235A1.448,1.448,0,0,0,29.94,6.788H9.682A1.448,1.448,0,0,0,8.235,8.235v21.7a1.446,1.446,0,0,0,.837,1.307,21.153,21.153,0,0,1-1.113,2.691.618.618,0,0,1-1.171-.276ZM12.576,44.41H5.341V42.963h7.235Zm.6-3.816-.369.922h-7.7L4.345,39.61a11.839,11.839,0,0,1-.684-2.443L2.535,30.415a6.736,6.736,0,0,1-.088-1.078A6.51,6.51,0,0,1,4.367,24.7l.974-.975v9.934a2.065,2.065,0,0,0,3.912.924,22.7,22.7,0,0,0,1.715-4.635l.543-2.169a.972.972,0,0,1,1.912.161l.566,7.359q.034.451.034.906a11.766,11.766,0,0,1-.844,4.385Zm-.726-15a2.416,2.416,0,0,0-2.347,1.833l-.424,1.7V8.235H29.94v5.488l-2.806,2.806a2.757,2.757,0,0,0,.229,4.112L25.705,22.3,24.29,25.836a1.938,1.938,0,0,0,2.518,2.518L29.94,27.1V29.94H15.027l-.162-2.107A2.431,2.431,0,0,0,12.453,25.6Zm14.133-1.607,2.066,2.066-2.381.953a.5.5,0,0,1-.672-.454.478.478,0,0,1,.035-.182Zm6.247,12.459a2.173,2.173,0,0,1-2.17,2.17H15.245a13.226,13.226,0,0,0,.225-2.413q0-.509-.039-1.017l-.292-3.806h14.8a1.448,1.448,0,0,0,1.447-1.447V25.9l1.447-1.447ZM29.94,25.3,27.345,22.7l2.743-2.742a2.506,2.506,0,0,0,.377.284l2.83,1.7Zm14.47-4.041h-.117L40.854,22.4a5.909,5.909,0,0,1-4.871-.535L31.21,19.006a1.124,1.124,0,0,1,.577-2.089,4.333,4.333,0,0,1,2.7.948l2.434,1.946h3.871V18.364H38.921L42,15.288l2.172,1.629h.241Z" transform="translate(-1 -1)"/>
        <path id="Trazado_919393" data-name="Trazado 919393" d="M32.364,13H15v4.341H32.364Zm-1.447,2.894H16.447V14.447h14.47Z" transform="translate(-4.871 -4.318)"/>
        <path id="Trazado_919394" data-name="Trazado 919394" d="M21,21h9.405v1.447H21Z" transform="translate(-6.53 -6.53)"/>
        <path id="Trazado_919395" data-name="Trazado 919395" d="M32,25h1.447v1.447H32Z" transform="translate(-9.572 -7.636)"/>
        <path id="Trazado_919396" data-name="Trazado 919396" d="M21,25h6.511v1.447H21Z" transform="translate(-6.53 -7.636)"/>
        <path id="Trazado_919397" data-name="Trazado 919397" d="M21,29h9.405v1.447H21Z" transform="translate(-6.53 -8.742)"/>
        <path id="Trazado_919398" data-name="Trazado 919398" d="M21,33h7.958v1.447H21Z" transform="translate(-6.53 -9.848)"/>
        <path id="Trazado_919399" data-name="Trazado 919399" d="M21,37h7.958v1.447H21Z" transform="translate(-6.53 -10.954)"/>
      </g>
    </g>
  </g>
</svg>
