<svg xmlns="http://www.w3.org/2000/svg" width="77" height="77" viewBox="0 0 77 77">
  <g id="Grupo_1121371" data-name="Grupo 1121371" transform="translate(-4190 4202)">
    <g id="Grupo_1098742" data-name="Grupo 1098742" transform="translate(4190 -4202)">
      <rect id="Rect치ngulo_400898" data-name="Rect치ngulo 400898" width="77" height="77" rx="38.5" transform="translate(0 0)" fill="#ccda2d"/>
      <rect id="Rect치ngulo_400907" data-name="Rect치ngulo 400907" width="77" height="77" rx="38.5" transform="translate(0 0)" fill="none"/>
    </g>
    <g id="Grupo_1121370" data-name="Grupo 1121370" transform="translate(4194.001 -4196.993)">
      <g id="Grupo_1121369" data-name="Grupo 1121369" transform="translate(9.714 9.63)">
        <g id="Grupo_1121366" data-name="Grupo 1121366" transform="translate(0 0)">
          <path id="Trazado_919400" data-name="Trazado 919400" d="M22.808,15.222c-3.006,6.673-10.18,16.683-4.955,23.024a6.189,6.189,0,0,0,9.909,0C33.048,31.831,25.465,21.119,22.808,15.222Z" transform="translate(-16 -15.222)" fill="#4fc0e8" fill-rule="evenodd"/>
        </g>
        <g id="Grupo_1121367" data-name="Grupo 1121367" transform="translate(9.038 4.721)">
          <path id="Trazado_919401" data-name="Trazado 919401" d="M111.919,61.413c-3.3,7.334-11.189,18.338-5.446,25.307a6.8,6.8,0,0,0,10.892,0C123.175,79.669,114.839,67.9,111.919,61.413Z" transform="translate(-104.436 -61.413)" fill="#66d4f1" fill-rule="evenodd"/>
        </g>
        <g id="Grupo_1121368" data-name="Grupo 1121368" transform="translate(16.346 4.983)">
          <path id="Trazado_919402" data-name="Trazado 919402" d="M0,0H2.93V5.656H0Z" transform="translate(15.984 18.064) rotate(-45)" fill="#cad0d7" fill-rule="evenodd"/>
          <circle id="Elipse_11916" data-name="Elipse 11916" cx="10.486" cy="10.486" r="10.486" fill="#e4e8eb"/>
          <circle id="Elipse_11917" data-name="Elipse 11917" cx="7.992" cy="7.992" r="7.992" transform="matrix(0.987, -0.16, 0.16, 0.987, 1.313, 3.88)" fill="#a4d4ff"/>
          <path id="Trazado_919403" data-name="Trazado 919403" d="M363.468,253.085l1.583-1.583a1.349,1.349,0,0,1,1.9,0l7.276,7.276a1.349,1.349,0,0,1,0,1.9l-1.583,1.583a1.349,1.349,0,0,1-1.9,0l-7.276-7.276A1.349,1.349,0,0,1,363.468,253.085Z" transform="translate(-343.95 -231.985)" fill="#a9b0bb" fill-rule="evenodd"/>
        </g>
      </g>
      <path id="Trazado_919404" data-name="Trazado 919404" d="M31.343,24.2l1.872,3.744a.716.716,0,0,0,1.062.258l6.69-4.89a.716.716,0,0,0-.844-1.156l-6.006,4.391-1.493-2.987a.716.716,0,0,0-1.28.64Zm-2.074.979a7.277,7.277,0,1,1,7.277,7.276,7.284,7.284,0,0,1-7.277-7.276Zm-1.431,0a8.707,8.707,0,1,1,8.707,8.707A8.717,8.717,0,0,1,27.839,25.177ZM25.858,38.845a.785.785,0,0,0,.095.006.715.715,0,0,0,.093-1.424,2.247,2.247,0,0,1-1.38-.884c-.864-1.048-1.1-2.535-.719-4.546a.715.715,0,1,0-1.406-.265c-.457,2.419-.114,4.345,1.021,5.721A3.633,3.633,0,0,0,25.858,38.845Zm-9.688-6.86a.715.715,0,1,0,.188-1.418,1.986,1.986,0,0,1-1.214-.781c-.773-.938-.982-2.274-.641-4.083a.715.715,0,1,0-1.406-.265c-.42,2.221-.1,3.99.942,5.258a3.369,3.369,0,0,0,2.13,1.29Zm-4.05.292c-1.732-2.1-2.125-4.86-1.2-8.431a49.481,49.481,0,0,1,4.209-9.731c.493-.95.969-1.867,1.4-2.743.373.745.79,1.539,1.222,2.361a59.878,59.878,0,0,1,3.841,8.341c-1.961,4-3.69,8.293-3.542,12.192A5.483,5.483,0,0,1,12.119,32.277Zm7.887-2.326a54.453,54.453,0,0,1,4.632-10.71c.567-1.092,1.112-2.142,1.6-3.142.387.778.821,1.608,1.272,2.466a11.194,11.194,0,0,0,5.283,17.166,7.81,7.81,0,0,1-1.665,3.55,6.089,6.089,0,0,1-9.788,0c-1.919-2.328-2.356-5.38-1.335-9.329Zm6.77-4.774a9.77,9.77,0,1,1,9.77,9.77,9.781,9.781,0,0,1-9.77-9.77Zm18.2,7.368a11.24,11.24,0,0,1-1.06,1.06l1.419,1.419,1.06-1.06Zm3.137,1.985a.629.629,0,0,0-.445.184L46.083,36.3a.63.63,0,0,0,0,.89l7.276,7.277a.63.63,0,0,0,.89,0l1.583-1.584a.633.633,0,0,0,0-.89l-7.276-7.276A.628.628,0,0,0,48.112,34.53Zm-37.1-1.343c-4.542-5.512-.448-13.4,2.841-19.731.749-1.442,1.456-2.8,2.013-4.042a.715.715,0,0,1,1.3,0c.481,1.067,1.141,2.323,1.84,3.654a71.347,71.347,0,0,1,3.458,7.248c.3-.588.6-1.167.9-1.735.823-1.586,1.6-3.084,2.215-4.446a.715.715,0,0,1,1.3,0c.435.966,1,2.073,1.62,3.249A11.2,11.2,0,0,1,45.854,31.4l1.762,1.762a2.059,2.059,0,0,1,1.953.54l7.276,7.276a2.064,2.064,0,0,1,0,2.914l-1.583,1.583a2.062,2.062,0,0,1-2.914,0L45.072,38.2a2.059,2.059,0,0,1-.54-1.953L42.77,34.485a11.19,11.19,0,0,1-8.6,1.639,9.331,9.331,0,0,1-1.939,4.068,7.517,7.517,0,0,1-12,0A9.393,9.393,0,0,1,18.2,35.71a6.572,6.572,0,0,1-1.66.215,7.176,7.176,0,0,1-5.52-2.738ZM58.264,52.024,53.4,56.892a3.966,3.966,0,0,1-5.6,0l-1.561-1.56a5.4,5.4,0,0,0-7.627,0l-1.561,1.56a3.966,3.966,0,0,1-5.6,0l-1.561-1.56a5.4,5.4,0,0,0-7.627,0l-1.561,1.56a3.966,3.966,0,0,1-5.6,0L10.22,52.024a.715.715,0,1,0-1.012,1.011L14.077,57.9a5.4,5.4,0,0,0,7.627,0l1.561-1.56a3.97,3.97,0,0,1,5.6,0l1.561,1.56a5.4,5.4,0,0,0,7.627,0l1.561-1.56a3.97,3.97,0,0,1,5.6,0l1.561,1.56a5.4,5.4,0,0,0,7.627,0l4.869-4.869a.715.715,0,1,0-1.012-1.011ZM9.208,45.719a.715.715,0,0,1,1.012-1.012l4.868,4.869a3.972,3.972,0,0,0,5.6,0l1.561-1.562a5.4,5.4,0,0,1,7.627,0l1.561,1.562a3.972,3.972,0,0,0,5.6,0L38.6,48.014a5.4,5.4,0,0,1,7.627,0l1.561,1.562a3.972,3.972,0,0,0,5.6,0l4.868-4.869a.715.715,0,0,1,1.012,1.012l-4.869,4.869a5.4,5.4,0,0,1-7.627,0L45.22,49.026a3.97,3.97,0,0,0-5.6,0l-1.561,1.562a5.4,5.4,0,0,1-7.627,0l-1.561-1.562a3.97,3.97,0,0,0-5.6,0L21.7,50.587a5.4,5.4,0,0,1-7.627,0Z" fill-rule="evenodd"/>
    </g>
  </g>
</svg>
