<svg xmlns="http://www.w3.org/2000/svg" width="57" height="57" viewBox="0 0 57 57">
  <g id="Grupo_1121482" data-name="Grupo 1121482" transform="translate(-610.051 -11367)">
    <g id="Grupo_1121425" data-name="Grupo 1121425" transform="translate(-10 6244)">
      <circle id="Elipse_11781" data-name="Elipse 11781" cx="28.5" cy="28.5" r="28.5" transform="translate(620.051 5123)" fill="#fff"/>
    </g>
    <g id="Grupo_1121481" data-name="Grupo 1121481" transform="translate(582.362 11362.615)">
      <g id="Grupo_1121480" data-name="Grupo 1121480" transform="translate(38.563 13.711)">
        <circle id="Elipse_11957" data-name="Elipse 11957" cx="0.909" cy="0.909" r="0.909" transform="translate(5.767 8.137)" fill="#ffd062"/>
        <path id="Trazado_919720" data-name="Trazado 919720" d="M103.813,168.81a2.468,2.468,0,0,0-2.5,1.83h4.977a2.4,2.4,0,0,0-2.472-1.83Z" transform="translate(-97.119 -157.302)" fill="#ffd062"/>
        <path id="Trazado_919721" data-name="Trazado 919721" d="M103.813,271.92a2.468,2.468,0,0,0-2.5,1.829h4.977a2.4,2.4,0,0,0-2.472-1.829Z" transform="translate(-97.119 -251.51)" fill="#ffd062"/>
        <circle id="Elipse_11958" data-name="Elipse 11958" cx="0.909" cy="0.909" r="0.909" transform="translate(5.767 17.04)" fill="#ffd062"/>
        <path id="Trazado_919722" data-name="Trazado 919722" d="M389.98,35.52v1.758h1.759Z" transform="translate(-360.866 -35.52)" fill="#ffd062"/>
        <path id="Trazado_919723" data-name="Trazado 919723" d="M52.809,346.607v3.951A1.042,1.042,0,0,0,53.85,351.6H86.942a1.042,1.042,0,0,0,1.041-1.041v-4.1a.733.733,0,0,1,0-.076H52.77a.678.678,0,0,1,.039.227Zm15.966,1.714h3.244a.691.691,0,1,1,0,1.381H68.774a.691.691,0,1,1,0-1.381Z" transform="translate(-52.77 -319.541)" fill="#ffd062"/>
        <rect id="Rectángulo_405654" data-name="Rectángulo 405654" width="26.729" height="1.868" rx="0.18" transform="translate(4.262 37.424)" fill="#ffd062"/>
      </g>
      <path id="Trazado_919724" data-name="Trazado 919724" d="M306.424,209.87h-8.16a.6.6,0,1,0,0,1.209h8.16a.6.6,0,1,0,0-1.209Z" transform="translate(-237.954 -181.106)"/>
      <path id="Trazado_919725" data-name="Trazado 919725" d="M299.861,170.379a.6.6,0,0,0,0-1.209H295.9a.6.6,0,1,0,0,1.209Z" transform="translate(-235.798 -143.92)"/>
      <path id="Trazado_919726" data-name="Trazado 919726" d="M85.062,121.733h6.512a.691.691,0,0,0,.691-.691,3.7,3.7,0,0,0-2.181-3.525,2.291,2.291,0,1,0-3.527.007,3.7,3.7,0,0,0-2.186,3.518.69.69,0,0,0,.691.691Zm3.256-6.582a.909.909,0,1,1-.909.909A.91.91,0,0,1,88.317,115.151Zm.017,3.371a2.4,2.4,0,0,1,2.472,1.83H85.83a2.469,2.469,0,0,1,2.5-1.83Z" transform="translate(-43.079 -93.303)"/>
      <path id="Trazado_919727" data-name="Trazado 919727" d="M303.651,231.81h-3.957a.6.6,0,1,0,0,1.209h3.957a.6.6,0,0,0,0-1.209Z" transform="translate(-239.261 -201.152)"/>
      <path id="Trazado_919728" data-name="Trazado 919728" d="M85.062,224.843h6.512a.691.691,0,0,0,.691-.691,3.7,3.7,0,0,0-2.181-3.525,2.291,2.291,0,1,0-3.527.007,3.7,3.7,0,0,0-2.186,3.518.69.69,0,0,0,.691.691Zm3.256-6.582a.909.909,0,1,1-.909.909A.91.91,0,0,1,88.317,218.261Zm.017,3.371a2.4,2.4,0,0,1,2.472,1.83H85.83a2.469,2.469,0,0,1,2.5-1.83Z" transform="translate(-43.079 -187.511)"/>
      <path id="Trazado_919729" data-name="Trazado 919729" d="M75.158,20.324A2.426,2.426,0,0,0,72.735,17.9H71.5V16.073a.473.473,0,0,0,0-.06c0-.015,0-.029-.007-.044a.077.077,0,0,0,0-.014q-.005-.026-.013-.052a.006.006,0,0,0,0-.005c-.005-.017-.012-.035-.018-.052a0,0,0,0,0,0,0c-.007-.016-.015-.033-.022-.048l0-.005a.375.375,0,0,0-.027-.044.022.022,0,0,1,0-.006.553.553,0,0,0-.034-.045l0,0a.509.509,0,0,0-.041-.045L67.5,11.828a.626.626,0,0,0-.094-.078c-.016-.011-.033-.021-.05-.03a.6.6,0,0,0-.109-.045h0c-.018-.005-.037-.01-.056-.014l-.01,0-.048-.007-.056,0H53.1a.6.6,0,0,0-.6.6V17.9H39.643a2.426,2.426,0,0,0-2.423,2.423V40.55h.039a.678.678,0,0,0-.039.227v3.951a2.426,2.426,0,0,0,2.423,2.423H49.736v2.6h-6.9a1.4,1.4,0,0,0-1.4,1.4v1.837a1.4,1.4,0,0,0,1.4,1.4h26.7a1.4,1.4,0,0,0,1.4-1.4V51.151a1.4,1.4,0,0,0-1.4-1.4h-6.9v-2.6H72.734a2.426,2.426,0,0,0,2.423-2.423v-4.1a.734.734,0,0,0,0-.076h0V20.324ZM67.677,13.71l1.759,1.759H67.677Zm-13.968-.855H66.468v3.218a.6.6,0,0,0,.6.6H70.29v19.36H53.709V12.856ZM39.643,19.283H52.5V36.642a.6.6,0,0,0,.6.6h17.79a.6.6,0,0,0,.6-.6V19.283h1.236a1.042,1.042,0,0,1,1.041,1.041V39.169H38.6V20.324a1.042,1.042,0,0,1,1.041-1.041ZM69.537,51.135a.018.018,0,0,1,.016.016v1.837a.018.018,0,0,1-.016.016H42.84a.018.018,0,0,1-.016-.016V51.151a.018.018,0,0,1,.016-.016Zm-18.42-1.381v-2.6H61.26v2.6Zm22.659-9.128v4.1a1.042,1.042,0,0,1-1.041,1.041H39.643A1.042,1.042,0,0,1,38.6,44.728V40.777a.686.686,0,0,0-.039-.227H73.781A.734.734,0,0,0,73.776,40.626Z" transform="translate(0 0)"/>
      <path id="Trazado_919730" data-name="Trazado 919730" d="M230.821,370.241h3.244a.691.691,0,1,0,0-1.381h-3.244a.691.691,0,1,0,0,1.381Z" transform="translate(-176.254 -326.369)"/>
      <path id="Trazado_919731" data-name="Trazado 919731" d="M238.266,150.324h.029a.606.606,0,0,0,.434-.184l1.833-1.894a.6.6,0,0,0-.869-.841l-1.356,1.4-.2-.252a.6.6,0,0,0-.945.755l.63.788a.6.6,0,0,0,.444.226Z" transform="translate(-182.586 -123.867)"/>
      <path id="Trazado_919732" data-name="Trazado 919732" d="M234.486,87.674h.028a.606.606,0,0,0,.434-.184l1.833-1.894a.6.6,0,1,0-.869-.841l-1.356,1.4-.2-.251a.6.6,0,0,0-.945.755l.63.788A.6.6,0,0,0,234.486,87.674Z" transform="translate(-179.133 -66.626)"/>
      <path id="Trazado_919733" data-name="Trazado 919733" d="M243.475,210.055l-1.355,1.4-.2-.252a.6.6,0,1,0-.944.755l.63.788a.6.6,0,0,0,.444.226h.029a.606.606,0,0,0,.434-.184l1.833-1.894a.6.6,0,0,0-.869-.841Z" transform="translate(-186.042 -181.107)"/>
      <path id="Trazado_919734" data-name="Trazado 919734" d="M294.484,148.429h8.16a.6.6,0,1,0,0-1.209h-8.16a.6.6,0,1,0,0,1.209Z" transform="translate(-234.5 -123.865)"/>
      <path id="Trazado_919735" data-name="Trazado 919735" d="M296.081,107.729a.6.6,0,0,0,0-1.209h-3.957a.6.6,0,1,0,0,1.209Z" transform="translate(-232.344 -86.679)"/>
      <path id="Trazado_919736" data-name="Trazado 919736" d="M290.7,82.409h8.16a.6.6,0,1,0,0-1.209H290.7a.6.6,0,1,0,0,1.209Z" transform="translate(-231.047 -63.545)"/>
    </g>
  </g>
</svg>
