<svg xmlns="http://www.w3.org/2000/svg" width="57" height="57" viewBox="0 0 57 57">
  <g id="Grupo_1121538" data-name="Grupo 1121538" transform="translate(-405.051 -11367)">
    <g id="Grupo_1121423" data-name="Grupo 1121423" transform="translate(-215 6244)">
      <circle id="Elipse_11781" data-name="Elipse 11781" cx="28.5" cy="28.5" r="28.5" transform="translate(620.051 5123)" fill="#fff"/>
    </g>
    <g id="Grupo_1121537" data-name="Grupo 1121537" transform="translate(414.031 11375.98)">
      <g id="Grupo_1121483" data-name="Grupo 1121483" transform="translate(18.197 11.162)">
        <path id="Trazado_919737" data-name="Trazado 919737" d="M44.472,25.473A.981.981,0,0,0,43.8,25.2h-.027c-.022-.115-.044-.225-.077-.341a1.644,1.644,0,0,1-.374.115,2.016,2.016,0,0,1-.412.044c-.06,0-.126,0-.187-.005a2.514,2.514,0,0,1-.511-.093,3.041,3.041,0,0,1-.8-.313,2.916,2.916,0,0,1-1.264-1.358.226.226,0,0,0-.39-.049,4.388,4.388,0,0,1-2.171,1.462,5.093,5.093,0,0,1-1.885.258,1.709,1.709,0,0,1-.242-.033c-.093-.011-.176-.027-.258-.044a1.645,1.645,0,0,1-.176-.044c-.077-.027-.148-.049-.214-.077-.044.159-.088.313-.121.478h-.022a1.031,1.031,0,0,0-.715.3,5.764,5.764,0,0,1-2.391-3.221,2.58,2.58,0,0,1,2.924-3.259,16.9,16.9,0,0,0,2.545.489,9.225,9.225,0,0,0,2.7-.555,3.641,3.641,0,0,1,2.418-.148A2.984,2.984,0,0,1,44.126,21a1.025,1.025,0,0,1,1.066.747c.572,1.385-.231,2.962-.72,3.726Z" transform="translate(-31.453 -18.654)" fill="#0e9c9c"/>
      </g>
      <g id="Grupo_1121485" data-name="Grupo 1121485" transform="translate(16.299 26.852)">
        <g id="Grupo_1121484" data-name="Grupo 1121484">
          <path id="Trazado_919738" data-name="Trazado 919738" d="M47.374,54.23a1.779,1.779,0,0,1-1.786,1.786h-15.8A1.786,1.786,0,0,1,28,54.23l.005-.989a4.848,4.848,0,0,1,1.9-4.413,12.764,12.764,0,0,1,3.7-1.445c.049-.011.632-.143.885-.176l2.583,2.336a.893.893,0,0,0,1.2,0l2.578-2.336c-.005,0-.005-.005-.011-.005.269.033.879.176.923.181a12.639,12.639,0,0,1,3.7,1.445,4.861,4.861,0,0,1,1.9,4.413Z" transform="translate(-28 -47.2)" fill="#e27082"/>
        </g>
      </g>
      <g id="Grupo_1121502" data-name="Grupo 1121502" transform="translate(15.898 10.766)">
        <g id="Grupo_1121501" data-name="Grupo 1121501">
          <g id="Grupo_1121500" data-name="Grupo 1121500">
            <g id="Grupo_1121498" data-name="Grupo 1121498" transform="translate(0 4.441)">
              <g id="Grupo_1121497" data-name="Grupo 1121497">
                <g id="Grupo_1121496" data-name="Grupo 1121496">
                  <g id="Grupo_1121495" data-name="Grupo 1121495">
                    <g id="Grupo_1121494" data-name="Grupo 1121494">
                      <g id="Grupo_1121493" data-name="Grupo 1121493">
                        <g id="Grupo_1121492" data-name="Grupo 1121492">
                          <g id="Grupo_1121489" data-name="Grupo 1121489" transform="translate(0 8.643)">
                            <g id="Grupo_1121487" data-name="Grupo 1121487" transform="translate(0 2.603)">
                              <g id="Grupo_1121486" data-name="Grupo 1121486">
                                <path id="Trazado_919739" data-name="Trazado 919739" d="M45.259,56.1h-15.8A2.186,2.186,0,0,1,27.27,53.9l.005-.989a5.224,5.224,0,0,1,2.056-4.727,13.082,13.082,0,0,1,3.853-1.517l.126-.027c.2-.044.6-.132.8-.159a.406.406,0,0,1,.324.1l2.583,2.336a.489.489,0,0,0,.66,0l2.512-2.275a.405.405,0,0,1,.374-.165c.22.027.594.11.9.176l.055.011a13.525,13.525,0,0,1,3.875,1.522,5.212,5.212,0,0,1,2.056,4.71l.005,1.006A2.186,2.186,0,0,1,45.259,56.1ZM34.041,47.308l-.555.115-.126.027a12.158,12.158,0,0,0-3.529,1.369A4.467,4.467,0,0,0,28.083,52.9l-.005,1.011a1.39,1.39,0,0,0,.4.978,1.363,1.363,0,0,0,.978.407h15.8a1.354,1.354,0,0,0,.978-.407,1.39,1.39,0,0,0,.4-.978l-.005-.989a4.475,4.475,0,0,0-1.748-4.095,12.354,12.354,0,0,0-3.556-1.374l-.055-.011c-.115-.027-.407-.093-.632-.132l-2.435,2.209a1.285,1.285,0,0,1-1.737,0Z" transform="translate(-27.27 -46.475)" fill="#010101"/>
                              </g>
                            </g>
                            <g id="Grupo_1121488" data-name="Grupo 1121488" transform="translate(6.489)">
                              <path id="Trazado_919740" data-name="Trazado 919740" d="M42.662,47.719a1.278,1.278,0,0,1-.868-.335l-2.583-2.336a.405.405,0,0,1,.071-.654,3.109,3.109,0,0,0,1.4-1.511,2.263,2.263,0,0,0,.137-.368,3.615,3.615,0,0,0,.1-.445.4.4,0,0,1,.528-.308,3.636,3.636,0,0,0,2.4.005.4.4,0,0,1,.335.033.407.407,0,0,1,.192.28,3.226,3.226,0,0,0,.61,1.445,3.071,3.071,0,0,0,1.028.868.4.4,0,0,1,.209.308.394.394,0,0,1-.132.346L43.52,47.384a1.242,1.242,0,0,1-.857.335ZM40.14,44.8l2.193,1.984a.489.489,0,0,0,.66,0L45.174,44.8a3.736,3.736,0,0,1-.813-.8,3.819,3.819,0,0,1-.467-.8,3.674,3.674,0,0,1-.192-.555,4.425,4.425,0,0,1-2.078,0c-.005.027-.016.055-.022.077a2.365,2.365,0,0,1-.176.478A3.893,3.893,0,0,1,40.14,44.8Z" transform="translate(-39.077 -41.739)" fill="#010101"/>
                            </g>
                          </g>
                          <g id="Grupo_1121491" data-name="Grupo 1121491" transform="translate(3.963)">
                            <g id="Grupo_1121490" data-name="Grupo 1121490">
                              <path id="Trazado_919741" data-name="Trazado 919741" d="M40.592,35.7a5.211,5.211,0,0,1-4.809-4,1.871,1.871,0,0,1-.06-3.545c.022-.077.038-.154.066-.225A.407.407,0,0,1,36,27.677a.415.415,0,0,1,.324-.011,3.821,3.821,0,0,0,2.5-.077,3.99,3.99,0,0,0,1.968-1.314.626.626,0,0,1,1.088.126,2.538,2.538,0,0,0,1.094,1.16,2.265,2.265,0,0,0,1.913.242.419.419,0,0,1,.335.005.409.409,0,0,1,.214.253c.005.027.016.055.022.082a1.871,1.871,0,0,1-.06,3.545,5.2,5.2,0,0,1-4.8,4.007ZM36.107,30.9a.4.4,0,0,1,.385.313,4.45,4.45,0,0,0,4.1,3.671,4.456,4.456,0,0,0,4.1-3.671.406.406,0,0,1,.467-.3c.027-.005.06-.005.088-.011a.944.944,0,0,0,.649-.989c0-.544-.341-1-.742-1a.451.451,0,0,1-.39-.231,3.259,3.259,0,0,1-2.187-.418,3.412,3.412,0,0,1-1.314-1.292,5.377,5.377,0,0,1-4.8,1.572.129.129,0,0,1-.011.044.406.406,0,0,1-.4.324.915.915,0,0,0-.769,1c0,.539.341.995.747.995.027,0,.055-.005.077-.005Z" transform="translate(-34.48 -26.014)" fill="#010101"/>
                            </g>
                          </g>
                        </g>
                      </g>
                    </g>
                  </g>
                </g>
              </g>
            </g>
            <g id="Grupo_1121499" data-name="Grupo 1121499" transform="translate(1.906)">
              <path id="Trazado_919742" data-name="Trazado 919742" d="M33.635,25.582a.368.368,0,0,1-.209-.06,6.185,6.185,0,0,1-2.567-3.446,2.949,2.949,0,0,1,.632-2.809A2.982,2.982,0,0,1,34.24,18.3c.335.06.654.137.962.22a6.973,6.973,0,0,0,1.522.269,5.877,5.877,0,0,0,1.968-.368c.2-.06.407-.121.616-.176l.148-.038a3.837,3.837,0,0,1,2.5-.1,3.369,3.369,0,0,1,2.171,2.187,1.453,1.453,0,0,1,1.121.978c.632,1.539-.2,3.226-.758,4.095a.4.4,0,0,1-.291.181.391.391,0,0,1-.324-.1.6.6,0,0,0-.4-.165.445.445,0,0,1-.39-.236h-.005a2.619,2.619,0,0,1-.709.044,2.668,2.668,0,0,1-.594-.11,3.264,3.264,0,0,1-.879-.352,3.412,3.412,0,0,1-1.314-1.292,5,5,0,0,1-2.193,1.38,5.263,5.263,0,0,1-2.039.275,1.689,1.689,0,0,1-.291-.038,2.1,2.1,0,0,1-.275-.049h-.011c-.006.016-.006.033-.011.049a.4.4,0,0,1-.4.33.615.615,0,0,0-.451.192.382.382,0,0,1-.28.115Zm.088-6.518a2.183,2.183,0,0,0-1.632.736,2.155,2.155,0,0,0-.462,2.045,5.443,5.443,0,0,0,1.984,2.836,1.356,1.356,0,0,1,.423-.176c.022-.077.038-.148.06-.225a.391.391,0,0,1,.209-.247.415.415,0,0,1,.324-.016c.06.022.126.049.2.071l.115.027c.093.022.159.033.236.044a1.307,1.307,0,0,0,.225.027,4.635,4.635,0,0,0,1.731-.236,4.033,4.033,0,0,0,1.973-1.314.621.621,0,0,1,.577-.253.642.642,0,0,1,.511.385,2.575,2.575,0,0,0,1.094,1.165,2.617,2.617,0,0,0,.687.269,1.882,1.882,0,0,0,.445.082c.055.005.11.005.159.005a1.821,1.821,0,0,0,.335-.033,1.147,1.147,0,0,0,.264-.077.409.409,0,0,1,.572.253c.005.027.016.055.022.082a1.188,1.188,0,0,1,.236.077,3.647,3.647,0,0,0,.489-3.012c-.2-.473-.462-.517-.665-.5a.388.388,0,0,1-.423-.324,2.57,2.57,0,0,0-1.7-1.885,3.054,3.054,0,0,0-2.039.115l-.148.044c-.2.055-.4.115-.6.17a7.353,7.353,0,0,1-2.215.4,7.5,7.5,0,0,1-1.7-.291c-.291-.077-.588-.148-.9-.2a1.489,1.489,0,0,0-.379-.044Z" transform="translate(-30.738 -17.933)" fill="#010101"/>
            </g>
          </g>
        </g>
      </g>
      <g id="Grupo_1121536" data-name="Grupo 1121536" transform="translate(2.02 2.02)">
        <g id="Grupo_1121503" data-name="Grupo 1121503" transform="translate(3.083 23.628)">
          <path id="Trazado_919743" data-name="Trazado 919743" d="M11.274,45.768v2.138a.76.76,0,0,1-.758.758H8.388a.76.76,0,0,1-.758-.758V45.768a.76.76,0,0,1,.758-.758h2.133A.755.755,0,0,1,11.274,45.768Z" transform="translate(-7.63 -45.01)" fill="#f7b319"/>
        </g>
        <g id="Grupo_1121504" data-name="Grupo 1121504" transform="translate(3.083 16.862)">
          <path id="Trazado_919744" data-name="Trazado 919744" d="M11.274,33.458V35.6a.76.76,0,0,1-.758.758H8.388A.76.76,0,0,1,7.63,35.6V33.458a.76.76,0,0,1,.758-.758h2.133A.755.755,0,0,1,11.274,33.458Z" transform="translate(-7.63 -32.7)" fill="#f7b319"/>
        </g>
        <g id="Grupo_1121505" data-name="Grupo 1121505" transform="translate(3.083 10.097)">
          <path id="Trazado_919745" data-name="Trazado 919745" d="M11.274,21.148v2.138a.76.76,0,0,1-.758.758H8.388a.76.76,0,0,1-.758-.758V21.148a.76.76,0,0,1,.758-.758h2.133A.752.752,0,0,1,11.274,21.148Z" transform="translate(-7.63 -20.39)" fill="#f7b319"/>
        </g>
        <g id="Grupo_1121506" data-name="Grupo 1121506" transform="translate(3.083 3.325)">
          <path id="Trazado_919746" data-name="Trazado 919746" d="M11.274,8.828v2.138a.76.76,0,0,1-.758.758H8.388a.76.76,0,0,1-.758-.758V8.828a.76.76,0,0,1,.758-.758h2.133A.755.755,0,0,1,11.274,8.828Z" transform="translate(-7.63 -8.07)" fill="#f7b319"/>
        </g>
        <g id="Grupo_1121507" data-name="Grupo 1121507">
          <path id="Trazado_919747" data-name="Trazado 919747" d="M14.178,32.387H4.032A2.013,2.013,0,0,1,2.02,30.375V4.032A2.013,2.013,0,0,1,4.032,2.02H24.379A2.013,2.013,0,0,1,26.39,4.032V9.379a.4.4,0,1,1-.8,0V4.032a1.213,1.213,0,0,0-1.209-1.209H4.032A1.209,1.209,0,0,0,2.822,4.032V30.375a1.213,1.213,0,0,0,1.209,1.209H14.178a.4.4,0,0,1,0,.8Z" transform="translate(-2.02 -2.02)" fill="#010101"/>
        </g>
        <g id="Grupo_1121514" data-name="Grupo 1121514" transform="translate(2.682 22.986)">
          <g id="Grupo_1121510" data-name="Grupo 1121510">
            <g id="Grupo_1121508" data-name="Grupo 1121508" transform="translate(0 0.24)">
              <path id="Trazado_919748" data-name="Trazado 919748" d="M10.187,48.737H8.06a1.163,1.163,0,0,1-1.16-1.16V45.44a1.163,1.163,0,0,1,1.16-1.16h2.133a1.163,1.163,0,0,1,1.16,1.16v2.138A1.165,1.165,0,0,1,10.187,48.737ZM8.06,45.088a.357.357,0,0,0-.357.357v2.138a.357.357,0,0,0,.357.357h2.133a.357.357,0,0,0,.357-.357V45.445a.357.357,0,0,0-.357-.357Z" transform="translate(-6.9 -44.28)" fill="#010101"/>
            </g>
            <g id="Grupo_1121509" data-name="Grupo 1121509" transform="translate(1.309)">
              <path id="Trazado_919749" data-name="Trazado 919749" d="M10.463,46.957a.916.916,0,0,1-.643-.264L9.4,46.276a.4.4,0,0,1,0-.566.4.4,0,0,1,.566,0l.423.418a.116.116,0,0,0,.143,0L12.7,43.962a.4.4,0,0,1,.566,0,.4.4,0,0,1,0,.566L11.1,46.694A.884.884,0,0,1,10.463,46.957Z" transform="translate(-9.283 -43.842)" fill="#010101"/>
            </g>
          </g>
          <g id="Grupo_1121513" data-name="Grupo 1121513" transform="translate(6.502 1.444)">
            <g id="Grupo_1121511" data-name="Grupo 1121511" transform="translate(0 2.451)">
              <path id="Trazado_919750" data-name="Trazado 919750" d="M22.346,51.732H19.131a.4.4,0,1,1,0-.8h3.215a.4.4,0,1,1,0,.8Z" transform="translate(-18.73 -50.93)" fill="#010101"/>
            </g>
            <g id="Grupo_1121512" data-name="Grupo 1121512" transform="translate(0)">
              <path id="Trazado_919751" data-name="Trazado 919751" d="M24.342,47.272h-5.21a.4.4,0,0,1,0-.8h5.21a.4.4,0,1,1,0,.8Z" transform="translate(-18.73 -46.47)" fill="#010101"/>
            </g>
          </g>
        </g>
        <g id="Grupo_1121521" data-name="Grupo 1121521" transform="translate(2.682 16.221)">
          <g id="Grupo_1121517" data-name="Grupo 1121517">
            <g id="Grupo_1121515" data-name="Grupo 1121515" transform="translate(0 0.24)">
              <path id="Trazado_919752" data-name="Trazado 919752" d="M10.187,36.427H8.06a1.163,1.163,0,0,1-1.16-1.16V33.13a1.163,1.163,0,0,1,1.16-1.16h2.133a1.163,1.163,0,0,1,1.16,1.16v2.138A1.165,1.165,0,0,1,10.187,36.427ZM8.06,32.772a.357.357,0,0,0-.357.357v2.138a.357.357,0,0,0,.357.357h2.133a.357.357,0,0,0,.357-.357V33.13a.357.357,0,0,0-.357-.357Z" transform="translate(-6.9 -31.97)" fill="#010101"/>
            </g>
            <g id="Grupo_1121516" data-name="Grupo 1121516" transform="translate(1.309)">
              <path id="Trazado_919753" data-name="Trazado 919753" d="M10.463,34.647a.906.906,0,0,1-.643-.264L9.4,33.966a.4.4,0,0,1,.566-.566l.418.418a.087.087,0,0,0,.143,0l2.166-2.166a.4.4,0,0,1,.566,0,.4.4,0,0,1,0,.566l-2.166,2.166A.854.854,0,0,1,10.463,34.647Z" transform="translate(-9.283 -31.533)" fill="#010101"/>
            </g>
          </g>
          <g id="Grupo_1121520" data-name="Grupo 1121520" transform="translate(6.497 1.444)">
            <g id="Grupo_1121518" data-name="Grupo 1121518" transform="translate(0 2.451)">
              <path id="Trazado_919754" data-name="Trazado 919754" d="M27.448,39.422H19.121a.4.4,0,1,1,0-.8h8.327a.4.4,0,1,1,0,.8Z" transform="translate(-18.72 -38.62)" fill="#010101"/>
            </g>
            <g id="Grupo_1121519" data-name="Grupo 1121519" transform="translate(0)">
              <path id="Trazado_919755" data-name="Trazado 919755" d="M25.766,34.962H19.121a.4.4,0,0,1,0-.8h6.645a.4.4,0,0,1,0,.8Z" transform="translate(-18.72 -34.16)" fill="#010101"/>
            </g>
          </g>
        </g>
        <g id="Grupo_1121528" data-name="Grupo 1121528" transform="translate(2.682 9.455)">
          <g id="Grupo_1121524" data-name="Grupo 1121524">
            <g id="Grupo_1121522" data-name="Grupo 1121522" transform="translate(0 0.235)">
              <path id="Trazado_919756" data-name="Trazado 919756" d="M10.187,24.107H8.06a1.163,1.163,0,0,1-1.16-1.16V20.81a1.163,1.163,0,0,1,1.16-1.16h2.133a1.163,1.163,0,0,1,1.16,1.16v2.138A1.161,1.161,0,0,1,10.187,24.107ZM8.06,20.458a.357.357,0,0,0-.357.357v2.138a.357.357,0,0,0,.357.357h2.133a.357.357,0,0,0,.357-.357V20.815a.357.357,0,0,0-.357-.357Z" transform="translate(-6.9 -19.65)" fill="#010101"/>
            </g>
            <g id="Grupo_1121523" data-name="Grupo 1121523" transform="translate(1.309)">
              <path id="Trazado_919757" data-name="Trazado 919757" d="M10.463,22.337a.916.916,0,0,1-.643-.264L9.4,21.656a.4.4,0,0,1,0-.566.4.4,0,0,1,.566,0l.418.418a.116.116,0,0,0,.143,0l2.166-2.166a.4.4,0,0,1,.566,0,.4.4,0,0,1,0,.566l-2.155,2.16A.889.889,0,0,1,10.463,22.337Z" transform="translate(-9.283 -19.222)" fill="#010101"/>
            </g>
          </g>
          <g id="Grupo_1121527" data-name="Grupo 1121527" transform="translate(6.497 1.444)">
            <g id="Grupo_1121525" data-name="Grupo 1121525" transform="translate(0 2.446)">
              <path id="Trazado_919758" data-name="Trazado 919758" d="M23.9,27.1H19.121a.4.4,0,0,1,0-.8H23.9a.4.4,0,1,1,0,.8Z" transform="translate(-18.72 -26.3)" fill="#010101"/>
            </g>
            <g id="Grupo_1121526" data-name="Grupo 1121526">
              <path id="Trazado_919759" data-name="Trazado 919759" d="M23.639,22.652H19.121a.4.4,0,0,1,0-.8h4.518a.4.4,0,0,1,0,.8Z" transform="translate(-18.72 -21.85)" fill="#010101"/>
            </g>
          </g>
        </g>
        <g id="Grupo_1121535" data-name="Grupo 1121535" transform="translate(2.682 2.684)">
          <g id="Grupo_1121531" data-name="Grupo 1121531">
            <g id="Grupo_1121529" data-name="Grupo 1121529" transform="translate(0 0.24)">
              <path id="Trazado_919760" data-name="Trazado 919760" d="M10.187,11.8H8.06a1.163,1.163,0,0,1-1.16-1.16V8.5A1.163,1.163,0,0,1,8.06,7.34h2.133a1.163,1.163,0,0,1,1.16,1.16v2.138A1.161,1.161,0,0,1,10.187,11.8ZM8.06,8.148a.357.357,0,0,0-.357.357v2.138A.357.357,0,0,0,8.06,11h2.133a.357.357,0,0,0,.357-.357V8.5a.357.357,0,0,0-.357-.357H8.06Z" transform="translate(-6.9 -7.34)" fill="#010101"/>
            </g>
            <g id="Grupo_1121530" data-name="Grupo 1121530" transform="translate(1.309)">
              <path id="Trazado_919761" data-name="Trazado 919761" d="M10.463,10.017a.916.916,0,0,1-.643-.264L9.4,9.336a.4.4,0,0,1,0-.566.4.4,0,0,1,.566,0l.418.418a.116.116,0,0,0,.143,0l2.166-2.166a.4.4,0,1,1,.566.566L11.095,9.754A.863.863,0,0,1,10.463,10.017Z" transform="translate(-9.283 -6.903)" fill="#010101"/>
            </g>
          </g>
          <g id="Grupo_1121534" data-name="Grupo 1121534" transform="translate(6.497 1.45)">
            <g id="Grupo_1121532" data-name="Grupo 1121532" transform="translate(0 2.446)">
              <path id="Trazado_919762" data-name="Trazado 919762" d="M30.828,14.792H19.121a.4.4,0,0,1,0-.8h11.7a.4.4,0,0,1,.4.4A.4.4,0,0,1,30.828,14.792Z" transform="translate(-18.72 -13.99)" fill="#010101"/>
            </g>
            <g id="Grupo_1121533" data-name="Grupo 1121533">
              <path id="Trazado_919763" data-name="Trazado 919763" d="M27.448,10.342H19.121a.4.4,0,0,1,0-.8h8.327a.4.4,0,0,1,0,.8Z" transform="translate(-18.72 -9.54)" fill="#010101"/>
            </g>
          </g>
        </g>
      </g>
    </g>
  </g>
</svg>
