<svg xmlns="http://www.w3.org/2000/svg" width="57" height="57" viewBox="0 0 57 57">
  <g id="Grupo_1121429" data-name="Grupo 1121429" transform="translate(-191.051 -11271)">
    <g id="Grupo_1121421" data-name="Grupo 1121421" transform="translate(-429 6148)">
      <circle id="Elipse_11781" data-name="Elipse 11781" cx="28.5" cy="28.5" r="28.5" transform="translate(620.051 5123)" fill="#fff"/>
    </g>
    <g id="Grupo_1121428" data-name="Grupo 1121428" transform="translate(197.531 11277.832)">
      <circle id="Elipse_11940" data-name="Elipse 11940" cx="2.174" cy="2.174" r="2.174" transform="translate(7.118 20.253)" fill="#ffb69f"/>
      <circle id="Elipse_11941" data-name="Elipse 11941" cx="2.174" cy="2.174" r="2.174" transform="translate(15.588 20.253)" fill="#ffb69f"/>
      <path id="Trazado_919594" data-name="Trazado 919594" d="M130.805,148.676h2.859a2.805,2.805,0,0,1,2.805,2.805v11.286H128V151.481A2.805,2.805,0,0,1,130.805,148.676Z" transform="translate(-106.004 -124.075)" fill="#72c1e8"/>
      <circle id="Elipse_11942" data-name="Elipse 11942" cx="2.174" cy="2.174" r="2.174" transform="translate(24.057 20.253)" fill="#ffb69f"/>
      <path id="Trazado_919595" data-name="Trazado 919595" d="M191.193,148.676h2.859a2.805,2.805,0,0,1,2.805,2.805v11.286h-8.469V151.481A2.805,2.805,0,0,1,191.193,148.676Z" transform="translate(-157.922 -124.075)" fill="#fc5d3d"/>
      <circle id="Elipse_11943" data-name="Elipse 11943" cx="2.174" cy="2.174" r="2.174" transform="translate(32.526 20.253)" fill="#ffb69f"/>
      <path id="Trazado_919596" data-name="Trazado 919596" d="M12.9,148.676H10.037a2.805,2.805,0,0,0-2.805,2.805v11.286H15.7V151.481a2.805,2.805,0,0,0-2.805-2.805Z" transform="translate(-2.174 -124.075)" fill="#fc5d3d"/>
      <circle id="Elipse_11944" data-name="Elipse 11944" cx="2.174" cy="2.174" r="2.174" transform="translate(7.118 27.991)" fill="#ffb69f"/>
      <path id="Trazado_919597" data-name="Trazado 919597" d="M73.281,148.676H70.422a2.805,2.805,0,0,0-2.805,2.805v11.286h8.469V151.481A2.805,2.805,0,0,0,73.281,148.676Z" transform="translate(-54.09 -124.075)" fill="#72c1e8"/>
      <circle id="Elipse_11945" data-name="Elipse 11945" cx="2.174" cy="2.174" r="2.174" transform="translate(15.588 27.991)" fill="#ffb69f"/>
      <path id="Trazado_919598" data-name="Trazado 919598" d="M130.805,203.85h2.859a2.805,2.805,0,0,1,2.805,2.805V210.2H128v-3.547A2.805,2.805,0,0,1,130.805,203.85Z" transform="translate(-106.004 -171.511)" fill="#fc5d3d"/>
      <circle id="Elipse_11946" data-name="Elipse 11946" cx="2.174" cy="2.174" r="2.174" transform="translate(24.057 27.991)" fill="#ffb69f"/>
      <path id="Trazado_919599" data-name="Trazado 919599" d="M191.193,203.85h2.859a2.805,2.805,0,0,1,2.805,2.805V210.2h-8.469v-3.547A2.805,2.805,0,0,1,191.193,203.85Z" transform="translate(-157.922 -171.511)" fill="#72c1e8"/>
      <circle id="Elipse_11947" data-name="Elipse 11947" cx="2.174" cy="2.174" r="2.174" transform="translate(32.526 27.991)" fill="#ffb69f"/>
      <path id="Trazado_919600" data-name="Trazado 919600" d="M41.164,6.864H10.891a1.4,1.4,0,0,0-1.4,1.4v8.412a1.4,1.4,0,0,0,1.4,1.4H24.163a.7.7,0,0,1,.659.463l1.2,3.341,1.205-3.341a.7.7,0,0,1,.659-.463H41.163a1.4,1.4,0,0,0,1.4-1.4V8.267a1.4,1.4,0,0,0-1.4-1.4Z" transform="translate(-4.114 -2.153)" fill="#f0c020"/>
      <path id="Trazado_919601" data-name="Trazado 919601" d="M55.159,48.85h3.015v3.015H55.159Z" transform="translate(-43.379 -38.25)" fill="#fc5d3d"/>
      <path id="Trazado_919602" data-name="Trazado 919602" d="M96.409,36.85h3.015v4.7H96.409Z" transform="translate(-78.844 -27.933)" fill="#fc5d3d"/>
      <path id="Trazado_919603" data-name="Trazado 919603" d="M137.659,48.85h3.015v3.015h-3.015Z" transform="translate(-114.308 -38.25)" fill="#72c1e8"/>
      <path id="Trazado_919604" data-name="Trazado 919604" d="M178.909,27.35h3.015v6.031h-3.015Z" transform="translate(-149.773 -19.766)" fill="#72c1e8"/>
      <path id="Trazado_919605" data-name="Trazado 919605" d="M107.253,158.642a.351.351,0,0,1-.351-.351v-.364a1.053,1.053,0,0,0-1.052-1.052.351.351,0,1,1,0-.7,1.755,1.755,0,0,1,1.753,1.753v.364A.351.351,0,0,1,107.253,158.642Z" transform="translate(-86.66 -130.522)" fill="#c5e5ff"/>
      <path id="Trazado_919606" data-name="Trazado 919606" d="M167.641,215.6a.351.351,0,0,1-.351-.351v-.281a.351.351,0,0,1,.7,0v.281A.351.351,0,0,1,167.641,215.6Zm0-1.683a.351.351,0,0,1-.351-.351v-.461a1.053,1.053,0,0,0-1.052-1.052.351.351,0,1,1,0-.7,1.755,1.755,0,0,1,1.753,1.753v.461a.351.351,0,0,1-.351.35Z" transform="translate(-138.578 -177.961)" fill="#ffcbc2"/>
      <path id="Trazado_919607" data-name="Trazado 919607" d="M218.781,21.173a.351.351,0,0,1-.351-.351V20.54a.351.351,0,1,1,.7,0v.283A.351.351,0,0,1,218.781,21.173Zm0-1.826a.351.351,0,0,1-.351-.351V15.135a.07.07,0,0,0-.07-.07h-1.929a.351.351,0,0,1,0-.7h1.929a.772.772,0,0,1,.771.771V19a.351.351,0,0,1-.351.351Z" transform="translate(-181.731 -8.601)" fill="#f9e5af"/>
      <path id="Trazado_919608" data-name="Trazado 919608" d="M165.822,119.015a.351.351,0,0,0,.039.492s0,0,0,0a.351.351,0,1,0,.454-.534A.362.362,0,0,0,165.822,119.015Z" transform="translate(-138.45 -98.471)"/>
      <path id="Trazado_919609" data-name="Trazado 919609" d="M36.425,119.507a2.525,2.525,0,1,0-3.45,0,3.145,3.145,0,0,0-2.511,1.7,3.162,3.162,0,0,0-2.51-1.7,2.525,2.525,0,0,0,.739-2.392.356.356,0,0,0-.418-.265.35.35,0,0,0-.266.418,1.823,1.823,0,1,1-1.778-1.422c.036,0,.073,0,.109,0a.351.351,0,1,0,.041-.7c-.053,0-.1,0-.15,0a2.52,2.52,0,0,0-1.725,4.362A3.162,3.162,0,0,0,22,121.2a3.146,3.146,0,0,0-2.511-1.7,2.525,2.525,0,1,0-3.45,0,3.145,3.145,0,0,0-2.511,1.7,3.163,3.163,0,0,0-2.509-1.7,2.525,2.525,0,1,0-3.45,0A3.161,3.161,0,0,0,4.7,122.649v11.285a.351.351,0,0,0,.7,0v-3.547a2.464,2.464,0,0,1,2.454-2.454h2.864a2.464,2.464,0,0,1,2.454,2.454v3.547a.351.351,0,0,0,.7,0v-3.547a2.464,2.464,0,0,1,2.454-2.454h2.858a2.464,2.464,0,0,1,2.454,2.454v3.547a.351.351,0,0,0,.7,0v-3.547a2.464,2.464,0,0,1,2.454-2.454h2.86a2.464,2.464,0,0,1,2.454,2.454v3.547a.351.351,0,0,0,.7,0v-3.547a2.464,2.464,0,0,1,2.454-2.454h2.858a2.463,2.463,0,0,1,2.454,2.454v3.547a.351.351,0,0,0,.7,0V122.648a3.153,3.153,0,0,0-2.86-3.141Zm-3.548-1.838a1.823,1.823,0,1,1,1.823,1.823,1.823,1.823,0,0,1-1.823-1.823Zm-16.939,0a1.823,1.823,0,1,1,1.823,1.823,1.823,1.823,0,0,1-1.823-1.823Zm-8.469,0a1.823,1.823,0,1,1,1.823,1.823,1.823,1.823,0,0,1-1.823-1.823Zm1.823,9.562a1.823,1.823,0,1,1,1.823-1.823,1.823,1.823,0,0,1-1.823,1.823Zm1.725.014a2.525,2.525,0,1,0-3.451,0,3.154,3.154,0,0,0-2.158,1.162v-5.758a2.464,2.464,0,0,1,2.454-2.454h2.86a2.464,2.464,0,0,1,2.454,2.454v5.758a3.154,3.154,0,0,0-2.159-1.162Zm6.744-.014a1.823,1.823,0,1,1,1.823-1.823,1.823,1.823,0,0,1-1.823,1.823Zm1.725.014a2.525,2.525,0,1,0-3.451,0,3.134,3.134,0,0,0-2.158,1.159v-5.755a2.464,2.464,0,0,1,2.454-2.454h2.86a2.464,2.464,0,0,1,2.454,2.454V128.4a3.134,3.134,0,0,0-2.158-1.159Zm6.744-.014a1.823,1.823,0,1,1,1.823-1.823,1.823,1.823,0,0,1-1.823,1.823Zm1.725.014a2.525,2.525,0,1,0-3.451,0,3.154,3.154,0,0,0-2.159,1.162v-5.758a2.464,2.464,0,0,1,2.454-2.454h2.86a2.464,2.464,0,0,1,2.454,2.454v5.758a3.154,3.154,0,0,0-2.157-1.162Zm6.744-.014a1.823,1.823,0,1,1,1.823-1.823,1.823,1.823,0,0,1-1.823,1.823Zm1.725.014a2.525,2.525,0,1,0-3.451,0,3.153,3.153,0,0,0-2.158,1.161v-5.757a2.464,2.464,0,0,1,2.454-2.454h2.858a2.464,2.464,0,0,1,2.454,2.454v5.758a3.153,3.153,0,0,0-2.155-1.161Z" transform="translate(0 -95.242)"/>
      <path id="Trazado_919610" data-name="Trazado 919610" d="M8.743,16.279H22.015a.351.351,0,0,1,.33.231l1.2,3.341a.351.351,0,0,0,.659,0l1.2-3.341a.351.351,0,0,1,.33-.231H36.295a.351.351,0,1,0,0-.7H25.743a1.054,1.054,0,0,0-.989.694L23.879,18.7,23,16.272a1.054,1.054,0,0,0-.989-.694H8.743a1.055,1.055,0,0,1-1.052-1.052V6.113A1.056,1.056,0,0,1,8.743,5.061H39.016a1.056,1.056,0,0,1,1.052,1.052v8.412a1.052,1.052,0,0,1-.989,1.051.351.351,0,1,0,.042.7,1.754,1.754,0,0,0,1.648-1.75V6.113A1.756,1.756,0,0,0,39.016,4.36H8.743A1.756,1.756,0,0,0,6.99,6.113v8.412a1.756,1.756,0,0,0,1.753,1.753Z" transform="translate(-1.966)"/>
      <circle id="Elipse_11948" data-name="Elipse 11948" cx="0.351" cy="0.351" r="0.351" transform="translate(35.38 15.578)"/>
      <path id="Trazado_919611" data-name="Trazado 919611" d="M29.356,25.551a.351.351,0,0,0,0-.7h-.965a.351.351,0,0,0-.351.351v6.031a.351.351,0,0,0,.351.351H55.563a.351.351,0,1,0,0-.7h-3V25.2a.351.351,0,0,0-.351-.351H49.2a.351.351,0,0,0-.351.351v5.68H46.781V28.216a.351.351,0,0,0-.351-.351H43.415a.351.351,0,0,0-.351.351v2.665H41V26.533a.351.351,0,0,0-.351-.351H37.629a.351.351,0,0,0-.351.351v4.348H35.21V28.216a.351.351,0,0,0-.351-.351H31.844a.351.351,0,0,0-.351.351v2.665H28.741V28.567h.614a.351.351,0,0,0,0-.7h-.614V25.551Zm20.2,0h2.314v5.33H49.551Zm-5.785,3.015h2.314v2.314H43.765ZM37.98,26.884h2.314v4H37.98Zm-5.785,1.683h2.314v2.314H32.194Z" transform="translate(-20.064 -17.616)"/>
    </g>
  </g>
</svg>
