<svg xmlns="http://www.w3.org/2000/svg" width="57" height="57" viewBox="0 0 57 57">
  <g id="Grupo_1121479" data-name="Grupo 1121479" transform="translate(-195.051 -11367)">
    <g id="Grupo_1121420" data-name="Grupo 1121420" transform="translate(-425 6244)">
      <circle id="Elipse_11781" data-name="Elipse 11781" cx="28.5" cy="28.5" r="28.5" transform="translate(620.051 5123)" fill="#fff"/>
    </g>
    <g id="Grupo_1121478" data-name="Grupo 1121478" transform="translate(168.418 11374.812)">
      <g id="Grupo_1121476" data-name="Grupo 1121476" transform="translate(38.663 0.596)">
        <g id="Grupo_1121474" data-name="Grupo 1121474" transform="translate(0)">
          <g id="Grupo_1121469" data-name="Grupo 1121469">
            <g id="Grupo_1121463" data-name="Grupo 1121463">
              <g id="Grupo_1121462" data-name="Grupo 1121462">
                <g id="Grupo_1121448" data-name="Grupo 1121448" transform="translate(0 1.911)">
                  <path id="Trazado_919696" data-name="Trazado 919696" d="M65.238,62.2a6.856,6.856,0,0,1,7.552-6.818V33.557a2.018,2.018,0,0,0-2.018-2.018H47.585a2.018,2.018,0,0,0-2.018,2.018v31.89a2.018,2.018,0,0,0,2.018,2.018H67.7a6.841,6.841,0,0,1-2.466-5.26Z" transform="translate(-45.567 -31.539)" fill="#e2dee2"/>
                </g>
                <g id="Grupo_1121451" data-name="Grupo 1121451" transform="translate(0 1.911)">
                  <g id="Grupo_1121449" data-name="Grupo 1121449" transform="translate(21.816)">
                    <path id="Trazado_919697" data-name="Trazado 919697" d="M324.708,55.351a6.893,6.893,0,0,1,.7.035V33.557a2.018,2.018,0,0,0-2.018-2.018H320V57.232A6.827,6.827,0,0,1,324.708,55.351Z" transform="translate(-320 -31.539)" fill="#cbc4cc"/>
                  </g>
                  <g id="Grupo_1121450" data-name="Grupo 1121450" transform="translate(0 30.404)">
                    <path id="Trazado_919698" data-name="Trazado 919698" d="M65.237,414.262c0-.088,0-.175.007-.262H45.566v3.5a2.018,2.018,0,0,0,2.018,2.018H67.7a6.841,6.841,0,0,1-2.466-5.26Z" transform="translate(-45.566 -414)" fill="#cbc4cc"/>
                  </g>
                </g>
                <g id="Grupo_1121454" data-name="Grupo 1121454" transform="translate(29.802 1.911)">
                  <g id="Grupo_1121452" data-name="Grupo 1121452" transform="translate(0 2.637)">
                    <path id="Trazado_919699" data-name="Trazado 919699" d="M421.542,82.787a1.086,1.086,0,0,1-1.086-1.086V64.714h2.172V81.7A1.086,1.086,0,0,1,421.542,82.787Z" transform="translate(-420.456 -64.714)" fill="#26a6fe"/>
                  </g>
                  <g id="Grupo_1121453" data-name="Grupo 1121453" transform="translate(0)">
                    <path id="Trazado_919700" data-name="Trazado 919700" d="M422.24,31.538h-1.4a.388.388,0,0,0-.388.388v2.249h2.172V31.926A.388.388,0,0,0,422.24,31.538Z" transform="translate(-420.456 -31.538)" fill="#0593fc"/>
                  </g>
                </g>
                <g id="Grupo_1121455" data-name="Grupo 1121455" transform="translate(10.558)">
                  <path id="Trazado_919701" data-name="Trazado 919701" d="M184.484,12.464v-1.91a3.054,3.054,0,0,0-6.108,0v1.91Z" transform="translate(-178.376 -7.5)" fill="#ffd15b"/>
                </g>
                <g id="Grupo_1121456" data-name="Grupo 1121456" transform="translate(12.444)">
                  <path id="Trazado_919702" data-name="Trazado 919702" d="M203.275,7.5a3.044,3.044,0,0,0-1.168.232,3.055,3.055,0,0,1,1.886,2.822v1.91h2.335v-1.91A3.054,3.054,0,0,0,203.275,7.5Z" transform="translate(-202.107 -7.5)" fill="#ffc344"/>
                </g>
                <g id="Grupo_1121457" data-name="Grupo 1121457" transform="translate(2.973 4.884)">
                  <path id="Trazado_919703" data-name="Trazado 919703" d="M99.659,96.625a6.864,6.864,0,0,1,4.58-6.464V69.336a.4.4,0,0,0-.4-.4H83.364a.4.4,0,0,0-.4.4V98.509a.4.4,0,0,0,.4.4h16.689A6.82,6.82,0,0,1,99.659,96.625Z" transform="translate(-82.96 -68.932)" fill="#fff"/>
                </g>
                <g id="Grupo_1121460" data-name="Grupo 1121460" transform="translate(2.973 4.884)">
                  <g id="Grupo_1121458" data-name="Grupo 1121458" transform="translate(18.843)">
                    <path id="Trazado_919704" data-name="Trazado 919704" d="M322.435,90.161V69.336a.4.4,0,0,0-.4-.4H320v22.72A6.861,6.861,0,0,1,322.435,90.161Z" transform="translate(-320 -68.932)" fill="#f3f0f3"/>
                  </g>
                  <g id="Grupo_1121459" data-name="Grupo 1121459" transform="translate(0 27.431)">
                    <path id="Trazado_919705" data-name="Trazado 919705" d="M99.659,414.262c0-.088,0-.175.007-.262H82.96v2.146a.4.4,0,0,0,.4.4h16.689A6.819,6.819,0,0,1,99.659,414.262Z" transform="translate(-82.96 -414)" fill="#f3f0f3"/>
                  </g>
                </g>
                <g id="Grupo_1121461" data-name="Grupo 1121461" transform="translate(7.667 4.883)">
                  <path id="Trazado_919706" data-name="Trazado 919706" d="M153.092,71.951H142.816a.807.807,0,0,1-.807-.807V68.931H153.9v2.213A.807.807,0,0,1,153.092,71.951Z" transform="translate(-142.009 -68.931)" fill="#ffe177"/>
                </g>
              </g>
            </g>
            <g id="Grupo_1121468" data-name="Grupo 1121468" transform="translate(5.864 10.379)">
              <g id="Grupo_1121464" data-name="Grupo 1121464" transform="translate(0)">
                <path id="Trazado_919707" data-name="Trazado 919707" d="M134.707,140.9H119.329v-2.44a.4.4,0,0,1,.4-.4H134.31a.4.4,0,0,1,.4.4Z" transform="translate(-119.329 -138.067)" fill="#fe646f"/>
              </g>
              <g id="Grupo_1121465" data-name="Grupo 1121465" transform="translate(0 2.837)">
                <path id="Trazado_919708" data-name="Trazado 919708" d="M119.329,173.755h5.126v8.086h-4.729a.4.4,0,0,1-.4-.4Z" transform="translate(-119.329 -173.755)" fill="#d8ecfe"/>
              </g>
              <g id="Grupo_1121466" data-name="Grupo 1121466" transform="translate(5.126 2.837)">
                <path id="Trazado_919709" data-name="Trazado 919709" d="M183.811,173.755h5.126v8.086h-5.126Z" transform="translate(-183.811 -173.755)" fill="#eaf6ff"/>
              </g>
              <g id="Grupo_1121467" data-name="Grupo 1121467" transform="translate(10.252 2.837)">
                <path id="Trazado_919710" data-name="Trazado 919710" d="M248.294,173.755h5.126v7.688a.4.4,0,0,1-.4.4h-4.729Z" transform="translate(-248.294 -173.755)" fill="#d8ecfe"/>
              </g>
            </g>
          </g>
          <g id="Grupo_1121473" data-name="Grupo 1121473" transform="translate(19.592 25.644)">
            <g id="Grupo_1121472" data-name="Grupo 1121472">
              <g id="Grupo_1121470" data-name="Grupo 1121470">
                <circle id="Elipse_11956" data-name="Elipse 11956" cx="6.932" cy="6.932" r="6.932" fill="#d8ecfe"/>
              </g>
              <g id="Grupo_1121471" data-name="Grupo 1121471" transform="translate(1.697 0.632)">
                <path id="Trazado_919711" data-name="Trazado 919711" d="M321.5,338.038a6.934,6.934,0,0,1-8.13,10.845,6.933,6.933,0,1,0,8.13-10.845Z" transform="translate(-313.372 -338.038)" fill="#c4e2ff"/>
              </g>
            </g>
          </g>
        </g>
        <g id="Grupo_1121475" data-name="Grupo 1121475" transform="translate(7.667 4.883)">
          <path id="Trazado_919712" data-name="Trazado 919712" d="M151.548,68.931v.708a.807.807,0,0,1-.807.807h-8.732v.7a.807.807,0,0,0,.807.807h10.276a.807.807,0,0,0,.807-.807V68.931Z" transform="translate(-142.009 -68.931)" fill="#ffd15b"/>
        </g>
      </g>
      <g id="Grupo_1121477" data-name="Grupo 1121477" transform="translate(38.067 0)">
        <path id="Trazado_919713" data-name="Trazado 919713" d="M115.455,306.229a.6.6,0,0,0-.813.224l-1.122,1.976-.632-.78a.6.6,0,1,0-.926.751l1.182,1.459a.6.6,0,0,0,.463.221l.049,0a.6.6,0,0,0,.469-.3l1.553-2.736A.6.6,0,0,0,115.455,306.229Z" transform="translate(-105.965 -281.814)"/>
        <path id="Trazado_919714" data-name="Trazado 919714" d="M189.14,323.36h-8.267a.6.6,0,1,0,0,1.192h8.267a.6.6,0,1,0,0-1.192Z" transform="translate(-168.971 -297.655)"/>
        <path id="Trazado_919715" data-name="Trazado 919715" d="M115.455,364.228a.6.6,0,0,0-.813.224l-1.122,1.976-.632-.78a.6.6,0,1,0-.926.751l1.182,1.459a.6.6,0,0,0,.463.221l.049,0a.6.6,0,0,0,.469-.3l1.553-2.736A.6.6,0,0,0,115.455,364.228Z" transform="translate(-105.965 -335.202)"/>
        <path id="Trazado_919716" data-name="Trazado 919716" d="M66.483,25.756V4.525a2.617,2.617,0,0,0-2.614-2.614H55.483a3.649,3.649,0,0,0-6.417,0H40.681a2.617,2.617,0,0,0-2.614,2.614V7.79a.6.6,0,0,0,1.192,0V4.525A1.423,1.423,0,0,1,40.681,3.1h7.985a3.661,3.661,0,0,0-.041.547V4.883H42.039a1,1,0,0,0-1,1V35.056a1,1,0,0,0,1,1H58.233a7.538,7.538,0,0,0,1.048,1.78h-18.6a1.423,1.423,0,0,1-1.421-1.421V10.573a.6.6,0,1,0-1.192,0V36.415a2.617,2.617,0,0,0,2.614,2.614H60.462a7.527,7.527,0,1,0,6.021-13.273ZM49.817,3.65a2.458,2.458,0,1,1,4.916,0V4.883H49.817Zm7.807,2.426V7.692a.211.211,0,0,1-.211.211H47.137a.211.211,0,0,1-.211-.211V6.076ZM42.232,34.864V6.076h3.5V7.692a1.4,1.4,0,0,0,1.4,1.4H57.413a1.4,1.4,0,0,0,1.4-1.4V6.076h3.5V19.238a.6.6,0,1,0,1.192,0V5.883a1,1,0,0,0-1-1H55.925V3.65a3.663,3.663,0,0,0-.041-.547h7.985a1.423,1.423,0,0,1,1.421,1.421v21.12h-.1a7.529,7.529,0,0,0-1.677.188V22.02a.6.6,0,1,0-1.192,0v4.193a7.572,7.572,0,0,0-4.1,4.1H49.968a.6.6,0,1,0,0,1.192h7.876a7.555,7.555,0,0,0,.006,3.355Zm26.624,3.47-.165-.286a.6.6,0,0,0-1.033.6l.166.288a6.285,6.285,0,0,1-2.04.548v-.333a.6.6,0,1,0-1.192,0v.333a6.283,6.283,0,0,1-2.041-.548l.166-.288a.6.6,0,1,0-1.033-.6l-.165.286a6.388,6.388,0,0,1-1.493-1.493l.286-.165a.6.6,0,1,0-.6-1.033l-.288.166a6.283,6.283,0,0,1-.548-2.041h.333a.6.6,0,0,0,0-1.192H58.88a6.282,6.282,0,0,1,.548-2.04l.288.166a.6.6,0,1,0,.6-1.033l-.286-.165a6.387,6.387,0,0,1,1.493-1.493l.165.286a.6.6,0,0,0,1.033-.6l-.166-.288a6.283,6.283,0,0,1,2.041-.548V27.2a.6.6,0,1,0,1.192,0v-.333a6.283,6.283,0,0,1,2.041.548l-.166.288a.6.6,0,1,0,1.033.6l.165-.286A6.387,6.387,0,0,1,70.349,29.5l-.286.165a.6.6,0,1,0,.6,1.033l.288-.166a6.283,6.283,0,0,1,.548,2.04h-.333a.6.6,0,0,0,0,1.192h.333a6.283,6.283,0,0,1-.548,2.041l-.288-.166a.6.6,0,0,0-.6,1.033l.286.165a6.384,6.384,0,0,1-1.493,1.493Z" transform="translate(-38.067 0)"/>
        <path id="Trazado_919717" data-name="Trazado 919717" d="M374.761,375.257h-1.842V372.87a.6.6,0,1,0-1.192,0v2.983a.6.6,0,0,0,.6.6h2.439a.6.6,0,0,0,0-1.192Z" transform="translate(-345.202 -342.68)"/>
        <path id="Trazado_919718" data-name="Trazado 919718" d="M414.042,45.829v.834a.6.6,0,0,0,1.192,0v-.834a1.684,1.684,0,0,0,1.086-1.571v-3.45a.6.6,0,1,0-1.192,0v3.45a.49.49,0,0,1-.979,0V27.868h.979V38.026a.6.6,0,1,0,1.192,0v-13a.985.985,0,0,0-.984-.984h-1.4a.985.985,0,0,0-.984.984V44.258A1.683,1.683,0,0,0,414.042,45.829Zm1.086-20.6v1.445h-.979V25.23Z" transform="translate(-383.154 -22.127)"/>
        <path id="Trazado_919719" data-name="Trazado 919719" d="M112.823,142.682h14.583a1,1,0,0,0,.994-.994V131.561a1,1,0,0,0-.994-.994H112.823a1,1,0,0,0-.994.994v10.128A1,1,0,0,0,112.823,142.682Zm.2-8.086h3.934v6.893h-3.934Zm5.126,0h3.934v6.893h-3.934Zm9.06,6.893h-3.934V134.6h3.934Zm-14.186-9.73h14.186V133.4H113.021Z" transform="translate(-105.965 -120.188)"/>
      </g>
    </g>
  </g>
</svg>
