<svg xmlns="http://www.w3.org/2000/svg" width="57" height="57" viewBox="0 0 57 57">
  <g id="Grupo_1121447" data-name="Grupo 1121447" transform="translate(-607.051 -11264)">
    <g id="Grupo_1121424" data-name="Grupo 1121424" transform="translate(-13 6141)">
      <circle id="Elipse_11781" data-name="Elipse 11781" cx="28.5" cy="28.5" r="28.5" transform="translate(620.051 5123)" fill="#fff"/>
    </g>
    <g id="Grupo_1121446" data-name="Grupo 1121446" transform="translate(621.051 11267.636)">
      <path id="Trazado_919676" data-name="Trazado 919676" d="M29.647,85.454H11.286A3.786,3.786,0,0,1,7.5,81.668V59.083A3.786,3.786,0,0,1,11.286,55.3H29.647a3.786,3.786,0,0,1,3.786,3.786V81.668A3.786,3.786,0,0,1,29.647,85.454Z" transform="translate(-6.987 -43.722)" fill="#c67d66"/>
      <path id="Trazado_919677" data-name="Trazado 919677" d="M12.56,85.454H11.287A3.786,3.786,0,0,1,7.5,81.668V59.083A3.786,3.786,0,0,1,11.287,55.3H12.56a3.786,3.786,0,0,0-3.786,3.786V81.668A3.786,3.786,0,0,0,12.56,85.454Z" transform="translate(-6.988 -43.722)" fill="#aa593d"/>
      <path id="Trazado_919678" data-name="Trazado 919678" d="M70.329,128.835H53.539a1.526,1.526,0,0,1-1.526-1.526V107.08a1.526,1.526,0,0,1,1.526-1.526H70.329a1.526,1.526,0,0,1,1.526,1.526v20.229A1.526,1.526,0,0,1,70.329,128.835Z" transform="translate(-48.455 -90.541)" fill="#dfeaef"/>
      <path id="Trazado_919679" data-name="Trazado 919679" d="M101.656,15.862H91.771a2.425,2.425,0,0,0-2.425,2.425v2.956a2.425,2.425,0,0,0,2.425,2.425h9.885a2.425,2.425,0,0,0,2.425-2.425V18.287A2.425,2.425,0,0,0,101.656,15.862Z" transform="translate(-83.234 -6.985)" fill="#f6e266"/>
      <path id="Trazado_919680" data-name="Trazado 919680" d="M93.679,23.668H91.77a2.424,2.424,0,0,1-2.424-2.424V18.287a2.424,2.424,0,0,1,2.424-2.424h1.909a2.425,2.425,0,0,0-2.424,2.424v2.957A2.424,2.424,0,0,0,93.679,23.668Z" transform="translate(-83.234 -6.986)" fill="#ecc32e"/>
      <path id="Trazado_919681" data-name="Trazado 919681" d="M434.261,100.6l.87-1.72a.883.883,0,0,0-.39-1.186l-1.334-.675a.883.883,0,0,0-1.186.39l-.87,1.72" transform="translate(-401.842 -82.499)" fill="#dfeaef"/>
      <path id="Trazado_919682" data-name="Trazado 919682" d="M434.5,97.57a.883.883,0,0,0-1.186.39l-.87,1.72-1.094-.553.87-1.72a.883.883,0,0,1,1.186-.39Z" transform="translate(-401.842 -82.5)" fill="#b4d0d5"/>
      <path id="Trazado_919683" data-name="Trazado 919683" d="M312.922,138.924c-2.973,5.881-6.558,10.056-8.006,9.323s-.212-6.094,2.762-11.975a36.734,36.734,0,0,1,4.636-7.212,1.325,1.325,0,0,1,1.6-.312l1.373.694a1.325,1.325,0,0,1,.7,1.473A36.735,36.735,0,0,1,312.922,138.924Z" transform="translate(-283.492 -112.016)" fill="#80e29d"/>
      <path id="Trazado_919684" data-name="Trazado 919684" d="M304.916,148.248c-1.448-.732-.212-6.094,2.762-11.975a36.753,36.753,0,0,1,4.636-7.213,1.326,1.326,0,0,1,1.6-.312l.5.252c-.149-.075-.464.226-.766.733-1.111,1.865-2.557,4.519-4.065,7.5C306.606,143.116,304.518,148.047,304.916,148.248Z" transform="translate(-283.492 -112.016)" fill="#6ec186"/>
      <circle id="Elipse_11954" data-name="Elipse 11954" cx="1.636" cy="1.636" r="1.636" transform="translate(8.659 11.1)" fill="#617881"/>
      <circle id="Elipse_11955" data-name="Elipse 11955" cx="1.636" cy="1.636" r="1.636" transform="translate(15.028 11.1)" fill="#617881"/>
      <path id="Trazado_919685" data-name="Trazado 919685" d="M239.307,167.681a1.685,1.685,0,0,1,.016-.233,1.666,1.666,0,1,1,1.65,1.9.513.513,0,0,0-.513.513v2.278a.513.513,0,0,0,1.026,0v-1.813a2.7,2.7,0,0,0,2.175-2.786,2.692,2.692,0,0,0-5.354-.232,2.728,2.728,0,0,0-.026.375.513.513,0,0,0,1.026,0Z" transform="translate(-221.98 -145.91)"/>
      <path id="Trazado_919686" data-name="Trazado 919686" d="M271.127,287.749a.513.513,0,1,0-.181.617A.516.516,0,0,0,271.127,287.749Z" transform="translate(-251.661 -259.977)"/>
      <path id="Trazado_919687" data-name="Trazado 919687" d="M79.317,173.427h8.907a.513.513,0,1,0,0-1.026H79.317a.513.513,0,1,0,0,1.026Z" transform="translate(-73.413 -152.815)"/>
      <path id="Trazado_919688" data-name="Trazado 919688" d="M79.317,209.3h8.907a.513.513,0,0,0,0-1.026H79.317a.513.513,0,0,0,0,1.026Z" transform="translate(-73.413 -186.234)"/>
      <path id="Trazado_919689" data-name="Trazado 919689" d="M79.317,245.173h8.907a.513.513,0,1,0,0-1.026H79.317a.513.513,0,1,0,0,1.026Z" transform="translate(-73.413 -219.653)"/>
      <path id="Trazado_919690" data-name="Trazado 919690" d="M79.317,281.047h3.272a.513.513,0,1,0,0-1.026H79.317a.513.513,0,1,0,0,1.026Z" transform="translate(-73.413 -253.073)"/>
      <path id="Trazado_919691" data-name="Trazado 919691" d="M163.715,338.481h-1.788a1.621,1.621,0,0,0-1.619,1.619v1.788a1.621,1.621,0,0,0,1.619,1.619h1.788a1.621,1.621,0,0,0,1.619-1.619V340.1A1.621,1.621,0,0,0,163.715,338.481Zm.593,3.407a.593.593,0,0,1-.593.593h-1.788a.593.593,0,0,1-.593-.593V340.1a.593.593,0,0,1,.593-.593h1.788a.593.593,0,0,1,.593.593Z" transform="translate(-149.341 -307.534)"/>
      <path id="Trazado_919692" data-name="Trazado 919692" d="M33.359,17.376l.388-.767a1.4,1.4,0,0,0-.616-1.876L31.8,14.06a1.4,1.4,0,0,0-1.876.616L29.148,16.2a1.829,1.829,0,0,0-.713.5c-.484.557-.978,1.193-1.475,1.891V15.36a4.276,4.276,0,0,0-.7-2.352.513.513,0,0,0-.858.563,3.252,3.252,0,0,1,.532,1.789v4.769c-.69,1.086-1.371,2.277-2.019,3.532V16.538A2.041,2.041,0,0,0,21.875,14.5h-.526c.006-.08.011-.16.011-.241v-2.17h1.3a3.232,3.232,0,0,1,1.413.32.513.513,0,1,0,.445-.925,4.25,4.25,0,0,0-1.858-.422H21.349a2.941,2.941,0,0,0-2.927-2.7H8.537a2.941,2.941,0,0,0-2.927,2.7H4.3A4.3,4.3,0,0,0,0,15.36V29.59a.513.513,0,0,0,1.026,0V15.36A3.276,3.276,0,0,1,4.3,12.088H5.6v2.17c0,.081,0,.162.011.241H5.084a2.041,2.041,0,0,0-2.039,2.039V36.767a2.041,2.041,0,0,0,2.039,2.039H21.875a2.042,2.042,0,0,0,2.039-2.039V35.754a13.637,13.637,0,0,0,1.33-1.369q.341-.4.688-.844v4.4a3.276,3.276,0,0,1-3.272,3.273H4.3a3.277,3.277,0,0,1-3.273-3.273v-6.3a.513.513,0,0,0-1.026,0v6.3a4.3,4.3,0,0,0,4.3,4.3H22.66a4.3,4.3,0,0,0,4.3-4.3V32.133a43.97,43.97,0,0,0,2.929-4.993,37.172,37.172,0,0,0,3.1-8.128,1.83,1.83,0,0,0,.027-.655,1.891,1.891,0,0,1,.957,2.058c-.175,1.313-1.626,3.616-2.906,5.648-1.568,2.488-2.522,4.059-2.4,4.979a.513.513,0,1,0,1.017-.139c-.015-.107.013-.473.59-1.545.427-.795,1.025-1.743,1.658-2.748,1.4-2.224,2.851-4.524,3.055-6.059a2.929,2.929,0,0,0-1.632-3.175Zm-2.522-2.238a.37.37,0,0,1,.5-.163l1.334.675a.37.37,0,0,1,.163.5l-.511,1.01a1.849,1.849,0,0,0-.3-.187l-1.373-.694a1.848,1.848,0,0,0-.326-.127ZM6.625,11.3A1.914,1.914,0,0,1,8.537,9.39h9.885A1.914,1.914,0,0,1,20.334,11.3v2.956a1.914,1.914,0,0,1-1.912,1.912H8.537a1.914,1.914,0,0,1-1.912-1.912ZM22.888,36.767a1.014,1.014,0,0,1-1.013,1.013H5.084a1.014,1.014,0,0,1-1.012-1.013V16.538a1.014,1.014,0,0,1,1.012-1.012h.8a2.941,2.941,0,0,0,2.65,1.67h9.885a2.941,2.941,0,0,0,2.65-1.67h.8a1.014,1.014,0,0,1,1.013,1.012v9.234a37.17,37.17,0,0,0-1.98,5.273,1.623,1.623,0,0,0-.557-.1H18.563a1.621,1.621,0,0,0-1.619,1.619v1.788a1.621,1.621,0,0,0,1.619,1.619H20.35a1.613,1.613,0,0,0,.187-.011,1.654,1.654,0,0,0,.229.383l-.113.2a.513.513,0,1,0,.889.513l.131-.228c.039,0,.078.005.117.005a2.3,2.3,0,0,0,1.1-.333v.269ZM20.647,32.06a10.273,10.273,0,0,0-.33,2.886H18.563a.593.593,0,0,1-.593-.593V32.566a.593.593,0,0,1,.593-.593h1.788a.589.589,0,0,1,.3.081v.006Zm3.819,1.656c-1.648,1.919-2.559,2.185-2.81,2.058s-.577-1.019-.009-3.483a27.537,27.537,0,0,1,1.068-3.442l3.89,1.967q-.282.434-.565.842a.513.513,0,0,0-.03.043,25.126,25.126,0,0,1-1.544,2.015Zm7.523-14.93a36.137,36.137,0,0,1-3.017,7.891c-.582,1.152-1.195,2.251-1.817,3.267L23.091,27.89c.449-1.1.97-2.249,1.553-3.4a36.14,36.14,0,0,1,4.566-7.108.811.811,0,0,1,.98-.191l1.373.694a.811.811,0,0,1,.427.9Z"/>
      <path id="Trazado_919693" data-name="Trazado 919693" d="M121.225,45.163a2.149,2.149,0,1,0-2.149-2.149A2.152,2.152,0,0,0,121.225,45.163Zm0-3.272a1.123,1.123,0,1,1-1.123,1.123A1.124,1.124,0,0,1,121.225,41.891Z" transform="translate(-110.93 -30.278)"/>
      <path id="Trazado_919694" data-name="Trazado 919694" d="M214.318,45.163a2.149,2.149,0,1,0-2.149-2.149A2.152,2.152,0,0,0,214.318,45.163Zm0-3.272a1.123,1.123,0,1,1-1.123,1.123A1.124,1.124,0,0,1,214.318,41.891Z" transform="translate(-197.654 -30.278)"/>
      <path id="Trazado_919695" data-name="Trazado 919695" d="M78.075,334.344a.513.513,0,0,0-.724.05l-.261.3a1.608,1.608,0,0,0-.749-.184H74.553a1.621,1.621,0,0,0-1.619,1.619v1.788a1.621,1.621,0,0,0,1.619,1.619h1.788a1.621,1.621,0,0,0,1.619-1.619v-1.788a1.609,1.609,0,0,0-.155-.691l.321-.369A.513.513,0,0,0,78.075,334.344Zm-1.142,3.572a.593.593,0,0,1-.593.593H74.553a.593.593,0,0,1-.593-.593v-1.788a.593.593,0,0,1,.593-.593h1.8l-.858.986-.225-.333a.513.513,0,0,0-.851.574l.6.887a.513.513,0,0,0,.394.225h.031a.513.513,0,0,0,.387-.176l1.1-1.263v1.479Z" transform="translate(-67.945 -303.562)"/>
    </g>
  </g>
</svg>
