<svg xmlns="http://www.w3.org/2000/svg" width="57" height="57" viewBox="0 0 57 57">
  <g id="Grupo_1121445" data-name="Grupo 1121445" transform="translate(-405.051 -11264)">
    <g id="Grupo_1121422" data-name="Grupo 1121422" transform="translate(-215 6141)">
      <circle id="Elipse_11781" data-name="Elipse 11781" cx="28.5" cy="28.5" r="28.5" transform="translate(620.051 5123)" fill="#fff"/>
    </g>
    <g id="Layer_28" transform="translate(397.751 11271)">
      <g id="Grupo_1121444" data-name="Grupo 1121444" transform="translate(17.3)">
        <path id="Trazado_919643" data-name="Trazado 919643" d="M78.733,26.1a6.123,6.123,0,0,1-.771-7.7H64.937a.731.731,0,0,0-.737.737V38.109l3.051,3.051H82.332a.731.731,0,0,0,.737-.737V27.877A6.049,6.049,0,0,1,78.733,26.1Z" transform="translate(-56.162 -15.247)" fill="#edf4fc"/>
        <path id="Trazado_919644" data-name="Trazado 919644" d="M148.982,4.262A6.1,6.1,0,1,0,149,12.9a6.092,6.092,0,0,0-.017-8.638h0Z" transform="translate(-117.791 -2.051)" fill="#87d147"/>
        <path id="Trazado_919645" data-name="Trazado 919645" d="M90.043,40.1H80.411a.417.417,0,0,0-.411.411v1.577a.417.417,0,0,0,.411.411H90.677a6.472,6.472,0,0,1-.634-2.4Z" transform="translate(-69.254 -33.228)" fill="#70d6f9"/>
        <path id="Trazado_919646" data-name="Trazado 919646" d="M163.429,26.292a1.046,1.046,0,0,0-1.457.051l-1.662,1.662-.583-.583a1.03,1.03,0,0,0-1.457,1.457l1.32,1.32a1.045,1.045,0,0,0,1.457,0l2.416-2.416a1.045,1.045,0,0,0,0-1.457c-.017-.017-.034-.017-.034-.034Z" transform="translate(-133.866 -21.562)" fill="#edf4fc"/>
        <g id="Grupo_1121443" data-name="Grupo 1121443" transform="translate(0 28.244)">
          <circle id="Elipse_11949" data-name="Elipse 11949" cx="3.051" cy="3.051" r="3.051" transform="translate(15.921 0.428)" fill="#f9d0b4"/>
          <path id="Trazado_919647" data-name="Trazado 919647" d="M103.132,205.7H99.688a3.789,3.789,0,0,0-3.788,3.788v3.428a.958.958,0,0,0,.96.96h9.1a.958.958,0,0,0,.96-.96v-3.428A3.811,3.811,0,0,0,103.132,205.7Z" transform="translate(-82.429 -198.691)" fill="#5290db"/>
          <circle id="Elipse_11950" data-name="Elipse 11950" cx="3.051" cy="3.051" r="3.051" transform="translate(2.896 0.428)" fill="#f9d0b4"/>
          <path id="Trazado_919648" data-name="Trazado 919648" d="M27.049,205.7H23.588a3.789,3.789,0,0,0-3.788,3.788v3.428a.958.958,0,0,0,.96.96h9.1a.958.958,0,0,0,.96-.96v-3.428A3.774,3.774,0,0,0,27.049,205.7Z" transform="translate(-19.372 -198.691)" fill="#dae6f1"/>
          <circle id="Elipse_11951" data-name="Elipse 11951" cx="3.051" cy="3.051" r="3.051" transform="translate(28.946 0.428)" fill="#f9d0b4"/>
          <path id="Trazado_919649" data-name="Trazado 919649" d="M179.132,205.7h-3.445a3.789,3.789,0,0,0-3.788,3.788v3.428a.958.958,0,0,0,.96.96h9.1a.958.958,0,0,0,.96-.96v-3.428A3.811,3.811,0,0,0,179.132,205.7Z" transform="translate(-145.404 -198.691)" fill="#5b5d60"/>
          <path id="Trazado_919650" data-name="Trazado 919650" d="M111.179,164.8a3.479,3.479,0,1,0,3.479,3.479A3.482,3.482,0,0,0,111.179,164.8Zm0,6.1a2.622,2.622,0,1,1,2.622-2.622A2.622,2.622,0,0,1,111.179,170.9Z" transform="translate(-92.207 -164.8)"/>
          <path id="Trazado_919651" data-name="Trazado 919651" d="M101.061,203.2H97.616a4.213,4.213,0,0,0-4.216,4.216v3.428a1.382,1.382,0,0,0,1.388,1.388h9.1a1.382,1.382,0,0,0,1.388-1.388v-3.428A4.224,4.224,0,0,0,101.061,203.2Zm3.359,7.661a.534.534,0,0,1-.531.531h-9.1a.534.534,0,0,1-.531-.531v-3.428a3.365,3.365,0,0,1,3.359-3.359h3.445a3.365,3.365,0,0,1,3.359,3.359Z" transform="translate(-80.358 -196.619)"/>
          <path id="Trazado_919652" data-name="Trazado 919652" d="M35.179,164.8a3.479,3.479,0,1,0,3.479,3.479A3.482,3.482,0,0,0,35.179,164.8Zm0,6.1a2.622,2.622,0,1,1,2.622-2.622A2.622,2.622,0,0,1,35.179,170.9Z" transform="translate(-29.232 -164.8)"/>
          <path id="Trazado_919653" data-name="Trazado 919653" d="M24.978,203.2H21.516a4.213,4.213,0,0,0-4.216,4.216v3.428a1.382,1.382,0,0,0,1.388,1.388h9.1a1.382,1.382,0,0,0,1.388-1.388v-3.428A4.2,4.2,0,0,0,24.978,203.2Zm3.359,7.661a.534.534,0,0,1-.531.531h-9.1a.534.534,0,0,1-.531-.531v-3.428a3.365,3.365,0,0,1,3.359-3.359h3.445a3.365,3.365,0,0,1,3.359,3.359Z" transform="translate(-17.3 -196.619)"/>
          <path id="Trazado_919654" data-name="Trazado 919654" d="M187.179,164.8a3.479,3.479,0,1,0,3.479,3.479A3.482,3.482,0,0,0,187.179,164.8Zm0,6.1a2.622,2.622,0,1,1,2.622-2.622A2.622,2.622,0,0,1,187.179,170.9Z" transform="translate(-155.182 -164.8)"/>
          <path id="Trazado_919655" data-name="Trazado 919655" d="M177.061,203.2h-3.445a4.213,4.213,0,0,0-4.216,4.216v3.428a1.382,1.382,0,0,0,1.388,1.388h9.1a1.382,1.382,0,0,0,1.388-1.388v-3.428A4.235,4.235,0,0,0,177.061,203.2Zm3.359,7.661a.534.534,0,0,1-.531.531h-9.1a.534.534,0,0,1-.531-.531v-3.428a3.365,3.365,0,0,1,3.359-3.359h3.445a3.365,3.365,0,0,1,3.359,3.359Z" transform="translate(-143.333 -196.619)"/>
        </g>
        <path id="Trazado_919656" data-name="Trazado 919656" d="M64.459,130.9H62.128a.424.424,0,0,0-.428.428.493.493,0,0,0,.12.308l3.068,3.051a.42.42,0,0,0,.72-.308v-2.331A1.148,1.148,0,0,0,64.459,130.9Zm.308,2.451-1.594-1.594h1.285a.307.307,0,0,1,.308.308Z" transform="translate(-54.091 -108.466)"/>
        <path id="Trazado_919657" data-name="Trazado 919657" d="M81.223,25.5a.413.413,0,0,0-.308-.12,5.606,5.606,0,0,1-4.045-1.662,5.684,5.684,0,0,1-.72-7.147.425.425,0,0,0-.12-.6.393.393,0,0,0-.24-.069H62.765A1.167,1.167,0,0,0,61.6,17.065V36.037a.493.493,0,0,0,.12.308L64.8,39.4a.413.413,0,0,0,.308.12H80.195a1.167,1.167,0,0,0,1.165-1.165V25.806a.559.559,0,0,0-.137-.308Zm-.737,12.854a.307.307,0,0,1-.308.308H65.268l-2.811-2.811V17.065a.307.307,0,0,1,.308-.308H75.053a6.539,6.539,0,0,0,1.217,7.558,6.452,6.452,0,0,0,4.216,1.9Z" transform="translate(-54.008 -13.175)"/>
        <path id="Trazado_919658" data-name="Trazado 919658" d="M85.593,79.3H80.228a.428.428,0,0,0,0,.857h5.364a.428.428,0,0,0,0-.857Z" transform="translate(-69.089 -65.709)"/>
        <path id="Trazado_919659" data-name="Trazado 919659" d="M85.593,115.4H80.228a.428.428,0,0,0,0,.857h5.364a.428.428,0,0,0,0-.857Z" transform="translate(-69.089 -95.623)"/>
        <path id="Trazado_919660" data-name="Trazado 919660" d="M85.593,91.3H80.228a.428.428,0,0,0,0,.857h5.364a.428.428,0,0,0,0-.857Z" transform="translate(-69.089 -75.653)"/>
        <path id="Trazado_919661" data-name="Trazado 919661" d="M128.293,79.3h-5.364a.428.428,0,1,0,0,.857h5.364a.424.424,0,0,0,.428-.428A.435.435,0,0,0,128.293,79.3Z" transform="translate(-104.471 -65.709)"/>
        <path id="Trazado_919662" data-name="Trazado 919662" d="M128.293,115.4h-5.364a.428.428,0,0,0,0,.857h5.364a.424.424,0,0,0,.428-.428A.435.435,0,0,0,128.293,115.4Z" transform="translate(-104.471 -95.623)"/>
        <path id="Trazado_919663" data-name="Trazado 919663" d="M128.293,91.3h-5.364a.428.428,0,0,0,0,.857h5.364a.424.424,0,0,0,.428-.428A.435.435,0,0,0,128.293,91.3Z" transform="translate(-104.471 -75.653)"/>
        <path id="Trazado_919664" data-name="Trazado 919664" d="M85.593,67.2H80.228a.428.428,0,0,0,0,.857h5.364a.428.428,0,0,0,0-.857Z" transform="translate(-69.089 -55.683)"/>
        <path id="Trazado_919665" data-name="Trazado 919665" d="M85.593,103.4H80.228a.428.428,0,1,0,0,.857h5.364a.428.428,0,1,0,0-.857Z" transform="translate(-69.089 -85.679)"/>
        <path id="Trazado_919666" data-name="Trazado 919666" d="M96.033,127.5h-3.2a.428.428,0,0,0,0,.857h3.2a.428.428,0,1,0,0-.857Z" transform="translate(-79.529 -105.649)"/>
        <path id="Trazado_919667" data-name="Trazado 919667" d="M128.293,67.2h-5.364a.428.428,0,0,0,0,.857h5.364a.424.424,0,0,0,.428-.428A.435.435,0,0,0,128.293,67.2Z" transform="translate(-104.471 -55.683)"/>
        <path id="Trazado_919668" data-name="Trazado 919668" d="M128.293,103.4h-5.364a.428.428,0,1,0,0,.857h5.364a.424.424,0,0,0,.428-.428A.435.435,0,0,0,128.293,103.4Z" transform="translate(-104.471 -85.679)"/>
        <path id="Trazado_919669" data-name="Trazado 919669" d="M128.293,127.5h-5.364a.428.428,0,0,0,0,.857h5.364a.424.424,0,0,0,.428-.428A.435.435,0,0,0,128.293,127.5Z" transform="translate(-104.471 -105.649)"/>
        <path id="Trazado_919670" data-name="Trazado 919670" d="M147.24,1.919A6.469,6.469,0,0,0,142.63,0a6.539,6.539,0,0,0-6.53,6.53,6.554,6.554,0,0,0,6.53,6.53,6.52,6.52,0,0,0,4.61-11.14Zm-.6,8.62a5.671,5.671,0,0,1-8.038-8l.017-.017a5.671,5.671,0,0,1,8.021,8.021Z" transform="translate(-115.74 0)"/>
        <path id="Trazado_919671" data-name="Trazado 919671" d="M219.414,1.083A1.336,1.336,0,0,1,218.352.038c0-.017-.051-.017-.051,0a1.336,1.336,0,0,1-1.063,1.045c-.017,0-.017.034,0,.051A1.336,1.336,0,0,1,218.3,2.18c0,.017.051.017.051,0a1.336,1.336,0,0,1,1.063-1.045c.017-.017.017-.051,0-.051Z" transform="translate(-182.962 -0.021)" fill="#fc657e"/>
        <path id="Trazado_919672" data-name="Trazado 919672" d="M28.247,106.543h-.411v-.394a.549.549,0,0,0-.531-.548h-.017a.561.561,0,0,0-.548.531v.411h-.394a.549.549,0,0,0-.548.531v.017a.534.534,0,0,0,.514.548h.428v.394a.549.549,0,0,0,.531.548h.017a.561.561,0,0,0,.548-.531v-.411h.394a.549.549,0,0,0,.548-.531v-.017A.561.561,0,0,0,28.247,106.543Z" transform="translate(-24.339 -87.502)" fill="#70d6f9"/>
        <circle id="Elipse_11952" data-name="Elipse 11952" cx="0.583" cy="0.583" r="0.583" transform="translate(35.082 24.079)" fill="#87d147"/>
        <circle id="Elipse_11953" data-name="Elipse 11953" cx="0.583" cy="0.583" r="0.583" transform="translate(3.89 9.597)" fill="#f5c84c"/>
        <path id="Trazado_919673" data-name="Trazado 919673" d="M197.795,88.867a1.9,1.9,0,0,1-1.525-1.491c0-.034-.069-.034-.069,0a1.9,1.9,0,0,1-1.525,1.491c-.034,0-.034.051,0,.069a1.9,1.9,0,0,1,1.525,1.491c0,.034.069.034.069,0a1.9,1.9,0,0,1,1.525-1.491C197.829,88.918,197.829,88.867,197.795,88.867Z" transform="translate(-164.256 -72.38)" fill="#f5c84c"/>
        <path id="Trazado_919674" data-name="Trazado 919674" d="M89,40.239a5.9,5.9,0,0,1-.6-2.228.445.445,0,0,0-.428-.411H78.34a.841.841,0,0,0-.84.84v1.577a.841.841,0,0,0,.84.84H88.606a.424.424,0,0,0,.428-.428A.339.339,0,0,0,89,40.239ZM78.374,40V38.474h9.22A6.413,6.413,0,0,0,87.971,40Z" transform="translate(-67.183 -31.156)"/>
        <path id="Trazado_919675" data-name="Trazado 919675" d="M161.545,23.943a1.475,1.475,0,0,0-2.057.069l-1.371,1.371-.291-.291a1.459,1.459,0,0,0-2.057,0l-.017.017a1.47,1.47,0,0,0,.017,2.039l1.32,1.32a1.458,1.458,0,0,0,2.057,0l2.434-2.434a1.459,1.459,0,0,0,0-2.057Zm-.583,1.491-2.416,2.416a.611.611,0,0,1-.84,0l-1.32-1.32a.611.611,0,0,1-.017-.84.557.557,0,0,1,.428-.189.676.676,0,0,1,.428.171l.583.583a.414.414,0,0,0,.6,0l1.662-1.662a.656.656,0,0,1,.874-.051.626.626,0,0,1,.017.891C160.979,25.417,160.979,25.434,160.962,25.434Z" transform="translate(-131.69 -19.521)"/>
      </g>
    </g>
  </g>
</svg>
