<svg xmlns="http://www.w3.org/2000/svg" width="57" height="57" viewBox="0 0 57 57">
  <g id="Grupo_1121442" data-name="Grupo 1121442" transform="translate(-825.051 -11367)">
    <g id="Grupo_1121427" data-name="Grupo 1121427" transform="translate(205 6244)">
      <circle id="Elipse_11781" data-name="Elipse 11781" cx="28.5" cy="28.5" r="28.5" transform="translate(620.051 5123)" fill="#fff"/>
    </g>
    <g id="Grupo_1121441" data-name="Grupo 1121441" transform="translate(833.983 11375.932)">
      <path id="Trazado_919612" data-name="Trazado 919612" d="M35.918,21.139H61.979V54.893H35.918Z" transform="translate(-30.389 -17.861)" fill="#cecece"/>
      <g id="Grupo_1121430" data-name="Grupo 1121430" transform="translate(5.529 3.278)">
        <path id="Trazado_919613" data-name="Trazado 919613" d="M35.918,21.139H38.2V54.893H35.918Z" transform="translate(-35.918 -21.139)" fill="#afafaf"/>
      </g>
      <g id="Grupo_1121431" data-name="Grupo 1121431" transform="translate(29.305 3.278)">
        <path id="Trazado_919614" data-name="Trazado 919614" d="M192.013,21.139H194.3V54.893h-2.285Z" transform="translate(-192.013 -21.139)" fill="#e2e2e2"/>
      </g>
      <path id="Trazado_919615" data-name="Trazado 919615" d="M193.945,214.644l1.99,4.28,1.991-4.28Z" transform="translate(-164.346 -181.892)" fill="#f46275"/>
      <g id="Grupo_1121432" data-name="Grupo 1121432" transform="translate(30.447 32.752)">
        <path id="Trazado_919616" data-name="Trazado 919616" d="M202.646,214.644h-2.285l-.848,1.824,1.142,2.456Z" transform="translate(-199.513 -214.644)" fill="#f48875"/>
      </g>
      <path id="Trazado_919617" data-name="Trazado 919617" d="M193.945,114.9h3.981v15.193h-3.981Z" transform="translate(-164.346 -97.341)" fill="#63bce7"/>
      <g id="Grupo_1121433" data-name="Grupo 1121433" transform="translate(31.295 17.559)">
        <path id="Trazado_919618" data-name="Trazado 919618" d="M205.082,114.9h2.285v15.193h-2.285Z" transform="translate(-205.082 -114.9)" fill="#63e2e7"/>
      </g>
      <path id="Trazado_919619" data-name="Trazado 919619" d="M196.431,96.867h-.991a1.5,1.5,0,0,0-1.5,1.5v1.252h3.981V98.362A1.5,1.5,0,0,0,196.431,96.867Z" transform="translate(-164.346 -82.055)" fill="#f46275"/>
      <g id="Grupo_1121434" data-name="Grupo 1121434" transform="translate(30.447 14.812)">
        <path id="Trazado_919620" data-name="Trazado 919620" d="M201.151,96.867h-.991a1.486,1.486,0,0,0-.647.149,1.494,1.494,0,0,1,.848,1.346v1.252h2.285V98.362A1.5,1.5,0,0,0,201.151,96.867Z" transform="translate(-199.513 -96.867)" fill="#f48875"/>
      </g>
      <g id="Grupo_1121437" data-name="Grupo 1121437" transform="translate(9.366 0.296)">
        <path id="Trazado_919621" data-name="Trazado 919621" d="M83.563,24.493H70.485a1.447,1.447,0,0,1-1.447-1.447V21.139H85.009v1.907a1.446,1.446,0,0,1-1.447,1.447Z" transform="translate(-67.83 -18.158)" fill="#63bce7"/>
        <path id="Trazado_919622" data-name="Trazado 919622" d="M100.176,1.568H98.117a2.981,2.981,0,0,0-2.981,2.981h8.021a2.981,2.981,0,0,0-2.981-2.981Z" transform="translate(-89.953 -1.568)" fill="#63bce7"/>
        <g id="Grupo_1121435" data-name="Grupo 1121435" transform="translate(0 10.21)">
          <path id="Trazado_919623" data-name="Trazado 919623" d="M61.108,68.6H64.16v3.052H61.108Z" transform="translate(-61.108 -68.599)" fill="#63bce7"/>
          <path id="Trazado_919624" data-name="Trazado 919624" d="M92.564,68.6h13.6v3.052h-13.6Z" transform="translate(-87.773 -68.599)" fill="#63bce7"/>
        </g>
        <g id="Grupo_1121436" data-name="Grupo 1121436" transform="translate(0 16.203)">
          <path id="Trazado_919625" data-name="Trazado 919625" d="M61.108,107.944H64.16V111H61.108Z" transform="translate(-61.108 -107.944)" fill="#63bce7"/>
          <path id="Trazado_919626" data-name="Trazado 919626" d="M92.564,107.944h13.6V111h-13.6Z" transform="translate(-87.773 -107.944)" fill="#63bce7"/>
        </g>
      </g>
      <g id="Grupo_1121438" data-name="Grupo 1121438" transform="translate(9.366 22.492)">
        <path id="Trazado_919627" data-name="Trazado 919627" d="M61.108,147.288H64.16v3.052H61.108Z" transform="translate(-61.108 -147.288)" fill="#f8af23"/>
        <path id="Trazado_919628" data-name="Trazado 919628" d="M92.564,147.288h13.6v3.052h-13.6Z" transform="translate(-87.773 -147.288)" fill="#f8af23"/>
      </g>
      <g id="Grupo_1121439" data-name="Grupo 1121439" transform="translate(9.366 28.485)">
        <path id="Trazado_919629" data-name="Trazado 919629" d="M61.108,186.633H64.16v3.052H61.108Z" transform="translate(-61.108 -186.633)" fill="#f8af23"/>
        <path id="Trazado_919630" data-name="Trazado 919630" d="M92.564,186.633h13.6v3.052h-13.6Z" transform="translate(-87.773 -186.633)" fill="#f8af23"/>
      </g>
      <g id="Grupo_1121440" data-name="Grupo 1121440" transform="translate(0.068 0.068)">
        <path id="Trazado_919631" data-name="Trazado 919631" d="M3.218,252.932H.3a.228.228,0,0,0,0,.457H3.218a.228.228,0,0,0,0-.457Z" transform="translate(-0.068 -214.416)" fill="#3f3679"/>
        <path id="Trazado_919632" data-name="Trazado 919632" d="M236.9,252.932h-2.921a.228.228,0,1,0,0,.457H236.9a.228.228,0,1,0,0-.457Z" transform="translate(-198.159 -214.416)" fill="#3f3679"/>
        <path id="Trazado_919633" data-name="Trazado 919633" d="M59.7,252.932H30.339a.228.228,0,1,0,0,.457H59.7a.228.228,0,1,0,0-.457Z" transform="translate(-25.535 -214.416)" fill="#3f3679"/>
        <path id="Trazado_919634" data-name="Trazado 919634" d="M.3,37.26H38.812a.228.228,0,1,0,0-.457H31.948l1.84-3.955h0a.227.227,0,0,0,.022-.1V16.307a1.726,1.726,0,0,0-1.724-1.724h-.267V3.278a.228.228,0,0,0-.228-.228h-8.8a3.211,3.211,0,0,0-3.2-2.981H17.529a3.211,3.211,0,0,0-3.2,2.981h-8.8a.228.228,0,0,0-.228.228V36.8H.3a.228.228,0,0,0,0,.457Zm31.293-.77-1.632-3.51h3.265Zm1.762-3.967H29.827V17.787h3.524Zm0-16.216v1.023H29.827V16.307a1.268,1.268,0,0,1,1.267-1.267h.991A1.268,1.268,0,0,1,33.352,16.307ZM17.53.525h2.059a2.756,2.756,0,0,1,2.743,2.524H14.786A2.756,2.756,0,0,1,17.53.525ZM14.549,3.506H26.316V5.185A1.219,1.219,0,0,1,25.1,6.4H12.02A1.219,1.219,0,0,1,10.8,5.185V3.506Zm-8.792,0h4.588V5.185A1.677,1.677,0,0,0,12.02,6.86H25.1a1.677,1.677,0,0,0,1.675-1.675V3.506h4.588V14.584h-.267a1.726,1.726,0,0,0-1.724,1.724V32.752a.227.227,0,0,0,.022.1h0L31.231,36.8H5.757Z" transform="translate(-0.068 -0.068)" fill="#3f3679"/>
        <path id="Trazado_919635" data-name="Trazado 919635" d="M104.888,67.1h-13.6a.228.228,0,0,0-.228.228V70.38a.228.228,0,0,0,.228.228h13.6a.228.228,0,0,0,.228-.228V67.327A.228.228,0,0,0,104.888,67.1Zm-.228,3.052H91.521v-2.6H104.66Z" transform="translate(-77.204 -56.889)" fill="#3f3679"/>
        <path id="Trazado_919636" data-name="Trazado 919636" d="M62.889,106.444H59.836a.228.228,0,0,0-.228.228v3.052a.228.228,0,0,0,.228.228h3.052a.228.228,0,0,0,.228-.228v-3.052A.228.228,0,0,0,62.889,106.444ZM62.66,109.5h-2.6v-2.6h2.6Z" transform="translate(-50.539 -90.241)" fill="#3f3679"/>
        <path id="Trazado_919637" data-name="Trazado 919637" d="M104.888,106.444h-13.6a.228.228,0,0,0-.228.228v3.052a.228.228,0,0,0,.228.228h13.6a.228.228,0,0,0,.228-.228v-3.052A.228.228,0,0,0,104.888,106.444Zm-.228,3.052H91.521v-2.6H104.66Z" transform="translate(-77.204 -90.241)" fill="#3f3679"/>
        <path id="Trazado_919638" data-name="Trazado 919638" d="M62.889,145.789H59.836a.228.228,0,0,0-.228.228v3.052a.228.228,0,0,0,.228.228h3.052a.228.228,0,0,0,.228-.228v-3.052A.228.228,0,0,0,62.889,145.789Zm-.228,3.052h-2.6v-2.6h2.6Z" transform="translate(-50.539 -123.593)" fill="#3f3679"/>
        <path id="Trazado_919639" data-name="Trazado 919639" d="M104.888,145.789h-13.6a.228.228,0,0,0-.228.228v3.052a.228.228,0,0,0,.228.228h13.6a.228.228,0,0,0,.228-.228v-3.052A.228.228,0,0,0,104.888,145.789Zm-.228,3.052H91.521v-2.6H104.66Z" transform="translate(-77.204 -123.593)" fill="#3f3679"/>
        <path id="Trazado_919640" data-name="Trazado 919640" d="M62.889,185.133H59.836a.228.228,0,0,0-.228.228v3.052a.228.228,0,0,0,.228.228h3.052a.228.228,0,0,0,.228-.228v-3.052A.228.228,0,0,0,62.889,185.133Zm-.228,3.052h-2.6v-2.6h2.6Z" transform="translate(-50.539 -156.944)" fill="#3f3679"/>
        <path id="Trazado_919641" data-name="Trazado 919641" d="M104.888,185.133h-13.6a.228.228,0,0,0-.228.228v3.052a.228.228,0,0,0,.228.228h13.6a.228.228,0,0,0,.228-.228v-3.052A.228.228,0,0,0,104.888,185.133Zm-.228,3.052H91.521v-2.6H104.66Z" transform="translate(-77.204 -156.944)" fill="#3f3679"/>
        <path id="Trazado_919642" data-name="Trazado 919642" d="M64.558,57.546a.229.229,0,0,0-.324-.323L62.79,58.67H59.836a.228.228,0,0,0-.228.228v3.052a.228.228,0,0,0,.228.228h3.052a.228.228,0,0,0,.228-.228V58.99Zm-1.9,4.177h-2.6v-2.6h2.27l-.977.979-.727-.687a.229.229,0,0,0-.314.332l.888.84a.229.229,0,0,0,.319,0l1.136-1.139Z" transform="translate(-50.539 -48.46)" fill="#3f3679"/>
      </g>
    </g>
  </g>
</svg>
