<svg xmlns="http://www.w3.org/2000/svg" width="210" height="164.427" viewBox="0 0 210 164.427">
  <g id="Grupo_1119435" data-name="Grupo 1119435" transform="translate(-810.051 -4039)">
    <rect id="BG" width="210" height="164.427" transform="translate(810.051 4039)" fill="#f7dbb0" opacity="0.996"/>
    <g id="Grupo_1119434" data-name="Grupo 1119434" transform="translate(829.051 4001.833)">
      <path id="Trazado_916750" data-name="Trazado 916750" d="M25.207,251.486H134.964v68H25.207Z" transform="translate(-16.756 -133.827)" fill="#e7ecf6"/>
      <path id="Trazado_916751" data-name="Trazado 916751" d="M337.48,251.486h5.068v68H337.48Z" transform="translate(-224.34 -133.827)" fill="#d8e2f1"/>
      <path id="Trazado_916752" data-name="Trazado 916752" d="M25.207,164.349H134.964v29.213H25.207Z" transform="translate(-16.756 -75.903)" fill="#365e7d"/>
      <path id="Trazado_916753" data-name="Trazado 916753" d="M337.48,164.349h5.068v29.213H337.48Z" transform="translate(-224.34 -75.903)" fill="#2b4d66"/>
      <path id="Trazado_916754" data-name="Trazado 916754" d="M428.46,293.482H397.572V260.118A12.719,12.719,0,0,1,410.291,247.4h5.451a12.719,12.719,0,0,1,12.719,12.719Z" transform="translate(-264.287 -131.11)" fill="#80b4fb"/>
      <path id="Trazado_916755" data-name="Trazado 916755" d="M439.888,247.4h-5.451c-.181,0-.361.006-.541.014a12.717,12.717,0,0,1,12.178,12.7v33.364h6.533V260.119A12.718,12.718,0,0,0,439.888,247.4Z" transform="translate(-288.433 -131.111)" fill="#61a2f9"/>
      <path id="Trazado_916756" data-name="Trazado 916756" d="M352.6,318.858h15.077v8.556H352.6Z" transform="translate(-234.39 -178.613)" fill="#365e7d"/>
      <path id="Trazado_916757" data-name="Trazado 916757" d="M383.631,318.858H388.3v8.556h-4.674Z" transform="translate(-255.019 -178.613)" fill="#2b4d66"/>
      <path id="Trazado_916758" data-name="Trazado 916758" d="M72.218,392.533H98.689v20.718H72.218Z" transform="translate(-48.007 -227.588)" fill="#d3effb"/>
      <path id="Trazado_916759" data-name="Trazado 916759" d="M226.628,392.533H253.1v20.718H226.628Z" transform="translate(-150.651 -227.588)" fill="#d3effb"/>
      <path id="Trazado_916760" data-name="Trazado 916760" d="M132.989,392.533h6.1v20.718h-6.1Z" transform="translate(-88.405 -227.588)" fill="#b1e4f9"/>
      <path id="Trazado_916761" data-name="Trazado 916761" d="M287.4,392.533h6.1v20.718h-6.1Z" transform="translate(-191.05 -227.588)" fill="#b1e4f9"/>
      <g id="Grupo_1119426" data-name="Grupo 1119426" transform="translate(8.451 117.659)">
        <path id="Trazado_916762" data-name="Trazado 916762" d="M25.207,251.486H43.5v20.3H25.207Z" transform="translate(-25.207 -251.486)" fill="#d3effb"/>
        <path id="Trazado_916763" data-name="Trazado 916763" d="M64.655,251.486h5.068v20.3H64.655Z" transform="translate(-51.43 -251.486)" fill="#b1e4f9"/>
      </g>
      <g id="Grupo_1119427" data-name="Grupo 1119427" transform="translate(26.743 117.659)">
        <path id="Trazado_916764" data-name="Trazado 916764" d="M79.772,251.486H98.065v20.3H79.772Z" transform="translate(-79.772 -251.486)" fill="#d3effb"/>
        <path id="Trazado_916765" data-name="Trazado 916765" d="M119.22,251.486h5.068v20.3H119.22Z" transform="translate(-105.995 -251.486)" fill="#b1e4f9"/>
      </g>
      <g id="Grupo_1119428" data-name="Grupo 1119428" transform="translate(45.037 117.659)">
        <path id="Trazado_916766" data-name="Trazado 916766" d="M134.338,251.486h18.293v20.3H134.338Z" transform="translate(-134.338 -251.486)" fill="#d3effb"/>
        <path id="Trazado_916767" data-name="Trazado 916767" d="M173.785,251.486h5.068v20.3h-5.068Z" transform="translate(-160.56 -251.486)" fill="#b1e4f9"/>
      </g>
      <g id="Grupo_1119429" data-name="Grupo 1119429" transform="translate(63.329 117.659)">
        <path id="Trazado_916768" data-name="Trazado 916768" d="M188.9,251.486H207.2v20.3H188.9Z" transform="translate(-188.903 -251.486)" fill="#d3effb"/>
        <path id="Trazado_916769" data-name="Trazado 916769" d="M228.35,251.486h5.068v20.3H228.35Z" transform="translate(-215.125 -251.486)" fill="#b1e4f9"/>
      </g>
      <g id="Grupo_1119430" data-name="Grupo 1119430" transform="translate(81.622 117.659)">
        <path id="Trazado_916770" data-name="Trazado 916770" d="M243.468,251.486h18.293v20.3H243.468Z" transform="translate(-243.468 -251.486)" fill="#d3effb"/>
        <path id="Trazado_916771" data-name="Trazado 916771" d="M282.915,251.486h5.068v20.3h-5.068Z" transform="translate(-269.69 -251.486)" fill="#b1e4f9"/>
      </g>
      <g id="Grupo_1119431" data-name="Grupo 1119431" transform="translate(99.915 117.659)">
        <path id="Trazado_916772" data-name="Trazado 916772" d="M298.033,251.486h18.293v20.3H298.033Z" transform="translate(-298.033 -251.486)" fill="#d3effb"/>
        <path id="Trazado_916773" data-name="Trazado 916773" d="M337.48,251.486h5.068v20.3H337.48Z" transform="translate(-324.255 -251.486)" fill="#b1e4f9"/>
      </g>
      <path id="Trazado_916774" data-name="Trazado 916774" d="M148.882,93.433H67.445V61.385a3.717,3.717,0,0,1,3.717-3.717h74a3.717,3.717,0,0,1,3.717,3.717Z" transform="translate(-44.834 -4.986)" fill="#80b4fb"/>
      <path id="Trazado_916775" data-name="Trazado 916775" d="M287.184,57.668h-6.1a3.717,3.717,0,0,1,3.717,3.717V93.433h6.1V61.385A3.717,3.717,0,0,0,287.184,57.668Z" transform="translate(-186.852 -4.986)" fill="#61a2f9"/>
      <g id="Grupo_1119432" data-name="Grupo 1119432" transform="translate(37.655 67.84)">
        <path id="Trazado_916776" data-name="Trazado 916776" d="M119.3,114.574h-4.733a1.54,1.54,0,0,1-1.536-1.433l-.713-10.26h9.231l-.713,10.26A1.54,1.54,0,0,1,119.3,114.574Z" transform="translate(-112.32 -102.882)" fill="#e7ecf6"/>
      </g>
      <g id="Grupo_1119433" data-name="Grupo 1119433" transform="translate(0 50.167)">
        <path id="Trazado_916777" data-name="Trazado 916777" d="M169.133,183.149h-5.3V164.886h3.75a2.514,2.514,0,1,0,0-5.029h-.894V148.686a2.514,2.514,0,1,0-5.029,0v11.171H135.8v-30.85A10.216,10.216,0,0,1,146,118.8h5.451a10.216,10.216,0,0,1,10.2,10.2v9.626a2.514,2.514,0,1,0,5.029,0v-9.626a15.25,15.25,0,0,0-15.233-15.233h-.211v-8.737A8.444,8.444,0,0,0,142.81,96.6H120.723V88.447a2.514,2.514,0,0,0-2.514-2.514H106.563V56.4a6.238,6.238,0,0,0-6.231-6.231H94.239a2.514,2.514,0,0,0,0,5.029h6.092a1.2,1.2,0,0,1,1.2,1.2V85.932H25.125V56.4a1.2,1.2,0,0,1,1.2-1.2H84.185a2.514,2.514,0,0,0,0-5.029H26.328A6.239,6.239,0,0,0,20.1,56.4V85.932H8.451a2.514,2.514,0,0,0-2.514,2.514v26.7H5.592a2.514,2.514,0,0,0,0,5.029h.345V152.44a2.514,2.514,0,0,0,5.029,0V140.473H115.694v42.675H104.962V167.459h.686a2.514,2.514,0,0,0,0-5.029H72.776a2.514,2.514,0,1,0,0,5.029h.686v15.689H53.2V167.459h.686a2.514,2.514,0,0,0,0-5.029H21.011a2.514,2.514,0,1,0,0,5.029H21.7v15.689H10.965V162.494a2.514,2.514,0,0,0-5.029,0v20.655H2.514a2.514,2.514,0,1,0,0,5.029H169.133a2.514,2.514,0,0,0,0-5.029Zm-10.33,0h-7.559V164.886H158.8Zm-12.588-18.262v18.262h-7.559V164.886Zm-16.338-5.029a2.514,2.514,0,1,0,0,5.029h3.75v18.262h-12.9V151.316h10.049v8.542Zm.894-13.571H120.722V142.76h10.049Zm12.038-44.655a3.409,3.409,0,0,1,3.405,3.405v8.738H146a15.25,15.25,0,0,0-15.233,15.233v8.723H120.722V120.174h.345a2.514,2.514,0,0,0,0-5.029h-.345V101.632h22.087Zm-27.116,13.513h-7.167V90.961h7.167ZM103.5,90.961v24.184H96.332V90.961ZM84.137,115.144V90.961H91.3v24.184Zm-24.391,0V90.961h7.167v24.184Zm-12.195,0V90.961h7.166v24.184Zm-5.029,0H35.356V90.961h7.167ZM71.941,90.961h7.167v24.184H71.941Zm-41.614,0v24.184H23.16V90.961Zm-19.362,0h7.167v24.184H10.965Zm0,29.213H24.229v15.271H10.965Zm18.293,0H42.522v15.271H29.258Zm18.293,0H60.815v15.271H47.551Zm18.292,0H79.107v15.271H65.843Zm18.293,0H97.4v15.271H84.137Zm31.557,15.271H102.43V120.173h13.264Zm-37.2,32.015H99.933v15.689H78.491Zm-51.766,0H48.168v15.689H26.725Z" transform="translate(0 -50.167)"/>
        <path id="Trazado_916778" data-name="Trazado 916778" d="M117.375,81.786a2.514,2.514,0,0,0,0-5.029h-2.743a2.515,2.515,0,0,0-2.311,1.522L110.293,83h-2.959a2.515,2.515,0,0,0-2.508,2.689l.713,10.26a4.066,4.066,0,0,0,4.044,3.773h4.732a4.066,4.066,0,0,0,4.044-3.773l.713-10.26A2.515,2.515,0,0,0,116.565,83h-.8l.522-1.215Zm-3.968,12.908h-2.913l-.463-6.664h3.84Z" transform="translate(-69.679 -67.843)"/>
        <path id="Trazado_916779" data-name="Trazado 916779" d="M188.992,83.058a2.514,2.514,0,0,0,2.514,2.514h23.339a2.514,2.514,0,0,0,0-5.029H191.506A2.514,2.514,0,0,0,188.992,83.058Z" transform="translate(-125.633 -70.36)"/>
        <path id="Trazado_916780" data-name="Trazado 916780" d="M214.845,103.508H191.506a2.514,2.514,0,1,0,0,5.029h23.339a2.514,2.514,0,1,0,0-5.029Z" transform="translate(-125.633 -85.626)"/>
        <path id="Trazado_916781" data-name="Trazado 916781" d="M214.845,126.473H191.506a2.514,2.514,0,1,0,0,5.029h23.339a2.514,2.514,0,1,0,0-5.029Z" transform="translate(-125.633 -100.892)"/>
      </g>
    </g>
  </g>
</svg>
