<svg xmlns="http://www.w3.org/2000/svg" width="86" height="86" viewBox="0 0 86 86">
  <g id="Grupo_1119422" data-name="Grupo 1119422" transform="translate(-304.051 -3201)">
    <circle id="Elipse_11758" data-name="Elipse 11758" cx="43" cy="43" r="43" transform="translate(304.051 3201)" fill="#ccda2d"/>
    <g id="Grupo_1119421" data-name="Grupo 1119421" transform="translate(317.051 3214)">
      <path id="Trazado_916710" data-name="Trazado 916710" d="M278.25,395.035v1.232a2.784,2.784,0,0,1-.036.454,2.894,2.894,0,0,1-5.717,0,2.781,2.781,0,0,1-.036-.454v-1.232Zm0,0" transform="translate(-240.831 -349.176)" fill="#e3f4ff"/>
      <path id="Trazado_916711" data-name="Trazado 916711" d="M278.25,395.035v1.232a2.784,2.784,0,0,1-.036.454H272.5a2.781,2.781,0,0,1-.036-.454v-1.232Zm0,0" transform="translate(-240.831 -349.176)" fill="#bddff4"/>
      <path id="Trazado_916712" data-name="Trazado 916712" d="M57.535,83.555h2.786V132.27H57.535Zm0,0" transform="translate(-50.856 -73.855)" fill="#e3f4ff"/>
      <path id="Trazado_916713" data-name="Trazado 916713" d="M430.465,83.555h2.786V132.27h-2.786Zm0,0" transform="translate(-380.493 -73.855)" fill="#e3f4ff"/>
      <path id="Trazado_916714" data-name="Trazado 916714" d="M234.25,259.329v22.4a2.3,2.3,0,0,1-4.608,0v-8.087a1.161,1.161,0,0,0-1.161-1.161h-7.615a1.161,1.161,0,0,0-1.161,1.161v8.087a2.3,2.3,0,0,1-4.608,0v-22.4a3.26,3.26,0,0,1,.561-1.832h0a3.263,3.263,0,0,1,2.709-1.438H230.98a3.269,3.269,0,0,1,3.27,3.27Zm0,0" transform="translate(-190.127 -226.333)" fill="#ffeee1"/>
      <path id="Trazado_916715" data-name="Trazado 916715" d="M237.965,257.493a3.9,3.9,0,0,1-1.257.37v5a7.709,7.709,0,0,1-.46,2.633,7.821,7.821,0,0,1-1.811,2.851A7.754,7.754,0,0,1,221.2,262.86v-5a3.935,3.935,0,0,1-1.258-.367,3.263,3.263,0,0,1,2.709-1.438h12.612A3.268,3.268,0,0,1,237.965,257.493Zm0,0" transform="translate(-194.405 -226.333)" fill="#fecbaa"/>
      <path id="Trazado_916716" data-name="Trazado 916716" d="M344.991,428.059v5.707a2.3,2.3,0,0,1-4.608,0v-5.707Zm0,0" transform="translate(-300.868 -378.366)" fill="#618baa"/>
      <path id="Trazado_916717" data-name="Trazado 916717" d="M217.822,366.787a2.726,2.726,0,0,1-2.728,2.728v-5.456A2.728,2.728,0,0,1,217.822,366.787Zm0,0" transform="translate(-190.124 -321.795)" fill="#618baa"/>
      <path id="Trazado_916718" data-name="Trazado 916718" d="M232.381,210.853a2.572,2.572,0,0,1-2.573,2.573h-.923v6.361a6.363,6.363,0,1,1-12.726,0v-6.361h-.923a2.572,2.572,0,0,1-2.573-2.573,1.139,1.139,0,0,1,1.139-1.139h.972a2.423,2.423,0,0,0,2.09-1.193,2.425,2.425,0,0,1,2.09-1.193h7.137a2.425,2.425,0,0,1,2.09,1.193,2.427,2.427,0,0,0,2.09,1.193h.972a1.138,1.138,0,0,1,1.139,1.139Zm0,0" transform="translate(-187.976 -183.26)" fill="#ffeee1"/>
      <path id="Trazado_916719" data-name="Trazado 916719" d="M300.767,266.21h3.181v-6.363h-3.181a3.181,3.181,0,0,0,0,6.363Zm0,0" transform="translate(-263.04 -229.682)" fill="#618baa"/>
      <path id="Trazado_916720" data-name="Trazado 916720" d="M257.989,333.25a6.365,6.365,0,0,1-11.973,0Zm0,0" transform="translate(-217.456 -294.563)" fill="#ffae85"/>
      <path id="Trazado_916721" data-name="Trazado 916721" d="M79.8,48.216H29.2a1.161,1.161,0,0,1-1.16-1.16V43.574H80.964v3.481A1.161,1.161,0,0,1,79.8,48.216Zm0,0" transform="translate(-24.781 -38.516)" fill="#64bdff"/>
      <path id="Trazado_916722" data-name="Trazado 916722" d="M64.034,12.91H8.662A1.161,1.161,0,0,1,7.6,11.284l1.354-3.09A1.16,1.16,0,0,1,10.016,7.5H62.68a1.16,1.16,0,0,1,1.063.695l1.354,3.09A1.161,1.161,0,0,1,64.034,12.91Zm0,0" transform="translate(-6.629 -6.629)" fill="#e3f4ff"/>
      <path id="Trazado_916723" data-name="Trazado 916723" d="M105.408,349.471h-2.416a.957.957,0,0,1-.957-.957v-2.471h4.329v2.471A.957.957,0,0,1,105.408,349.471Zm0,0" transform="translate(-90.19 -305.871)" fill="#64bdff"/>
      <path id="Trazado_916724" data-name="Trazado 916724" d="M110.664,179.613h-3.078v-2.026a.642.642,0,0,1,.641-.642h1.8a.642.642,0,0,1,.641.642Zm0,0" transform="translate(-95.096 -156.404)" fill="#bddff4"/>
      <path id="Trazado_916725" data-name="Trazado 916725" d="M71.788,202.5v12.114a2.574,2.574,0,0,1-2.574,2.574h-9.1a2.575,2.575,0,0,1-2.574-2.574V202.5a2.575,2.575,0,0,1,2.574-2.574h9.1A2.574,2.574,0,0,1,71.788,202.5Zm0,0" transform="translate(-50.859 -176.72)" fill="#bddff4"/>
      <path id="Trazado_916726" data-name="Trazado 916726" d="M63.4,219.894v8.111a2.557,2.557,0,0,1-2.554,2.554H57.6a2.556,2.556,0,0,1-.06-.553V217.893a2.546,2.546,0,0,1,.06-.553h3.244A2.557,2.557,0,0,1,63.4,219.894Zm0,0" transform="translate(-50.859 -192.109)" fill="#9cc6db"/>
      <path id="Trazado_916727" data-name="Trazado 916727" d="M142.922,202.5v12.115a2.574,2.574,0,0,1-2.573,2.573h-2.333a2.574,2.574,0,0,0,2.574-2.573V202.5a2.574,2.574,0,0,0-2.574-2.574h2.333A2.574,2.574,0,0,1,142.922,202.5Zm0,0" transform="translate(-121.994 -176.717)" fill="#9cc6db"/>
      <path id="Trazado_916728" data-name="Trazado 916728" d="M71.788,240.7v9.955a2.574,2.574,0,0,1-2.574,2.574h-9.1a2.573,2.573,0,0,1-2.514-2.021c-.009-.044-.019-.089-.025-.135s-.014-.088-.019-.134v0c0-.029-.006-.057-.007-.086s0-.041,0-.062c0-.044,0-.088,0-.132V240.7Zm0,0" transform="translate(-50.859 -212.757)" fill="#ffeee1"/>
      <g id="Grupo_1119420" data-name="Grupo 1119420" transform="translate(0.871 12.908)">
        <path id="Trazado_916729" data-name="Trazado 916729" d="M63.4,240.7v7.953a2.557,2.557,0,0,1-2.554,2.554H57.6c-.009-.044-.019-.089-.025-.135s-.014-.088-.019-.134v0c0-.029-.006-.057-.007-.086s0-.041,0-.062c0-.044,0-.088,0-.132V240.7Zm0,0" transform="translate(-51.73 -225.665)" fill="#fedfc5"/>
        <path id="Trazado_916730" data-name="Trazado 916730" d="M142.922,240.7v9.955a2.574,2.574,0,0,1-2.573,2.573h-2.333a2.574,2.574,0,0,0,2.574-2.573V240.7Zm0,0" transform="translate(-122.864 -225.665)" fill="#fedfc5"/>
        <path id="Trazado_916731" data-name="Trazado 916731" d="M7.5,111.191H65.2v2.675H7.5Zm0,0" transform="translate(-7.5 -111.191)" fill="#fedfc5"/>
      </g>
      <path id="Trazado_916732" data-name="Trazado 916732" d="M45.34,239.773H41.649A1.649,1.649,0,0,1,40,238.123v-7.134a1.649,1.649,0,0,1,1.649-1.649H45.34A1.161,1.161,0,0,1,46.5,230.5v8.111A1.161,1.161,0,0,1,45.34,239.773Zm0,0" transform="translate(-35.356 -202.716)" fill="#64bdff"/>
      <path id="Trazado_916733" data-name="Trazado 916733" d="M322.457,274.895a.87.87,0,0,0-.871.871v.7a.871.871,0,0,0,1.741,0v-.7A.871.871,0,0,0,322.457,274.895Zm0,0" transform="translate(-284.253 -242.982)"/>
      <path id="Trazado_916734" data-name="Trazado 916734" d="M259.457,277.332a.871.871,0,0,0,.871-.871v-.7a.871.871,0,0,0-1.741,0v.7A.871.871,0,0,0,259.457,277.332Zm0,0" transform="translate(-228.567 -242.982)"/>
      <path id="Trazado_916735" data-name="Trazado 916735" d="M.871,12.037a.871.871,0,0,0,0,1.741h57.7a.871.871,0,0,0,0-1.741H53.629V10.57h1.394a2.034,2.034,0,0,0,2.031-2.031V7.152h.351a2.031,2.031,0,0,0,1.86-2.846l-1.354-3.09A2.031,2.031,0,0,0,56.051,0H3.387A2.031,2.031,0,0,0,1.526,1.216L.172,4.305A2.031,2.031,0,0,0,2.032,7.152h.351V8.539A2.033,2.033,0,0,0,4.415,10.57H5.809v1.467Zm49.972,0V10.57h1.045v1.467ZM1.79,5.279A.283.283,0,0,1,1.767,5l1.354-3.09a.29.29,0,0,1,.266-.173H56.051a.29.29,0,0,1,.266.173L57.671,5a.29.29,0,0,1-.266.406H2.032a.282.282,0,0,1-.243-.132Zm2.335,3.26V7.152H55.312V8.539a.29.29,0,0,1-.29.29H4.415A.29.29,0,0,1,4.125,8.539ZM49.1,10.57v1.467H10.336V10.57Zm-41.552,0H8.595v1.467H7.55Zm0,0"/>
      <path id="Trazado_916736" data-name="Trazado 916736" d="M58.567,126.73H.871a.871.871,0,0,0,0,1.741H5.809v9.347a2.524,2.524,0,0,0-2.036,2.473v7.134A2.524,2.524,0,0,0,5.809,149.9v20.535a.871.871,0,0,0,.871.871H9.465a.87.87,0,0,0,.871-.871v-3.222a.871.871,0,0,0-1.741,0v2.352H7.55V152.908a3.412,3.412,0,0,0,1.045.389v9.947a.871.871,0,0,0,1.741,0V153.36h.638v1.3a1.83,1.83,0,0,0,1.827,1.827h.356v5.747a3.538,3.538,0,0,0,3.534,3.534H24.1v1.648a3.174,3.174,0,0,0,6.348,0V165.77h1.436a3.54,3.54,0,0,0,3.493-2.994,3.771,3.771,0,0,0,2.914-3.667v-.068h.064a.291.291,0,0,1,.29.29V161.7s0,0,0,.008,0,.005,0,.008v5.7a3.174,3.174,0,0,0,6.348,0v-5.7s0-.006,0-.01,0-.007,0-.01v-5.17a.871.871,0,0,0-1.741,0v4.31H40.386v-1.509a2.034,2.034,0,0,0-2.032-2.032H30.738a2.034,2.034,0,0,0-2.032,2.032v8.086a1.433,1.433,0,0,1-2.865,0V160.5a3.6,3.6,0,0,0,0-6.984v-8.5a2.411,2.411,0,0,1,1.045-1.98,3.4,3.4,0,0,0,.374.021h.053v5.492a7.2,7.2,0,0,0,.409,2.393.934.934,0,0,0,.039.112,7.233,7.233,0,0,0,13.571,0,.8.8,0,0,0,.039-.112,7.191,7.191,0,0,0,.409-2.393v-5.492h.053a3.4,3.4,0,0,0,.374-.021,2.41,2.41,0,0,1,1.045,1.98v7.549a.871.871,0,1,0,1.741,0v-7.549a4.151,4.151,0,0,0-1.015-2.713,3.436,3.436,0,0,0,1.3-2.69,2.012,2.012,0,0,0-2.01-2.01h-.972a1.561,1.561,0,0,1-1.34-.765,3.312,3.312,0,0,0-2.839-1.621H30.978a3.311,3.311,0,0,0-2.839,1.621,1.561,1.561,0,0,1-1.34.765h-.972a2.012,2.012,0,0,0-2.009,2.01,3.439,3.439,0,0,0,1.3,2.69,4.153,4.153,0,0,0-1.014,2.713v9.258s0,.007,0,.01,0,.007,0,.01v5.436s0,.007,0,.01,0,.007,0,.01v4.281H16.691a1.794,1.794,0,0,1-1.792-1.793v-5.747h.318a1.83,1.83,0,0,0,1.827-1.827v-1.3h1.31a3.448,3.448,0,0,0,3.444-3.445V137.8a3.448,3.448,0,0,0-3.444-3.444H16.438V133.2a1.511,1.511,0,0,0-.691-1.268,1.384,1.384,0,0,1,1.233-.758h6.994a3.13,3.13,0,0,0,3.1-2.7H49.1v5.866a.871.871,0,1,0,1.741,0v-5.866h1.045v41.091H50.843V138.3a.871.871,0,0,0-1.741,0v32.129a.871.871,0,0,0,.871.871h2.786a.871.871,0,0,0,.871-.871V128.472h4.938a.871.871,0,1,0,0-1.741ZM43.251,162.582v4.836a1.433,1.433,0,0,1-2.865,0v-4.836Zm-6.7-3.472a2.024,2.024,0,1,1-4.048,0v-.068h4.048Zm-5.81-.068h.021v.068a3.772,3.772,0,0,0,2.839,3.65,1.8,1.8,0,0,1-1.714,1.27H30.448v-4.7A.29.29,0,0,1,30.738,159.042Zm3.808-5a5.491,5.491,0,0,1-4.578-2.462h9.155A5.491,5.491,0,0,1,34.546,154.038Zm3.181-6.362a2.311,2.311,0,0,1,0-4.621h2.31v4.621Zm-11.9-8.333H26.8a3.31,3.31,0,0,0,2.839-1.621,1.562,1.562,0,0,1,1.34-.765h7.138a1.561,1.561,0,0,1,1.34.765,3.31,3.31,0,0,0,2.839,1.621h.972a.269.269,0,0,1,.268.268,1.7,1.7,0,0,1-1.7,1.7h-4.1a4.052,4.052,0,1,0,0,8.1h2.241c-.022.141-.051.28-.084.418H29.209a5.484,5.484,0,0,1-.154-1.288v-6.362a.871.871,0,0,0-.871-.871H27.26a1.7,1.7,0,0,1-1.7-1.7A.269.269,0,0,1,25.827,139.343Zm1,17.666a1.849,1.849,0,0,1-.543,1.313,1.88,1.88,0,0,1-.443.328V155.37A1.858,1.858,0,0,1,26.827,157.01ZM12.26,131.968a1.509,1.509,0,0,0-.641,1.234v1.156H10.336v-5.886H12.26Zm-3.665-3.5v5.949a3.424,3.424,0,0,0-1.045.389v-6.338Zm-3.08,18.954v-7.134a.779.779,0,0,1,.779-.779H9.984a.29.29,0,0,1,.29.29v8.111a.29.29,0,0,1-.29.29H6.293A.779.779,0,0,1,5.514,147.426Zm9.79,7.236a.086.086,0,0,1-.086.086H12.8a.086.086,0,0,1-.086-.086v-1.3H15.3v1.3Zm3.051-3.043h-9.1a1.7,1.7,0,0,1-1.7-1.673H9.984a2.034,2.034,0,0,0,2.032-2.032v-7.082h8.043v9.084A1.705,1.705,0,0,1,18.355,151.619Zm1.7-13.817v1.289H11.884a2.034,2.034,0,0,0-1.9-1.319H7.552a1.7,1.7,0,0,1,1.7-1.673h9.1A1.7,1.7,0,0,1,20.058,137.8Zm-6.7-3.444v-.926H14.7v.926Zm10.614-4.923H16.98A3.131,3.131,0,0,0,14,131.613v-3.141H25.292A1.386,1.386,0,0,1,23.974,129.435Zm0,0" transform="translate(0 -112.018)"/>
    </g>
  </g>
</svg>
