<svg xmlns="http://www.w3.org/2000/svg" width="210" height="164.427" viewBox="0 0 210 164.427">
  <g id="Grupo_1119425" data-name="Grupo 1119425" transform="translate(-180.051 -4039)">
    <rect id="BG" width="210" height="164.427" transform="translate(180.051 4039)" fill="#f7dbb0" opacity="0.996"/>
    <g id="Grupo_1119424" data-name="Grupo 1119424" transform="translate(208.291 4050)">
      <path id="Trazado_916737" data-name="Trazado 916737" d="M21.6,206.2v68.17a11.276,11.276,0,0,0,11.2,11.362H83.174V206.2Z" transform="translate(-7.252 -149.021)" fill="#82bcf4"/>
      <path id="Trazado_916738" data-name="Trazado 916738" d="M115.453,384.12v3.061c0,13.058-18.363,12.445-18.363.408V384.12Z" transform="translate(-62.888 -280.148)" fill="#edebf2"/>
      <path id="Trazado_916739" data-name="Trazado 916739" d="M97.09,329.82h18.363v10.2H97.09Z" transform="translate(-62.888 -240.129)" fill="#edebf2"/>
      <path id="Trazado_916740" data-name="Trazado 916740" d="M138.628,11.8H91.049a5.656,5.656,0,0,0-5.6,5.681v14.2h58.775v-14.2A5.656,5.656,0,0,0,138.628,11.8Z" transform="translate(-54.31 -5.749)" fill="#82bcf4"/>
      <path id="Trazado_916741" data-name="Trazado 916741" d="M38.393,87.4,21.6,118.644H83.174L97.168,87.4Z" transform="translate(-7.252 -61.466)" fill="#edebf2"/>
      <path id="Trazado_916742" data-name="Trazado 916742" d="M255.717,206.2h30.788v79.531H255.717Z" transform="translate(-179.796 -149.023)" fill="#5f9cd9"/>
      <path id="Trazado_916743" data-name="Trazado 916743" d="M286.508,118.644H255.721L269.715,87.4Z" transform="translate(-179.799 -61.466)" fill="#c6c3d8"/>
      <path id="Trazado_916744" data-name="Trazado 916744" d="M286.508,118.644H255.721L269.715,87.4Z" transform="translate(-179.799 -61.466)" fill="#c9c6da"/>
      <g id="Grupo_1119423" data-name="Grupo 1119423" transform="translate(11.76 4)">
        <circle id="Elipse_11806" data-name="Elipse 11806" cx="2.04" cy="2.04" r="2.04" transform="translate(25.298 87.934)" fill="#222831"/>
        <circle id="Elipse_11807" data-name="Elipse 11807" cx="2.04" cy="2.04" r="2.04" transform="translate(33.867 87.934)" fill="#222831"/>
        <circle id="Elipse_11808" data-name="Elipse 11808" cx="2.04" cy="2.04" r="2.04" transform="translate(32.643 104.461)" fill="#222831"/>
        <circle id="Elipse_11809" data-name="Elipse 11809" cx="2.04" cy="2.04" r="2.04" transform="translate(26.523 104.461)" fill="#222831"/>
        <path id="Trazado_916745" data-name="Trazado 916745" d="M140.294,69.287h-30.6V57.047c0-1.267-.361-1.016-18.363-31.216V11.753A7.75,7.75,0,0,0,83.575,4H35.835a7.75,7.75,0,0,0-7.753,7.753V26.442c0,.95-16.322,29.446-16.322,30.605V125.4a13.234,13.234,0,0,0,13.26,13.26H126.013a16.369,16.369,0,0,0,16.322-16.322V71.328a1.928,1.928,0,0,0-2.041-2.041Zm-50.8-38.561,14.486,24.28H78.27c3.266-7.14,7.958-16.935,11.222-24.28ZM32.161,11.753a3.656,3.656,0,0,1,3.674-3.671h47.74a3.656,3.656,0,0,1,3.674,3.671V24.4H32.161Zm40.8,122.821H25.02a9.142,9.142,0,0,1-9.181-9.179V59.085H72.965Zm-55.7-79.568L31.753,28.483h54.27c-3.671,7.753-8.569,18.363-12.445,26.524Zm59.78,79.568V59.085h28.564v10.2H91.328a1.928,1.928,0,0,0-2.038,2.041v51.006c0,4.9,2.856,9.384,6.73,12.24Zm48.965,0H107.65c-6.528,0-14.281-5.712-14.281-12.24V104.177l11.222-3.266a21.681,21.681,0,0,1,13.466.41A26.138,26.138,0,0,0,138.05,100.1v22.239A11.974,11.974,0,0,1,126.013,134.574Zm12.243-38.966a23.526,23.526,0,0,1-18.77,1.836,26.5,26.5,0,0,0-15.914-.408l-10.2,2.856V73.369h44.886Z" transform="translate(-11.76 -4)" fill="#222831"/>
      </g>
      <path id="Trazado_916746" data-name="Trazado 916746" d="M354.7,403.7H336.341c-6.528,0-14.281-5.712-14.281-12.24V373.3l11.222-3.267a21.68,21.68,0,0,1,13.466.41,26.139,26.139,0,0,0,19.993-1.226v22.239A11.975,11.975,0,0,1,354.7,403.7Z" transform="translate(-228.691 -269.127)" fill="#edebf2"/>
      <path id="Trazado_916747" data-name="Trazado 916747" d="M366.946,267.76V290a23.526,23.526,0,0,1-18.77,1.836,26.5,26.5,0,0,0-15.914-.408l-10.2,2.856V267.76Z" transform="translate(-228.691 -194.391)" fill="#94dbf9"/>
      <path id="Trazado_916748" data-name="Trazado 916748" d="M155.038,42.778H122.394a2.041,2.041,0,1,0,0,4.08h32.644a2.042,2.042,0,1,0,0-4.08Z" transform="translate(-80.031 -28.577)" fill="#222831"/>
      <path id="Trazado_916749" data-name="Trazado 916749" d="M90.3,282.644a9.03,9.03,0,0,0,3.877-6.938v-5.915a2.041,2.041,0,1,0-4.082,0v5.915a4.586,4.586,0,0,1-4.079,4.284H63.576c-1.836,0-2.038-3.059-2.038-4.284v-5.915a2.042,2.042,0,1,0-4.082,0v5.915c0,3.264.815,5.51,2.449,6.938a19.8,19.8,0,0,0-5.51,14.281c0,2.654,4.082,2.654,4.082-.2a15.361,15.361,0,0,1,3.061-10v15.1c0,17.545,26.521,17.955,26.521-.408V285.908a13.441,13.441,0,0,1,5.1,10.815c0,2.651,4.079,2.856,4.079.2.205-6.935-3.877-11.63-6.935-14.281Zm-6.325,18.77c0,13.058-18.363,12.445-18.363.408v-3.469H83.98Zm0-7.14H65.617v-10.2H83.98Z" transform="translate(-31.415 -194.381)" fill="#222831"/>
    </g>
  </g>
</svg>
