<svg xmlns="http://www.w3.org/2000/svg" width="210" height="164.427" viewBox="0 0 210 164.427">
  <g id="Grupo_1119619" data-name="Grupo 1119619" transform="translate(-810.051 -7090)">
    <rect id="BG" width="210" height="164.427" transform="translate(810.051 7090)" fill="#0d8449" opacity="0.996"/>
    <g id="Layer_4" transform="translate(857.734 7115.431)">
      <g id="Grupo_1119618" data-name="Grupo 1119618" transform="translate(4 5.881)">
        <g id="Grupo_1119617" data-name="Grupo 1119617">
          <g id="Grupo_1119487" data-name="Grupo 1119487" transform="translate(51.482 43.523)">
            <g id="Grupo_1119486" data-name="Grupo 1119486">
              <path id="Trazado_916937" data-name="Trazado 916937" d="M46.442,41.762,47.769,54.19l36.948,1.3L80.09,50.446Z" transform="translate(-46.442 -41.762)" fill="#fcebdb"/>
            </g>
          </g>
          <g id="Grupo_1119490" data-name="Grupo 1119490" transform="translate(49.154 47.177)">
            <g id="Grupo_1119488" data-name="Grupo 1119488" transform="translate(1.274 1.275)">
              <path id="Trazado_916938" data-name="Trazado 916938" d="M81.771,55.066a.2.2,0,0,0,.035.028H59.593l-.361,14.926H55.339L53.69,58.4v0l-.431-3.026H49.188a3.109,3.109,0,0,1-1.365-.3c-2-.967-2.25-3.953-2.25-3.953v-5.29" transform="translate(-45.573 -45.825)" fill="#fcebdb"/>
            </g>
            <g id="Grupo_1119489" data-name="Grupo 1119489">
              <path id="Trazado_916939" data-name="Trazado 916939" d="M59.456,71.518H55.564a1.275,1.275,0,0,1-1.264-1.1l-1.923-13.55H49.414a4.528,4.528,0,0,1-1.9-.417c-2.595-1.265-2.95-4.631-2.983-5.011l0-5.392a1.276,1.276,0,1,1,2.552,0v5.285c.053.524.444,2.282,1.532,2.811a1.9,1.9,0,0,0,.807.169h4.072a1.276,1.276,0,0,1,1.264,1.1l1.923,13.55h1.539l.331-13.675a1.279,1.279,0,0,1,1.276-1.247H82.031v1.2l.785-.935a1.294,1.294,0,0,1,.41,1.428,1.272,1.272,0,0,1-1.195.86H61.063l-.331,13.675a1.279,1.279,0,0,1-1.276,1.247Z" transform="translate(-44.523 -44.774)" fill="#202328"/>
            </g>
          </g>
          <path id="Trazado_916940" data-name="Trazado 916940" d="M45.574,48.03a.422.422,0,0,1,.486-.415c5.523.811,2.7-4.853,2.7-4.853,1.718-1.417,2.233-4.552,2.384-6.486l.243-.019c11.732-1.049,17.292-.861,22.344-.5l.127.008c2.3.169,4.373.381,6.629.549a7.541,7.541,0,0,1,3.109.814l.033.019c3.5,1.969,2.413,7.035,3.375,12.648,1.174,6.873,4.883,8.863,4.883,8.863l1.9,13.567H90.531c-1.268-11.668-13.3-18.179-13.3-18.179" transform="translate(4.855 0.421)" fill="#fcebdb"/>
          <g id="Grupo_1119492" data-name="Grupo 1119492" transform="translate(50.428 37.251)">
            <g id="Grupo_1119491" data-name="Grupo 1119491">
              <path id="Trazado_916941" data-name="Trazado 916941" d="M45.573,47.8a.408.408,0,0,1,.479-.387C51.478,48.168,48.7,42.9,48.7,42.9c1.688-1.317,2.193-4.235,2.342-6.035l4.6-.263c3.163-.178-2.877,2.528-3.123,5.474C51.86,50.039,45.573,47.8,45.573,47.8Z" transform="translate(-45.573 -36.591)" fill="#e5d2c6"/>
            </g>
          </g>
          <path id="Trazado_916942" data-name="Trazado 916942" d="M94.011,73.723H90.755a1.278,1.278,0,0,1-1.269-1.14C88.307,61.743,76.963,55.455,76.849,55.392a1.278,1.278,0,0,1-.512-1.732,1.264,1.264,0,0,1,1.729-.511c.5.268,11.878,6.557,13.8,18.019h.677L90.927,59.619c-1.212-.91-3.96-3.565-4.956-9.38a46.882,46.882,0,0,1-.5-4.911c-.241-3.7-.465-5.847-2.239-6.85a6.517,6.517,0,0,0-2.613-.667c-1.094-.081-2.145-.175-3.2-.262-1.118-.1-2.24-.2-3.425-.286-4.706-.33-10.138-.56-21.459.423a11.217,11.217,0,0,1-2.038,5.591c.431,1.16.909,3.154-.127,4.581a3.822,3.822,0,0,1-3.675,1.309,1.334,1.334,0,0,1-2.169-.91,1.7,1.7,0,0,1,.586-1.285,1.737,1.737,0,0,1,1.36-.4c1.116.175,1.676,0,1.828-.212.326-.449.022-1.839-.456-2.8a1.284,1.284,0,0,1,.33-1.551c1.009-.836,1.712-2.88,1.925-5.6a1.273,1.273,0,0,1,1.174-1.172c12.288-1.1,17.979-.866,22.774-.524,1.329.1,2.462.2,3.593.3,1.044.087,2.085.181,3.17.262a8.855,8.855,0,0,1,3.629.959c3.11,1.752,3.338,5.241,3.578,8.931a43.879,43.879,0,0,0,.472,4.643c1.04,6.083,4.112,7.89,4.242,7.966a1.3,1.3,0,0,1,.648.941l1.9,13.562a1.281,1.281,0,0,1-1.263,1.451Z" transform="translate(4.631 0.198)" fill="#202328"/>
          <g id="Grupo_1119496" data-name="Grupo 1119496" transform="translate(74.211 56.444)">
            <g id="Grupo_1119495" data-name="Grupo 1119495">
              <g id="Grupo_1119493" data-name="Grupo 1119493" transform="translate(1.275 1.277)">
                <path id="Trazado_916943" data-name="Trazado 916943" d="M77.422,53.482l-.017-.015H66.232a9.359,9.359,0,0,0,4.073,6.1,6.008,6.008,0,0,0,2.074.776,5.828,5.828,0,0,0,3.821-.776v0a13.4,13.4,0,0,0,3.892-3.518,31.039,31.039,0,0,0-2.671-2.564l-.017-.015h0Z" transform="translate(-66.232 -53.467)" fill="#ff8383"/>
              </g>
              <g id="Grupo_1119494" data-name="Grupo 1119494">
                <path id="Trazado_916944" data-name="Trazado 916944" d="M73.439,61.913a6.608,6.608,0,0,1-1.049-.087,7.082,7.082,0,0,1-2.519-.947,10.436,10.436,0,0,1-4.689-7.155,1.273,1.273,0,0,1,.361-.922,1.294,1.294,0,0,1,.915-.387H77.608a1.427,1.427,0,0,1,.343.044,1.32,1.32,0,0,1,.431.2,1.361,1.361,0,0,1,.2.187,30.272,30.272,0,0,1,2.671,2.562,1.282,1.282,0,0,1,.1,1.608A14.711,14.711,0,0,1,77.045,60.9a7.408,7.408,0,0,1-3.606,1.01Zm-5.3-6.943a8.211,8.211,0,0,0,3.049,3.721,4.772,4.772,0,0,0,1.636.617,4.478,4.478,0,0,0,2.986-.636,11.39,11.39,0,0,0,2.807-2.331c-.468-.474-.956-.929-1.459-1.371h-9.02Z" transform="translate(-65.181 -52.414)" fill="#202328"/>
              </g>
            </g>
          </g>
          <g id="Grupo_1119499" data-name="Grupo 1119499" transform="translate(51.401 56.426)">
            <g id="Grupo_1119497" data-name="Grupo 1119497" transform="translate(1.277 1.268)">
              <path id="Trazado_916945" data-name="Trazado 916945" d="M53.3,56.77v0L50.966,68.4H47.891l-.463-14.954a3.109,3.109,0,0,0,1.365.3h4.072Z" transform="translate(-47.428 -53.445)" fill="#d1bbac"/>
            </g>
            <g id="Grupo_1119498" data-name="Grupo 1119498">
              <path id="Trazado_916946" data-name="Trazado 916946" d="M51.19,69.9H48.116a1.278,1.278,0,0,1-1.276-1.241l-.463-14.953a1.272,1.272,0,0,1,.574-1.1,1.331,1.331,0,0,1,1.242-.093,1.86,1.86,0,0,0,.826.181H53.09a1.276,1.276,0,0,1,1.264,1.1l.431,3.023a1.285,1.285,0,0,1-.012.431l-2.329,11.63A1.28,1.28,0,0,1,51.19,69.9Zm-1.838-2.556h.791l2.081-10.39-.243-1.708h-3Z" transform="translate(-46.376 -52.399)" fill="#202328"/>
            </g>
          </g>
          <g id="Grupo_1119502" data-name="Grupo 1119502" transform="translate(76.164 62.535)">
            <g id="Grupo_1119500" data-name="Grupo 1119500" transform="translate(1.278 1.284)">
              <path id="Trazado_916947" data-name="Trazado 916947" d="M75.859,58.494,70.68,67.323H67.844l2.12-8.829a6.008,6.008,0,0,0,2.074.776,5.828,5.828,0,0,0,3.821-.776Z" transform="translate(-67.844 -58.494)" fill="#d1bbac"/>
            </g>
            <g id="Grupo_1119501" data-name="Grupo 1119501">
              <path id="Trazado_916948" data-name="Trazado 916948" d="M70.9,68.827H68.067a1.278,1.278,0,0,1-1.242-1.577l2.12-8.832a1.28,1.28,0,0,1,.75-.879,1.238,1.238,0,0,1,1.152.087,4.8,4.8,0,0,0,1.63.611,4.476,4.476,0,0,0,2.986-.636A1.292,1.292,0,0,1,77,57.827a1.279,1.279,0,0,1,.187,1.539L72,68.2A1.278,1.278,0,0,1,70.9,68.827Zm-1.218-2.556h.486l3.187-5.435a6.4,6.4,0,0,1-2.29-.324Z" transform="translate(-66.79 -57.436)" fill="#202328"/>
            </g>
          </g>
          <g id="Grupo_1119504" data-name="Grupo 1119504" transform="translate(74.207 60.65)">
            <g id="Grupo_1119503" data-name="Grupo 1119503">
              <path id="Trazado_916949" data-name="Trazado 916949" d="M66.454,60.065a1.276,1.276,0,0,1-.818-2.256l1.957-1.627a1.275,1.275,0,1,1,1.633,1.958l-1.957,1.627a1.27,1.27,0,0,1-.815.3Z" transform="translate(-65.177 -55.881)" fill="#202328"/>
            </g>
          </g>
          <g id="Grupo_1119506" data-name="Grupo 1119506" transform="translate(79.454 63.312)">
            <g id="Grupo_1119505" data-name="Grupo 1119505">
              <path id="Trazado_916950" data-name="Trazado 916950" d="M70.779,63.443a1.224,1.224,0,0,1-.392-.062,1.277,1.277,0,0,1-.822-1.608l.9-2.8a1.256,1.256,0,0,1,1.606-.822,1.277,1.277,0,0,1,.822,1.608l-.9,2.8A1.276,1.276,0,0,1,70.779,63.443Z" transform="translate(-69.503 -58.076)" fill="#202328"/>
            </g>
          </g>
          <g id="Grupo_1119508" data-name="Grupo 1119508" transform="translate(88.534 37.241)">
            <g id="Grupo_1119507" data-name="Grupo 1119507">
              <path id="Trazado_916951" data-name="Trazado 916951" d="M84.522,53.268a1.275,1.275,0,0,1-1.255-1.06,26.845,26.845,0,0,1-.154-4.6c.028-1.676.059-3.571-.093-5.454a3.16,3.16,0,0,0-1.143-2.493,4.43,4.43,0,0,0-3.286-.387,1.311,1.311,0,0,1-1.559-.91,1.277,1.277,0,0,1,.9-1.559c.129-.025,3.153-.822,5.408.761a5.591,5.591,0,0,1,2.227,4.375c.164,2.014.131,3.976.1,5.71a25.577,25.577,0,0,0,.115,4.119,1.28,1.28,0,0,1-1.038,1.477,1.224,1.224,0,0,1-.221.019Z" transform="translate(-76.988 -36.583)" fill="#202328"/>
            </g>
          </g>
          <g id="Grupo_1119511" data-name="Grupo 1119511" transform="translate(94.793 51.098)">
            <g id="Grupo_1119509" data-name="Grupo 1119509" transform="translate(1.276 1.281)">
              <path id="Trazado_916952" data-name="Trazado 916952" d="M84.486,49.125a4.572,4.572,0,0,1,3.458.8c3.121,2.323-1.088,6.02-1.088,6.02.724-1.989-.9-4.252-2.712-4.981-.514-.206-.795-.784-.944-1.633Z" transform="translate(-83.2 -49.062)" fill="#9b8c89"/>
            </g>
            <g id="Grupo_1119510" data-name="Grupo 1119510">
              <path id="Trazado_916953" data-name="Trazado 916953" d="M87.081,57.448a1.278,1.278,0,0,1-1.2-1.714c.45-1.234-.722-2.848-1.992-3.36a3.224,3.224,0,0,1-1.724-2.6,1.271,1.271,0,0,1,.218-.959,1.248,1.248,0,0,1,.837-.517l1.286-.206h0a5.768,5.768,0,0,1,4.423,1.035A3.8,3.8,0,0,1,90.6,52.082c.1,2.536-2.387,4.8-2.671,5.048A1.277,1.277,0,0,1,87.081,57.448Zm-1.149-6.856a6.3,6.3,0,0,1,2,2.256,1.867,1.867,0,0,0,.108-.667,1.284,1.284,0,0,0-.637-1.009A3.176,3.176,0,0,0,85.933,50.592Z" transform="translate(-82.148 -48.006)" fill="#202328"/>
            </g>
          </g>
          <g id="Grupo_1119514" data-name="Grupo 1119514" transform="translate(73.237 34.901)">
            <g id="Grupo_1119512" data-name="Grupo 1119512" transform="translate(1.275 1.275)">
              <path id="Trazado_916954" data-name="Trazado 916954" d="M79.461,37.873a5.194,5.194,0,0,1-4.133,5.082A5.19,5.19,0,1,1,69.5,35.7l.127.008c2.3.169,4.373.381,6.629.549a7.54,7.54,0,0,1,3.109.814l.033.019a4.7,4.7,0,0,1,.062.776Z" transform="translate(-65.428 -35.705)" fill="#9b8c89"/>
            </g>
            <g id="Grupo_1119513" data-name="Grupo 1119513">
              <path id="Trazado_916955" data-name="Trazado 916955" d="M70.842,47.47a6.471,6.471,0,0,1-1.393-12.79,1.56,1.56,0,0,1,.457-.018c1.238.093,2.371.193,3.5.294,1.044.087,2.085.181,3.17.262a8.855,8.855,0,0,1,3.629.959,1.36,1.36,0,0,1,.677.935,6.211,6.211,0,0,1,.078.985,6.484,6.484,0,0,1-4.54,6.17A6.49,6.49,0,0,1,70.842,47.47ZM69.761,37.211A3.873,3.873,0,0,0,66.929,41a3.911,3.911,0,0,0,7.464,1.639,1.294,1.294,0,0,1,.9-.717,3.919,3.919,0,0,0,3.114-3.765,7.577,7.577,0,0,0-2.022-.4c-1.094-.081-2.145-.175-3.2-.262C72.067,37.4,70.947,37.3,69.761,37.211Z" transform="translate(-64.377 -34.654)" fill="#202328"/>
            </g>
          </g>
          <g id="Grupo_1119517" data-name="Grupo 1119517" transform="translate(56.597 41.902)">
            <g id="Grupo_1119515" data-name="Grupo 1119515" transform="translate(1.277 1.283)">
              <path id="Trazado_916956" data-name="Trazado 916956" d="M63,45.8a3.889,3.889,0,0,1-3.447,3.416c-.042,0-.084.007-.125.011a2.925,2.925,0,0,0-2.194,1.3,3.028,3.028,0,1,1-2.5-4.74l.109,0a.415.415,0,0,0,.427-.421v0A3.877,3.877,0,1,1,63,45.8Z" transform="translate(-51.712 -41.483)" fill="#9b8c89"/>
            </g>
            <g id="Grupo_1119516" data-name="Grupo 1119516">
              <path id="Trazado_916957" data-name="Trazado 916957" d="M54.969,53.341a4.351,4.351,0,0,1-4.3-4.089,4.258,4.258,0,0,1,1.179-3.179,4.332,4.332,0,0,1,2.439-1.285,5.154,5.154,0,1,1,5.625,5.921,1.755,1.755,0,0,0-1.4.761,4.323,4.323,0,0,1-3.526,1.87h-.016Zm.069-6.053a1.788,1.788,0,0,0-1.344.542,1.735,1.735,0,0,0-.48,1.3,1.768,1.768,0,0,0,1.752,1.658h.007a1.743,1.743,0,0,0,1.436-.761,4.2,4.2,0,0,1,3.159-1.845,2.6,2.6,0,1,0-2.792-2.592,1.716,1.716,0,0,1-.514,1.221A1.628,1.628,0,0,1,55.038,47.288Zm-.085-2.555h0Z" transform="translate(-50.659 -40.425)" fill="#202328"/>
            </g>
          </g>
          <g id="Grupo_1119520" data-name="Grupo 1119520" transform="translate(36.533 24.763)">
            <g id="Grupo_1119518" data-name="Grupo 1119518" transform="translate(1.274 1.276)">
              <path id="Trazado_916958" data-name="Trazado 916958" d="M47.3,49.346c-5.523.811-2.7-4.853-2.7-4.853-2.578-2.123-2.443-8.121-2.443-8.121-2.781,2.239-6.988-2.713-6.988-2.713H42.02c-3.257-3.527-1.68-6.31-1.68-6.31.287,2.985,3.715,4.139,4.6,3.527a7.424,7.424,0,0,1,2.476-.821,2.09,2.09,0,0,1,.747,0,7.4,7.4,0,0,1,2.476.821c.882.61,4.309-.542,4.6-3.527,0,0,1.577,2.781-1.68,6.31h6.852s-4.207,4.953-6.988,2.713c0,0,.136,6-2.443,8.121,0,0,2.823,5.665-2.7,4.853Z" transform="translate(-35.168 -27.348)" fill="#fcebdb"/>
            </g>
            <g id="Grupo_1119519" data-name="Grupo 1119519">
              <path id="Trazado_916959" data-name="Trazado 916959" d="M49.5,50.921a8.076,8.076,0,0,1-1.181-.087l-.689.012c-1.978.25-3.382-.149-4.182-1.259-1.037-1.428-.56-3.422-.13-4.588-1.507-1.819-1.993-4.675-2.145-6.57-2.572.224-5.289-2-6.749-3.721a1.278,1.278,0,0,1,.973-2.106h4.367a6.031,6.031,0,0,1-.3-5.66,1.277,1.277,0,0,1,2.381.5,2.708,2.708,0,0,0,1.137,1.932,2.808,2.808,0,0,0,1.613.6,7.335,7.335,0,0,1,2.824-.953,3.482,3.482,0,0,1,1.2-.006,7.932,7.932,0,0,1,2.986,1.035,4.78,4.78,0,0,0,1.458-.673,2.713,2.713,0,0,0,1.138-1.932,1.277,1.277,0,0,1,2.381-.5,6.035,6.035,0,0,1-.3,5.66h4.367a1.278,1.278,0,0,1,.973,2.106c-1.46,1.72-4.179,3.982-6.749,3.721-.152,1.895-.638,4.749-2.145,6.57.431,1.166.907,3.16-.13,4.588A3.556,3.556,0,0,1,49.5,50.921ZM42.381,35.315a1.277,1.277,0,0,1,1.276,1.3c-.029,1.4.272,5.71,1.977,7.112a1.277,1.277,0,0,1,.334,1.551c-.412.836-.813,2.325-.456,2.811.153.212.716.4,1.827.212.062-.006.123-.012.186-.012H48.5c1.3.193,1.86.018,2.011-.2.357-.486-.042-1.976-.456-2.81a1.277,1.277,0,0,1,.334-1.551c1.705-1.4,2.005-5.71,1.977-7.112a1.281,1.281,0,0,1,.713-1.172,1.306,1.306,0,0,1,1.365.155c.725.574,1.8.193,2.8-.443H53.779a1.278,1.278,0,0,1-.938-2.145,8.171,8.171,0,0,0,.818-1.029c-.044.018-.087.044-.131.062a3.619,3.619,0,0,1-3.393.1,6.015,6.015,0,0,0-1.978-.617,5.955,5.955,0,0,0-2.262.617,3.652,3.652,0,0,1-3.4-.1c-.044-.018-.087-.044-.13-.062a8.259,8.259,0,0,0,.818,1.029,1.278,1.278,0,0,1-.938,2.145H38.778c1,.636,2.079,1.023,2.8.443a1.263,1.263,0,0,1,.8-.287Z" transform="translate(-34.118 -26.296)" fill="#202328"/>
            </g>
          </g>
          <g id="Grupo_1119523" data-name="Grupo 1119523" transform="translate(51.999 24.765)">
            <g id="Grupo_1119521" data-name="Grupo 1119521" transform="translate(1.277 1.275)">
              <path id="Trazado_916960" data-name="Trazado 916960" d="M47.921,30.875c.882.61,4.309-.542,4.6-3.527,0,0,1.577,2.781-1.68,6.31Z" transform="translate(-47.921 -27.348)" fill="#9b8c89"/>
            </g>
            <g id="Grupo_1119522" data-name="Grupo 1119522">
              <path id="Trazado_916961" data-name="Trazado 916961" d="M51.062,35.158a1.262,1.262,0,0,1-.881-.355l-2.917-2.78a1.275,1.275,0,0,1,1.5-2.038,2.976,2.976,0,0,0,1.572-.6,2.713,2.713,0,0,0,1.138-1.932,1.277,1.277,0,0,1,2.381-.5c.084.143,1.993,3.64-1.852,7.8a1.289,1.289,0,0,1-.9.411h-.04Zm-.131-3.166,0,.006c0-.006,0-.006.007-.012s-.008.006-.012.006Zm-2.061-1.944s0,.006,0,.006S48.872,30.048,48.871,30.048Z" transform="translate(-46.869 -26.297)" fill="#202328"/>
            </g>
          </g>
          <g id="Grupo_1119526" data-name="Grupo 1119526" transform="translate(41.323 24.765)">
            <g id="Grupo_1119524" data-name="Grupo 1119524" transform="translate(1.275 1.273)">
              <path id="Trazado_916962" data-name="Trazado 916962" d="M41.18,33.657c-3.257-3.527-1.68-6.31-1.68-6.31.287,2.985,3.715,4.139,4.6,3.527Z" transform="translate(-39.118 -27.347)" fill="#9b8c89"/>
            </g>
            <g id="Grupo_1119525" data-name="Grupo 1119525">
              <path id="Trazado_916963" data-name="Trazado 916963" d="M41.4,35.158h-.04a1.294,1.294,0,0,1-.9-.411c-3.845-4.163-1.935-7.66-1.852-7.8a1.277,1.277,0,0,1,2.381.5,2.708,2.708,0,0,0,1.137,1.932,2.808,2.808,0,0,0,1.613.6,1.184,1.184,0,0,1,1.641.28,1.328,1.328,0,0,1-.184,1.764L42.285,34.8a1.262,1.262,0,0,1-.881.355Zm.12-3.172c0,.006,0,.006.007.012l0-.006s-.007-.006-.012-.006Z" transform="translate(-38.067 -26.298)" fill="#202328"/>
            </g>
          </g>
          <g id="Grupo_1119528" data-name="Grupo 1119528" transform="translate(50.644 32.363)">
            <g id="Grupo_1119527" data-name="Grupo 1119527">
              <path id="Trazado_916964" data-name="Trazado 916964" d="M47.027,42.575A1.278,1.278,0,0,1,45.751,41.3V36.424c0-2.413,3.094-3.584,3.715-3.8a1.277,1.277,0,0,1,.822,2.419c-.966.33-1.986,1.041-1.986,1.378V41.3A1.278,1.278,0,0,1,47.027,42.575Z" transform="translate(-45.751 -32.562)" fill="#202328"/>
            </g>
          </g>
          <g id="Grupo_1119530" data-name="Grupo 1119530" transform="translate(44.808 32.362)">
            <g id="Grupo_1119529" data-name="Grupo 1119529">
              <path id="Trazado_916965" data-name="Trazado 916965" d="M45.067,42.576A1.278,1.278,0,0,1,43.79,41.3V36.424c0-.336-1.038-1.06-1.983-1.378a1.277,1.277,0,1,1,.82-2.419c.621.212,3.717,1.384,3.717,3.8V41.3A1.28,1.28,0,0,1,45.067,42.576Z" transform="translate(-40.94 -32.561)" fill="#202328"/>
            </g>
          </g>
          <g id="Grupo_1119532" data-name="Grupo 1119532" transform="translate(41.028 33.334)">
            <g id="Grupo_1119531" data-name="Grupo 1119531">
              <path id="Trazado_916966" data-name="Trazado 916966" d="M41.6,33.51l-3.771-.148s1.465,1.454,2.655,1.047a1.641,1.641,0,0,0,1.116-.9Z" transform="translate(-37.824 -33.362)" fill="#e5d2c6"/>
            </g>
          </g>
          <g id="Grupo_1119534" data-name="Grupo 1119534" transform="translate(56.174 33.334)">
            <g id="Grupo_1119533" data-name="Grupo 1119533">
              <path id="Trazado_916967" data-name="Trazado 916967" d="M50.31,33.51l3.771-.148s-1.465,1.454-2.655,1.047a1.641,1.641,0,0,1-1.116-.9Z" transform="translate(-50.31 -33.362)" fill="#e5d2c6"/>
            </g>
          </g>
          <g id="Grupo_1119539" data-name="Grupo 1119539" transform="translate(5.56 2.362)">
            <g id="Grupo_1119536" data-name="Grupo 1119536" transform="translate(1.276 1.28)">
              <g id="Grupo_1119535" data-name="Grupo 1119535">
                <path id="Trazado_916968" data-name="Trazado 916968" d="M9.636,8.883H52.973v6.064H9.636Z" transform="translate(-9.636 -8.883)" fill="#d0a586"/>
              </g>
            </g>
            <g id="Grupo_1119538" data-name="Grupo 1119538">
              <g id="Grupo_1119537" data-name="Grupo 1119537">
                <path id="Trazado_916969" data-name="Trazado 916969" d="M53.2,16.448H9.86A1.278,1.278,0,0,1,8.584,15.17V9.105A1.277,1.277,0,0,1,9.86,7.828H53.2a1.278,1.278,0,0,1,1.276,1.277V15.17A1.277,1.277,0,0,1,53.2,16.448Zm-42.06-2.555H51.921V10.384H11.136Z" transform="translate(-8.584 -7.828)"/>
              </g>
            </g>
          </g>
          <g id="Grupo_1119544" data-name="Grupo 1119544" transform="translate(5.56 14.429)">
            <g id="Grupo_1119541" data-name="Grupo 1119541" transform="translate(1.276 1.276)">
              <g id="Grupo_1119540" data-name="Grupo 1119540">
                <path id="Trazado_916970" data-name="Trazado 916970" d="M9.636,18.828H52.973v6.063H9.636Z" transform="translate(-9.636 -18.828)" fill="#d0a586"/>
              </g>
            </g>
            <g id="Grupo_1119543" data-name="Grupo 1119543" transform="translate(0 0)">
              <g id="Grupo_1119542" data-name="Grupo 1119542">
                <path id="Trazado_916971" data-name="Trazado 916971" d="M53.2,26.389H9.86a1.278,1.278,0,0,1-1.276-1.277V19.053A1.277,1.277,0,0,1,9.86,17.776H53.2a1.278,1.278,0,0,1,1.276,1.277v6.059A1.277,1.277,0,0,1,53.2,26.389Zm-42.06-2.555H51.921v-3.5H11.136Z" transform="translate(-8.584 -17.776)"/>
              </g>
            </g>
          </g>
          <g id="Grupo_1119546" data-name="Grupo 1119546" transform="translate(5.56 14.429)">
            <g id="Grupo_1119545" data-name="Grupo 1119545" transform="translate(0 0)">
              <path id="Trazado_916972" data-name="Trazado 916972" d="M53.2,26.389H9.86a1.278,1.278,0,0,1-1.276-1.277V19.053A1.277,1.277,0,0,1,9.86,17.776H53.2a1.278,1.278,0,0,1,1.276,1.277v6.059A1.277,1.277,0,0,1,53.2,26.389Zm-42.06-2.555H51.921v-3.5H11.136Z" transform="translate(-8.584 -17.776)"/>
            </g>
          </g>
          <g id="Grupo_1119551" data-name="Grupo 1119551" transform="translate(5.56 2.362)">
            <g id="Grupo_1119548" data-name="Grupo 1119548" transform="translate(1.276 1.28)">
              <g id="Grupo_1119547" data-name="Grupo 1119547">
                <path id="Trazado_916973" data-name="Trazado 916973" d="M9.636,8.883H52.973v6.064H9.636Z" transform="translate(-9.636 -8.883)" fill="#d0a586"/>
              </g>
            </g>
            <g id="Grupo_1119550" data-name="Grupo 1119550">
              <g id="Grupo_1119549" data-name="Grupo 1119549">
                <path id="Trazado_916974" data-name="Trazado 916974" d="M53.2,16.448H9.86A1.278,1.278,0,0,1,8.584,15.17V9.105A1.277,1.277,0,0,1,9.86,7.828H53.2a1.278,1.278,0,0,1,1.276,1.277V15.17A1.277,1.277,0,0,1,53.2,16.448Zm-42.06-2.555H51.921V10.384H11.136Z" transform="translate(-8.584 -7.828)"/>
              </g>
            </g>
          </g>
          <g id="Grupo_1119556" data-name="Grupo 1119556" transform="translate(48.928)">
            <g id="Grupo_1119553" data-name="Grupo 1119553" transform="translate(1.276 1.275)">
              <g id="Grupo_1119552" data-name="Grupo 1119552">
                <path id="Trazado_916975" data-name="Trazado 916975" d="M45.389,6.932h5.56V29.814h-5.56Z" transform="translate(-45.389 -6.932)" fill="#aa8979"/>
              </g>
            </g>
            <g id="Grupo_1119555" data-name="Grupo 1119555">
              <g id="Grupo_1119554" data-name="Grupo 1119554">
                <path id="Trazado_916976" data-name="Trazado 916976" d="M51.175,31.316H45.613a1.278,1.278,0,0,1-1.276-1.277V7.158a1.277,1.277,0,0,1,1.276-1.277h5.562a1.278,1.278,0,0,1,1.276,1.277V30.039A1.277,1.277,0,0,1,51.175,31.316Zm-4.285-2.555H49.9V8.436H46.889Z" transform="translate(-44.337 -5.881)"/>
              </g>
            </g>
          </g>
          <g id="Grupo_1119561" data-name="Grupo 1119561" transform="translate(0 0.012)">
            <g id="Grupo_1119558" data-name="Grupo 1119558" transform="translate(1.276 1.276)">
              <g id="Grupo_1119557" data-name="Grupo 1119557">
                <path id="Trazado_916977" data-name="Trazado 916977" d="M5.052,6.943H10.6V29.791H5.052Z" transform="translate(-5.052 -6.943)" fill="#aa8979"/>
              </g>
            </g>
            <g id="Grupo_1119560" data-name="Grupo 1119560">
              <g id="Grupo_1119559" data-name="Grupo 1119559">
                <path id="Trazado_916978" data-name="Trazado 916978" d="M10.827,31.3H5.276A1.278,1.278,0,0,1,4,30.019V7.168A1.277,1.277,0,0,1,5.276,5.891h5.551A1.278,1.278,0,0,1,12.1,7.168V30.017A1.278,1.278,0,0,1,10.827,31.3ZM6.552,28.74h3V8.447h-3Z" transform="translate(-4 -5.891)"/>
              </g>
            </g>
          </g>
          <g id="Grupo_1119566" data-name="Grupo 1119566" transform="translate(55.278 2.362)">
            <g id="Grupo_1119563" data-name="Grupo 1119563" transform="translate(1.276 1.28)">
              <g id="Grupo_1119562" data-name="Grupo 1119562">
                <path id="Trazado_916979" data-name="Trazado 916979" d="M50.624,8.883H93.961v6.064H50.624Z" transform="translate(-50.624 -8.883)" fill="#d0a586"/>
              </g>
            </g>
            <g id="Grupo_1119565" data-name="Grupo 1119565">
              <g id="Grupo_1119564" data-name="Grupo 1119564">
                <path id="Trazado_916980" data-name="Trazado 916980" d="M94.186,16.448H50.848a1.278,1.278,0,0,1-1.276-1.277V9.105a1.277,1.277,0,0,1,1.276-1.277H94.185a1.278,1.278,0,0,1,1.276,1.277V15.17A1.275,1.275,0,0,1,94.186,16.448Zm-42.06-2.555H92.91V10.384H52.125Z" transform="translate(-49.572 -7.828)"/>
              </g>
            </g>
          </g>
          <g id="Grupo_1119571" data-name="Grupo 1119571" transform="translate(55.278 14.429)">
            <g id="Grupo_1119568" data-name="Grupo 1119568" transform="translate(1.276 1.276)">
              <g id="Grupo_1119567" data-name="Grupo 1119567">
                <path id="Trazado_916981" data-name="Trazado 916981" d="M50.624,18.828H93.961v6.063H50.624Z" transform="translate(-50.624 -18.828)" fill="#d0a586"/>
              </g>
            </g>
            <g id="Grupo_1119570" data-name="Grupo 1119570" transform="translate(0 0)">
              <g id="Grupo_1119569" data-name="Grupo 1119569">
                <path id="Trazado_916982" data-name="Trazado 916982" d="M94.186,26.389H50.848a1.278,1.278,0,0,1-1.276-1.277V19.053a1.277,1.277,0,0,1,1.276-1.277H94.185a1.278,1.278,0,0,1,1.276,1.277v6.059A1.275,1.275,0,0,1,94.186,26.389Zm-42.06-2.555H92.91v-3.5H52.125Z" transform="translate(-49.572 -17.776)"/>
              </g>
            </g>
          </g>
          <g id="Grupo_1119573" data-name="Grupo 1119573" transform="translate(55.278 14.429)">
            <g id="Grupo_1119572" data-name="Grupo 1119572" transform="translate(0 0)">
              <path id="Trazado_916983" data-name="Trazado 916983" d="M94.186,26.389H50.848a1.278,1.278,0,0,1-1.276-1.277V19.053a1.277,1.277,0,0,1,1.276-1.277H94.185a1.278,1.278,0,0,1,1.276,1.277v6.059A1.275,1.275,0,0,1,94.186,26.389Zm-42.06-2.555H92.91v-3.5H52.125Z" transform="translate(-49.572 -17.776)"/>
            </g>
          </g>
          <g id="Grupo_1119578" data-name="Grupo 1119578" transform="translate(55.278 2.362)">
            <g id="Grupo_1119575" data-name="Grupo 1119575" transform="translate(1.276 1.28)">
              <g id="Grupo_1119574" data-name="Grupo 1119574">
                <path id="Trazado_916984" data-name="Trazado 916984" d="M50.624,8.883H93.961v6.064H50.624Z" transform="translate(-50.624 -8.883)" fill="#d0a586"/>
              </g>
            </g>
            <g id="Grupo_1119577" data-name="Grupo 1119577">
              <g id="Grupo_1119576" data-name="Grupo 1119576">
                <path id="Trazado_916985" data-name="Trazado 916985" d="M94.186,16.448H50.848a1.278,1.278,0,0,1-1.276-1.277V9.105a1.277,1.277,0,0,1,1.276-1.277H94.185a1.278,1.278,0,0,1,1.276,1.277V15.17A1.275,1.275,0,0,1,94.186,16.448Zm-42.06-2.555H92.91V10.384H52.125Z" transform="translate(-49.572 -7.828)"/>
              </g>
            </g>
          </g>
          <g id="Grupo_1119583" data-name="Grupo 1119583" transform="translate(98.629)">
            <g id="Grupo_1119580" data-name="Grupo 1119580" transform="translate(1.277 1.275)">
              <g id="Grupo_1119579" data-name="Grupo 1119579">
                <path id="Trazado_916986" data-name="Trazado 916986" d="M86.364,6.932h5.56V29.814h-5.56Z" transform="translate(-86.364 -6.932)" fill="#aa8979"/>
              </g>
            </g>
            <g id="Grupo_1119582" data-name="Grupo 1119582">
              <g id="Grupo_1119581" data-name="Grupo 1119581">
                <path id="Trazado_916987" data-name="Trazado 916987" d="M92.149,31.316H86.587a1.278,1.278,0,0,1-1.276-1.277V7.158a1.277,1.277,0,0,1,1.276-1.277h5.562a1.277,1.277,0,0,1,1.276,1.277V30.039A1.277,1.277,0,0,1,92.149,31.316Zm-4.285-2.555h3.009V8.436H87.863Z" transform="translate(-85.311 -5.881)"/>
              </g>
            </g>
          </g>
          <g id="Grupo_1119586" data-name="Grupo 1119586" transform="translate(56.395 75.521)">
            <g id="Grupo_1119584" data-name="Grupo 1119584" transform="translate(1.277 1.28)">
              <path id="Trazado_916988" data-name="Trazado 916988" d="M56.985,93.3c.781-6.544-5.24-13.4-5.24-13.4l-.2-.393A35.76,35.76,0,0,0,55.1,69.2c.758,6.583,4.769,9.449,4.769,9.449L61.817,93.3H56.985Z" transform="translate(-51.545 -69.196)" fill="#d1bbac"/>
            </g>
            <g id="Grupo_1119585" data-name="Grupo 1119585">
              <path id="Trazado_916989" data-name="Trazado 916989" d="M62.041,94.8H57.209a1.279,1.279,0,0,1-1.268-1.428c.706-5.915-4.875-12.335-4.932-12.4l-.378-.655a1.268,1.268,0,0,1,.012-1.178,34.664,34.664,0,0,0,3.429-9.979,1.411,1.411,0,0,1,1.308-1.016,1.282,1.282,0,0,1,1.209,1.134c.678,5.884,4.1,8.452,4.249,8.558a1.294,1.294,0,0,1,.517.866L63.3,93.352A1.281,1.281,0,0,1,62.041,94.8Zm-3.485-2.555h2.027L58.892,79.537a14.317,14.317,0,0,1-3.55-5.048,31.843,31.843,0,0,1-2.107,5.2C54.057,80.634,58.517,86.28,58.556,92.246Z" transform="translate(-50.492 -68.141)" fill="#202328"/>
            </g>
          </g>
          <g id="Grupo_1119589" data-name="Grupo 1119589" transform="translate(0.024 60.499)">
            <g id="Grupo_1119587" data-name="Grupo 1119587" transform="translate(1.267 1.273)">
              <path id="Trazado_916990" data-name="Trazado 916990" d="M65.383,69.856Q65.194,70.9,65,71.831v0a35.8,35.8,0,0,1-3.553,10.313,40.694,40.694,0,0,0-5.07,13.79h-5.7s2.237-7.4,3.093-10.242c.044-.147.085-.285.124-.411.018-.064.036-.124.051-.18.051-.18.09-.329.115-.439a1.627,1.627,0,0,0,.036-.175.209.209,0,0,0,0-.036v0c0-.558-2.849-5.063-2.96-7.387,0,.568-.311,2.772-4.813,3.332a29.456,29.456,0,0,1-8.128-.391V95.937h-4.93s-.4-6.83-1.054-11.27a23.076,23.076,0,0,0-.787-3.759c-.01-.034-.023-.064-.034-.095a2.888,2.888,0,0,0-.216-.466l-.11-.175c-1.109-1.625-1.571.574-5.2-.237-.2-.044-.4-.1-.615-.159,0,0-10.377,13.8-13.342,15.394S7,93.8,6.2,93.575s.913-3.194.684-6.271-.8-2.28,0-7.3-1.823-7.185-1.823-7.185,6.955.229,7.185,4.561c0,0,.668-1.754,1.669-4.094,1.442-3.381,3.58-7.984,5.4-10.274.4-.509.787-.99,1.164-1.442a.166.166,0,0,0,.021-.021c2.5-2.975,4.891-4.646,12.763-4.351,5.065.19,9.254.324,13.057.311,2.811-.007,5.408-.092,7.989-.3.2-.016.388-.034.581-.049,6.271-.537,13.226-2.359,10.491,12.689Z" transform="translate(-5.065 -56.807)" fill="#fcebdb"/>
            </g>
            <g id="Grupo_1119588" data-name="Grupo 1119588">
              <path id="Trazado_916991" data-name="Trazado 916991" d="M56.6,97.438H50.9a1.277,1.277,0,0,1-1.221-1.645L53,84.737c-.119-.274-.336-.685-.588-1.178-.474-.935-1.036-2.038-1.49-3.136A8.782,8.782,0,0,1,46.7,81.888a28.341,28.341,0,0,1-7.01-.181V96.162a1.277,1.277,0,0,1-1.276,1.277h-4.93a1.279,1.279,0,0,1-1.275-1.2c0-.069-.4-6.825-1.042-11.157a20.815,20.815,0,0,0-.729-3.521l-.125-.306s-.047-.062-.1-.131a.969.969,0,0,0-.155.056,6.966,6.966,0,0,1-4.089.268c-2.3,3.023-10.416,13.55-13.245,15.071-3,1.614-5.246-.274-6.327-1.178a4.643,4.643,0,0,0-.454-.361c-1.453-.405-1-2.145-.672-3.41a12.292,12.292,0,0,0,.558-3.946A17.594,17.594,0,0,0,5.6,85.764c-.233-1.359-.319-2.169.247-5.734.664-4.163-1.305-5.94-1.39-6.015a1.287,1.287,0,0,1-.352-1.434,1.32,1.32,0,0,1,1.221-.816c2.109.075,5.268.741,7.058,2.618.176-.423.37-.885.579-1.371,1.493-3.5,3.671-8.171,5.574-10.565.41-.524.8-1.009,1.189-1.471,2.9-3.447,5.816-5.08,13.807-4.83,5.121.193,9.277.312,13.006.312,2.876-.006,5.458-.1,7.894-.286l1.9-.175c3.422-.336,6.958-.691,9.219,1.758,2.044,2.219,2.459,6.208,1.3,12.559-.127.7-.258,1.378-.393,2.007a36.86,36.86,0,0,1-3.675,10.652l-.341.636a38.347,38.347,0,0,0-4.6,12.8A1.278,1.278,0,0,1,56.6,97.438Zm-3.981-2.555h2.938a40.463,40.463,0,0,1,4.653-12.49l.336-.623A34.526,34.526,0,0,0,63.971,71.8q.195-.926.378-1.944c.972-5.342.746-8.832-.668-10.365s-4.165-1.241-7.091-.953l-1.92.181c-2.682.206-5.5.3-8.623.3-3.628,0-7.683-.125-12.607-.312-7.635-.343-9.6,1.352-11.738,3.895-.391.461-.765.935-1.161,1.434a50.16,50.16,0,0,0-5.227,9.979c-.986,2.312-1.646,4.039-1.65,4.051a1.254,1.254,0,0,1-1.391.8,1.278,1.278,0,0,1-1.077-1.19c-.086-1.633-1.759-2.481-3.309-2.911a10.709,10.709,0,0,1,.483,5.666c-.526,3.309-.428,3.877-.252,4.905a19.325,19.325,0,0,1,.264,2.1,14.571,14.571,0,0,1-.633,4.774c-.063.243-.139.536-.193.779.155.112.314.25.489.393,1.174.979,2.109,1.608,3.478.892,1.978-1.066,8.979-9.791,12.927-15.04a1.321,1.321,0,0,1,1.378-.461c.187.056.365.106.535.143a4.643,4.643,0,0,0,2.868-.149,2.315,2.315,0,0,1,3.113.916,4.424,4.424,0,0,1,.463.9,23.251,23.251,0,0,1,.892,4.127c.5,3.366.844,8.009.99,10.178h2.455V80.234a1.283,1.283,0,0,1,.448-.973,1.238,1.238,0,0,1,1.029-.286,29.573,29.573,0,0,0,7.767.387c2.722-.343,3.692-1.334,3.7-2.075a1.276,1.276,0,0,1,2.551-.056c.059,1.265,1.31,3.714,2.056,5.179.7,1.378.9,1.8.9,2.268-.006.032-.073.511-.082.548l-.3,1.053Z" transform="translate(-4.02 -55.757)" fill="#202328"/>
            </g>
          </g>
          <g id="Grupo_1119592" data-name="Grupo 1119592" transform="translate(20.811 83.246)">
            <g id="Grupo_1119590" data-name="Grupo 1119590" transform="translate(1.276 1.275)">
              <path id="Trazado_916992" data-name="Trazado 916992" d="M28.56,80.672c-.1,4.292-2.633,11.27-2.633,11.27H22.592l-.383-16c3.633.81,4.1-1.389,5.2.237l.11.175a2.886,2.886,0,0,1,.216.466c.01.03.023.062.034.095A23.124,23.124,0,0,1,28.56,80.672Z" transform="translate(-22.209 -75.561)" fill="#d1bbac"/>
            </g>
            <g id="Grupo_1119591" data-name="Grupo 1119591">
              <path id="Trazado_916993" data-name="Trazado 916993" d="M26.152,93.444H22.816A1.276,1.276,0,0,1,21.54,92.2l-.383-16a1.276,1.276,0,0,1,.466-1.016,1.293,1.293,0,0,1,1.088-.262,4.655,4.655,0,0,0,2.869-.149,2.315,2.315,0,0,1,3.113.916,4.424,4.424,0,0,1,.463.9,23.251,23.251,0,0,1,.892,4.127,1.466,1.466,0,0,1,.013.218c-.107,4.444-2.6,11.382-2.709,11.674a1.275,1.275,0,0,1-1.2.842Zm-2.089-2.555h1.179c.647-1.926,2.155-6.731,2.263-9.916a20.294,20.294,0,0,0-.712-3.41l-.125-.306s-.047-.062-.1-.131a.969.969,0,0,0-.155.056,7.546,7.546,0,0,1-2.671.443Z" transform="translate(-21.157 -74.51)" fill="#202328"/>
            </g>
          </g>
          <g id="Grupo_1119595" data-name="Grupo 1119595" transform="translate(67.869 77.355)">
            <g id="Grupo_1119593" data-name="Grupo 1119593" transform="translate(1.276 1.275)">
              <path id="Trazado_916994" data-name="Trazado 916994" d="M61,71.456c1.2,2.481-.456,2.652,1.511,4.02a7.368,7.368,0,0,1,2.851,5.9s3.507-8.518-4.02-10.673Z" transform="translate(-61.004 -70.704)" fill="#9b8c89"/>
            </g>
            <g id="Grupo_1119594" data-name="Grupo 1119594">
              <path id="Trazado_916995" data-name="Trazado 916995" d="M65.59,82.879a1.329,1.329,0,0,1-.313-.038,1.279,1.279,0,0,1-.957-1.371,6.193,6.193,0,0,0-2.312-4.725,2.879,2.879,0,0,1-1.581-2.88,2.813,2.813,0,0,0-.349-1.633,1.275,1.275,0,0,1-.011-1.084l.342-.748a1.27,1.27,0,0,1,1.511-.7A7.481,7.481,0,0,1,66.893,73.6c1.8,3.721-.044,8.3-.123,8.489a1.278,1.278,0,0,1-1.18.793ZM62.948,72.9a5.336,5.336,0,0,1,.029,1.1c-.023.218.061.355.489.655A7.014,7.014,0,0,1,65.047,76.2a5.251,5.251,0,0,0-.455-1.49A4.321,4.321,0,0,0,62.948,72.9Z" transform="translate(-59.952 -69.653)" fill="#202328"/>
            </g>
          </g>
          <g id="Grupo_1119597" data-name="Grupo 1119597" transform="translate(60.838 64.169)">
            <g id="Grupo_1119596" data-name="Grupo 1119596">
              <path id="Trazado_916996" data-name="Trazado 916996" d="M62.464,75.272a1.279,1.279,0,0,1-1.15-.723,14.135,14.135,0,0,1-1.026-5.46,38.544,38.544,0,0,0-.534-4.943,3.363,3.363,0,0,0-4.1-2.755,1.3,1.3,0,0,1-1.477-1.041,1.279,1.279,0,0,1,1.037-1.477c2.063-.361,6.195.175,7.054,4.812a40.551,40.551,0,0,1,.571,5.249,12.2,12.2,0,0,0,.778,4.506,1.282,1.282,0,0,1-1.15,1.832Z" transform="translate(-54.155 -58.783)" fill="#202328"/>
            </g>
          </g>
          <g id="Grupo_1119600" data-name="Grupo 1119600" transform="translate(41.27 80.746)">
            <g id="Grupo_1119598" data-name="Grupo 1119598" transform="translate(1.277 1.282)">
              <path id="Trazado_916997" data-name="Trazado 916997" d="M46.851,80.894v0a.217.217,0,0,1,0,.036,1.33,1.33,0,0,1-.036.175c-.025.11-.064.26-.115.439-.016.057-.034.115-.051.18-.039.126-.08.264-.124.411-.007.028-.018.055-.025.082a8.236,8.236,0,0,1-1.219.095c-5.148,0-6.2-5.474-6.2-5.474l0,0c4.5-.56,4.811-2.764,4.813-3.332.112,2.325,2.96,6.83,2.96,7.388Z" transform="translate(-39.076 -73.506)" fill="#ff8383"/>
            </g>
            <g id="Grupo_1119599" data-name="Grupo 1119599">
              <path id="Trazado_916998" data-name="Trazado 916998" d="M45.5,83.817c-4.905,0-7.022-4.258-7.456-6.506a1.277,1.277,0,0,1,1.1-1.508c2.722-.343,3.692-1.334,3.7-2.075a1.276,1.276,0,0,1,2.551-.056c.059,1.265,1.31,3.714,2.056,5.179.7,1.378.9,1.8.9,2.268a1.743,1.743,0,0,1-.024.274l-.355,1.327a1.417,1.417,0,0,1-1.069.991A10.282,10.282,0,0,1,45.5,83.817Zm-4.539-5.753a4.714,4.714,0,0,0,4.773,3.191l.022-.075c-.119-.274-.334-.679-.583-1.172-.552-1.084-1.081-2.145-1.493-3.142a7.5,7.5,0,0,1-2.718,1.2Zm6.112,3.06h.032Z" transform="translate(-38.023 -72.449)" fill="#202328"/>
            </g>
          </g>
          <g id="Grupo_1119602" data-name="Grupo 1119602" transform="translate(39.581 86.823)">
            <g id="Grupo_1119601" data-name="Grupo 1119601">
              <path id="Trazado_916999" data-name="Trazado 916999" d="M37.908,82.127a1.278,1.278,0,0,1-.759-2.306l2.86-2.113a1.278,1.278,0,0,1,1.517,2.057l-2.86,2.113A1.28,1.28,0,0,1,37.908,82.127Z" transform="translate(-36.631 -77.458)" fill="#202328"/>
            </g>
          </g>
          <g id="Grupo_1119604" data-name="Grupo 1119604" transform="translate(44.113 89.054)">
            <g id="Grupo_1119603" data-name="Grupo 1119603">
              <path id="Trazado_917000" data-name="Trazado 917000" d="M41.646,85.842a1.308,1.308,0,0,1-.273-.032,1.278,1.278,0,0,1-.976-1.521l.868-3.99a1.277,1.277,0,0,1,2.5.548l-.869,3.99A1.28,1.28,0,0,1,41.646,85.842Z" transform="translate(-40.367 -79.298)" fill="#202328"/>
            </g>
          </g>
          <g id="Grupo_1119606" data-name="Grupo 1119606" transform="translate(4.69 95.01)">
            <g id="Grupo_1119605" data-name="Grupo 1119605">
              <path id="Trazado_917001" data-name="Trazado 917001" d="M9.141,91.08A1.25,1.25,0,0,1,8.5,90.9a1.277,1.277,0,0,1-.465-1.745,5.914,5.914,0,0,0,.533-3.447,1.277,1.277,0,1,1,2.513-.449,8.475,8.475,0,0,1-.836,5.179,1.284,1.284,0,0,1-1.107.637Z" transform="translate(-7.866 -84.208)" fill="#202328"/>
            </g>
          </g>
          <g id="Grupo_1119609" data-name="Grupo 1119609" transform="translate(8.868 65.238)">
            <g id="Grupo_1119607" data-name="Grupo 1119607" transform="translate(1.276 1.28)">
              <path id="Trazado_917002" data-name="Trazado 917002" d="M23.237,69.365c-2.31,2.739-4.618,1.368-6.331,1.114s-2.767.119-4.544,1.977c1.442-3.381,3.58-7.984,5.4-10.274.4-.509.787-.99,1.164-1.442a.166.166,0,0,0,.021-.021,13.33,13.33,0,0,1,3.605,1.55C23.406,63.038,25.546,66.63,23.237,69.365Z" transform="translate(-12.363 -60.719)" fill="#9b8c89"/>
            </g>
            <g id="Grupo_1119608" data-name="Grupo 1119608" transform="translate(0)">
              <path id="Trazado_917003" data-name="Trazado 917003" d="M12.587,73.956a1.279,1.279,0,0,1-1.174-1.777c1.493-3.5,3.671-8.171,5.574-10.565.41-.524.8-1.009,1.189-1.471a1.3,1.3,0,0,1,1.345-.431,12.821,12.821,0,0,1,4.112,1.833c1.386,1.247,3.588,5.572.8,8.869-2.386,2.836-5.016,2.175-6.585,1.752a7.88,7.88,0,0,0-.909-.2c-1.156-.181-1.833-.081-3.432,1.6a1.287,1.287,0,0,1-.923.394Zm3.657-4.6a7.365,7.365,0,0,1,1.076.081,11.81,11.81,0,0,1,1.163.262c1.48.38,2.649.673,4-.929,1.712-2.026-.053-4.868-.56-5.329a9.31,9.31,0,0,0-2.312-1.029l-.623.785a35.157,35.157,0,0,0-3.536,6.214A5.582,5.582,0,0,1,16.244,69.356Z" transform="translate(-11.311 -59.663)" fill="#202328"/>
            </g>
          </g>
          <g id="Grupo_1119612" data-name="Grupo 1119612" transform="translate(37.779 60.9)">
            <g id="Grupo_1119610" data-name="Grupo 1119610" transform="translate(1.279 1.283)">
              <path id="Trazado_917004" data-name="Trazado 917004" d="M46.809,62.845c-4.79.5-3.934,12.157-8.809,5.4s1.69-10.8,1.69-10.8l0,0c2.811-.007,5.408-.092,7.989-.3.123.164,3.838,5.209-.872,5.7Z" transform="translate(-36.199 -57.145)" fill="#9b8c89"/>
            </g>
            <g id="Grupo_1119611" data-name="Grupo 1119611">
              <path id="Trazado_917005" data-name="Trazado 917005" d="M40.758,71.851c-1.474,0-2.675-1.4-3.569-2.63a8.906,8.906,0,0,1-1.9-7.05,9.274,9.274,0,0,1,3.886-5.541,1.251,1.251,0,0,1,.74-.243c2.876-.006,5.457-.1,7.894-.286a1.194,1.194,0,0,1,1.115.5c.261.343,2.512,3.416,1.507,5.734-.343.8-1.189,1.789-3.263,2.008-1.337.137-2.186,2.063-2.933,3.765-.805,1.827-1.565,3.559-3.229,3.734-.085,0-.167.011-.247.011Zm-.432-12.909a6.591,6.591,0,0,0-2.539,3.746,6.5,6.5,0,0,0,1.471,5.036c1.048,1.452,1.51,1.571,1.53,1.577a13.488,13.488,0,0,0,1.105-2.225c.927-2.1,2.194-4.987,5.006-5.279.308-.032,1.038-.143,1.184-.474.23-.53-.267-1.72-.822-2.624-2.162.149-4.443.23-6.935.243Zm6.708,4.127h.032Z" transform="translate(-35.145 -56.087)" fill="#202328"/>
            </g>
          </g>
          <g id="Grupo_1119614" data-name="Grupo 1119614" transform="translate(4.813 80.38)">
            <g id="Grupo_1119613" data-name="Grupo 1119613">
              <path id="Trazado_917006" data-name="Trazado 917006" d="M10.263,75.172a3.113,3.113,0,0,0-2.295-3.025c.313,1.878.626,3.755.313,4.068s1.982-1.043,1.982-1.043Z" transform="translate(-7.968 -72.147)" fill="#e5d2c6"/>
            </g>
          </g>
          <g id="Grupo_1119616" data-name="Grupo 1119616" transform="translate(5.804 86.92)">
            <g id="Grupo_1119615" data-name="Grupo 1119615">
              <path id="Trazado_917007" data-name="Trazado 917007" d="M10.061,80.046a1.26,1.26,0,0,1-.893-.387,1.294,1.294,0,0,1-.383-.892,1.621,1.621,0,0,1,.383-.9,1.454,1.454,0,0,1,1.85,0,1.621,1.621,0,0,1,.383.9,1.434,1.434,0,0,1-.383.892A1.3,1.3,0,0,1,10.061,80.046Z" transform="translate(-8.785 -77.538)" fill="#202328"/>
            </g>
          </g>
        </g>
      </g>
    </g>
  </g>
</svg>
