<svg xmlns="http://www.w3.org/2000/svg" width="61" height="61" viewBox="0 0 61 61">
  <g id="Grupo_1119725" data-name="Grupo 1119725" transform="translate(-750.051 -9055)">
    <circle id="Elipse_11760" data-name="Elipse 11760" cx="30.5" cy="30.5" r="30.5" transform="translate(750.051 9055)" fill="#fff"/>
    <g id="Grupo_1119724" data-name="Grupo 1119724" transform="translate(699.099 9064)">
      <g id="Grupo_1119714" data-name="Grupo 1119714" transform="translate(66.582 0.63)">
        <path id="Trazado_917328" data-name="Trazado 917328" d="M102.748,49.24H74.82a1.367,1.367,0,0,1-1.367-1.367V8.867A1.367,1.367,0,0,1,74.82,7.5h27.928a1.367,1.367,0,0,1,1.367,1.367V47.873A1.367,1.367,0,0,1,102.748,49.24Z" transform="translate(-73.453 -7.5)" fill="#cf9875"/>
      </g>
      <g id="Grupo_1119715" data-name="Grupo 1119715" transform="translate(93.357 0.63)">
        <path id="Trazado_917329" data-name="Trazado 917329" d="M394.788,7.5h-2.52a1.367,1.367,0,0,1,1.367,1.367V47.873a1.367,1.367,0,0,1-1.367,1.367h2.52a1.367,1.367,0,0,0,1.367-1.367V8.867A1.367,1.367,0,0,0,394.788,7.5Z" transform="translate(-392.268 -7.5)" fill="#c7865b"/>
      </g>
      <g id="Grupo_1119716" data-name="Grupo 1119716" transform="translate(69.689 5.324)">
        <path id="Trazado_917330" data-name="Trazado 917330" d="M0,0H33.938V24.448H0Z" transform="translate(24.448 0) rotate(90)" fill="#f7f7f7"/>
      </g>
      <g id="Grupo_1119717" data-name="Grupo 1119717" transform="translate(91.617 5.324)">
        <path id="Trazado_917331" data-name="Trazado 917331" d="M371.548,63.4h2.52V97.334h-2.52Z" transform="translate(-371.548 -63.396)" fill="#e8e8e8"/>
      </g>
      <g id="Grupo_1119718" data-name="Grupo 1119718" transform="translate(75.679 3.213)">
        <path id="Trazado_917332" data-name="Trazado 917332" d="M181.775,38.255h12.468v4.222H181.775Z" transform="translate(-181.775 -38.255)" fill="#b4aaaa"/>
      </g>
      <g id="Grupo_1119719" data-name="Grupo 1119719" transform="translate(85.627 3.213)">
        <path id="Trazado_917333" data-name="Trazado 917333" d="M300.225,38.255h2.52v4.222h-2.52Z" transform="translate(-300.225 -38.255)" fill="#9b9696"/>
      </g>
      <g id="Grupo_1119720" data-name="Grupo 1119720" transform="translate(73.852 10.536)">
        <path id="Trazado_917334" data-name="Trazado 917334" d="M165.369,131.963h-4.187a1.16,1.16,0,0,1-1.16-1.16v-4.187a1.16,1.16,0,0,1,1.16-1.16h4.187a1.16,1.16,0,0,1,1.16,1.16V130.8A1.16,1.16,0,0,1,165.369,131.963Z" transform="translate(-160.022 -125.456)" fill="#92e0c4"/>
      </g>
      <g id="Grupo_1119721" data-name="Grupo 1119721" transform="translate(73.852 20.003)">
        <path id="Trazado_917335" data-name="Trazado 917335" d="M165.369,244.684h-4.187a1.16,1.16,0,0,1-1.16-1.16v-4.187a1.16,1.16,0,0,1,1.16-1.16h4.187a1.16,1.16,0,0,1,1.16,1.16v4.187A1.16,1.16,0,0,1,165.369,244.684Z" transform="translate(-160.022 -238.177)" fill="#92e0c4"/>
      </g>
      <g id="Grupo_1119722" data-name="Grupo 1119722" transform="translate(73.852 29.47)">
        <path id="Trazado_917336" data-name="Trazado 917336" d="M165.369,357.406h-4.187a1.16,1.16,0,0,1-1.16-1.16v-4.187a1.16,1.16,0,0,1,1.16-1.16h4.187a1.16,1.16,0,0,1,1.16,1.16v4.187A1.16,1.16,0,0,1,165.369,357.406Z" transform="translate(-160.022 -350.899)" fill="#92e0c4"/>
      </g>
      <g id="Grupo_1119723" data-name="Grupo 1119723" transform="translate(65.952 0)">
        <path id="Trazado_917337" data-name="Trazado 917337" d="M95.877,0H67.949a2,2,0,0,0-2,2V14.921a.63.63,0,0,0,1.26,0V2a.738.738,0,0,1,.737-.737H95.877A.738.738,0,0,1,96.614,2V41a.738.738,0,0,1-.737.737H67.949A.738.738,0,0,1,67.212,41V17.441a.63.63,0,0,0-1.26,0V41a2,2,0,0,0,2,2H95.877a2,2,0,0,0,2-2V2a2,2,0,0,0-2-2Z" transform="translate(-65.952 0)"/>
        <path id="Trazado_917338" data-name="Trazado 917338" d="M122.039,30.755H109.572a.63.63,0,0,0-.63.63v1.482h-5.36a.63.63,0,0,0-.63.63V67.435a.63.63,0,0,0,.63.63h24.448a.63.63,0,0,0,.63-.63V55.482a.63.63,0,0,0-1.26,0V66.8H104.212V34.126h4.73v1.48a.63.63,0,0,0,.63.63h12.468a.63.63,0,0,0,.63-.63v-1.48h4.73V52.962a.63.63,0,1,0,1.26,0V33.5a.63.63,0,0,0-.63-.63h-5.36V31.385A.63.63,0,0,0,122.039,30.755Zm-.63,4.222H110.2V32.015H121.41v2.962Z" transform="translate(-99.845 -28.172)"/>
        <path id="Trazado_917339" data-name="Trazado 917339" d="M160.29,119.745a1.792,1.792,0,0,0-1.79-1.79h-4.187a1.792,1.792,0,0,0-1.79,1.79v4.187a1.792,1.792,0,0,0,1.79,1.79H158.5a1.792,1.792,0,0,0,1.79-1.79Zm-1.26,4.187a.531.531,0,0,1-.53.53h-4.187a.531.531,0,0,1-.53-.53v-4.187a.531.531,0,0,1,.53-.53H158.5a.531.531,0,0,1,.53.53Z" transform="translate(-145.252 -108.049)"/>
        <path id="Trazado_917340" data-name="Trazado 917340" d="M181.241,147.989l-.945,1.017-.206-.206a.63.63,0,0,0-.891.891l.668.668a.63.63,0,0,0,.445.185h.012a.63.63,0,0,0,.45-.2l1.389-1.5a.63.63,0,0,0-.923-.857Z" transform="translate(-169.52 -135.376)"/>
        <path id="Trazado_917341" data-name="Trazado 917341" d="M270.111,127.511h2.994a.63.63,0,0,0,0-1.26h-2.994a.63.63,0,1,0,0,1.26Z" transform="translate(-252.388 -115.648)"/>
        <path id="Trazado_917342" data-name="Trazado 917342" d="M270.111,188.4h2.994a.63.63,0,0,0,0-1.26h-2.994a.63.63,0,0,0,0,1.26Z" transform="translate(-252.388 -171.426)"/>
        <path id="Trazado_917343" data-name="Trazado 917343" d="M276.745,156.7h-6.634a.63.63,0,0,0,0,1.26h6.634a.63.63,0,0,0,0-1.26Z" transform="translate(-252.388 -143.537)"/>
        <path id="Trazado_917344" data-name="Trazado 917344" d="M160.29,232.467a1.792,1.792,0,0,0-1.79-1.79h-4.187a1.792,1.792,0,0,0-1.79,1.79v4.187a1.792,1.792,0,0,0,1.79,1.79H158.5a1.792,1.792,0,0,0,1.79-1.79Zm-1.26,4.187a.531.531,0,0,1-.53.53h-4.187a.531.531,0,0,1-.53-.53v-4.187a.531.531,0,0,1,.53-.53H158.5a.531.531,0,0,1,.53.53Z" transform="translate(-145.252 -211.304)"/>
        <path id="Trazado_917345" data-name="Trazado 917345" d="M181.241,260.711l-.945,1.017-.206-.206a.63.63,0,1,0-.891.891l.668.668a.63.63,0,0,0,.445.185h.012a.63.63,0,0,0,.45-.2l1.389-1.5a.63.63,0,0,0-.923-.857Z" transform="translate(-169.52 -238.631)"/>
        <path id="Trazado_917346" data-name="Trazado 917346" d="M270.111,240.232h2.994a.63.63,0,0,0,0-1.26h-2.994a.63.63,0,1,0,0,1.26Z" transform="translate(-252.388 -218.902)"/>
        <path id="Trazado_917347" data-name="Trazado 917347" d="M270.111,301.124h2.994a.63.63,0,0,0,0-1.26h-2.994a.63.63,0,0,0,0,1.26Z" transform="translate(-252.388 -274.68)"/>
        <path id="Trazado_917348" data-name="Trazado 917348" d="M276.745,269.418h-6.634a.63.63,0,0,0,0,1.26h6.634a.63.63,0,0,0,0-1.26Z" transform="translate(-252.388 -246.791)"/>
        <path id="Trazado_917349" data-name="Trazado 917349" d="M158.5,343.4h-4.187a1.792,1.792,0,0,0-1.79,1.79v4.187a1.792,1.792,0,0,0,1.79,1.79H158.5a1.792,1.792,0,0,0,1.79-1.79v-4.187A1.792,1.792,0,0,0,158.5,343.4Zm.53,5.977a.531.531,0,0,1-.53.53h-4.187a.531.531,0,0,1-.53-.53v-4.187a.531.531,0,0,1,.53-.53H158.5a.531.531,0,0,1,.53.53Z" transform="translate(-145.251 -314.558)"/>
        <path id="Trazado_917350" data-name="Trazado 917350" d="M181.241,373.432l-.945,1.017-.206-.206a.63.63,0,0,0-.891.891l.668.668a.63.63,0,0,0,.445.185h.012a.63.63,0,0,0,.45-.2l1.389-1.5a.63.63,0,0,0-.923-.857Z" transform="translate(-169.52 -341.885)"/>
        <path id="Trazado_917351" data-name="Trazado 917351" d="M270.111,352.953h2.994a.63.63,0,0,0,0-1.26h-2.994a.63.63,0,0,0,0,1.26Z" transform="translate(-252.388 -322.156)"/>
        <path id="Trazado_917352" data-name="Trazado 917352" d="M270.111,412.585a.63.63,0,1,0,0,1.26h2.994a.63.63,0,0,0,0-1.26Z" transform="translate(-252.388 -377.934)"/>
        <path id="Trazado_917353" data-name="Trazado 917353" d="M277.375,382.769a.63.63,0,0,0-.63-.63h-6.634a.63.63,0,0,0,0,1.26h6.634A.63.63,0,0,0,277.375,382.769Z" transform="translate(-252.388 -350.045)"/>
      </g>
    </g>
  </g>
</svg>
