<svg xmlns="http://www.w3.org/2000/svg" width="77" height="77" viewBox="0 0 77 77">
  <g id="Grupo_1119763" data-name="Grupo 1119763" transform="translate(-772.051 -11389)">
    <g id="Grupo_1098742" data-name="Grupo 1098742" transform="translate(772.051 11389)">
      <rect id="Rectángulo_400898" data-name="Rectángulo 400898" width="77" height="77" rx="38.5" transform="translate(0 0)" fill="#ccda2d"/>
      <rect id="Rectángulo_400907" data-name="Rectángulo 400907" width="77" height="77" rx="38.5" transform="translate(0 0)" fill="none"/>
    </g>
    <g id="Cow_Tracking" data-name="Cow Tracking" transform="translate(781.145 11398.067)">
      <g id="Filled" transform="translate(0.835 0.859)">
        <path id="Trazado_917472" data-name="Trazado 917472" d="M57.027,142.161l-7.706,1.185L26.365,141.51,23.756,138.9a6.442,6.442,0,0,0,1.691-2.9H21.774c-1.775,0-2.755.822-2.755,1.837v.525l-2.755.394-4.591,4.591L8,145.183v1.837a1.837,1.837,0,0,0,1.837,1.837h2.755l7.346,2.755,2.326,11.962a4.13,4.13,0,0,0,4.1,3.648V178.24H28.2a1.837,1.837,0,0,0,1.837-1.837v-5.667h0a6.27,6.27,0,0,0,1.837-4.434v-.918h2.755l15.61-3.673h.179a9.495,9.495,0,0,0,4.6,6.407l1.644.939.918,9.183h1.837a1.837,1.837,0,0,0,1.837-1.837V145.791a3.673,3.673,0,0,0-4.232-3.63Z" transform="translate(-8 -121.308)" fill="#ededed"/>
        <path id="Trazado_917473" data-name="Trazado 917473" d="M301.666,360h-.179l-9.662,2.273a8.72,8.72,0,0,0,14,3.859A9.5,9.5,0,0,1,301.666,360Z" transform="translate(-259.247 -319.597)" fill="#f7e0ba"/>
        <rect id="Rectángulo_405504" data-name="Rectángulo 405504" width="5.51" height="3.673" rx="1.837" transform="translate(38.567 31.221)" fill="#90a4ae"/>
        <path id="Trazado_917474" data-name="Trazado 917474" d="M218.1,8A10.1,10.1,0,0,0,208,18.1c0,5.578,10.1,21.12,10.1,21.12s10.1-15.542,10.1-21.12A10.1,10.1,0,0,0,218.1,8Zm0,15.61a5.51,5.51,0,1,1,5.51-5.51A5.51,5.51,0,0,1,218.1,23.61Z" transform="translate(-185.044 -8)" fill="#ea7432"/>
        <path id="Trazado_917475" data-name="Trazado 917475" d="M269.016,170.627a16.932,16.932,0,0,1-11.616,5.2c2.3,4.082,4.431,7.358,4.431,7.358A140.685,140.685,0,0,0,269.016,170.627Z" transform="translate(-228.773 -151.96)" fill="#e2601e"/>
        <path id="Trazado_917476" data-name="Trazado 917476" d="M341.037,366.132A9.5,9.5,0,0,1,336.882,360H336.7l-5.1,1.2a10.249,10.249,0,0,1,3.575,7.063l.143,0A8.687,8.687,0,0,0,341.037,366.132Z" transform="translate(-294.464 -319.597)" fill="#e8c085"/>
        <path id="Trazado_917477" data-name="Trazado 917477" d="M387.553,193.568a26.719,26.719,0,0,1-8.869,19.664,9.494,9.494,0,0,0,4.476,5.846l1.644.939.918,9.183h1.837a1.837,1.837,0,0,0,1.837-1.837V196.751a3.666,3.666,0,0,0-1.842-3.183Z" transform="translate(-336.136 -172.268)" fill="#e2e2e2"/>
        <path id="Trazado_917478" data-name="Trazado 917478" d="M168,412.846V420.9h1.837a1.837,1.837,0,0,0,1.837-1.837V413.4h0a6.269,6.269,0,0,0,1.727-3.271A26.536,26.536,0,0,1,168,412.846Z" transform="translate(-149.635 -363.97)" fill="#e2e2e2"/>
        <path id="Trazado_917479" data-name="Trazado 917479" d="M105.971,273.183a2.755,2.755,0,0,0,0-5.51h-2.755A3.673,3.673,0,0,0,99.543,264H90.667l2.449.918.536,2.755h4.056a5.51,5.51,0,0,0,5.51,5.51Z" transform="translate(-81.178 -234.616)" fill="#90a4ae"/>
        <path id="Trazado_917480" data-name="Trazado 917480" d="M396.951,189.342,392,190.1v.424l.675,2.025a5.1,5.1,0,0,0,4.835,3.485h0v3.673a3.673,3.673,0,0,0,3.673,3.673h0V192.973a3.673,3.673,0,0,0-4.232-3.63Z" transform="translate(-347.924 -168.49)" fill="#90a4ae"/>
        <path id="Trazado_917481" data-name="Trazado 917481" d="M441.831,193.564A26.979,26.979,0,0,1,440,203.11v.375a3.673,3.673,0,0,0,3.673,3.673h0V196.748A3.666,3.666,0,0,0,441.831,193.564Z" transform="translate(-390.414 -172.265)" fill="#7e97a3"/>
      </g>
      <g id="Outline" transform="translate(-0.094 -0.067)">
        <path id="Trazado_917482" data-name="Trazado 917482" d="M56.849,140.856v11.937a.918.918,0,1,0,1.837,0V140.856a5.516,5.516,0,0,0-5.124-5.495,4.583,4.583,0,0,0-3.839-1.19l-6.254.962a.918.918,0,1,0,.279,1.815l.4-.062c.294.5.824,5.041,5.352,5.736v2.825a4.6,4.6,0,0,0,3.673,4.5v19.375a.919.919,0,0,1-.918.918H51.252l-.836-8.356c-.067-.67-.505-.69-2.532-1.91a8.593,8.593,0,0,1-3.891-7.181.918.918,0,1,0-1.837,0,10.361,10.361,0,0,0,.059,1.1l-14.858,3.5h-1.73v-.918a.918.918,0,0,0-.918-.918c-2.218,0,.615,4.357-2.486,7.458-.473.473-.179.59-.269,6.316a.919.919,0,0,1-.918.918h-.918V157.384a.918.918,0,0,0-1.837,0v1.7a3.213,3.213,0,0,1-2.272-2.7c-.008-.066.1.494-1.588-8.182h2.089a6.438,6.438,0,0,0,6.362,5.51h2.755a3.673,3.673,0,0,0,0-7.346H23.7a4.6,4.6,0,0,0-4.5-3.673H16.446a.918.918,0,1,0,0,1.837H19.2a2.758,2.758,0,0,1,2.755,2.755.918.918,0,0,0,.918.918h2.755a1.837,1.837,0,1,1,0,3.673H22.873a4.6,4.6,0,0,1-4.591-4.591.918.918,0,0,0-.918-.918h-3.3c-.41-1.581-.192-2.4-.97-2.7-7.652-2.848-7.355-2.813-7.668-2.813H2.672a.919.919,0,0,1-.918-.918v-1.269c3.331-1.683,3.218-1.569,3.4-1.755l4.375-4.375,1.4-.2v.253a.918.918,0,1,0,1.837,0v-1.837c0-1.289,3.361-.845,4.171-.918a3.363,3.363,0,0,1-1.708,1.737.918.918,0,0,0,.584,1.741,3.811,3.811,0,0,0,.67-.3c2,1.909,2.06,2.282,2.639,2.328,2.892.23,4.354.35,4.412.35a.919.919,0,0,0,.072-1.834l-4-.32-1.745-1.745a7.872,7.872,0,0,0,1.307-2.654A.918.918,0,0,0,18.282,128H14.609c-2.35,0-3.508,1.239-3.656,2.481l-1.911.273a6.176,6.176,0,0,1-3.885-1.566.918.918,0,0,0-1.3,1.3,8.063,8.063,0,0,0,3.293,1.837L3.964,135.51l-3.54,1.77c-.805.4-.4,1.331-.508,2.658a2.758,2.758,0,0,0,2.755,2.755H5.26l6.709,2.516,2.221,11.426a5.05,5.05,0,0,0,4.092,4.339v9.267h-.918a.918.918,0,1,0,0,1.837h3.673a2.758,2.758,0,0,0,2.755-2.755v-5.3a7.136,7.136,0,0,0,1.837-4.8c2.448.041,1.137.18,7.212-1.24a9.616,9.616,0,0,0,1.694,2.647l-1.052.526a.919.919,0,0,0,.411,1.74c.37,0,.453-.151,2.1-.943a9.621,9.621,0,0,0,2.241,1.221l-.574,1.148a.918.918,0,1,0,1.643.821l.736-1.472a9.549,9.549,0,0,0,2.449.109c.545.875.617,1.871,1.5,1.871a.919.919,0,0,0,.821-1.329l-.444-.888a9.636,9.636,0,0,0,3.114-1.553l1.152.659.77,7.7h-.822a.918.918,0,0,0,0,1.837h3.673a2.758,2.758,0,0,0,2.755-2.755c-.049-32.114.118-30.694-.137-31.721A3.676,3.676,0,0,1,56.849,140.856Zm-22.187,16.7,7.91-1.861a10.451,10.451,0,0,0,3.3,5.072,7.8,7.8,0,0,1-11.211-3.21Zm18.514-9.509a2.759,2.759,0,0,1-1.837-2.6v-3.673a.918.918,0,0,0-.918-.918A4.172,4.172,0,0,1,46.458,138l-.465-1.4L50,135.986a2.756,2.756,0,0,1,3.174,2.723Z" transform="translate(0.094 -113.3)"/>
        <path id="Trazado_917483" data-name="Trazado 917483" d="M496.937,368a.937.937,0,1,0,.937.937.937.937,0,0,0-.937-.937Z" transform="translate(-439.056 -325.752)"/>
        <path id="Trazado_917484" data-name="Trazado 917484" d="M211.789,32.58c.419-.644,10.249-15.836,10.249-21.62A11.036,11.036,0,0,0,206.01,1.142a.918.918,0,1,0,.836,1.635A9.2,9.2,0,0,1,220.2,10.96c0,3.992-6.046,14.428-9.183,19.414-3.136-4.986-9.183-15.422-9.183-19.414a9.141,9.141,0,0,1,.626-3.339.918.918,0,1,0-1.71-.668A10.971,10.971,0,0,0,200,10.96c0,5.784,9.831,20.976,10.249,21.62a.918.918,0,0,0,1.54,0Z" transform="translate(-177.033 0.067)"/>
        <path id="Trazado_917485" data-name="Trazado 917485" d="M246.428,52.856A6.428,6.428,0,1,0,240,46.428,6.428,6.428,0,0,0,246.428,52.856Zm0-11.019a4.591,4.591,0,1,1-4.591,4.591A4.591,4.591,0,0,1,246.428,41.837Z" transform="translate(-212.442 -35.401)"/>
        <circle id="Elipse_11843" data-name="Elipse 11843" cx="0.918" cy="0.918" r="0.918" transform="translate(25.722 3.681)"/>
        <circle id="Elipse_11844" data-name="Elipse 11844" cx="0.918" cy="0.918" r="0.918" transform="translate(8.275 22.046)"/>
        <path id="Trazado_917486" data-name="Trazado 917486" d="M338.755,277.51h1.837a2.755,2.755,0,1,0,0-5.51h-1.837a2.755,2.755,0,0,0,0,5.51Zm0-3.673h1.837a.918.918,0,1,1,0,1.837h-1.837a.918.918,0,0,1,0-1.837Z" transform="translate(-297.422 -240.771)"/>
      </g>
    </g>
  </g>
</svg>
