<svg xmlns="http://www.w3.org/2000/svg" width="83" height="83" viewBox="0 0 83 83">
  <g id="Grupo_1119383" data-name="Grupo 1119383" transform="translate(-328.051 -769)">
    <circle id="Elipse_11755" data-name="Elipse 11755" cx="41.5" cy="41.5" r="41.5" transform="translate(328.051 769)" fill="#0d8449"/>
    <g id="Grupo_1119382" data-name="Grupo 1119382" transform="translate(338.051 789)">
      <g id="Grupo_1119380" data-name="Grupo 1119380">
        <g id="Grupo_1119356" data-name="Grupo 1119356">
          <path id="Trazado_916652" data-name="Trazado 916652" d="M5.516,37h24v4h-24Z" fill="#dfb28b"/>
        </g>
        <g id="Grupo_1119357" data-name="Grupo 1119357">
          <path id="Trazado_916653" data-name="Trazado 916653" d="M33.516,37h24v4h-24Z" fill="#dfb28b"/>
        </g>
        <g id="Grupo_1119358" data-name="Grupo 1119358">
          <path id="Trazado_916654" data-name="Trazado 916654" d="M57.516,29v4h-24V29h24Z" fill="#dfb28b"/>
        </g>
        <g id="Grupo_1119359" data-name="Grupo 1119359">
          <path id="Trazado_916655" data-name="Trazado 916655" d="M29.516,29v4h-24V29h24Z" fill="#dfb28b"/>
        </g>
        <g id="Grupo_1119360" data-name="Grupo 1119360">
          <path id="Trazado_916656" data-name="Trazado 916656" d="M61.516,28V42a1,1,0,0,1-1,1h-2a1,1,0,0,1-1-1V28a1,1,0,0,1,1-1h2A1,1,0,0,1,61.516,28Z" fill="#d3a06c"/>
        </g>
        <g id="Grupo_1119361" data-name="Grupo 1119361">
          <path id="Trazado_916657" data-name="Trazado 916657" d="M33.516,41v1a1,1,0,0,1-1,1h-2a1,1,0,0,1-1-1V28a1,1,0,0,1,1-1h2a1,1,0,0,1,1,1V41Z" fill="#d3a06c"/>
        </g>
        <g id="Grupo_1119362" data-name="Grupo 1119362">
          <path id="Trazado_916658" data-name="Trazado 916658" d="M5.516,41v1a1,1,0,0,1-1,1h-2a1,1,0,0,1-1-1V28a1,1,0,0,1,1-1h2a1,1,0,0,1,1,1V41Z" fill="#d3a06c"/>
        </g>
        <g id="Grupo_1119363" data-name="Grupo 1119363">
          <path id="Trazado_916659" data-name="Trazado 916659" d="M58.766,16.51a8.978,8.978,0,0,1,.75,3.59V27h-1a1,1,0,0,0-1,1v1h-19l.86-1.71a9.592,9.592,0,0,1,3.27-3.71A1.954,1.954,0,0,0,41.566,20h-.24a1.961,1.961,0,0,0-1.38.57l-.2.2a4.184,4.184,0,0,1-5.28.53l-1.32-.88c2.02-.7,3.37-1.97,3.37-3.42a2.857,2.857,0,0,0-1-2.06V12l5-2,4.11.43.51,2.04a2.888,2.888,0,0,0,1.88,2.03,2.888,2.888,0,0,1,1.88,2.03l.1.37a2.75,2.75,0,0,0,2.68,2.1,2.808,2.808,0,0,0,1.54-.46l1.25-.84a4.137,4.137,0,0,1,2.32-.7,4.2,4.2,0,0,0,1.97-.49Z" fill="#969faa"/>
        </g>
        <g id="Grupo_1119364" data-name="Grupo 1119364">
          <path id="Trazado_916660" data-name="Trazado 916660" d="M23.516,14.94a2.84,2.84,0,0,0-1,2.06c0,2.21,3.13,4,7,4l2,6h-1a1,1,0,0,0-1,1v1h-5.55a9.947,9.947,0,0,1,1.68-1.42A1.954,1.954,0,0,0,24.566,24h-.24a1.961,1.961,0,0,0-1.38.57l-.2.2a4.184,4.184,0,0,1-5.28.53l-1.32-.88c2.02-.7,3.37-1.97,3.37-3.42a2.857,2.857,0,0,0-1-2.06V16l5-2Z" fill="#969faa"/>
        </g>
        <g id="Grupo_1119365" data-name="Grupo 1119365">
          <path id="Trazado_916661" data-name="Trazado 916661" d="M35.516,2.28V7.03a6.078,6.078,0,0,0-.61-.03h-.92c-.08-.08-.15-.16-.23-.24a5.915,5.915,0,0,0-2.75-1.57l2.14-3.57a1.276,1.276,0,0,1,2.37.66Z" fill="#aab2bd"/>
        </g>
        <g id="Grupo_1119366" data-name="Grupo 1119366">
          <path id="Trazado_916662" data-name="Trazado 916662" d="M35.516,7.03a6.748,6.748,0,0,1,5,2.97l-5,2V11a5.971,5.971,0,0,0-1.53-4h.92A6.078,6.078,0,0,1,35.516,7.03Z" fill="#aab2bd"/>
        </g>
        <g id="Grupo_1119367" data-name="Grupo 1119367">
          <path id="Trazado_916663" data-name="Trazado 916663" d="M24.126,7a6.078,6.078,0,0,0-.61.03V2.28a1.276,1.276,0,0,1,2.37-.66l2.14,3.57A6,6,0,0,0,25.046,7Z" fill="#aab2bd"/>
        </g>
        <g id="Grupo_1119368" data-name="Grupo 1119368">
          <path id="Trazado_916664" data-name="Trazado 916664" d="M24.126,7h.92a5.971,5.971,0,0,0-1.53,4v1l-5-2a6.748,6.748,0,0,1,5-2.97,6.078,6.078,0,0,1,.61-.03Z" fill="#aab2bd"/>
        </g>
        <g id="Grupo_1119369" data-name="Grupo 1119369">
          <path id="Trazado_916665" data-name="Trazado 916665" d="M18.516,10v1.03a6.078,6.078,0,0,0-.61-.03h-.92c-.08-.08-.15-.16-.23-.24a19.978,19.978,0,0,0-2.75-1.57l2.14-3.57a1.276,1.276,0,0,1,2.37.66Z" fill="#aab2bd"/>
        </g>
        <g id="Grupo_1119370" data-name="Grupo 1119370">
          <path id="Trazado_916666" data-name="Trazado 916666" d="M11.026,9.19A6,6,0,0,0,8.046,11h-.92a6.078,6.078,0,0,0-.61.03V6.28a1.276,1.276,0,0,1,2.37-.66Z" fill="#aab2bd"/>
        </g>
        <g id="Grupo_1119371" data-name="Grupo 1119371">
          <path id="Trazado_916667" data-name="Trazado 916667" d="M7.126,11h.92a5.971,5.971,0,0,0-1.53,4v1l-5-2a6.748,6.748,0,0,1,5-2.97A6.078,6.078,0,0,1,7.126,11Z" fill="#aab2bd"/>
        </g>
        <g id="Grupo_1119372" data-name="Grupo 1119372">
          <path id="Trazado_916668" data-name="Trazado 916668" d="M18.516,11.03a6.748,6.748,0,0,1,5,2.97l-5,2V15a5.971,5.971,0,0,0-1.53-4h.92A6.078,6.078,0,0,1,18.516,11.03Z" fill="#aab2bd"/>
        </g>
        <g id="Grupo_1119373" data-name="Grupo 1119373">
          <path id="Trazado_916669" data-name="Trazado 916669" d="M31.006,5.19a5.915,5.915,0,0,1,2.75,1.57c.08.08.15.16.23.24a5.971,5.971,0,0,1,1.53,4v3.94a8.949,8.949,0,0,0-6-1.94,8.949,8.949,0,0,0-6,1.94V11a6,6,0,0,1,4.51-5.81A5.69,5.69,0,0,1,29.516,5Z" fill="#ccd1d9"/>
        </g>
        <g id="Grupo_1119374" data-name="Grupo 1119374">
          <path id="Trazado_916670" data-name="Trazado 916670" d="M14.006,9.19a19.979,19.979,0,0,1,2.75,1.57c.08.08.15.16.23.24a5.971,5.971,0,0,1,1.53,4v3.94a8.949,8.949,0,0,0-6-1.94,8.949,8.949,0,0,0-6,1.94V15a6,6,0,0,1,4.51-5.81A5.69,5.69,0,0,1,12.516,9Z" fill="#ccd1d9"/>
        </g>
        <g id="Grupo_1119375" data-name="Grupo 1119375">
          <path id="Trazado_916671" data-name="Trazado 916671" d="M35.516,14.94a2.857,2.857,0,0,1,1,2.06c0,1.45-1.35,2.72-3.37,3.42a11.01,11.01,0,0,1-3.63.58c-3.87,0-7-1.79-7-4a2.84,2.84,0,0,1,1-2.06,8.949,8.949,0,0,1,6-1.94,8.949,8.949,0,0,1,6,1.94Z" fill="#aab2bd"/>
        </g>
        <g id="Grupo_1119376" data-name="Grupo 1119376">
          <path id="Trazado_916672" data-name="Trazado 916672" d="M18.516,18.94a2.857,2.857,0,0,1,1,2.06c0,1.45-1.35,2.72-3.37,3.42a11.01,11.01,0,0,1-3.63.58c-3.87,0-7-1.79-7-4a2.857,2.857,0,0,1,1-2.06,8.949,8.949,0,0,1,6-1.94,8.949,8.949,0,0,1,6,1.94Z" fill="#aab2bd"/>
        </g>
        <g id="Grupo_1119377" data-name="Grupo 1119377">
          <path id="Trazado_916673" data-name="Trazado 916673" d="M51.456,11.15a9.01,9.01,0,0,1,7.31,5.36h-.01a4.2,4.2,0,0,1-1.97.49,4.137,4.137,0,0,0-2.32.7l-1.25.84a2.808,2.808,0,0,1-1.54.46A2.75,2.75,0,0,1,49,16.9l-.1-.37a2.888,2.888,0,0,0-1.88-2.03,2.888,2.888,0,0,1-1.88-2.03l-.51-2.04Z" fill="#e6e9ed"/>
        </g>
        <g id="Grupo_1119378" data-name="Grupo 1119378">
          <path id="Trazado_916674" data-name="Trazado 916674" d="M41.566,20a1.954,1.954,0,0,1,1.08,3.58,9.592,9.592,0,0,0-3.27,3.71L38.516,29h-5V28a1,1,0,0,0-1-1h-1l-2-6a11.01,11.01,0,0,0,3.63-.58l1.32.88a4.184,4.184,0,0,0,5.28-.53l.2-.2a1.961,1.961,0,0,1,1.38-.57Z" fill="#e6e9ed"/>
        </g>
        <g id="Grupo_1119379" data-name="Grupo 1119379">
          <path id="Trazado_916675" data-name="Trazado 916675" d="M19.786,26a4.178,4.178,0,0,0,2.96-1.23l.2-.2a1.961,1.961,0,0,1,1.38-.57h.24a1.954,1.954,0,0,1,1.08,3.58A9.947,9.947,0,0,0,23.966,29H13.846l-1.33-4a11.01,11.01,0,0,0,3.63-.58l1.32.88a4.137,4.137,0,0,0,2.32.7Z" fill="#e6e9ed"/>
        </g>
      </g>
      <g id="Grupo_1119381" data-name="Grupo 1119381">
        <path id="Trazado_916676" data-name="Trazado 916676" d="M60.516,26V20.1a9.978,9.978,0,0,0-8.953-9.945L41.048,9.05a7.694,7.694,0,0,0-4.532-2.87v-3.9a2.278,2.278,0,0,0-4.23-1.172L30.5,4.077A7.142,7.142,0,0,0,29.516,4a6.978,6.978,0,0,0-.987.078L26.746,1.107a2.277,2.277,0,0,0-4.23,1.17v3.9a7.7,7.7,0,0,0-3,1.349V6.277a2.278,2.278,0,0,0-4.23-1.172L13.5,8.077A7.142,7.142,0,0,0,12.516,8a6.978,6.978,0,0,0-.987.078L9.745,5.106A2.276,2.276,0,0,0,5.516,6.277v3.9A7.708,7.708,0,0,0,.684,13.445L0,14.471l5.516,2.206v1.871a3.683,3.683,0,0,0-1,2.452c0,2.65,3.14,4.755,7.272,4.978L12.462,28H6.516a2,2,0,0,0-2-2h-2a2,2,0,0,0-2,2V42a2,2,0,0,0,2,2h2a2,2,0,0,0,2-2h22a2,2,0,0,0,2,2h2a2,2,0,0,0,2-2h22a2,2,0,0,0,2,2h2a2,2,0,0,0,2-2V28A2,2,0,0,0,60.516,26Zm-3.17-10.07a3.163,3.163,0,0,1-.564.07,5.162,5.162,0,0,0-2.875.871l-1.25.833a1.769,1.769,0,0,1-2.695-1.042l-.093-.371a3.864,3.864,0,0,0-2.537-2.739,1.873,1.873,0,0,1-1.23-1.327l-.162-.648,5.414.57a7.978,7.978,0,0,1,5.992,3.783Zm-20.854-5.4a6.931,6.931,0,0,0-.617-2.44,5.712,5.712,0,0,1,2.992,1.489Zm-2.585,11.6a5.182,5.182,0,0,0,6.541-.648l.2-.2A.965.965,0,0,1,41.325,21h.236a.954.954,0,0,1,.529,1.748,10.656,10.656,0,0,0-3.614,4.094L37.9,28H34.515a2,2,0,0,0-2-2h-.28l-1.358-4.075a11.69,11.69,0,0,0,2.109-.41ZM34.516,34h22v2h-22Zm0-2V30h22v2Zm-6-4H26.679a2.944,2.944,0,0,0-2.117-5h-.236a2.935,2.935,0,0,0-2.089.865l-.2.2a3.24,3.24,0,0,1-3.847.49A4.318,4.318,0,0,0,20.516,21a3.683,3.683,0,0,0-1-2.452V16.677l2.24-.9A3.359,3.359,0,0,0,21.516,17c0,2.65,3.14,4.755,7.272,4.978l1.353,4.06A2,2,0,0,0,28.516,28ZM19.492,14.532a6.931,6.931,0,0,0-.617-2.44,5.712,5.712,0,0,1,2.992,1.489ZM29.516,20c-3.536,0-6-1.581-6-3s2.464-3,6-3,6,1.581,6,3S33.052,20,29.516,20ZM34,2.134a.288.288,0,0,1,.515.143V6h-.111a7.037,7.037,0,0,0-1.924-1.332ZM34.516,11v2.074a11.385,11.385,0,0,0-5-1.074,11.385,11.385,0,0,0-5,1.074V11a5,5,0,1,1,10,0ZM25.03,2.135l1.52,2.534A7.027,7.027,0,0,0,24.626,6h-.111V2.277a.288.288,0,0,1,.515-.142ZM23.156,8.093a6.952,6.952,0,0,0-.617,2.44l-2.375-.95A5.692,5.692,0,0,1,23.156,8.093ZM17,6.134a.288.288,0,0,1,.515.143V9.7l-.167.251a7.032,7.032,0,0,0-1.867-1.28ZM17.516,15v2.074a11.385,11.385,0,0,0-5-1.074,11.385,11.385,0,0,0-5,1.074V15a5,5,0,1,1,10,0ZM8.03,6.135,9.55,8.669A7.027,7.027,0,0,0,7.626,10h-.11V6.277a.287.287,0,0,1,.514-.142ZM6.156,12.093a6.952,6.952,0,0,0-.617,2.44l-2.375-.95a5.692,5.692,0,0,1,2.992-1.49ZM6.516,21c0-1.419,2.464-3,6-3s6,1.581,6,3-2.464,3-6,3S6.516,22.419,6.516,21Zm7.362,4.925a11.69,11.69,0,0,0,2.109-.41l.92.612a5.178,5.178,0,0,0,6.541-.646l.2-.2A.965.965,0,0,1,24.325,25h.236a.954.954,0,0,1,.529,1.748A10.605,10.605,0,0,0,23.57,28h-9ZM28.516,30v2h-22V30Zm0,4v2h-22V34Zm-26,8V28h2l0,14Zm4-2V38h22v2Zm24,2V28h2l0,14Zm4-2V38h22v2Zm22-12H40.134l.132-.264A8.655,8.655,0,0,1,43.2,24.412,2.954,2.954,0,0,0,41.562,19h-.236a2.935,2.935,0,0,0-2.089.865l-.2.2a3.242,3.242,0,0,1-3.847.491A4.32,4.32,0,0,0,37.517,17a3.683,3.683,0,0,0-1-2.452V12.677l4.141-1.657,3.167.333.338,1.356A3.864,3.864,0,0,0,46.7,15.448a1.87,1.87,0,0,1,1.229,1.326l.093.371a3.768,3.768,0,0,0,5.746,2.222l1.249-.833A3.174,3.174,0,0,1,56.782,18a5.186,5.186,0,0,0,1.4-.2,8.029,8.029,0,0,1,.338,2.3V26a2,2,0,0,0-2,2Zm2,14V28h2l0,14Z"/>
        <circle id="Elipse_11794" data-name="Elipse 11794" cx="1" cy="1" r="1" transform="translate(25.516 9)"/>
        <circle id="Elipse_11795" data-name="Elipse 11795" cx="1" cy="1" r="1" transform="translate(26.516 16)"/>
        <circle id="Elipse_11796" data-name="Elipse 11796" cx="1" cy="1" r="1" transform="translate(30.516 16)"/>
        <circle id="Elipse_11797" data-name="Elipse 11797" cx="1" cy="1" r="1" transform="translate(31.516 9)"/>
        <circle id="Elipse_11798" data-name="Elipse 11798" cx="1" cy="1" r="1" transform="translate(8.516 13)"/>
        <circle id="Elipse_11799" data-name="Elipse 11799" cx="1" cy="1" r="1" transform="translate(9.516 20)"/>
        <circle id="Elipse_11800" data-name="Elipse 11800" cx="1" cy="1" r="1" transform="translate(13.516 20)"/>
        <circle id="Elipse_11801" data-name="Elipse 11801" cx="1" cy="1" r="1" transform="translate(14.516 13)"/>
      </g>
    </g>
  </g>
</svg>
