<svg xmlns="http://www.w3.org/2000/svg" width="77" height="77" viewBox="0 0 77 77">
  <g id="Grupo_1119784" data-name="Grupo 1119784" transform="translate(6578.27 218.68)">
    <g id="Grupo_1098742" data-name="Grupo 1098742" transform="translate(-6578.27 -218.68)">
      <rect id="Rect치ngulo_400898" data-name="Rect치ngulo 400898" width="77" height="77" rx="38.5" transform="translate(0 0)" fill="#ccda2d"/>
      <rect id="Rect치ngulo_400907" data-name="Rect치ngulo 400907" width="77" height="77" rx="38.5" transform="translate(0 0)" fill="none"/>
    </g>
    <g id="Grupo_1119783" data-name="Grupo 1119783" transform="translate(-6675.491 -204.601)">
      <g id="Grupo_1119781" data-name="Grupo 1119781" transform="translate(122.945 0.715)">
        <path id="Trazado_917529" data-name="Trazado 917529" d="M189.257,13.667H176.536a1.349,1.349,0,0,1-1.349-1.349V8.849A1.349,1.349,0,0,1,176.536,7.5h12.72a1.349,1.349,0,0,1,1.349,1.349v3.469A1.349,1.349,0,0,1,189.257,13.667Z" transform="translate(-170.85 -7.5)" fill="#8ac9fe"/>
        <path id="Trazado_917530" data-name="Trazado 917530" d="M297.084,7.5h-2.7a1.349,1.349,0,0,1,1.349,1.349v3.469a1.349,1.349,0,0,1-1.349,1.349h2.7a1.349,1.349,0,0,0,1.349-1.349V8.849A1.349,1.349,0,0,0,297.084,7.5Z" transform="translate(-278.678 -7.5)" fill="#60b7ff"/>
        <path id="Trazado_917531" data-name="Trazado 917531" d="M147.075,76V72.15h-10.6V76l-5.934,7.629A3.855,3.855,0,0,0,129.729,86v24.311a3.084,3.084,0,0,0,3.084,3.084h17.924a3.084,3.084,0,0,0,3.084-3.084V86a3.854,3.854,0,0,0-.812-2.367Z" transform="translate(-129.729 -65.983)" fill="#eaf6ff"/>
        <path id="Trazado_917532" data-name="Trazado 917532" d="M286.423,83.634,280.49,76V72.15h-3.277v4.582a.964.964,0,0,0,.2.592l6.34,8.151a.964.964,0,0,1,.2.592v24.245a3.084,3.084,0,0,1-3.084,3.084h3.277a3.084,3.084,0,0,0,3.084-3.084V86A3.856,3.856,0,0,0,286.423,83.634Z" transform="translate(-263.143 -65.983)" fill="#d8ecfe"/>
        <path id="Trazado_917533" data-name="Trazado 917533" d="M172.762,123.648h-3.49a.964.964,0,0,0-.761.372l-6.253,8.04a.964.964,0,0,0-.2.592v1.5h17.924v-1.5a.964.964,0,0,0-.2-.592l-6.253-8.04A.964.964,0,0,0,172.762,123.648Z" transform="translate(-158.971 -112.568)" fill="#b3dafe"/>
        <path id="Trazado_917534" data-name="Trazado 917534" d="M163.019,230.933h16a.964.964,0,0,0,.964-.964V207c-1.091-.567-1.663-1.5-3.55-1.5-2.706,0-2.706,1.927-5.413,1.927s-2.707-1.927-5.413-1.927c-1.887,0-2.459.936-3.548,1.5v22.974A.964.964,0,0,0,163.019,230.933Z" transform="translate(-158.971 -186.604)" fill="#fff3de"/>
        <path id="Trazado_917535" data-name="Trazado 917535" d="M300.853,205.492a4.23,4.23,0,0,0-1.253.172,4.039,4.039,0,0,1,1.084.533,2.748,2.748,0,0,1,1.213,2.291v21.481a.964.964,0,0,1-.964.964h2.506a.964.964,0,0,0,.964-.964V207C303.312,206.429,302.74,205.492,300.853,205.492Z" transform="translate(-283.395 -186.604)" fill="#ffe5c2"/>
      </g>
      <g id="Grupo_1119782" data-name="Grupo 1119782" transform="translate(122.23 0)">
        <path id="Trazado_917536" data-name="Trazado 917536" d="M147.037,25.2a.715.715,0,0,0,.715-.715V20.734a4.589,4.589,0,0,0-.963-2.806l-5.783-7.435V7.6h.344a2.067,2.067,0,0,0,2.064-2.064V2.064A2.067,2.067,0,0,0,141.352,0h-7.428a.715.715,0,1,0,0,1.431h7.428a.634.634,0,0,1,.633.633v3.47a.634.634,0,0,1-.633.633h-12.72A.634.634,0,0,1,128,5.534V2.064a.634.634,0,0,1,.633-.633h1.944a.715.715,0,1,0,0-1.431h-1.944a2.067,2.067,0,0,0-2.064,2.064v3.47A2.067,2.067,0,0,0,128.631,7.6h.344v2.894l-5.783,7.435a4.59,4.59,0,0,0-.963,2.806v24.31a3.8,3.8,0,0,0,3.8,3.8h17.925a3.8,3.8,0,0,0,3.8-3.8V27.83a.715.715,0,1,0-1.431,0V45.044a2.371,2.371,0,0,1-2.368,2.369H126.029a2.371,2.371,0,0,1-2.368-2.369V20.734a3.152,3.152,0,0,1,.661-1.928l5.934-7.629a.715.715,0,0,0,.151-.439V7.6h9.17v3.14a.715.715,0,0,0,.151.439l5.934,7.629a3.152,3.152,0,0,1,.661,1.927v3.748A.715.715,0,0,0,147.037,25.2Z" transform="translate(-122.23 0)"/>
        <path id="Trazado_917537" data-name="Trazado 917537" d="M155.265,144.933a.715.715,0,0,0-.715.715v3.5a1.681,1.681,0,0,0,1.68,1.679h16a1.681,1.681,0,0,0,1.68-1.679V125.869a1.685,1.685,0,0,0-.354-1.031L167.3,116.8a1.671,1.671,0,0,0-1.325-.647h-3.49a1.671,1.671,0,0,0-1.326.648l-6.253,8.039a1.685,1.685,0,0,0-.355,1.031V142.3a.715.715,0,0,0,1.431,0V126.589c.192-.121.368-.246.541-.369a3.576,3.576,0,0,1,4.584,0,4.992,4.992,0,0,0,6.243,0,3.577,3.577,0,0,1,4.584,0c.173.123.35.249.542.37v22.56a.249.249,0,0,1-.249.248h-16a.249.249,0,0,1-.249-.248v-3.5A.715.715,0,0,0,155.265,144.933Zm11.253-19.88a3.575,3.575,0,0,1-4.583,0,4.789,4.789,0,0,0-3.122-1.1,4.847,4.847,0,0,0-1.607.25l5.079-6.53a.249.249,0,0,1,.2-.1h3.49a.249.249,0,0,1,.2.1l5.08,6.532a4.845,4.845,0,0,0-1.609-.251A4.79,4.79,0,0,0,166.519,125.054Z" transform="translate(-151.467 -105.07)"/>
      </g>
    </g>
  </g>
</svg>
