<svg xmlns="http://www.w3.org/2000/svg" width="77" height="77" viewBox="0 0 77 77">
  <g id="Grupo_1119765" data-name="Grupo 1119765" transform="translate(-1087.051 -11389)">
    <g id="Grupo_1098742" data-name="Grupo 1098742" transform="translate(1087.051 11389)">
      <rect id="Rect치ngulo_400898" data-name="Rect치ngulo 400898" width="77" height="77" rx="38.5" transform="translate(0 0)" fill="#ccda2d"/>
      <rect id="Rect치ngulo_400907" data-name="Rect치ngulo 400907" width="77" height="77" rx="38.5" transform="translate(0 0)" fill="none"/>
    </g>
    <g id="Grupo_1119764" data-name="Grupo 1119764" transform="translate(1100.051 11403)">
      <path id="Trazado_917487" data-name="Trazado 917487" d="M306.548,362.556v6.491H296v-3.789a2.13,2.13,0,0,0,.649-1.047l.868-3.173a10.86,10.86,0,0,1,2.077.479l1.371.454a11.268,11.268,0,0,0,3.594.584,10.474,10.474,0,0,0,1.956-.179Zm0,0" transform="translate(-265.979 -324.422)" fill="#ccd1d9"/>
      <path id="Trazado_917488" data-name="Trazado 917488" d="M324.791,288.479a1.624,1.624,0,0,1-1.152,2.767H322l.876-3.245h.763A1.621,1.621,0,0,1,324.791,288.479Zm0,0" transform="translate(-289.343 -258.791)" fill="#ccd1d9"/>
      <path id="Trazado_917489" data-name="Trazado 917489" d="M232.026,288.049l-.86,3.2h-2.572a3.267,3.267,0,0,0-2.3.949l-.138-.138,3.108-3.108a3.249,3.249,0,0,1,2.3-.949h.276Zm0,0" transform="translate(-203.223 -258.791)" fill="#e6e9ed"/>
      <path id="Trazado_917490" data-name="Trazado 917490" d="M197.162,248.122l-1.079,3.984-.187-.049h-.276a3.249,3.249,0,0,0-2.3.949l-3.108,3.108-1.112,1.12a1.72,1.72,0,0,1-1.217.5,1.75,1.75,0,0,1-1.225-.5,1.714,1.714,0,0,1,.008-2.434l5.842-5.85a3.249,3.249,0,0,1,2.3-.949h1.9Zm0,0" transform="translate(-167.28 -222.848)" fill="#f0d0b4"/>
      <path id="Trazado_917491" data-name="Trazado 917491" d="M130.661,31.53V12.868H112V8h29.209V34.775l-.057.081-2.962-1.972a3.22,3.22,0,0,0-1.8-.544h-1.12l1.566-5.785.868-3.229,1.217-4.5a2.208,2.208,0,0,0,.073-.56,2.147,2.147,0,0,0-2.142-2.15h-.268a2.143,2.143,0,0,0-2.069,1.59l-1.128,4.187-.876,3.221-1.744,6.451Zm0,0" transform="translate(-100.641 -7.189)" fill="#ccd1d9"/>
      <path id="Trazado_917492" data-name="Trazado 917492" d="M37.209,74.661l.105.032-.243.9-.454-.122h-1.9a3.249,3.249,0,0,0-2.3.949l-5.842,5.85a1.714,1.714,0,0,0-.008,2.434,1.75,1.75,0,0,0,1.225.5,1.72,1.72,0,0,0,1.217-.5l1.112-1.12.138.138a3.267,3.267,0,0,0-.949,2.3.814.814,0,0,0,.811.811h3.911l-.584,2.158a2.221,2.221,0,0,0-.081.56,2.154,2.154,0,0,0,2.15,2.15h.268a2.134,2.134,0,0,0,1.42-.544v8.657H8V56H37.209Zm0,0" transform="translate(-7.189 -50.32)" fill="#e6e9ed"/>
      <path id="Trazado_917493" data-name="Trazado 917493" d="M40,88H59.473v6.491H40Zm0,0" transform="translate(-35.943 -79.075)" fill="#b4dd7f"/>
      <path id="Trazado_917494" data-name="Trazado 917494" d="M45.68,352h2.434v8.114H40V352Zm0,0" transform="translate(-35.943 -316.3)" fill="#ff826e"/>
      <path id="Trazado_917495" data-name="Trazado 917495" d="M45.68,216h2.434v8.114H40V216Zm0,0" transform="translate(-35.943 -194.093)" fill="#ff826e"/>
      <path id="Trazado_917496" data-name="Trazado 917496" d="M328.486,90.15a2.211,2.211,0,0,1-.073.56l-1.217,4.5-4.317-1.436,1.128-4.187A2.143,2.143,0,0,1,326.076,88h.268A2.147,2.147,0,0,1,328.486,90.15Zm0,0" transform="translate(-290.132 -79.075)" fill="#ffeaa7"/>
      <path id="Trazado_917497" data-name="Trazado 917497" d="M319.431,146.4l-.868,3.229-4.325-1.444.876-3.221Zm0,0" transform="translate(-282.368 -130.259)" fill="#e6e9ed"/>
      <path id="Trazado_917498" data-name="Trazado 917498" d="M262,364.325a2.134,2.134,0,0,1-1.42.544h-.268a2.154,2.154,0,0,1-2.15-2.15,2.22,2.22,0,0,1,.081-.56l.584-2.158H262a10.538,10.538,0,0,1,1.517.105l-.868,3.173A2.13,2.13,0,0,1,262,364.325Zm0,0" transform="translate(-231.977 -323.489)" fill="#fcd770"/>
      <path id="Trazado_917499" data-name="Trazado 917499" d="M282.205,183.948l-1.972,7.3H275.52l.86-3.2,1.079-3.984.243-.9,1.744-6.451,4.325,1.444Zm0,0" transform="translate(-247.576 -158.796)" fill="#fcd770"/>
      <path id="Trazado_917500" data-name="Trazado 917500" d="M227.572,259.465a10.533,10.533,0,0,0-1.517-.105h-7.083a.814.814,0,0,1-.811-.811,3.241,3.241,0,0,1,3.245-3.245h8.925a1.623,1.623,0,1,0,0-3.245h-.763l1.1-4.057h1.12a3.22,3.22,0,0,1,1.8.544l2.962,1.972,2.71,1.809a3.221,3.221,0,0,0,1.8.544h5.282v6.491H243.9a11.274,11.274,0,0,0-2.759.341l-3.773.941c-.268.065-.536.122-.8.162a10.472,10.472,0,0,1-1.956.179,11.269,11.269,0,0,1-3.594-.584l-1.371-.454A10.857,10.857,0,0,0,227.572,259.465Zm0,0" transform="translate(-196.034 -222.848)" fill="#f0d0b4"/>
      <path id="Trazado_917501" data-name="Trazado 917501" d="M35.751,25.964a2.425,2.425,0,0,1,1.35.409l5.666,3.778a4.052,4.052,0,0,0,2.251.681H50.3V29.209H45.019a2.428,2.428,0,0,1-1.351-.409L41.38,27.274V0H10.548V4.868H0V50.3H30.832V45.436H41.38V38.61c.051-.012.1-.016.155-.029l3.774-.943a10.611,10.611,0,0,1,2.562-.315H50.3V35.7H47.871a12.2,12.2,0,0,0-2.955.364l-3.774.943a10.606,10.606,0,0,1-5.9-.226l-1.367-.456a12.157,12.157,0,0,0-3.852-.625h-7.08a2.437,2.437,0,0,1,2.434-2.434H34.3a2.428,2.428,0,0,0,.285-4.84l.666-2.463ZM34.726,38.32a12.146,12.146,0,0,0,3.853.626c.394,0,.786-.034,1.177-.072v4.94H30.832V41.16A2.927,2.927,0,0,0,31.456,40l.664-2.461a10.47,10.47,0,0,1,1.239.323Zm-4.232-.979-.6,2.238a1.34,1.34,0,0,1-1.292.989h-.263a1.337,1.337,0,0,1-1.291-1.686l.421-1.559h2.555C30.179,37.323,30.336,37.335,30.494,37.341Zm-4.71-.019-.307,1.135a2.941,2.941,0,0,0,1.393,3.33l-.255,1.017,1.574.394.252-1.008H28.6a2.947,2.947,0,0,0,.611-.071v6.562H1.623V6.491H12.17V1.623H39.757v24.57L38,25.022a4.05,4.05,0,0,0-2.251-.681h-.063l3.377-12.494a2.962,2.962,0,0,0-2.858-3.733h-.263A2.966,2.966,0,0,0,33.087,10.3l-2.255,8.346V4.868H13.793V6.491H29.209v17.85H27.531a4.013,4.013,0,0,0-2.411.811H17.039v1.623h6.377L21.793,28.4H17.039v1.623h3.133l-1.356,1.356a2.518,2.518,0,0,0,2.515,4.206c0,.04-.012.077-.012.118a1.624,1.624,0,0,0,1.623,1.623Zm6.25-5.68H29l3.426-12.677,2.783.927ZM25.81,26.676a2.419,2.419,0,0,1,1.722-.712h1.323l-.662,2.449a4.018,4.018,0,0,0-2.719,1.173L21.249,33.81a.91.91,0,0,1-1.554-.643.9.9,0,0,1,.267-.643Zm.811,4.057a2.408,2.408,0,0,1,1.114-.627l-.416,1.538H25.711ZM37.5,11.423,36.505,15.1l-2.783-.927.931-3.446a1.341,1.341,0,0,1,1.292-.989h.263A1.338,1.338,0,0,1,37.5,11.423Zm-4.2,4.318,2.783.927-.448,1.656L32.85,17.4Zm1,14.279a.811.811,0,0,1,0,1.623h-.585l.439-1.623Zm0,0"/>
      <path id="Trazado_917502" data-name="Trazado 917502" d="M53.1,80H32v8.114H53.1Zm-1.623,6.491H33.623V81.623h17.85Zm0,0" transform="translate(-28.755 -71.886)"/>
      <path id="Trazado_917503" data-name="Trazado 917503" d="M64,112h1.623v1.623H64Zm0,0" transform="translate(-57.509 -100.641)"/>
      <path id="Trazado_917504" data-name="Trazado 917504" d="M96,112h1.623v1.623H96Zm0,0" transform="translate(-86.264 -100.641)"/>
      <path id="Trazado_917505" data-name="Trazado 917505" d="M128,112h1.623v1.623H128Zm0,0" transform="translate(-115.018 -100.641)"/>
      <path id="Trazado_917506" data-name="Trazado 917506" d="M160,112h1.623v1.623H160Zm0,0" transform="translate(-143.773 -100.641)"/>
      <path id="Trazado_917507" data-name="Trazado 917507" d="M192,112h1.623v1.623H192Zm0,0" transform="translate(-172.527 -100.641)"/>
      <path id="Trazado_917508" data-name="Trazado 917508" d="M41.736,212.868H40.114v3.245H33.623v-6.491h4.868V208H32v9.736h9.736Zm0,0" transform="translate(-28.755 -186.904)"/>
      <path id="Trazado_917509" data-name="Trazado 917509" d="M68.08,178.344l-7.54,7.54-1.049-1.049-1.147,1.147,2.2,2.2,8.687-8.687Zm0,0" transform="translate(-52.426 -160.256)"/>
      <path id="Trazado_917510" data-name="Trazado 917510" d="M40.114,352.114H33.623v-6.491h4.868V344H32v9.736h9.736v-4.868H40.114Zm0,0" transform="translate(-28.755 -309.111)"/>
      <path id="Trazado_917511" data-name="Trazado 917511" d="M59.491,320.835l-1.147,1.147,2.2,2.2,8.687-8.687-1.147-1.147-7.54,7.54Zm0,0" transform="translate(-52.426 -282.463)"/>
      <path id="Trazado_917512" data-name="Trazado 917512" d="M256,440h1.623v1.623H256Zm0,0" transform="translate(-230.036 -395.375)"/>
      <path id="Trazado_917513" data-name="Trazado 917513" d="M152,440h8.925v1.623H152Zm0,0" transform="translate(-136.584 -395.375)"/>
      <path id="Trazado_917514" data-name="Trazado 917514" d="M168,216h10.548v1.623H168Zm0,0" transform="translate(-150.961 -194.093)"/>
    </g>
  </g>
</svg>
