<svg xmlns="http://www.w3.org/2000/svg" width="91" height="91" viewBox="0 0 91 91">
  <g id="Grupo_1120095" data-name="Grupo 1120095" transform="translate(-208.051 -4676)">
    <circle id="Elipse_11765" data-name="Elipse 11765" cx="45.5" cy="45.5" r="45.5" transform="translate(208.051 4676)" fill="#ccda2d"/>
    <g id="Grupo_1120094" data-name="Grupo 1120094" transform="translate(222.051 4666.522)">
      <g id="Grupo_1120092" data-name="Grupo 1120092" transform="translate(0.918 28.396)">
        <g id="Grupo_1120080" data-name="Grupo 1120080" transform="translate(0 17.079)">
          <path id="Trazado_918228" data-name="Trazado 918228" d="M66.15,211.536H9.685A2.186,2.186,0,0,1,7.5,209.35V176.692a2.186,2.186,0,0,1,2.186-2.186H66.15a2.186,2.186,0,0,1,2.186,2.186V209.35A2.186,2.186,0,0,1,66.15,211.536Z" transform="translate(-7.499 -174.506)" fill="#01d0fb"/>
        </g>
        <g id="Grupo_1120081" data-name="Grupo 1120081" transform="translate(0 17.079)">
          <path id="Trazado_918229" data-name="Trazado 918229" d="M66.151,174.506H65.4V206.29a2.186,2.186,0,0,1-2.186,2.186H7.5v.874a2.186,2.186,0,0,0,2.186,2.186H66.151a2.186,2.186,0,0,0,2.186-2.186V176.692A2.186,2.186,0,0,0,66.151,174.506Z" transform="translate(-7.5 -174.506)" fill="#01c0fa"/>
        </g>
        <g id="Grupo_1120082" data-name="Grupo 1120082" transform="translate(5.012 13.081)">
          <path id="Trazado_918230" data-name="Trazado 918230" d="M71.569,177.335H50.674a2.231,2.231,0,0,1-2.231-2.231v-30.02a3.237,3.237,0,0,1,3.237-3.237H70.563a3.237,3.237,0,0,1,3.237,3.237V175.1A2.231,2.231,0,0,1,71.569,177.335Z" transform="translate(-48.443 -141.847)" fill="#f3eae6"/>
        </g>
        <g id="Grupo_1120083" data-name="Grupo 1120083" transform="translate(30.468 13.081)">
          <path id="Trazado_918231" data-name="Trazado 918231" d="M279.532,177.335H258.637a2.231,2.231,0,0,1-2.231-2.231v-30.02a3.237,3.237,0,0,1,3.237-3.237h18.883a3.237,3.237,0,0,1,3.237,3.237V175.1A2.231,2.231,0,0,1,279.532,177.335Z" transform="translate(-256.406 -141.847)" fill="#f3eae6"/>
        </g>
        <g id="Grupo_1120084" data-name="Grupo 1120084" transform="translate(5.012 13.086)">
          <path id="Trazado_918232" data-name="Trazado 918232" d="M70.738,141.887c0,.017,0,.033,0,.05v30.02a2.231,2.231,0,0,1-2.231,2.231H48.443v.951a2.231,2.231,0,0,0,2.231,2.231H71.569a2.231,2.231,0,0,0,2.231-2.231v-30.02A3.237,3.237,0,0,0,70.738,141.887Z" transform="translate(-48.443 -141.887)" fill="#e1d3ce"/>
        </g>
        <g id="Grupo_1120085" data-name="Grupo 1120085" transform="translate(30.468 13.086)">
          <path id="Trazado_918233" data-name="Trazado 918233" d="M278.7,141.887c0,.017,0,.033,0,.05v30.02a2.231,2.231,0,0,1-2.231,2.231H256.406v.951a2.231,2.231,0,0,0,2.231,2.231h20.895a2.231,2.231,0,0,0,2.231-2.231v-30.02A3.237,3.237,0,0,0,278.7,141.887Z" transform="translate(-256.406 -141.887)" fill="#e1d3ce"/>
        </g>
        <g id="Grupo_1120086" data-name="Grupo 1120086" transform="translate(19.566 0)">
          <path id="Trazado_918234" data-name="Trazado 918234" d="M189.146,45.883A10.9,10.9,0,1,0,174.164,56a1.592,1.592,0,0,1,.787.677l2.225,3.854a1.232,1.232,0,0,0,2.134,0l2.225-3.854a1.6,1.6,0,0,1,.788-.677,10.9,10.9,0,0,0,6.822-10.112Z" transform="translate(-167.341 -34.981)" fill="#0ed2b3"/>
        </g>
        <g id="Grupo_1120087" data-name="Grupo 1120087" transform="translate(28.339 0.137)">
          <path id="Trazado_918235" data-name="Trazado 918235" d="M242.873,36.1a10.905,10.905,0,0,1-1.2,19.653,1.6,1.6,0,0,0-.788.677l-1.871,3.24,1.061,1.838a1.232,1.232,0,0,0,2.134,0l2.225-3.854a1.6,1.6,0,0,1,.788-.677A10.9,10.9,0,0,0,242.873,36.1Z" transform="translate(-239.017 -36.1)" fill="#0ab69f"/>
        </g>
        <g id="Grupo_1120088" data-name="Grupo 1120088" transform="translate(9.37 18.003)">
          <path id="Trazado_918236" data-name="Trazado 918236" d="M91.867,188.556H85.741a1.7,1.7,0,0,1-1.7-1.7v-3.1a1.7,1.7,0,0,1,1.7-1.7h6.126a1.7,1.7,0,0,1,1.7,1.7v3.1A1.7,1.7,0,0,1,91.867,188.556Z" transform="translate(-84.045 -182.059)" fill="#ffe177"/>
        </g>
        <g id="Grupo_1120089" data-name="Grupo 1120089" transform="translate(19.385 34.588)">
          <path id="Trazado_918237" data-name="Trazado 918237" d="M165.866,325.368v-6.126a1.7,1.7,0,0,1,1.7-1.7h3.1a1.7,1.7,0,0,1,1.7,1.7v6.126a1.7,1.7,0,0,1-1.7,1.7h-3.1A1.7,1.7,0,0,1,165.866,325.368Z" transform="translate(-165.866 -317.546)" fill="#fe646f"/>
        </g>
        <g id="Grupo_1120090" data-name="Grupo 1120090" transform="translate(35.416 26.597)">
          <path id="Trazado_918238" data-name="Trazado 918238" d="M298.525,252.268h6.126a1.7,1.7,0,0,1,1.7,1.7v3.1a1.7,1.7,0,0,1-1.7,1.7h-6.126a1.7,1.7,0,0,1-1.7-1.7v-3.1A1.7,1.7,0,0,1,298.525,252.268Z" transform="translate(-296.829 -252.268)" fill="#fe646f"/>
        </g>
        <g id="Grupo_1120091" data-name="Grupo 1120091" transform="translate(35.416 40.132)">
          <path id="Trazado_918239" data-name="Trazado 918239" d="M298.419,362.839h13.318a1.589,1.589,0,0,1,1.589,1.589v.871a1.589,1.589,0,0,1-1.589,1.589H298.419a1.589,1.589,0,0,1-1.589-1.589v-.871A1.588,1.588,0,0,1,298.419,362.839Z" transform="translate(-296.83 -362.839)" fill="#ffe177"/>
        </g>
      </g>
      <g id="Grupo_1120093" data-name="Grupo 1120093" transform="translate(0 27.478)">
        <path id="Trazado_918240" data-name="Trazado 918240" d="M59.569,44.557H57.657a4.16,4.16,0,0,0-4.151-4h-2a.918.918,0,1,0,0,1.836h2a2.322,2.322,0,0,1,2.319,2.319v30.02a1.315,1.315,0,0,1-1.313,1.313H33.617A1.314,1.314,0,0,1,32.3,74.734c0-.149-.1-19.417-.1-19.417a2.133,2.133,0,0,0,1.043-.916l2.225-3.854a.681.681,0,0,1,.337-.285A11.768,11.768,0,0,0,42.8,42.4h4.3a.918.918,0,1,0,0-1.836H43.139a12.007,12.007,0,0,0,.067-1.261,11.82,11.82,0,1,0-23.638.268c.007.334.03.665.065.992H9.167a4.16,4.16,0,0,0-4.151,4H3.1a3.108,3.108,0,0,0-3.1,3.1V80.319a3.107,3.107,0,0,0,3.1,3.1H6.594a.918.918,0,0,0,0-1.836H3.1a1.269,1.269,0,0,1-1.268-1.268V47.661A1.269,1.269,0,0,1,3.1,46.393H5.012V74.734a3.153,3.153,0,0,0,3.149,3.149H29.055a3.14,3.14,0,0,0,2.281-.981,3.14,3.14,0,0,0,2.281.981H54.512a3.153,3.153,0,0,0,3.149-3.149V46.393h1.908a1.269,1.269,0,0,1,1.268,1.268V80.319a1.269,1.269,0,0,1-1.268,1.268H11a.918.918,0,0,0,0,1.836H59.569a3.107,3.107,0,0,0,3.1-3.1V47.661A3.108,3.108,0,0,0,59.569,44.557ZM24.232,32.4a9.887,9.887,0,0,1,7.011-3.08h.144A9.986,9.986,0,0,1,35.123,48.56a2.526,2.526,0,0,0-1.24,1.069l-2.225,3.854a.314.314,0,0,1-.544,0l-2.225-3.854A2.522,2.522,0,0,0,27.65,48.56,9.93,9.93,0,0,1,24.232,32.4Zm4.823,43.652H8.161a1.314,1.314,0,0,1-1.313-1.313V44.715A2.322,2.322,0,0,1,9.167,42.4H19.978a11.811,11.811,0,0,0,6.985,7.867.679.679,0,0,1,.336.284L29.524,54.4a2.141,2.141,0,0,0,.845.822V74.734A1.314,1.314,0,0,1,29.055,76.047Z" transform="translate(0 -27.478)"/>
        <path id="Trazado_918241" data-name="Trazado 918241" d="M222.441,101.608a.918.918,0,0,0,1.3,0l5.351-5.351a.918.918,0,1,0-1.3-1.3l-4.7,4.7-1.818-1.818a.918.918,0,1,0-1.3,1.3Z" transform="translate(-192.812 -86.462)"/>
        <path id="Trazado_918242" data-name="Trazado 918242" d="M79.159,182.893h6.126a2.617,2.617,0,0,0,2.614-2.614v-3.1a2.617,2.617,0,0,0-2.614-2.614H79.159a2.617,2.617,0,0,0-2.614,2.614v3.1A2.617,2.617,0,0,0,79.159,182.893Zm-.778-5.718a.779.779,0,0,1,.778-.778h6.126a.779.779,0,0,1,.778.778v3.1a.779.779,0,0,1-.778.778H79.159a.779.779,0,0,1-.778-.778Z" transform="translate(-67.175 -156.556)"/>
        <path id="Trazado_918243" data-name="Trazado 918243" d="M164.084,310.046h-3.1a2.617,2.617,0,0,0-2.614,2.614v6.126a2.617,2.617,0,0,0,2.614,2.614h3.1a2.617,2.617,0,0,0,2.614-2.614V312.66A2.617,2.617,0,0,0,164.084,310.046Zm.778,8.74a.779.779,0,0,1-.778.778h-3.1a.779.779,0,0,1-.778-.778V312.66a.779.779,0,0,1,.778-.778h3.1a.779.779,0,0,1,.778.778Z" transform="translate(-138.981 -275.458)"/>
        <path id="Trazado_918244" data-name="Trazado 918244" d="M289.33,247.383v3.1a2.617,2.617,0,0,0,2.614,2.614h6.126a2.617,2.617,0,0,0,2.614-2.614v-3.1a2.617,2.617,0,0,0-2.614-2.614h-6.126A2.617,2.617,0,0,0,289.33,247.383Zm9.518,0v3.1a.779.779,0,0,1-.778.778h-6.126a.779.779,0,0,1-.778-.778v-3.1a.779.779,0,0,1,.778-.778h6.126A.779.779,0,0,1,298.848,247.383Z" transform="translate(-253.914 -218.171)"/>
        <path id="Trazado_918245" data-name="Trazado 918245" d="M289.33,358.717a2.509,2.509,0,0,0,2.507,2.507h13.318a2.509,2.509,0,0,0,2.507-2.507v-.871a2.51,2.51,0,0,0-2.507-2.507H291.837a2.509,2.509,0,0,0-2.507,2.507Zm1.836-.871a.671.671,0,0,1,.671-.671h13.318a.671.671,0,0,1,.671.671v.871a.671.671,0,0,1-.671.671H291.837a.671.671,0,0,1-.671-.671Z" transform="translate(-253.914 -315.206)"/>
        <path id="Trazado_918246" data-name="Trazado 918246" d="M78.545,259.223a.918.918,0,0,0,.918.918H94.024a.918.918,0,1,0,0-1.836H79.463A.918.918,0,0,0,78.545,259.223Z" transform="translate(-68.931 -230.05)"/>
        <path id="Trazado_918247" data-name="Trazado 918247" d="M372.983,174.559h-7.235a.918.918,0,1,0,0,1.836h7.235a.918.918,0,0,0,0-1.836Z" transform="translate(-320.172 -156.555)"/>
        <path id="Trazado_918248" data-name="Trazado 918248" d="M401.585,254.768h-3.246a.918.918,0,1,0,0,1.836h3.246a.918.918,0,0,0,0-1.836Z" transform="translate(-348.774 -226.946)"/>
        <path id="Trazado_918249" data-name="Trazado 918249" d="M401.585,285.2h-3.246a.918.918,0,0,0,0,1.836h3.246a.918.918,0,0,0,0-1.836Z" transform="translate(-348.774 -253.656)"/>
        <path id="Trazado_918250" data-name="Trazado 918250" d="M342.992,206.608H331.574a.918.918,0,1,0,0,1.836h11.418a.918.918,0,0,0,0-1.836Z" transform="translate(-290.181 -184.681)"/>
        <path id="Trazado_918251" data-name="Trazado 918251" d="M290.248,329.84h16.477a.918.918,0,1,0,0-1.836H290.248a.918.918,0,0,0,0,1.836Z" transform="translate(-253.914 -291.217)"/>
        <path id="Trazado_918252" data-name="Trazado 918252" d="M79.463,289.735a.918.918,0,1,0,0,1.836h6.153a.918.918,0,1,0,0-1.836Z" transform="translate(-68.931 -257.633)"/>
        <path id="Trazado_918253" data-name="Trazado 918253" d="M79.463,324.087h6.153a.918.918,0,0,0,0-1.836H79.463a.918.918,0,0,0,0,1.836Z" transform="translate(-68.931 -286.169)"/>
        <path id="Trazado_918254" data-name="Trazado 918254" d="M80.463,355.762h6.153a.918.918,0,1,0,0-1.836H80.463a.918.918,0,1,0,0,1.836Z" transform="translate(-69.808 -313.966)"/>
        <path id="Trazado_918255" data-name="Trazado 918255" d="M86.992,386.183H80.839a.918.918,0,0,0,0,1.836h6.153a.918.918,0,0,0,0-1.836Z" transform="translate(-70.138 -342.275)"/>
      </g>
    </g>
  </g>
</svg>
