<svg xmlns="http://www.w3.org/2000/svg" width="91" height="91" viewBox="0 0 91 91">
  <g id="Grupo_1120098" data-name="Grupo 1120098" transform="translate(-1044.051 -4676)">
    <circle id="Elipse_11769" data-name="Elipse 11769" cx="45.5" cy="45.5" r="45.5" transform="translate(1044.051 4676)" fill="#ccda2d"/>
    <g id="Grupo_1120097" data-name="Grupo 1120097" transform="translate(1062.051 4694)">
      <path id="Trazado_918283" data-name="Trazado 918283" d="M53.476,55.081H27.468A3.468,3.468,0,0,1,24,51.613V13.468A3.468,3.468,0,0,1,27.468,10H53.476a3.468,3.468,0,0,1,3.468,3.468V51.613A3.468,3.468,0,0,1,53.476,55.081Z" transform="translate(-3.06 -1.198)" fill="#cf9e76"/>
      <path id="Trazado_918284" data-name="Trazado 918284" d="M54.008,14.867V45.21H47.073v6.935H28.867A.869.869,0,0,1,28,51.278V30.645l1.049.945a2.4,2.4,0,0,0,1.613.616h.13a2.411,2.411,0,0,0,1.63-4.187L28,23.97v-9.1A.869.869,0,0,1,28.867,14h2.6A1.739,1.739,0,0,0,33.2,15.734h15.6A1.739,1.739,0,0,0,50.54,14h2.6a.869.869,0,0,1,.867.867Z" transform="translate(-3.593 -1.73)" fill="#e6e9ed"/>
      <path id="Trazado_918285" data-name="Trazado 918285" d="M51.073,8.935V12.4a1.739,1.739,0,0,1-1.734,1.734h-15.6A1.739,1.739,0,0,1,32,12.4V8.935A1.739,1.739,0,0,1,33.734,7.2h1.734l.009-.069a6.144,6.144,0,0,1,12.12,0L47.6,7.2h1.734a1.739,1.739,0,0,1,1.734,1.734ZM43.27,7.2a1.734,1.734,0,1,0-1.734,1.734A1.739,1.739,0,0,0,43.27,7.2Z" transform="translate(-4.125 -0.133)" fill="#fcd770"/>
      <path id="Trazado_918286" data-name="Trazado 918286" d="M56.935,50l-1.3,1.3L50,56.935V50Z" transform="translate(-6.52 -6.52)" fill="#b4dd7f"/>
      <path id="Trazado_918287" data-name="Trazado 918287" d="M34.956,50.511a1.7,1.7,0,0,1,.511,1.222A1.734,1.734,0,1,1,33.734,50,1.7,1.7,0,0,1,34.956,50.511Z" transform="translate(-4.125 -6.52)" fill="#fcd770"/>
      <ellipse id="Elipse_11876" data-name="Elipse 11876" cx="2" cy="1.5" rx="2" ry="1.5" transform="translate(43 36.75)" fill="#fcd770"/>
      <path id="Trazado_918288" data-name="Trazado 918288" d="M12.2,37V56.073a2.6,2.6,0,0,1-5.2,0V37Z" transform="translate(-0.798 -4.79)" fill="#838f9b"/>
      <path id="Trazado_918289" data-name="Trazado 918289" d="M18.2,37V56.073a2.6,2.6,0,1,1-5.2,0V37Z" transform="translate(-1.597 -4.79)" fill="#838f9b"/>
      <path id="Trazado_918290" data-name="Trazado 918290" d="M16.738,25.216v9.536H6.335v2.6H5.468A3.467,3.467,0,0,1,2,33.886V26.95a6.938,6.938,0,0,1,4.551-6.511v.009l2.87,5.73,2.115,4.239,2.115-4.239,3.034-6.06V20.11a10.524,10.524,0,0,1,4.387,1.656v.009a9.635,9.635,0,0,1,1.248.971l2.219,2.037,4.421,4.049a2.411,2.411,0,0,1-1.63,4.187H27.2a2.4,2.4,0,0,1-1.613-.616l-1.049-.945-3.468-3.121L17.6,25.216Z" transform="translate(-0.133 -2.543)" fill="#b4dd7f"/>
      <path id="Trazado_918291" data-name="Trazado 918291" d="M13.915,20l.876,6.164L12.675,30.4,10.56,26.164,11.436,20h2.479Z" transform="translate(-1.272 -2.528)" fill="#e6e9ed"/>
      <path id="Trazado_918292" data-name="Trazado 918292" d="M9.634,20H11l-.876,6.164-2.87-5.73v-.009A6.8,6.8,0,0,1,9.634,20Z" transform="translate(-0.832 -2.528)" fill="#ffeaa7"/>
      <path id="Trazado_918293" data-name="Trazado 918293" d="M16.944,20a10.683,10.683,0,0,1,1.4.1V20.1l-3.034,6.06L14.43,20Z" transform="translate(-1.787 -2.528)" fill="#ffeaa7"/>
      <circle id="Elipse_11877" data-name="Elipse 11877" cx="5.5" cy="5.5" r="5.5" transform="translate(6 6.75)" fill="#f0d0b4"/>
      <path id="Trazado_918294" data-name="Trazado 918294" d="M50.415,7.935h-2.76A2.6,2.6,0,0,0,45.214,6.2H44.183a7,7,0,0,0-13.537,0H29.609a2.6,2.6,0,0,0-2.441,1.734h-2.76a4.34,4.34,0,0,0-4.335,4.335v5.466a11.236,11.236,0,0,0-4.454-1.111,6.07,6.07,0,1,0-8.295.124A7.812,7.812,0,0,0,1,24.407v6.935a4.34,4.34,0,0,0,4.335,4.335v15.6a3.453,3.453,0,0,0,6.069,2.27,3.453,3.453,0,0,0,6.069-2.27V23.84l2.6,2.341V50.415a4.34,4.34,0,0,0,4.335,4.335H50.415a4.34,4.34,0,0,0,4.335-4.335V12.27A4.34,4.34,0,0,0,50.415,7.935Zm-.867,34.677H42.613v6.935H25.274V30.8a3.259,3.259,0,0,0,1.791.543H27.2a3.275,3.275,0,0,0,2.214-5.69l-4.14-3.795V13.137h1.893a2.6,2.6,0,0,0,2.441,1.734h15.6a2.6,2.6,0,0,0,2.441-1.734h1.893Zm-1.226,1.734-3.976,3.976V44.347ZM28.742,8.8a.867.867,0,0,1,.867-.867h1.734l.746-.071.121-.725a5.273,5.273,0,0,1,10.4,0l.133.8h2.468a.867.867,0,0,1,.867.867V12.27a.867.867,0,0,1-.867.867h-15.6a.867.867,0,0,1-.867-.867ZM21.806,12.27a2.6,2.6,0,0,1,2.6-2.6h2.6V11.4H25.274a1.736,1.736,0,0,0-1.734,1.734v7.132l-.766-.7a11.386,11.386,0,0,0-.967-.785ZM7.66,18.45A6.13,6.13,0,0,1,8.8,18.339h.362l-.347,2.427Zm3.257-.111h.973l.736,5.153L11.4,25.937l-1.222-2.445Zm3.072,2.427-.347-2.427h1.517l.042,0Zm-6.92-8.5A4.335,4.335,0,1,1,11.4,16.6,4.34,4.34,0,0,1,7.069,12.27ZM8.8,53.016a1.736,1.736,0,0,1-1.734-1.734V33.077h3.468V51.282A1.736,1.736,0,0,1,8.8,53.016Zm5.2,0a1.736,1.736,0,0,1-1.734-1.734V33.077h3.468V51.282A1.736,1.736,0,0,1,14,53.016Zm1.734-31.21v9.536H7.069V21.806H5.335V33.944a2.6,2.6,0,0,1-2.6-2.6V24.407a6.074,6.074,0,0,1,3.275-5.382L11.4,29.813,17.044,18.53A9.5,9.5,0,0,1,21.6,20.845l6.639,6.085a1.541,1.541,0,0,1-1.04,2.679h-.134a1.539,1.539,0,0,1-1.031-.4L17.8,21.806ZM53.016,50.415a2.6,2.6,0,0,1-2.6,2.6H24.407a2.6,2.6,0,0,1-2.6-2.6V27.741L23.54,29.3V49.548a1.736,1.736,0,0,0,1.734,1.734H43.839l7.444-7.444v-30.7A1.736,1.736,0,0,0,49.548,11.4H47.815V9.669h2.6a2.6,2.6,0,0,1,2.6,2.6Z"/>
      <path id="Trazado_918295" data-name="Trazado 918295" d="M35,11h1.734v1.734H35Z" transform="translate(-4.524 -1.331)"/>
      <path id="Trazado_918296" data-name="Trazado 918296" d="M49,11h1.734v1.734H49Z" transform="translate(-6.387 -1.331)"/>
      <path id="Trazado_918297" data-name="Trazado 918297" d="M42.6,10.2A2.6,2.6,0,1,0,40,7.6,2.6,2.6,0,0,0,42.6,10.2Zm0-3.468a.867.867,0,1,1-.867.867A.867.867,0,0,1,42.6,6.734Z" transform="translate(-5.19 -0.532)"/>
      <path id="Trazado_918298" data-name="Trazado 918298" d="M51.6,41a2.6,2.6,0,1,0,2.6,2.6A2.6,2.6,0,0,0,51.6,41Zm0,3.468a.867.867,0,1,1,.867-.867A.867.867,0,0,1,51.6,44.468Z" transform="translate(-6.387 -5.323)"/>
      <path id="Trazado_918299" data-name="Trazado 918299" d="M33.519,43.72l1.988-1.988,1.988,1.988,1.226-1.226-1.988-1.988,1.988-1.988-1.226-1.226-1.988,1.988-1.988-1.988-1.226,1.226,1.988,1.988-1.988,1.988Z" transform="translate(-4.164 -4.829)"/>
      <path id="Trazado_918300" data-name="Trazado 918300" d="M53.495,30.293l-1.988,1.988-1.988-1.988-1.226,1.226,1.988,1.988-1.988,1.988,1.226,1.226,1.988-1.988,1.988,1.988,1.226-1.226-1.988-1.988,1.988-1.988Z" transform="translate(-6.293 -3.898)"/>
      <path id="Trazado_918301" data-name="Trazado 918301" d="M37.495,24.72l1.226-1.226-1.988-1.988,1.988-1.988-1.226-1.226-1.988,1.988-1.988-1.988-1.226,1.226,1.988,1.988-1.988,1.988,1.226,1.226,1.988-1.988Z" transform="translate(-4.164 -2.301)"/>
      <path id="Trazado_918302" data-name="Trazado 918302" d="M46.6,27.069V21H40.536v1.734h3.109L39.109,27.27a4.006,4.006,0,0,0,0,5.666l2.5,2.5a2.273,2.273,0,0,1,0,3.214l-6.89,6.89a2.558,2.558,0,0,0-1.114-.261,2.6,2.6,0,1,0,2.6,2.6,2.558,2.558,0,0,0-.261-1.114l6.89-6.89a4.006,4.006,0,0,0,0-5.666l-2.5-2.5a2.273,2.273,0,0,1,0-3.214l4.536-4.536v3.109Zm-13,21.673a.867.867,0,1,1,.867-.867A.867.867,0,0,1,33.6,48.742Z" transform="translate(-3.992 -2.661)"/>
      <path id="Trazado_918303" data-name="Trazado 918303" d="M57,53h1.734v1.734H57Z" transform="translate(-7.452 -6.919)"/>
      <path id="Trazado_918304" data-name="Trazado 918304" d="M57,57h1.734v1.734H57Z" transform="translate(-7.452 -7.452)"/>
    </g>
  </g>
</svg>
