<svg xmlns="http://www.w3.org/2000/svg" width="91" height="91" viewBox="0 0 91 91">
  <g id="Grupo_1120145" data-name="Grupo 1120145" transform="translate(-617.051 -4882)">
    <circle id="Elipse_11767" data-name="Elipse 11767" cx="45.5" cy="45.5" r="45.5" transform="translate(617.051 4882)" fill="#ccda2d"/>
    <g id="Grupo_1120144" data-name="Grupo 1120144" transform="translate(636.051 4895)">
      <g id="Grupo_1120142" data-name="Grupo 1120142" transform="translate(0.783 6.783)">
        <g id="Grupo_1120141" data-name="Grupo 1120141" transform="translate(0 0)">
          <g id="Grupo_1120138" data-name="Grupo 1120138">
            <g id="Grupo_1120108" data-name="Grupo 1120108" transform="translate(29.719 40.713)">
              <g id="Grupo_1120102" data-name="Grupo 1120102" transform="translate(0 2.826)">
                <path id="Trazado_918334" data-name="Trazado 918334" d="M305.228,432.5a4.765,4.765,0,0,1,.5-1.933H292.188v4.266h13.527A4.837,4.837,0,0,1,305.228,432.5Z" transform="translate(-292.188 -430.57)" fill="#ffe177"/>
              </g>
              <g id="Grupo_1120104" data-name="Grupo 1120104" transform="translate(0 4.75)">
                <g id="Grupo_1120103" data-name="Grupo 1120103">
                  <path id="Trazado_918335" data-name="Trazado 918335" d="M305.228,449.009s0-.006,0-.009h-13.04v2.342h13.527A4.836,4.836,0,0,1,305.228,449.009Z" transform="translate(-292.188 -449)" fill="#ffd15b"/>
                </g>
              </g>
              <g id="Grupo_1120106" data-name="Grupo 1120106" transform="translate(12.931)">
                <g id="Grupo_1120105" data-name="Grupo 1120105">
                  <path id="Trazado_918336" data-name="Trazado 918336" d="M424.99,410.6h-3.539a.533.533,0,0,1-.462-.267l-.926-1.6a.534.534,0,0,1,0-.533l.926-1.6a.533.533,0,0,1,.462-.267h3.539a.3.3,0,0,0,.256-.45,4.959,4.959,0,1,0,0,5.175A.3.3,0,0,0,424.99,410.6Z" transform="translate(-416.057 -403.5)" fill="#ffd15b"/>
                </g>
              </g>
              <g id="Grupo_1120107" data-name="Grupo 1120107" transform="translate(12.931 4.75)">
                <path id="Trazado_918337" data-name="Trazado 918337" d="M421.016,454.167a4.955,4.955,0,0,0,4.231-2.372.3.3,0,0,0-.256-.449h-3.539a.533.533,0,0,1-.462-.267l-.927-1.6a.533.533,0,0,1-.029-.475h-3.973s0,0,0,0A4.959,4.959,0,0,0,421.016,454.167Z" transform="translate(-416.058 -449)" fill="#ffc344"/>
              </g>
            </g>
            <g id="Grupo_1120113" data-name="Grupo 1120113" transform="translate(13.563 10.76)">
              <g id="Grupo_1120109" data-name="Grupo 1120109" transform="translate(5.959)">
                <path id="Trazado_918338" data-name="Trazado 918338" d="M225.826,116.573H196.317a8.682,8.682,0,0,1,2.3,5.89V127.2l.037.031a2.417,2.417,0,0,1-1.57,4.255h-1.257v.172a4.179,4.179,0,0,1-1.284,3.027l-.032.031v3.009h5.082a5.121,5.121,0,0,1,5.1,4.735h21.135a1.044,1.044,0,0,0,1.044-1.044v-23.8A1.044,1.044,0,0,0,225.826,116.573Z" transform="translate(-194.509 -116.573)" fill="#f3f0f3"/>
              </g>
              <g id="Grupo_1120111" data-name="Grupo 1120111" transform="translate(13.241)">
                <g id="Grupo_1120110" data-name="Grupo 1120110">
                  <path id="Trazado_918339" data-name="Trazado 918339" d="M288.294,116.573h-2.871v20.61a1.044,1.044,0,0,1-1.044,1.044H264.259a5.125,5.125,0,0,1,2.9,4.236h21.136a1.044,1.044,0,0,0,1.044-1.044v-23.8A1.044,1.044,0,0,0,288.294,116.573Z" transform="translate(-264.259 -116.573)" fill="#e2dee2"/>
                </g>
              </g>
              <g id="Grupo_1120112" data-name="Grupo 1120112" transform="translate(0 20.169)">
                <path id="Trazado_918340" data-name="Trazado 918340" d="M137.422,310.764h2.7l-1.349-.985Z" transform="translate(-137.422 -309.779)" fill="#fff"/>
              </g>
            </g>
            <g id="Grupo_1120117" data-name="Grupo 1120117" transform="translate(27.179)">
              <g id="Grupo_1120114" data-name="Grupo 1120114">
                <path id="Trazado_918341" data-name="Trazado 918341" d="M267.853,25.6V22.921a.626.626,0,0,1,.626-.626h2.653a.619.619,0,0,0,.583-.422,7.241,7.241,0,0,1,.336-.809.624.624,0,0,0-.125-.712l-1.868-1.868a.626.626,0,0,1,0-.886l1.894-1.894a.626.626,0,0,1,.886,0l1.868,1.868a.624.624,0,0,0,.712.125,7.25,7.25,0,0,1,.809-.336.619.619,0,0,0,.422-.583V14.126a.626.626,0,0,1,.626-.626h2.678a.626.626,0,0,1,.626.626v2.653a.619.619,0,0,0,.422.583,7.243,7.243,0,0,1,.809.336.624.624,0,0,0,.712-.125l1.868-1.868a.626.626,0,0,1,.886,0l1.894,1.894a.626.626,0,0,1,0,.886L285.3,20.352a.624.624,0,0,0-.125.712,7.249,7.249,0,0,1,.336.809.619.619,0,0,0,.583.422h2.653a.626.626,0,0,1,.626.626V25.6a.626.626,0,0,1-.626.626h-2.653a.619.619,0,0,0-.583.422,7.247,7.247,0,0,1-.336.809.624.624,0,0,0,.125.712l1.868,1.868a.626.626,0,0,1,0,.886l-1.894,1.894a.626.626,0,0,1-.886,0l-1.868-1.868a.624.624,0,0,0-.712-.125,7.253,7.253,0,0,1-.809.336.619.619,0,0,0-.422.583v2.653a.626.626,0,0,1-.626.626h-2.678a.626.626,0,0,1-.626-.626V31.741a.619.619,0,0,0-.422-.583,7.241,7.241,0,0,1-.809-.336.624.624,0,0,0-.712.125l-1.868,1.868a.626.626,0,0,1-.886,0l-1.894-1.894a.626.626,0,0,1,0-.886l1.868-1.868a.624.624,0,0,0,.125-.712,7.244,7.244,0,0,1-.336-.809.619.619,0,0,0-.583-.422H268.48a.626.626,0,0,1-.627-.626Z" transform="translate(-267.853 -13.5)" fill="#26a6fe"/>
              </g>
              <g id="Grupo_1120115" data-name="Grupo 1120115" transform="translate(7.503 7.503)">
                <circle id="Elipse_11878" data-name="Elipse 11878" cx="3.257" cy="3.257" r="3.257" fill="#0182fc"/>
              </g>
              <g id="Grupo_1120116" data-name="Grupo 1120116" transform="translate(7.969 7.539)">
                <path id="Trazado_918342" data-name="Trazado 918342" d="M347.464,85.717a3.257,3.257,0,0,1-2.791,4.936,3.28,3.28,0,0,1-.481-.036,3.257,3.257,0,1,0,3.272-4.9Z" transform="translate(-344.192 -85.717)" fill="#0172fb"/>
              </g>
            </g>
            <g id="Grupo_1120137" data-name="Grupo 1120137" transform="translate(0 6.681)">
              <g id="Grupo_1120136" data-name="Grupo 1120136">
                <g id="Grupo_1120120" data-name="Grupo 1120120" transform="translate(6.091 10.217)">
                  <g id="Grupo_1120118" data-name="Grupo 1120118" transform="translate(0)">
                    <path id="Trazado_918343" data-name="Trazado 918343" d="M68.741,179.316H67.484a2.409,2.409,0,0,0-1.637.641v-4.472l.415-.11h2.479v3.941Z" transform="translate(-65.847 -175.375)" fill="#bb5d4c"/>
                  </g>
                  <g id="Grupo_1120119" data-name="Grupo 1120119" transform="translate(14.748)">
                    <path id="Trazado_918344" data-name="Trazado 918344" d="M209.639,175.375l.378.11v4.472a2.409,2.409,0,0,0-1.638-.641h-1.256v-3.941h2.515Z" transform="translate(-207.124 -175.375)" fill="#a44f3e"/>
                  </g>
                </g>
                <g id="Grupo_1120121" data-name="Grupo 1120121" transform="translate(0 25.129)">
                  <path id="Trazado_918345" data-name="Trazado 918345" d="M8.544,337.039H36.28A1.044,1.044,0,0,0,37.324,336V323.439a5.22,5.22,0,0,0-5.22-5.22H12.72a5.22,5.22,0,0,0-5.22,5.22V336A1.044,1.044,0,0,0,8.544,337.039Z" transform="translate(-7.5 -318.219)" fill="#d8ecfe"/>
                </g>
                <g id="Grupo_1120122" data-name="Grupo 1120122" transform="translate(0 25.294)">
                  <path id="Trazado_918346" data-name="Trazado 918346" d="M33.409,319.794V333.52a1.044,1.044,0,0,1-1.044,1.044H7.5v2.841a1.044,1.044,0,0,0,1.044,1.044H36.28a1.044,1.044,0,0,0,1.044-1.044V324.849A5.222,5.222,0,0,0,33.409,319.794Z" transform="translate(-7.5 -319.794)" fill="#c4e2ff"/>
                </g>
                <g id="Grupo_1120123" data-name="Grupo 1120123" transform="translate(13.363 24.259)">
                  <path id="Trazado_918347" data-name="Trazado 918347" d="M135.509,329.57V311.01l1.549-1.131,1.549,1.131V329.57Z" transform="translate(-135.509 -309.879)" fill="#eaf6ff"/>
                </g>
                <g id="Grupo_1120124" data-name="Grupo 1120124" transform="translate(13.363 40.064)">
                  <path id="Trazado_918348" data-name="Trazado 918348" d="M135.509,461.281h3.1v3.885h-3.1Z" transform="translate(-135.509 -461.281)" fill="#d8ecfe"/>
                </g>
                <g id="Grupo_1120125" data-name="Grupo 1120125" transform="translate(10.197 22.121)">
                  <path id="Trazado_918349" data-name="Trazado 918349" d="M108.183,290.663h3.426a4.2,4.2,0,0,0,3-1.26v4.684a.516.516,0,0,1-.821.417l-3.894-2.845L106,294.5a.516.516,0,0,1-.821-.417V289.4A4.2,4.2,0,0,0,108.183,290.663Z" transform="translate(-105.181 -289.403)" fill="#c4e2ff"/>
                </g>
                <g id="Grupo_1120128" data-name="Grupo 1120128" transform="translate(5.207 14.055)">
                  <g id="Grupo_1120126" data-name="Grupo 1120126" transform="translate(15.64 0)">
                    <path id="Trazado_918350" data-name="Trazado 918350" d="M207.193,212.136h1.249a2.522,2.522,0,0,1,0,5.044h-1.249Z" transform="translate(-207.193 -212.136)" fill="#ffb09e"/>
                  </g>
                  <g id="Grupo_1120127" data-name="Grupo 1120127">
                    <path id="Trazado_918351" data-name="Trazado 918351" d="M59.9,212.136h1.249v5.044H59.9a2.522,2.522,0,0,1,0-5.044Z" transform="translate(-57.375 -212.136)" fill="#ffcebf"/>
                  </g>
                </g>
                <g id="Grupo_1120129" data-name="Grupo 1120129" transform="translate(8.881 10.224)">
                  <path id="Trazado_918352" data-name="Trazado 918352" d="M104.636,175.436v8.943a4.318,4.318,0,0,1-4.318,4.318H96.893a4.318,4.318,0,0,1-4.318-4.318v-8.943Z" transform="translate(-92.575 -175.436)" fill="#ffdfcf"/>
                </g>
                <g id="Grupo_1120131" data-name="Grupo 1120131" transform="translate(16.021 10.224)">
                  <g id="Grupo_1120130" data-name="Grupo 1120130">
                    <path id="Trazado_918353" data-name="Trazado 918353" d="M162.8,175.436v9.73a4.311,4.311,0,0,1-1.834,3.531h.6a4.318,4.318,0,0,0,4.318-4.318v-8.943Z" transform="translate(-160.964 -175.436)" fill="#ffcebf"/>
                  </g>
                </g>
                <g id="Grupo_1120132" data-name="Grupo 1120132" transform="translate(6.091 1.148)">
                  <path id="Trazado_918354" data-name="Trazado 918354" d="M65.846,97.679H83.488v-.358a8.821,8.821,0,0,0-17.642,0v.358Z" transform="translate(-65.846 -88.5)" fill="#ffe177"/>
                </g>
                <g id="Grupo_1120133" data-name="Grupo 1120133" transform="translate(6.091 1.499)">
                  <path id="Trazado_918355" data-name="Trazado 918355" d="M77.127,91.855a8.792,8.792,0,0,1,2.4,4.95,1.044,1.044,0,0,1-1.036,1.18H66.163a8.826,8.826,0,0,0-.317,2.341v.358H83.488v-.358A8.823,8.823,0,0,0,77.127,91.855Z" transform="translate(-65.846 -91.855)" fill="#ffd15b"/>
                </g>
                <g id="Grupo_1120134" data-name="Grupo 1120134" transform="translate(13.049)">
                  <path id="Trazado_918356" data-name="Trazado 918356" d="M136.226,78.544v9.283H132.5V78.544a1.044,1.044,0,0,1,1.044-1.044h1.638A1.044,1.044,0,0,1,136.226,78.544Z" transform="translate(-132.5 -77.5)" fill="#ffd15b"/>
                </g>
                <g id="Grupo_1120135" data-name="Grupo 1120135" transform="translate(13.049 7.628)">
                  <path id="Trazado_918357" data-name="Trazado 918357" d="M132.5,150.573h3.726v2.7H132.5Z" transform="translate(-132.5 -150.573)" fill="#ffc344"/>
                </g>
              </g>
            </g>
          </g>
          <g id="Grupo_1120140" data-name="Grupo 1120140" transform="translate(34.953 2.021)">
            <g id="Grupo_1120139" data-name="Grupo 1120139">
              <path id="Trazado_918358" data-name="Trazado 918358" d="M355.437,39.636h-2.653a.619.619,0,0,1-.583-.422,7.241,7.241,0,0,0-.336-.809.624.624,0,0,1,.125-.712l1.868-1.868a.626.626,0,0,0,0-.886l-1.894-1.894a.626.626,0,0,0-.886,0l-.675.675a10.761,10.761,0,0,1-8.088,14.541q.293.132.6.238a.619.619,0,0,1,.422.583v2.653a.626.626,0,0,0,.626.626h2.678a.626.626,0,0,0,.626-.626V49.083a.619.619,0,0,1,.422-.583,7.244,7.244,0,0,0,.809-.336.624.624,0,0,1,.712.125l1.868,1.868a.626.626,0,0,0,.886,0l1.894-1.894a.626.626,0,0,0,0-.886l-1.868-1.868a.624.624,0,0,1-.125-.712,7.255,7.255,0,0,0,.336-.809.619.619,0,0,1,.583-.422h2.653a.626.626,0,0,0,.626-.626V40.263a.626.626,0,0,0-.626-.627Z" transform="translate(-342.317 -32.863)" fill="#0593fc"/>
            </g>
          </g>
        </g>
      </g>
      <g id="Grupo_1120143" data-name="Grupo 1120143" transform="translate(0 6)">
        <path id="Trazado_918359" data-name="Trazado 918359" d="M289.544,247.665H270.458a.783.783,0,0,0,0,1.566h19.086a.783.783,0,1,0,0-1.566Z" transform="translate(-241.523 -222.437)"/>
        <path id="Trazado_918360" data-name="Trazado 918360" d="M289.544,279.583H270.458a.783.783,0,0,0,0,1.566h19.086a.783.783,0,1,0,0-1.566Z" transform="translate(-241.523 -251.023)"/>
        <path id="Trazado_918361" data-name="Trazado 918361" d="M345.384,313.066h11.264a.783.783,0,1,0,0-1.566H345.384a.783.783,0,0,0,0,1.566Z" transform="translate(-308.627 -279.608)"/>
        <path id="Trazado_918362" data-name="Trazado 918362" d="M164.634,202.877a.783.783,0,0,0,.783-.783v-.877a.783.783,0,1,0-1.566,0v.877A.783.783,0,0,0,164.634,202.877Z" transform="translate(-146.746 -180.136)"/>
        <path id="Trazado_918363" data-name="Trazado 918363" d="M122.621,202.877a.783.783,0,0,0,.783-.783v-.877a.783.783,0,1,0-1.566,0v.877A.783.783,0,0,0,122.621,202.877Z" transform="translate(-109.119 -180.136)"/>
        <path id="Trazado_918364" data-name="Trazado 918364" d="M124.814,245.157a2.979,2.979,0,0,0,2.976-2.976.783.783,0,1,0-1.566,0,1.41,1.41,0,0,1-2.82,0,.783.783,0,1,0-1.566,0A2.979,2.979,0,0,0,124.814,245.157Z" transform="translate(-109.119 -216.824)"/>
        <path id="Trazado_918365" data-name="Trazado 918365" d="M336.269,77.875a4.04,4.04,0,1,0,4.04,4.04A4.044,4.044,0,0,0,336.269,77.875Zm0,6.514a2.474,2.474,0,1,1,2.474-2.474A2.477,2.477,0,0,1,336.269,84.389Z" transform="translate(-297.547 -70.372)"/>
        <path id="Trazado_918366" data-name="Trazado 918366" d="M47.5,44.215h4.124a1.829,1.829,0,0,0,1.827-1.827v-23.8a1.829,1.829,0,0,0-1.827-1.827H50.265V16.2a1.411,1.411,0,0,0-1.409-1.409H46.323c-.084-.232-.179-.46-.283-.683l1.791-1.791a1.411,1.411,0,0,0,0-1.993L45.937,8.434a1.409,1.409,0,0,0-1.993,0l-1.791,1.791c-.223-.1-.452-.2-.683-.283V7.409A1.411,1.411,0,0,0,40.061,6H37.383a1.411,1.411,0,0,0-1.409,1.409V9.942c-.231.084-.46.178-.683.283L33.5,8.434a1.409,1.409,0,0,0-1.993,0l-1.893,1.893a1.409,1.409,0,0,0,0,1.993L31.4,14.112c-.1.222-.2.451-.283.683H28.588A1.411,1.411,0,0,0,27.179,16.2v.556H22.6a9.648,9.648,0,0,0-4.288-2.565,1.828,1.828,0,0,0-1.8-1.514H14.876a1.828,1.828,0,0,0-1.8,1.513,9.54,9.54,0,0,0-2.451,1.082.783.783,0,1,0,.827,1.33,8,8,0,0,1,1.6-.763v7.165H7.669a7.982,7.982,0,0,1,1.378-4.093.783.783,0,0,0-1.294-.882A9.542,9.542,0,0,0,6.1,23.008H5.256a.783.783,0,0,0,0,1.566h.835v3.22a3.3,3.3,0,0,0,2.42,5.552h.421a5.085,5.085,0,0,0,1.265,2.7V37.81H6a6.009,6.009,0,0,0-6,6V56.37A1.829,1.829,0,0,0,1.827,58.2H29.563A1.829,1.829,0,0,0,31.39,56.37v-1H43.445a5.789,5.789,0,0,0,.806,1.061,5.742,5.742,0,0,0,9.04-.981,1.08,1.08,0,0,0-.924-1.641H48.972l-.782-1.355.782-1.355h3.395a1.08,1.08,0,0,0,.923-1.643,5.729,5.729,0,0,0-9.83.082H31.39V44.215H43.845a.783.783,0,0,0,0-1.566H31.276a6.012,6.012,0,0,0-5.888-4.839H21.193V36.046a5.085,5.085,0,0,0,1.265-2.7h.421a3.3,3.3,0,0,0,2.42-5.552v-3.22h.835a.783.783,0,1,0,0-1.566h-.845a9.632,9.632,0,0,0-1.462-4.682h3.352v.556a1.411,1.411,0,0,0,1.409,1.409h2.533c.084.232.179.461.283.683l-1.791,1.791a1.409,1.409,0,0,0,0,1.993l1.894,1.894a1.409,1.409,0,0,0,1.993,0l1.791-1.791c.223.1.452.2.683.283v2.533a1.411,1.411,0,0,0,1.409,1.409h2.678a1.411,1.411,0,0,0,1.409-1.409V25.144c.231-.084.46-.178.683-.283l1.791,1.791a1.409,1.409,0,0,0,1.993,0l1.894-1.894a1.411,1.411,0,0,0,0-1.993L46.04,20.975c.1-.223.2-.452.283-.683h2.533a1.411,1.411,0,0,0,1.409-1.409v-.556h1.357a.261.261,0,0,1,.261.261v23.8a.261.261,0,0,1-.261.261H47.5a.783.783,0,1,0,0,1.566ZM14.615,14.808v-.3a.261.261,0,0,1,.261-.261h1.638a.261.261,0,0,1,.261.261v8.5h-2.16Zm6.327,9.766v8.057a3.539,3.539,0,0,1-3.535,3.535H13.982a3.539,3.539,0,0,1-3.535-3.535V24.574Zm2.79,0v2.275a3.3,3.3,0,0,0-.855-.113h-.37V24.574Zm-11.97,15.17V37.223a5.07,5.07,0,0,0,2.219.509h.536ZM8.882,24.574v2.162h-.37a3.3,3.3,0,0,0-.855.113V24.574Zm7.99,13.158h.536a5.07,5.07,0,0,0,2.219-.509v2.521Zm-10.1-7.691A1.741,1.741,0,0,1,8.512,28.3h.37V31.78h-.37a1.741,1.741,0,0,1-1.739-1.739Zm8.157,26.59V49.114a.783.783,0,1,0-1.566,0v7.516H1.827a.261.261,0,0,1-.261-.261V43.813A4.442,4.442,0,0,1,6,39.376H10.2v.893a1.3,1.3,0,0,0,2.066,1.049l1.1-.8v4.946a.783.783,0,1,0,1.566,0v-6.09l.766-.559.766.559v17.26ZM44.22,52.282a4.205,4.205,0,0,1,3.923-4c.082,0,.163-.007.244-.007a4.181,4.181,0,0,1,2.989,1.255H48.828a1.32,1.32,0,0,0-1.14.658l-.926,1.6a1.32,1.32,0,0,0,0,1.316l.927,1.605a1.32,1.32,0,0,0,1.14.658h2.551a4.177,4.177,0,0,1-7.159-3.094Zm-1.406-1.177a5.6,5.6,0,0,0-.159,1.114A5.8,5.8,0,0,0,42.81,53.8H31.39v-2.7ZM25.387,39.376a4.442,4.442,0,0,1,4.437,4.437V56.37a.261.261,0,0,1-.261.261H18.027V40.515l1.1.8a1.3,1.3,0,0,0,2.066-1.049v-.893Zm-2.509-7.6h-.37V28.3h.37a1.739,1.739,0,0,1,0,3.478Zm-4.538-8.772V15.843a8.09,8.09,0,0,1,5.381,7.165ZM48.7,18.725H46.2a1.4,1.4,0,0,0-1.323.949,6.447,6.447,0,0,1-.3.721A1.406,1.406,0,0,0,44.856,22l1.757,1.757-1.672,1.672-1.757-1.757a1.406,1.406,0,0,0-1.609-.275,6.46,6.46,0,0,1-.721.3,1.4,1.4,0,0,0-.949,1.323v2.5H37.54v-2.5a1.4,1.4,0,0,0-.949-1.323,6.469,6.469,0,0,1-.721-.3,1.405,1.405,0,0,0-1.609.275L32.5,25.434l-1.672-1.672L32.588,22a1.406,1.406,0,0,0,.275-1.609,6.475,6.475,0,0,1-.3-.721,1.4,1.4,0,0,0-1.323-.949h-2.5V16.361h2.5a1.4,1.4,0,0,0,1.323-.949,6.486,6.486,0,0,1,.3-.722,1.406,1.406,0,0,0-.275-1.609l-1.757-1.757L32.5,9.652l1.757,1.757a1.406,1.406,0,0,0,1.609.275,6.5,6.5,0,0,1,.722-.3,1.4,1.4,0,0,0,.949-1.323v-2.5H39.9v2.5a1.4,1.4,0,0,0,.949,1.323,6.488,6.488,0,0,1,.721.3,1.406,1.406,0,0,0,1.609-.275l1.757-1.757,1.672,1.672-1.757,1.757a1.406,1.406,0,0,0-.275,1.609,6.444,6.444,0,0,1,.3.721,1.4,1.4,0,0,0,1.323.949h2.5Z" transform="translate(0 -6)"/>
      </g>
    </g>
  </g>
</svg>
