<svg xmlns="http://www.w3.org/2000/svg" width="77" height="77" viewBox="0 0 77 77">
  <g id="Grupo_1119870" data-name="Grupo 1119870" transform="translate(-446.051 -1765)">
    <g id="Grupo_1098742" data-name="Grupo 1098742" transform="translate(446.051 1765)">
      <rect id="Rect치ngulo_400898" data-name="Rect치ngulo 400898" width="77" height="77" rx="38.5" transform="translate(0 0)" fill="#ccda2d"/>
      <rect id="Rect치ngulo_400907" data-name="Rect치ngulo 400907" width="77" height="77" rx="38.5" transform="translate(0 0)" fill="none"/>
    </g>
    <g id="Milking_Machine" data-name="Milking Machine" transform="translate(451.55 1768.16)">
      <path id="path1073-0" d="M223.686,189.228a11.211,11.211,0,0,0,5.674,0l.45,3.315a3.317,3.317,0,1,1-6.574,0Z" transform="translate(-193.726 -161.26)" fill="#df7a52"/>
      <path id="path1069-7" d="M105.981,28.935a3.535,3.535,0,0,0,1.356-3.349,11.15,11.15,0,0,1,.461-5.369l1.325-3.878h18.54l1.325,3.878a11.207,11.207,0,0,1,.465,5.37,3.532,3.532,0,0,0,1.354,3.344c1.155.883,2.429,1.852,2.429,1.852a3.315,3.315,0,1,1-4.645,4.645l-2.576-3.388a11.2,11.2,0,0,1-15.238,0L108.2,35.43a3.315,3.315,0,1,1-4.645-4.645l2.431-1.849Z" transform="translate(-85.596 -6.705)" fill="#ea8c55"/>
      <path id="path1077-9" d="M241.19,380.07v10.468a1.79,1.79,0,0,1-3.58,0V380.07a4.49,4.49,0,0,0,3.58,0Z" transform="translate(-206.603 -331.866)" fill="#3d405b"/>
      <path id="path1089-3" d="M221.255,264.8v8.123a4.473,4.473,0,0,1-8.945,0V264.8a6.044,6.044,0,0,0,8.945,0Z" transform="translate(-183.986 -228.819)" fill="#cfd0da"/>
      <path id="path2356" d="M300.09,16.33l1.231,3.605a16.011,16.011,0,0,1,.668,7.678,5.055,5.055,0,0,0,1.938,4.787c1.652,1.264,3.476,2.651,3.476,2.651a4.737,4.737,0,0,1,1.352,1.618,3.316,3.316,0,0,0,1.347-5.888s-1.272-.969-2.429-1.852a3.532,3.532,0,0,1-1.354-3.344,11.207,11.207,0,0,0-.466-5.37c-.776-2.271-1.327-3.879-1.327-3.879Z" transform="translate(-262.458 -6.696)" fill="#df7a52"/>
      <path id="path1093-6" d="M378.164,178.571l5.744,5.744a4.472,4.472,0,0,1-6.324,6.324L371.84,184.9a6.044,6.044,0,0,0,6.325-6.325Z" transform="translate(-326.599 -151.732)" fill="#cfd0da"/>
      <path id="path1097-0" d="M21.06,178.58a6.044,6.044,0,0,0,6.325,6.325l-5.744,5.744a4.472,4.472,0,1,1-6.324-6.324Z" transform="translate(-6.71 -151.741)" fill="#cfd0da"/>
      <path id="path2396" d="M249.357,264.8a6.067,6.067,0,0,1-2.28,1.569v6.554a4.474,4.474,0,0,1-3.332,4.325,4.476,4.476,0,0,0,5.612-4.325Z" transform="translate(-212.087 -228.819)" fill="#bec0ca"/>
      <path id="path2394" d="M429.37,178.58a6.073,6.073,0,0,1-.25,2.03l3.711,3.711a4.479,4.479,0,0,1-2.022,7.492,4.475,4.475,0,0,0,4.3-7.492Z" transform="translate(-377.806 -151.741)" fill="#bec0ca"/>
      <path id="path2361" d="M53.2,238.23l-5.743,5.744a4.454,4.454,0,0,1-2.023,1.166,4.467,4.467,0,0,0,4.3-1.166l5.744-5.744Z" transform="translate(-34.801 -205.066)" fill="#bec0ca"/>
      <g id="Grupo_1119869" data-name="Grupo 1119869" transform="translate(14.341 23.19)">
        <path id="path1101-6" d="M342.778,144.642q.433-.181.894-.333a2.529,2.529,0,0,1,3.1,1.386,6.044,6.044,0,0,1-7.992,7.953,2.531,2.531,0,0,1-1.378-3.075,10.773,10.773,0,0,1,.682-1.658l.617.811a3.315,3.315,0,1,0,4.646-4.645Z" transform="translate(-310.045 -144.184)" fill="#3d405b"/>
        <path id="path1105-2" d="M202.341,211.92l-.124.909a3.318,3.318,0,1,0,6.574,0l-.12-.881a11.552,11.552,0,0,1,1.252.546,2.529,2.529,0,0,1,1.211,3.169,6.044,6.044,0,0,1-11.272-.023,2.53,2.53,0,0,1,1.2-3.151,11.209,11.209,0,0,1,1.281-.563Z" transform="translate(-187.049 -204.736)" fill="#3d405b"/>
        <path id="path1109-6" d="M89.5,148.654a10.558,10.558,0,0,1,.814,1.909,2.531,2.531,0,0,1-1.378,3.075,6.044,6.044,0,0,1-7.992-7.953,2.529,2.529,0,0,1,3.1-1.386c.234.077.462.159.685.247l-.679.516a3.315,3.315,0,1,0,4.645,4.645Z" transform="translate(-80.433 -144.175)" fill="#3d405b"/>
        <path id="path1113-1" d="M384.729,397.317a1.7,1.7,0,0,0-1.7-1.7h-9.586a1.7,1.7,0,0,0-1.7,1.7v7.219a1.7,1.7,0,0,0,1.7,1.7h9.586a1.7,1.7,0,0,0,1.7-1.7Z" transform="translate(-340.86 -368.958)" fill="#3d405b"/>
      </g>
      <path id="path2398" d="M459.67,395.623a1.7,1.7,0,0,1,1.7,1.7v7.216a1.7,1.7,0,0,1-1.7,1.7h1.964a1.69,1.69,0,0,0,1.7-1.7v-7.219a1.7,1.7,0,0,0-1.7-1.7Z" transform="translate(-405.116 -345.767)" fill="#373952"/>
      <path id="Trazado_917830" data-name="Trazado 917830" d="M8.1,39.521a5.62,5.62,0,0,0,.715.585L6.821,42.1a.8.8,0,0,0,1.125,1.125l2.407-2.407a5.27,5.27,0,0,0,5.141-1.347l5.539-5.54a6.765,6.765,0,0,0,2.131-.55,3.324,3.324,0,0,0,1.815-4.044,11.809,11.809,0,0,0-.636-1.584L25.3,26.5a11.961,11.961,0,0,0,3.781,2.042L28.907,29.8c-.308.127-.616.269-.921.424a3.324,3.324,0,0,0-1.574,4.144,6.765,6.765,0,0,0,1.117,1.893V44.1a5.271,5.271,0,0,0,2.683,4.587v9.98a2.585,2.585,0,0,0,5.17,0V48.692A5.273,5.273,0,0,0,38.064,44.1v-.389h2.713V51.9a3.231,3.231,0,0,0,3.228,3.228h.438v3.64a2.489,2.489,0,0,0,2.488,2.489h9.586A2.489,2.489,0,0,0,59,58.769V51.549a2.489,2.489,0,0,0-2.488-2.489H52.362V45.732a3.612,3.612,0,0,0-3.605-3.605H42.369v-8.95a3.439,3.439,0,0,0,.382.2,6.768,6.768,0,0,0,2.13.551L50.42,39.47a5.272,5.272,0,0,0,5.144,1.349l2.022,2.023a.8.8,0,0,0,1.125-1.125l-1.61-1.61a5.362,5.362,0,0,0,.767-.636,5.268,5.268,0,0,0,0-7.45l-5.528-5.528a6.92,6.92,0,0,0-.549-2.111,3.318,3.318,0,0,0-4.074-1.821q-.264.088-.52.185c-.442-.337-.986-.752-1.507-1.151a2.734,2.734,0,0,1-1.051-2.587,12.045,12.045,0,0,0-.5-5.75l-1.324-3.88a.794.794,0,0,0-.752-.538H23.527a.794.794,0,0,0-.75.538l-1.329,3.879A11.97,11.97,0,0,0,20.955,19,2.738,2.738,0,0,1,19.9,21.6l-1.4,1.068-.306-.106a3.317,3.317,0,0,0-4.073,1.823,6.952,6.952,0,0,0-.549,2.11L8.044,32.02a5.266,5.266,0,0,0,.054,7.5ZM32.8,29.129a12.067,12.067,0,0,0,2.13-.191l.035-.005.334,2.458a2.523,2.523,0,1,1-5,0l.335-2.458.036.005a11.947,11.947,0,0,0,2.129.19Zm-3.884,6.318a.823.823,0,0,0-.212-.163,13.587,13.587,0,0,1-.8-1.478,1.734,1.734,0,0,1,.787-2.143,4.112,4.112,0,0,0,8.224.021,1.729,1.729,0,0,1,.777,2.143,9.272,9.272,0,0,1-.9,1.525.719.719,0,0,0-.106.093,5.246,5.246,0,0,1-7.768,0Zm4.878,13.833v9.394a.995.995,0,0,1-1.989,0V49.278a5.266,5.266,0,0,0,1.985,0Zm2.683-5.174a3.677,3.677,0,0,1-7.355,0V37.682a6.829,6.829,0,0,0,7.355,0Zm20.677,6.81a.893.893,0,0,1,.263.636v7.217a.9.9,0,0,1-.9.9H46.931a.9.9,0,0,1-.9-.9V51.55a.9.9,0,0,1,.9-.9h9.586a.891.891,0,0,1,.635.263Zm-8.394-7.2a2.015,2.015,0,0,1,2.015,2.015v3.328h-3.84a2.489,2.489,0,0,0-2.488,2.489v1.988h-.438A1.639,1.639,0,0,1,42.369,51.9V43.715ZM38.063,42.125V36.283a6.911,6.911,0,0,0,1.1-1.878,3.316,3.316,0,0,0-1.591-4.167c-.294-.148-.591-.284-.886-.406l-.176-1.294A11.952,11.952,0,0,0,40.3,26.5l1.152,1.514a11.823,11.823,0,0,0-.512,1.327,3.319,3.319,0,0,0-.061,1.794.794.794,0,0,0-.094.377V42.125Zm19.76-6.38a3.677,3.677,0,0,1-6.277,2.6L47,33.8a6.825,6.825,0,0,0,5.2-5.2l4.542,4.542A3.654,3.654,0,0,1,57.823,35.745ZM50.337,25.02a5.284,5.284,0,0,1,.435,1.8v.052A5.263,5.263,0,0,1,43.4,31.929a1.735,1.735,0,0,1-.948-2.107c.038-.12.078-.238.12-.353.023.027.045.049.063.068a4.112,4.112,0,0,0,2.723,1.29c.092.006.186.01.278.01a4.112,4.112,0,0,0,3.09-6.827c-.005-.006-.011-.014-.017-.02a1.72,1.72,0,0,1,1.632,1.03ZM20.869,22.863a4.333,4.333,0,0,0,1.661-4.108,10.382,10.382,0,0,1,.424-4.984l1.142-3.34H41.5l1.142,3.34a10.44,10.44,0,0,1,.432,4.992,4.325,4.325,0,0,0,1.656,4.1c1.156.883,2.431,1.854,2.431,1.854a2.523,2.523,0,1,1-3.535,3.535l-2.576-3.393a.794.794,0,0,0-.562-.3h-.069a.792.792,0,0,0-.541.212,10.405,10.405,0,0,1-14.156,0,.794.794,0,0,0-1.174.1l-2.576,3.393a2.523,2.523,0,1,1-3.541-3.544Zm-4,1.148a4.113,4.113,0,1,0,6.368,5.2l.072-.1v.1l-.024.087c.064.169.125.339.18.514a1.734,1.734,0,0,1-.945,2.108,5.254,5.254,0,0,1-7.377-5.049c0-.011,0-.022,0-.033a5.294,5.294,0,0,1,.434-1.821,1.728,1.728,0,0,1,1.289-1.011Zm-7.7,9.133L13.711,28.6a6.825,6.825,0,0,0,5.2,5.2l-4.537,4.546a3.677,3.677,0,1,1-5.2-5.2Z" transform="translate(0)"/>
      <path id="Trazado_917831" data-name="Trazado 917831" d="M443.5,423.721h1a.8.8,0,1,0,0-1.591h-1a.8.8,0,1,0,0,1.591Z" transform="translate(-389.946 -369.466)"/>
      <path id="Trazado_917832" data-name="Trazado 917832" d="M443.5,455.781h1a.8.8,0,1,0,0-1.591h-1a.8.8,0,1,0,0,1.591Z" transform="translate(-389.946 -398.126)"/>
    </g>
  </g>
</svg>
