<svg xmlns="http://www.w3.org/2000/svg" width="77" height="77" viewBox="0 0 77 77">
  <g id="Grupo_1119875" data-name="Grupo 1119875" transform="translate(-763.051 -1765)">
    <g id="Grupo_1098742" data-name="Grupo 1098742" transform="translate(763.051 1765)">
      <rect id="Rect치ngulo_400898" data-name="Rect치ngulo 400898" width="77" height="77" rx="38.5" transform="translate(0 0)" fill="#ccda2d"/>
      <rect id="Rect치ngulo_400907" data-name="Rect치ngulo 400907" width="77" height="77" rx="38.5" transform="translate(0 0)" fill="none"/>
    </g>
    <g id="Grupo_1119874" data-name="Grupo 1119874" transform="translate(773.05 1699.547)">
      <g id="Grupo_1119872" data-name="Grupo 1119872" transform="translate(0.817 88.751)">
        <path id="Trazado_917833" data-name="Trazado 917833" d="M103.2,148.77H66.8a1.1,1.1,0,0,1-1.1-1.019l-2.511-32.016h38.625l2.5,31.843A1.105,1.105,0,0,1,103.2,148.77Z" transform="translate(-57.119 -115.736)" fill="#31a7fb"/>
        <path id="Trazado_917834" data-name="Trazado 917834" d="M104.272,147.117H72.085a3.325,3.325,0,0,1-3.2-2.433L64.1,127.323l-.909-11.591h38.625Z" transform="translate(-57.121 -115.732)" fill="#1c96f9"/>
        <path id="Trazado_917835" data-name="Trazado 917835" d="M16.518,148.554l-4.923-2.888-3.134-.4a1.1,1.1,0,0,1-.941-1.328l6.04-28.206Z" transform="translate(-7.494 -115.735)" fill="#1785f8"/>
        <path id="Trazado_917836" data-name="Trazado 917836" d="M47.106,115.735l2.958,32.819-4.923-2.888Z" transform="translate(-41.041 -115.735)" fill="#1576f7"/>
        <g id="Grupo_1119871" data-name="Grupo 1119871" transform="translate(6.065 0)">
          <path id="Trazado_917837" data-name="Trazado 917837" d="M111.208,143.512l-7.447-26.965a1.1,1.1,0,0,0-1.065-.811H63.184L71.018,144.1a1.1,1.1,0,0,0,1.065.811h38.06A1.1,1.1,0,0,0,111.208,143.512Z" transform="translate(-63.184 -115.736)" fill="#eaf6ff"/>
          <path id="Trazado_917838" data-name="Trazado 917838" d="M400.289,144.908H396.24a1.105,1.105,0,0,0,1.065-1.4l-7.447-26.965a1.106,1.106,0,0,0-1.065-.811h4.048a1.106,1.106,0,0,1,1.065.811l7.447,26.965A1.105,1.105,0,0,1,400.289,144.908Z" transform="translate(-353.33 -115.732)" fill="#d9ecfd"/>
          <path id="Trazado_917839" data-name="Trazado 917839" d="M105.532,122.96l-1.772-6.414a1.1,1.1,0,0,0-1.065-.811H63.184l2,7.225Z" transform="translate(-63.184 -115.735)" fill="#fc5a95"/>
          <path id="Trazado_917840" data-name="Trazado 917840" d="M389.858,116.543l1.772,6.414h4.048l-1.772-6.414a1.106,1.106,0,0,0-1.065-.811h-4.048A1.106,1.106,0,0,1,389.858,116.543Z" transform="translate(-353.33 -115.732)" fill="#fb3a82"/>
        </g>
      </g>
      <path id="Trazado_917841" data-name="Trazado 917841" d="M143.354,222.646l-1.407-4.386a1.1,1.1,0,0,0-1.052-.768h-3.238a1.1,1.1,0,0,0-1.052,1.442l1.407,4.386a1.1,1.1,0,0,0,1.052.768H142.3A1.105,1.105,0,0,0,143.354,222.646Z" transform="translate(-121.679 -117.659)" fill="#31a7fb"/>
      <g id="Grupo_1119873" data-name="Grupo 1119873" transform="translate(0 85.453)">
        <path id="Trazado_917842" data-name="Trazado 917842" d="M55.693,116.309,48.507,90.291a3.3,3.3,0,0,0-5.4-3.709,3.291,3.291,0,0,0-4.962,0,3.291,3.291,0,0,0-4.962,0,3.291,3.291,0,0,0-4.962,0,3.291,3.291,0,0,0-4.962,0,3.291,3.291,0,0,0-4.962,0,3.291,3.291,0,0,0-4.962,0,3.3,3.3,0,0,0-5.681,1.37H7.053a.817.817,0,0,0-.97.628l-4.348,20.3a.817.817,0,1,0,1.6.342l2-9.332L4.158,117.763l-2.273-.288a.288.288,0,0,1-.246-.346l.875-4.084a.817.817,0,1,0-1.6-.342l-.875,4.084A1.922,1.922,0,0,0,1.68,119.1l2.968.376,4.779,2.8.008,0a1.905,1.905,0,0,0,1.059.323H46.9a1.922,1.922,0,0,0,1.916-2.072l-.14-1.788H53.84a1.922,1.922,0,0,0,1.852-2.433ZM7.955,89.568h4.351a1.664,1.664,0,0,1-1.448.847.817.817,0,1,0,0,1.634,3.3,3.3,0,0,0,3.2-2.481h3.215a1.664,1.664,0,0,1-1.448.847.817.817,0,1,0,0,1.634,3.3,3.3,0,0,0,3.2-2.481H22.23a1.664,1.664,0,0,1-1.448.847.817.817,0,1,0,0,1.634,3.3,3.3,0,0,0,3.2-2.481h3.215a1.664,1.664,0,0,1-1.448.847.817.817,0,1,0,0,1.634,3.3,3.3,0,0,0,3.2-2.481h3.215a1.664,1.664,0,0,1-1.448.847.817.817,0,1,0,0,1.634,3.3,3.3,0,0,0,3.2-2.481h3.215a1.664,1.664,0,0,1-1.448.847.817.817,0,1,0,0,1.634,3.3,3.3,0,0,0,3.2-2.481h3.215a1.664,1.664,0,0,1-1.448.847.817.817,0,1,0,0,1.634,3.3,3.3,0,0,0,3.2-2.481h2.568a.289.289,0,0,1,.278.211l.052.189a1.656,1.656,0,0,1-1.131.447.817.817,0,1,0,0,1.634,3.278,3.278,0,0,0,1.592-.411l.973,3.521H9.5Zm37.637-2.481a1.666,1.666,0,0,1,1.52.99,1.908,1.908,0,0,0-.719-.142h-2.25A1.665,1.665,0,0,1,45.592,87.087Zm-4.962,0a1.665,1.665,0,0,1,1.45.85h-2.9A1.665,1.665,0,0,1,40.63,87.087Zm-4.962,0a1.665,1.665,0,0,1,1.451.852h-2.9A1.665,1.665,0,0,1,35.668,87.087Zm-4.962,0a1.665,1.665,0,0,1,1.452.854H29.252A1.665,1.665,0,0,1,30.706,87.087Zm-4.962,0a1.665,1.665,0,0,1,1.454.856H24.289A1.665,1.665,0,0,1,25.744,87.087Zm-4.962,0a1.665,1.665,0,0,1,1.455.859H19.326A1.665,1.665,0,0,1,20.782,87.087Zm-4.962,0a1.665,1.665,0,0,1,1.457.861H14.362A1.665,1.665,0,0,1,15.82,87.087Zm-4.962,0a1.665,1.665,0,0,1,1.458.863H9.4A1.665,1.665,0,0,1,10.857,87.087Zm-3.9,13.034L8.5,119.837l-2.735-1.6ZM54.07,117a.283.283,0,0,1-.229.114H42.805a.817.817,0,1,0,0,1.634H47.04l.15,1.915a.288.288,0,0,1-.287.311H10.494a.29.29,0,0,1-.287-.266L8.362,97.179l2.787,10.092a.817.817,0,0,0,1.575-.435L9.95,96.793H48.608l5.51,19.951a.283.283,0,0,1-.048.251Z" transform="translate(0 -85.453)"/>
        <path id="Trazado_917843" data-name="Trazado 917843" d="M138.393,318.021H115.282a.289.289,0,0,1-.278-.211l-1.737-6.289a.817.817,0,0,0-1.575.435l1.737,6.289a1.927,1.927,0,0,0,1.852,1.41h23.112a.817.817,0,0,0,0-1.634Z" transform="translate(-99.501 -286.365)"/>
        <path id="Trazado_917844" data-name="Trazado 917844" d="M130.541,216.887a1.916,1.916,0,0,0,1.83,1.335h3.238a1.922,1.922,0,0,0,1.83-2.509l-1.407-4.386a1.916,1.916,0,0,0-1.83-1.335h-3.238a1.922,1.922,0,0,0-1.83,2.509Zm.19-5.142a.283.283,0,0,1,.233-.118H134.2a.287.287,0,0,1,.274.2l1.407,4.386a.288.288,0,0,1-.274.376h-3.238a.287.287,0,0,1-.274-.2L130.69,212A.282.282,0,0,1,130.731,211.745Z" transform="translate(-114.987 -196.429)"/>
        <path id="Trazado_917845" data-name="Trazado 917845" d="M217.51,214.671h1.508a.817.817,0,0,0,0-1.634H217.51a.817.817,0,1,0,0,1.634Z" transform="translate(-193.093 -199.142)"/>
        <path id="Trazado_917846" data-name="Trazado 917846" d="M264.33,214.671h1.508a.817.817,0,0,0,0-1.634H264.33a.817.817,0,0,0,0,1.634Z" transform="translate(-234.813 -199.142)"/>
        <path id="Trazado_917847" data-name="Trazado 917847" d="M311.149,214.671h1.508a.817.817,0,0,0,0-1.634h-1.508a.817.817,0,0,0,0,1.634Z" transform="translate(-276.533 -199.142)"/>
        <path id="Trazado_917848" data-name="Trazado 917848" d="M357.968,214.671h1.508a.817.817,0,0,0,0-1.634h-1.508a.817.817,0,0,0,0,1.634Z" transform="translate(-318.253 -199.142)"/>
        <path id="Trazado_917849" data-name="Trazado 917849" d="M404.787,214.671h1.508a.817.817,0,0,0,0-1.634h-1.508a.817.817,0,1,0,0,1.634Z" transform="translate(-359.973 -199.142)"/>
        <path id="Trazado_917850" data-name="Trazado 917850" d="M226.66,254.742a.817.817,0,0,0,.817.817h1.508a.817.817,0,0,0,0-1.634h-1.508A.817.817,0,0,0,226.66,254.742Z" transform="translate(-201.974 -235.576)"/>
        <path id="Trazado_917851" data-name="Trazado 917851" d="M273.479,254.742a.817.817,0,0,0,.817.817H275.8a.817.817,0,0,0,0-1.634H274.3A.817.817,0,0,0,273.479,254.742Z" transform="translate(-243.694 -235.576)"/>
        <path id="Trazado_917852" data-name="Trazado 917852" d="M320.3,254.742a.817.817,0,0,0,.817.817h1.508a.817.817,0,0,0,0-1.634h-1.508A.817.817,0,0,0,320.3,254.742Z" transform="translate(-285.413 -235.576)"/>
        <path id="Trazado_917853" data-name="Trazado 917853" d="M370.259,254.742a.817.817,0,0,0-.817-.817h-1.508a.817.817,0,0,0,0,1.634h1.508A.817.817,0,0,0,370.259,254.742Z" transform="translate(-327.134 -235.576)"/>
        <path id="Trazado_917854" data-name="Trazado 917854" d="M417.077,254.742a.817.817,0,0,0-.817-.817h-1.508a.817.817,0,0,0,0,1.634h1.508A.817.817,0,0,0,417.077,254.742Z" transform="translate(-368.853 -235.576)"/>
        <path id="Trazado_917855" data-name="Trazado 917855" d="M236.626,295.631a.817.817,0,0,0,.817.817h1.508a.817.817,0,0,0,0-1.634h-1.508A.817.817,0,0,0,236.626,295.631Z" transform="translate(-210.855 -272.012)"/>
        <path id="Trazado_917856" data-name="Trazado 917856" d="M283.444,295.631a.817.817,0,0,0,.817.817h1.508a.817.817,0,1,0,0-1.634h-1.508A.817.817,0,0,0,283.444,295.631Z" transform="translate(-252.574 -272.012)"/>
        <path id="Trazado_917857" data-name="Trazado 917857" d="M330.264,295.631a.817.817,0,0,0,.817.817h1.508a.817.817,0,1,0,0-1.634h-1.508A.817.817,0,0,0,330.264,295.631Z" transform="translate(-294.294 -272.012)"/>
        <path id="Trazado_917858" data-name="Trazado 917858" d="M379.407,296.448a.817.817,0,1,0,0-1.634H377.9a.817.817,0,0,0,0,1.634Z" transform="translate(-336.013 -272.012)"/>
        <path id="Trazado_917859" data-name="Trazado 917859" d="M426.226,296.448a.817.817,0,1,0,0-1.634h-1.508a.817.817,0,0,0,0,1.634Z" transform="translate(-377.733 -272.012)"/>
        <path id="Trazado_917860" data-name="Trazado 917860" d="M245.873,335.7h-1.508a.817.817,0,1,0,0,1.634h1.508a.817.817,0,0,0,0-1.634Z" transform="translate(-217.023 -308.446)"/>
        <path id="Trazado_917861" data-name="Trazado 917861" d="M292.692,335.7h-1.508a.817.817,0,0,0,0,1.634h1.508a.817.817,0,1,0,0-1.634Z" transform="translate(-258.743 -308.446)"/>
        <path id="Trazado_917862" data-name="Trazado 917862" d="M339.511,335.7H338a.817.817,0,1,0,0,1.634h1.508a.817.817,0,0,0,0-1.634Z" transform="translate(-300.462 -308.446)"/>
        <path id="Trazado_917863" data-name="Trazado 917863" d="M386.33,335.7h-1.508a.817.817,0,1,0,0,1.634h1.508a.817.817,0,1,0,0-1.634Z" transform="translate(-342.182 -308.446)"/>
        <path id="Trazado_917864" data-name="Trazado 917864" d="M433.149,335.7h-1.508a.817.817,0,0,0,0,1.634h1.508a.817.817,0,1,0,0-1.634Z" transform="translate(-383.902 -308.446)"/>
        <path id="Trazado_917865" data-name="Trazado 917865" d="M164.309,302.875a.817.817,0,0,0-.57,1l1.008,3.649a.817.817,0,1,0,1.575-.435l-1.008-3.649A.817.817,0,0,0,164.309,302.875Z" transform="translate(-145.88 -279.169)"/>
        <path id="Trazado_917866" data-name="Trazado 917866" d="M194.456,319.624a.817.817,0,0,0-.57,1l.5,1.824a.817.817,0,1,0,1.575-.435l-.5-1.824A.817.817,0,0,0,194.456,319.624Z" transform="translate(-172.743 -294.094)"/>
      </g>
    </g>
  </g>
</svg>
