<svg xmlns="http://www.w3.org/2000/svg" width="77" height="77" viewBox="0 0 77 77">
  <g id="Grupo_1119899" data-name="Grupo 1119899" transform="translate(2529 9856)">
    <g id="Grupo_1098742" data-name="Grupo 1098742" transform="translate(-2529 -9856)">
      <rect id="Rect치ngulo_400898" data-name="Rect치ngulo 400898" width="77" height="77" rx="38.5" transform="translate(0 0)" fill="#ccda2d"/>
      <rect id="Rect치ngulo_400907" data-name="Rect치ngulo 400907" width="77" height="77" rx="38.5" transform="translate(0 0)" fill="none"/>
    </g>
    <g id="Grupo_1119898" data-name="Grupo 1119898" transform="translate(-2514 -9851.11)">
      <g id="Grupo_1119877" data-name="Grupo 1119877" transform="translate(0.685 11.795)">
        <path id="Trazado_917892" data-name="Trazado 917892" d="M51.051,52.567H9.345A1.845,1.845,0,0,1,7.5,50.721V20.457a1.845,1.845,0,0,1,1.845-1.845H51.05A1.845,1.845,0,0,1,52.9,20.457V50.721A1.845,1.845,0,0,1,51.051,52.567Z" transform="translate(-7.5 -18.612)" fill="#4172ca"/>
      </g>
      <g id="Grupo_1119878" data-name="Grupo 1119878" transform="translate(41.929 11.795)">
        <path id="Trazado_917893" data-name="Trazado 917893" d="M461.35,18.612h-2.307a1.845,1.845,0,0,1,1.845,1.845V50.721a1.845,1.845,0,0,1-1.845,1.845h2.307a1.845,1.845,0,0,0,1.845-1.845V20.457A1.845,1.845,0,0,0,461.35,18.612Z" transform="translate(-459.043 -18.612)" fill="#3a67c1"/>
      </g>
      <g id="Grupo_1119879" data-name="Grupo 1119879" transform="translate(11.573 52.209)">
        <path id="Trazado_917894" data-name="Trazado 917894" d="M149.582,464.016H127.437a.738.738,0,0,1-.738-.738V461.8a.738.738,0,0,1,.738-.738h22.144a.738.738,0,0,1,.738.738v1.476A.738.738,0,0,1,149.582,464.016Z" transform="translate(-126.699 -461.063)" fill="#4172ca"/>
      </g>
      <g id="Grupo_1119880" data-name="Grupo 1119880" transform="translate(31.133 52.209)">
        <path id="Trazado_917895" data-name="Trazado 917895" d="M344.176,461.063h-3.322a.738.738,0,0,1,.738.738v1.476a.738.738,0,0,1-.738.738h3.322a.738.738,0,0,0,.738-.738V461.8A.738.738,0,0,0,344.176,461.063Z" transform="translate(-340.854 -461.063)" fill="#3a67c1"/>
      </g>
      <g id="Grupo_1119881" data-name="Grupo 1119881" transform="translate(15.632 45.75)">
        <path id="Trazado_917896" data-name="Trazado 917896" d="M184.8,391.883v-1.531h-11.81v1.531a7.381,7.381,0,0,1-1.45,4.394l-.4.534h15.5l-.4-.534A7.381,7.381,0,0,1,184.8,391.883Z" transform="translate(-171.147 -390.352)" fill="#26447e"/>
      </g>
      <g id="Grupo_1119882" data-name="Grupo 1119882" transform="translate(3.638 14.748)">
        <path id="Trazado_917897" data-name="Trazado 917897" d="M0,0H26.2V39.491H0Z" transform="translate(39.491) rotate(90)" fill="#edf6ff"/>
      </g>
      <g id="Grupo_1119883" data-name="Grupo 1119883" transform="translate(40.729 14.748)">
        <path id="Trazado_917898" data-name="Trazado 917898" d="M0,0H26.2V2.4H0Z" transform="translate(2.399) rotate(90)" fill="#ddebfd"/>
      </g>
      <g id="Grupo_1119896" data-name="Grupo 1119896" transform="translate(6.59 19.546)">
        <g id="Grupo_1119886" data-name="Grupo 1119886" transform="translate(0 0)">
          <g id="Grupo_1119885" data-name="Grupo 1119885">
            <g id="Grupo_1119884" data-name="Grupo 1119884">
              <circle id="Elipse_11864" data-name="Elipse 11864" cx="2.953" cy="2.953" r="2.953" fill="#a2f5c3"/>
            </g>
          </g>
        </g>
        <g id="Grupo_1119889" data-name="Grupo 1119889" transform="translate(18.269 0)">
          <g id="Grupo_1119888" data-name="Grupo 1119888" transform="translate(0)">
            <g id="Grupo_1119887" data-name="Grupo 1119887">
              <circle id="Elipse_11865" data-name="Elipse 11865" cx="2.953" cy="2.953" r="2.953" fill="#688ed5"/>
            </g>
          </g>
        </g>
        <g id="Grupo_1119892" data-name="Grupo 1119892" transform="translate(0 10.703)">
          <g id="Grupo_1119891" data-name="Grupo 1119891">
            <g id="Grupo_1119890" data-name="Grupo 1119890">
              <circle id="Elipse_11866" data-name="Elipse 11866" cx="2.953" cy="2.953" r="2.953" fill="#688ed5"/>
            </g>
          </g>
        </g>
        <g id="Grupo_1119895" data-name="Grupo 1119895" transform="translate(18.269 10.703)">
          <g id="Grupo_1119894" data-name="Grupo 1119894" transform="translate(0)">
            <g id="Grupo_1119893" data-name="Grupo 1119893">
              <circle id="Elipse_11867" data-name="Elipse 11867" cx="2.953" cy="2.953" r="2.953" fill="#a2f5c3"/>
            </g>
          </g>
        </g>
      </g>
      <g id="Grupo_1119897" data-name="Grupo 1119897" transform="translate(0 11.11)">
        <path id="Trazado_917899" data-name="Trazado 917899" d="M33.015,67.921a.685.685,0,0,0-.685.685v1.723a.685.685,0,0,0,.685.685H72.5a.685.685,0,0,0,.685-.685v-26.2a.685.685,0,0,0-.685-.685H33.015a.685.685,0,0,0-.685.685V65.409a.685.685,0,1,0,1.37,0V44.81H71.82V69.644H33.7V68.606a.685.685,0,0,0-.685-.685Z" transform="translate(-29.377 -40.487)"/>
        <path id="Trazado_917900" data-name="Trazado 917900" d="M46.081,15.758a.685.685,0,0,0,.685-.685V13.641a2.533,2.533,0,0,0-2.53-2.531H2.53A2.533,2.533,0,0,0,0,13.641V43.9a2.533,2.533,0,0,0,2.53,2.53H16.793v.847a6.742,6.742,0,0,1-1.315,3.986l-.19.256H12.311a1.425,1.425,0,0,0-1.423,1.423v1.477a1.425,1.425,0,0,0,1.423,1.423H34.455a1.425,1.425,0,0,0,1.423-1.423V52.946a1.425,1.425,0,0,0-1.423-1.423H31.478l-.19-.256a6.742,6.742,0,0,1-1.315-3.986v-.847H44.236a2.533,2.533,0,0,0,2.53-2.53V18.27a.685.685,0,1,0-1.37,0V43.9a1.161,1.161,0,0,1-1.16,1.16H2.53A1.161,1.161,0,0,1,1.37,43.9V13.641A1.162,1.162,0,0,1,2.53,12.48H44.236a1.162,1.162,0,0,1,1.16,1.161v1.432a.685.685,0,0,0,.685.685ZM29.81,51.523H28.056a.685.685,0,1,0,0,1.37h6.4a.053.053,0,0,1,.053.053v1.477a.053.053,0,0,1-.053.053H12.311a.053.053,0,0,1-.053-.053V52.946a.053.053,0,0,1,.053-.053H24.859a.685.685,0,1,0,0-1.37h-7.9a8.128,8.128,0,0,0,1.207-4.242v-.847H28.6v.847A8.128,8.128,0,0,0,29.81,51.523Z" transform="translate(0 -11.11)"/>
        <path id="Trazado_917901" data-name="Trazado 917901" d="M68.288,103.241A3.638,3.638,0,1,0,64.65,99.6,3.642,3.642,0,0,0,68.288,103.241Zm0-5.905A2.268,2.268,0,1,1,66.02,99.6a2.27,2.27,0,0,1,2.268-2.268Z" transform="translate(-58.745 -88.215)"/>
        <circle id="Elipse_11868" data-name="Elipse 11868" cx="0.738" cy="0.738" r="0.738" transform="translate(8.583 11.79) rotate(-67.486)"/>
        <path id="Trazado_917902" data-name="Trazado 917902" d="M164.331,129.661h6.274a.685.685,0,0,0,0-1.37h-6.274a.685.685,0,1,0,0,1.37Z" transform="translate(-148.699 -117.588)"/>
        <path id="Trazado_917903" data-name="Trazado 917903" d="M164.331,97.335h.923a.685.685,0,0,0,0-1.37h-.923a.685.685,0,1,0,0,1.37Z" transform="translate(-148.699 -88.214)"/>
        <path id="Trazado_917904" data-name="Trazado 917904" d="M209.157,97.335a.685.685,0,0,0,0-1.37h-2.4a.685.685,0,0,0,0,1.37Z" transform="translate(-187.25 -88.214)"/>
        <path id="Trazado_917905" data-name="Trazado 917905" d="M169.263,161.3a.685.685,0,0,0-.685-.685h-4.244a.685.685,0,1,0,0,1.37h4.244A.685.685,0,0,0,169.263,161.3Z" transform="translate(-148.701 -146.96)"/>
        <path id="Trazado_917906" data-name="Trazado 917906" d="M268.3,103.241a3.638,3.638,0,1,0-3.638-3.638A3.642,3.642,0,0,0,268.3,103.241Zm0-5.905a2.268,2.268,0,1,1-2.268,2.268A2.27,2.27,0,0,1,268.3,97.336Z" transform="translate(-240.489 -88.215)"/>
        <circle id="Elipse_11869" data-name="Elipse 11869" cx="0.738" cy="0.738" r="0.738" transform="translate(27.074 10.65)"/>
        <path id="Trazado_917907" data-name="Trazado 917907" d="M364.343,129.661h6.274a.685.685,0,0,0,0-1.37h-6.274a.685.685,0,0,0,0,1.37Z" transform="translate(-330.442 -117.588)"/>
        <path id="Trazado_917908" data-name="Trazado 917908" d="M364.343,97.335h.923a.685.685,0,0,0,0-1.37h-.923a.685.685,0,0,0,0,1.37Z" transform="translate(-330.442 -88.214)"/>
        <path id="Trazado_917909" data-name="Trazado 917909" d="M409.169,97.335a.685.685,0,0,0,0-1.37h-2.4a.685.685,0,1,0,0,1.37Z" transform="translate(-368.993 -88.214)"/>
        <path id="Trazado_917910" data-name="Trazado 917910" d="M369.275,161.3a.685.685,0,0,0-.685-.685h-4.244a.685.685,0,1,0,0,1.37h4.244A.685.685,0,0,0,369.275,161.3Z" transform="translate(-330.444 -146.96)"/>
        <path id="Trazado_917911" data-name="Trazado 917911" d="M68.288,220.42a3.638,3.638,0,1,0-3.638-3.638A3.642,3.642,0,0,0,68.288,220.42Zm0-5.905a2.268,2.268,0,1,1-2.268,2.268A2.27,2.27,0,0,1,68.288,214.515Z" transform="translate(-58.745 -194.691)"/>
        <circle id="Elipse_11870" data-name="Elipse 11870" cx="0.738" cy="0.738" r="0.738" transform="translate(8.496 22.09) rotate(-45)"/>
        <path id="Trazado_917912" data-name="Trazado 917912" d="M164.331,246.84h6.274a.685.685,0,0,0,0-1.37h-6.274a.685.685,0,1,0,0,1.37Z" transform="translate(-148.699 -224.064)"/>
        <path id="Trazado_917913" data-name="Trazado 917913" d="M164.331,214.515h.923a.685.685,0,0,0,0-1.37h-.923a.685.685,0,1,0,0,1.37Z" transform="translate(-148.699 -194.691)"/>
        <path id="Trazado_917914" data-name="Trazado 917914" d="M206.758,214.515h2.4a.685.685,0,0,0,0-1.37h-2.4a.685.685,0,0,0,0,1.37Z" transform="translate(-187.25 -194.691)"/>
        <path id="Trazado_917915" data-name="Trazado 917915" d="M164.334,277.8a.685.685,0,1,0,0,1.37h4.244a.685.685,0,1,0,0-1.37Z" transform="translate(-148.701 -253.436)"/>
        <path id="Trazado_917916" data-name="Trazado 917916" d="M268.3,220.42a3.638,3.638,0,1,0-3.638-3.638A3.642,3.642,0,0,0,268.3,220.42Zm0-5.905a2.268,2.268,0,1,1-2.268,2.268A2.27,2.27,0,0,1,268.3,214.515Z" transform="translate(-240.489 -194.691)"/>
        <circle id="Elipse_11871" data-name="Elipse 11871" cx="0.738" cy="0.738" r="0.738" transform="translate(27.074 21.353)"/>
        <path id="Trazado_917917" data-name="Trazado 917917" d="M364.343,246.84h6.274a.685.685,0,0,0,0-1.37h-6.274a.685.685,0,0,0,0,1.37Z" transform="translate(-330.442 -224.064)"/>
        <path id="Trazado_917918" data-name="Trazado 917918" d="M364.343,214.515h.923a.685.685,0,0,0,0-1.37h-.923a.685.685,0,0,0,0,1.37Z" transform="translate(-330.442 -194.691)"/>
        <path id="Trazado_917919" data-name="Trazado 917919" d="M406.77,214.515h2.4a.685.685,0,0,0,0-1.37h-2.4a.685.685,0,1,0,0,1.37Z" transform="translate(-368.993 -194.691)"/>
        <path id="Trazado_917920" data-name="Trazado 917920" d="M364.346,277.8a.685.685,0,1,0,0,1.37h4.244a.685.685,0,0,0,0-1.37Z" transform="translate(-330.444 -253.436)"/>
      </g>
    </g>
  </g>
</svg>
