<svg id="Grupo_1121067" data-name="Grupo 1121067" xmlns="http://www.w3.org/2000/svg" width="91.898" height="91.898" viewBox="0 0 91.898 91.898">
  <path id="Trazado_919045" data-name="Trazado 919045" d="M91.9,45.949A45.871,45.871,0,0,1,74.167,82.216c-7.788,6.068-17.581-6.589-28.218-6.589S25.519,88.284,17.731,82.216A45.95,45.95,0,1,1,91.9,45.949Z" transform="translate(0)" fill="#7fbb1b"/>
  <path id="Trazado_919046" data-name="Trazado 919046" d="M155.225,325.956a45.9,45.9,0,0,1-56.435,0l11.516-24.192,2.24-4.7h28.923Z" transform="translate(-81.058 -243.741)" fill="#b75c34"/>
  <path id="Trazado_919047" data-name="Trazado 919047" d="M118.983,332.442l-7.506,22.011a45.812,45.812,0,0,1-12.686-6.991l11.516-24.192Z" transform="translate(-81.058 -265.247)" fill="#a54828"/>
  <path id="Trazado_919048" data-name="Trazado 919048" d="M146.436,45.092l-4.8,2.394H106.762l-4.643-2.319-.153-.075a11.909,11.909,0,0,1-5.841-14.833,1.687,1.687,0,0,1,1.614-1.129,1.709,1.709,0,0,1,1.728,1.488,10.1,10.1,0,0,0,7.056,8.219l10.967,3.328h13.422l10.967-3.328a10.089,10.089,0,0,0,7.056-8.219,1.709,1.709,0,0,1,1.728-1.488,1.687,1.687,0,0,1,1.614,1.129A11.916,11.916,0,0,1,146.436,45.092Z" transform="translate(-78.252 -23.901)" fill="#fff9f1"/>
  <path id="Trazado_919049" data-name="Trazado 919049" d="M358.725,105.032l3.583,1.048a19.662,19.662,0,0,0,22.616-9.147l.951-1.675a2.75,2.75,0,0,0-1.3-3.882s-9.5-.165-12.1,5.983S358.725,105.032,358.725,105.032Z" transform="translate(-294.338 -74.975)" fill="#ffe5bf"/>
  <path id="Trazado_919050" data-name="Trazado 919050" d="M356.316,91.354l.433,5.955s12.8-.6,15.4-6.751,10.457-6.9,10.457-6.9l-1.951-.845a10.207,10.207,0,0,0-12.555,3.7l-1.016,1.524a5.486,5.486,0,0,1-3.839,2.394Z" transform="translate(-292.361 -67.252)" fill="#b75c34"/>
  <path id="Trazado_919051" data-name="Trazado 919051" d="M27.511,105.032l-3.583,1.048A19.662,19.662,0,0,1,1.312,96.933L.361,95.258a2.75,2.75,0,0,1,1.3-3.882s9.5-.165,12.1,5.983,13.755,7.673,13.755,7.673Z" transform="translate(0 -74.975)" fill="#ffe5bf"/>
  <path id="Trazado_919052" data-name="Trazado 919052" d="M35.516,91.354l-.433,5.955s-12.8-.6-15.4-6.751-10.457-6.9-10.457-6.9l1.951-.845a10.207,10.207,0,0,1,12.555,3.7l1.016,1.524a5.486,5.486,0,0,0,3.839,2.394Z" transform="translate(-7.573 -67.252)" fill="#a54828"/>
  <g id="Grupo_1121072" data-name="Grupo 1121072" transform="translate(16.448 15.892)">
    <path id="Trazado_919053" data-name="Trazado 919053" d="M129.693,163.067H117.078l-5.936-3.635a10.2,10.2,0,0,1-4.7-10.6l1.562-8.222a8.575,8.575,0,0,0-.949-5.806l-3.337-5.941a10.585,10.585,0,0,1,1.9-12.819l1.886-1.811a32.392,32.392,0,0,1,5.656-4.351c5.142-3.12,9.5,1.813,15.324,1.813Z" transform="translate(-100.44 -105.201)" fill="#cc754a"/>
    <path id="Trazado_919054" data-name="Trazado 919054" d="M247.88,111.694c5.819,0,13.1-4.933,18.239-1.813a32.392,32.392,0,0,1,5.656,4.351l1.886,1.811a10.588,10.588,0,0,1,1.9,12.819l-3.339,5.941a8.585,8.585,0,0,0-.949,5.806l1.562,8.222a10.2,10.2,0,0,1-4.7,10.6l-5.936,3.635h-13.11Z" transform="translate(-219.836 -105.201)" fill="#dc8758"/>
    <g id="Grupo_1121067-2" data-name="Grupo 1121067" transform="translate(0 18.185)">
      <path id="Trazado_919055" data-name="Trazado 919055" d="M367.005,196.775c-.115,0-.187,0-.211,0a1.526,1.526,0,0,1,.134-3.048c.174.007,3.968.1,5.373-2.976a1.526,1.526,0,0,1,2.776,1.267C373.021,196.517,368.1,196.775,367.005,196.775Z" transform="translate(-316.213 -189.854)" fill="#516666"/>
      <path id="Trazado_919056" data-name="Trazado 919056" d="M99.849,196.775c-1.1,0-6.016-.257-8.072-4.761a1.526,1.526,0,0,1,2.776-1.267c1.408,3.084,5.213,2.981,5.374,2.976a1.526,1.526,0,0,1,.133,3.048C100.036,196.772,99.964,196.775,99.849,196.775Z" transform="translate(-91.639 -189.854)" fill="#384948"/>
    </g>
    <path id="Trazado_919057" data-name="Trazado 919057" d="M189.927,106.216a9.21,9.21,0,0,0-3.195,13.043l1.54,2.373a6.466,6.466,0,0,1-1.827,8.9l-9.931,6.645-9.929-6.645a6.465,6.465,0,0,1-1.827-8.9l1.54-2.373a9.217,9.217,0,0,0-3.195-13.043,7.821,7.821,0,0,1-3.976-6.808,7.908,7.908,0,0,1,.043-.822l.564-5.369a32.431,32.431,0,0,1,33.563,0l.564,5.369a7.825,7.825,0,0,1-3.933,7.63Z" transform="translate(-147.014 -88.538)" fill="#fff9f1"/>
    <path id="Trazado_919058" data-name="Trazado 919058" d="M184.342,375.632a12.862,12.862,0,1,0,25.724,0c0-7.1-5.759-5.34-12.862-5.34S184.342,368.528,184.342,375.632Z" transform="translate(-167.703 -319.561)" fill="#ffd797"/>
    <path id="Trazado_919059" data-name="Trazado 919059" d="M192.141,310.909a17.881,17.881,0,0,0-35.762,0c0,9.875,8.006,7.423,17.881,7.423S192.141,320.784,192.141,310.909Z" transform="translate(-144.759 -256.324)" fill="#ffe5bf"/>
    <path id="Trazado_919060" data-name="Trazado 919060" d="M174.26,293.029a18.07,18.07,0,0,1,1.906.1c-6.485.984-11.543,9.035-11.543,18.825,0,3.439.625,5.465,1.716,6.636-5.9.133-9.96-.65-9.96-7.68A17.88,17.88,0,0,1,174.26,293.029Z" transform="translate(-144.759 -256.325)" fill="#ffe0a7"/>
    <g id="Grupo_1121068" data-name="Grupo 1121068" transform="translate(12.968 46.496)">
      <ellipse id="Elipse_11897" data-name="Elipse 11897" cx="3.578" cy="5.885" rx="3.578" ry="5.885" transform="translate(0 5.059) rotate(-45)" fill="#516666"/>
      <ellipse id="Elipse_11898" data-name="Elipse 11898" cx="5.885" cy="3.578" rx="5.885" ry="3.578" transform="translate(19.662 8.323) rotate(-45)" fill="#516666"/>
    </g>
    <g id="Grupo_1121071" data-name="Grupo 1121071" transform="translate(4.293 21.789)">
      <g id="Grupo_1121069" data-name="Grupo 1121069">
        <ellipse id="Elipse_11899" data-name="Elipse 11899" cx="3.761" cy="5.569" rx="3.761" ry="5.569" transform="translate(0 0)" fill="#516666"/>
        <path id="Trazado_919061" data-name="Trazado 919061" d="M121.2,220.324a2.878,2.878,0,0,1-1.88.746c-2.078,0-3.761-2.493-3.761-5.569s1.683-5.569,3.761-5.569a2.878,2.878,0,0,1,1.88.746,7.127,7.127,0,0,0,0,9.645Z" transform="translate(-115.557 -209.932)" fill="#384948"/>
      </g>
      <g id="Grupo_1121070" data-name="Grupo 1121070" transform="translate(42.218)">
        <ellipse id="Elipse_11900" data-name="Elipse 11900" cx="3.761" cy="5.569" rx="3.761" ry="5.569" transform="translate(0 0)" fill="#516666"/>
        <path id="Trazado_919062" data-name="Trazado 919062" d="M356.409,220.324a2.878,2.878,0,0,1-1.88.746c-2.078,0-3.761-2.493-3.761-5.569s1.683-5.569,3.761-5.569a2.878,2.878,0,0,1,1.88.746,7.127,7.127,0,0,0,0,9.645Z" transform="translate(-350.769 -209.932)" fill="#384948"/>
      </g>
    </g>
  </g>
  <path id="Trazado_919063" data-name="Trazado 919063" d="M202.276,80.171l-5.656-3.247s1.493,4.2-3.111,8.423a2.859,2.859,0,0,1-3.443.314,2.739,2.739,0,0,1-.415-.314c-4.6-4.22-3.109-8.423-3.109-8.423l-5.654,3.245a2.265,2.265,0,0,1-3.331-2.482,7.477,7.477,0,0,1,3.434-4.48l-2.565-1.35a1.589,1.589,0,0,1,.567-2.987A19.185,19.185,0,0,1,190.13,71.1a3,3,0,0,0,2.9,0A19.192,19.192,0,0,1,204.17,68.87a1.589,1.589,0,0,1,.567,2.987l-2.565,1.35a7.447,7.447,0,0,1,3.455,4.581A2.259,2.259,0,0,1,202.276,80.171Z" transform="translate(-145.638 -56.428)" fill="#b75c34"/>
  <path id="Trazado_919064" data-name="Trazado 919064" d="M190.067,85.661a2.74,2.74,0,0,1-.415-.314c-4.6-4.22-3.109-8.423-3.109-8.423l-5.654,3.245a2.265,2.265,0,0,1-3.331-2.482,7.477,7.477,0,0,1,3.434-4.48l-2.565-1.35a1.589,1.589,0,0,1,.567-2.987A19.185,19.185,0,0,1,190.13,71.1S187.368,79.733,190.067,85.661Z" transform="translate(-145.638 -56.428)" fill="#a54828"/>
  <path id="Trazado_919065" data-name="Trazado 919065" d="M102.119,45.167l-.153-.075a11.909,11.909,0,0,1-5.841-14.833,1.687,1.687,0,0,1,1.614-1.129,1.709,1.709,0,0,1,1.728,1.488,10.078,10.078,0,0,0,3.814,6.544A9.613,9.613,0,0,0,102.119,45.167Z" transform="translate(-78.252 -23.901)" fill="#f7eadc"/>
</svg>
