<svg xmlns="http://www.w3.org/2000/svg" width="69" height="69" viewBox="0 0 69 69">
  <g id="Grupo_1121066" data-name="Grupo 1121066" transform="translate(-564.051 -5652)">
    <circle id="Elipse_11750" data-name="Elipse 11750" cx="34.5" cy="34.5" r="34.5" transform="translate(564.051 5652)" fill="#0d8449"/>
    <g id="Grupo_1121065" data-name="Grupo 1121065" transform="translate(575.051 5663)">
      <path id="Trazado_919014" data-name="Trazado 919014" d="M47.651,47.573l.73,7.3H44.73l-.219.022-.146-1.519L44,49.763v-7.3A4.628,4.628,0,0,0,47.286,41h.365Z" transform="translate(-11.867 -11.058)" fill="#b8b8b7"/>
      <path id="Trazado_919015" data-name="Trazado 919015" d="M15.382,50.434l.73,3.651H11.73l-.292.029-.073-.8L11,49.7V44.957a4.765,4.765,0,0,1,2.483-4.177l.438.161v.73a4.33,4.33,0,0,0,1.059,2.855l-.073.066-.256,2.191Z" transform="translate(-2.967 -10.999)" fill="#b8b8b7"/>
      <path id="Trazado_919016" data-name="Trazado 919016" d="M11.757,57.651l-.292.029-.073-.8L11.1,54h4.309l.73,3.651Z" transform="translate(-2.994 -14.565)" fill="#5d5d72"/>
      <path id="Trazado_919017" data-name="Trazado 919017" d="M44.784,58.638l-.219.022-.146-1.519L44.2,54.987h3.505l.365-.037.365,3.688Z" transform="translate(-11.921 -14.821)" fill="#5d5d72"/>
      <path id="Trazado_919018" data-name="Trazado 919018" d="M28.431,34.138H12.365v-.73l-.438-.161a4.765,4.765,0,0,0-2.483,4.177v4.747l.365,3.615-.365.037H5.792l-.467-.037.467-6.536-.234-5.17L5.23,26.864l.562-.029H8.713A2.188,2.188,0,0,0,10.9,24.644V23.184A2.194,2.194,0,0,1,13.1,20.993,2.188,2.188,0,0,0,15.286,18.8V12.96h2.921l.716-.11.015.11c0,13.145,15.336,8.033,15.336,8.033l.124-.088a5.212,5.212,0,0,0,2.067,1.789l.051.015a2.056,2.056,0,0,0-.051.475,2.188,2.188,0,0,0,2.191,2.191h2.191l-2.921,6.573a6.3,6.3,0,0,1-1.1,1.461,4.628,4.628,0,0,1-3.286,1.461v7.3l.365,3.615-.365.037H29.892l-.467-.037.467-6.536Z" transform="translate(-1.411 -3.466)" fill="#eaeaea"/>
      <path id="Trazado_919019" data-name="Trazado 919019" d="M29.1,36.454c-.952-.1-1.767-1.653-2.921-1.461-4.09.679-12.188.73-13.05,4.893a4.42,4.42,0,0,1,.927-.672l.438.161v.73H30.562A33.365,33.365,0,0,1,29.1,36.455" transform="translate(-3.541 -9.434)" fill="#b8b8b7"/>
      <path id="Trazado_919020" data-name="Trazado 919020" d="M48.327,28.349a2.188,2.188,0,0,1-2.191-2.191,2.056,2.056,0,0,1,.051-.475l-.051-.015A5.212,5.212,0,0,1,44.07,23.88l-.124.088a21.919,21.919,0,0,1-2.855.679c.234,1.482,1.839,2.878,1.395,4.433a33.884,33.884,0,0,0-.506,7.618s0,.007,0,.009a1.2,1.2,0,0,0,1.02,1.1l.215.031A4.628,4.628,0,0,0,46.5,36.382a6.3,6.3,0,0,0,1.1-1.461l2.921-6.573Z" transform="translate(-11.083 -6.441)" fill="#b8b8b7"/>
      <path id="Trazado_919021" data-name="Trazado 919021" d="M38.6,17.543a5.1,5.1,0,0,0,.854,2.834l-.124.088s-15.336,5.112-15.336-8.033l-.015-.11,8.778-1.351.095-.08c1.044,1.388,2.994,2.928,5.463.015l.285.066.4.19a5.205,5.205,0,0,0-.4,2Z" transform="translate(-6.468 -2.937)" fill="#5d5d72"/>
      <path id="Trazado_919022" data-name="Trazado 919022" d="M43.986,20.382l-.124.088a21.92,21.92,0,0,1-2.855.679,22.946,22.946,0,0,1,.584-9.092,5.859,5.859,0,0,0,1.256-1.147l.285.066.4.19a5.205,5.205,0,0,0-.4,2v4.382a5.1,5.1,0,0,0,.854,2.834Z" transform="translate(-10.999 -2.943)" fill="#464656"/>
      <circle id="Elipse_11894" data-name="Elipse 11894" cx="1.5" cy="1.5" r="1.5" transform="translate(19 42)" fill="#85ddff"/>
      <path id="Trazado_919023" data-name="Trazado 919023" d="M9.82,58.746l.292,2.892H5l.263-3.688.467.037H9.382l.365-.037Z" transform="translate(-1.349 -15.63)" fill="#5d5d72"/>
      <path id="Trazado_919024" data-name="Trazado 919024" d="M61.112,7s0,5.112-5.112,1.461A10.1,10.1,0,0,1,61.112,7Z" transform="translate(-15.104 -1.888)" fill="#5d5d72"/>
      <path id="Trazado_919025" data-name="Trazado 919025" d="M54.368,24.066a2.19,2.19,0,0,1-.526,4.316H50.191A2.188,2.188,0,0,1,48,26.191a2.056,2.056,0,0,1,.051-.475A2.2,2.2,0,0,1,50.191,24h3.651A2.075,2.075,0,0,1,54.368,24.066Zm.2,2.125a.73.73,0,1,0-.73.73A.732.732,0,0,0,54.573,26.191Zm-3.651,0a.73.73,0,1,0-.73.73A.732.732,0,0,0,50.921,26.191Z" transform="translate(-12.946 -6.473)" fill="#e07a7a"/>
      <path id="Trazado_919026" data-name="Trazado 919026" d="M56.112,12.112v4.382a5.3,5.3,0,0,1-.241,1.563l-.489-.1-1.957-.979A4.383,4.383,0,0,1,51,13.054V7A5.108,5.108,0,0,1,56.112,12.112Z" transform="translate(-13.755 -1.888)" fill="#5d5d72"/>
      <path id="Trazado_919027" data-name="Trazado 919027" d="M53.494,17.954l.489.1a5.017,5.017,0,0,1-.672,1.358l-.022.066a2.075,2.075,0,0,0-.526-.066H49.112a2.2,2.2,0,0,0-2.14,1.716l-.051-.015a5.212,5.212,0,0,1-2.067-1.789A5.1,5.1,0,0,1,44,16.494V12.112a5.205,5.205,0,0,1,.4-2A5.123,5.123,0,0,1,49.112,7v6.054a4.383,4.383,0,0,0,2.425,3.922Z" transform="translate(-11.867 -1.888)" fill="#eaeaea"/>
      <path id="Trazado_919028" data-name="Trazado 919028" d="M42.893,59.469l.219,2.169H38l.263-3.688.467.037h3.651l.365-.037Z" transform="translate(-10.249 -15.63)" fill="#5d5d72"/>
      <path id="Trazado_919029" data-name="Trazado 919029" d="M41.733,9.427c-.146.2-.292.387-.445.562L35,8.595C38.294,5.71,41.733,9.427,41.733,9.427Z" transform="translate(-9.44 -2.022)" fill="#eaeaea"/>
      <path id="Trazado_919030" data-name="Trazado 919030" d="M35,9l6.288,1.395c-2.468,2.914-4.418,1.373-5.463-.015A7.641,7.641,0,0,1,35,9Z" transform="translate(-9.44 -2.427)" fill="#e07a7a"/>
      <path id="Trazado_919031" data-name="Trazado 919031" d="M15,42h8.763a4.381,4.381,0,0,1-7.7,2.855A4.33,4.33,0,0,1,15,42Z" transform="translate(-4.046 -11.328)" fill="#e07a7a"/>
      <path id="Trazado_919032" data-name="Trazado 919032" d="M23.823,42a4.381,4.381,0,0,1-7.7,2.855,4.321,4.321,0,0,1-.9-1.672,2.376,2.376,0,0,0,.168.212A4.377,4.377,0,0,0,22.837,42Z" transform="translate(-4.105 -11.328)" fill="#d85959"/>
      <path id="Trazado_919033" data-name="Trazado 919033" d="M15.224,13v5.842a2.188,2.188,0,0,1-2.191,2.191,2.194,2.194,0,0,0-2.191,2.191v1.461a2.188,2.188,0,0,1-2.191,2.191H5.73l-.562.029L5,23.224A10.228,10.228,0,0,1,15.224,13Z" transform="translate(-1.349 -3.506)" fill="#5d5d72"/>
      <path id="Trazado_919034" data-name="Trazado 919034" d="M1,1H3.921V3.921H1Z" transform="translate(-0.27 -0.27)" fill="#f5a323"/>
      <path id="Trazado_919035" data-name="Trazado 919035" d="M1,37l2.191,3.651L1,43.573Z" transform="translate(-0.27 -9.979)" fill="#5d5d72"/>
      <circle id="Elipse_11895" data-name="Elipse 11895" cx="0.5" cy="0.5" r="0.5" transform="translate(37 19)"/>
      <ellipse id="Elipse_11896" data-name="Elipse 11896" cx="1" cy="0.5" rx="1" ry="0.5" transform="translate(40 19)"/>
      <path id="Trazado_919036" data-name="Trazado 919036" d="M55.18,5.191a10.455,10.455,0,0,0-3.351.573,4.458,4.458,0,0,0,.429-2.033.73.73,0,0,0-1.247-.516c-.822.821-2.339,1.977-3.135,1.977a.709.709,0,0,0-.359.107,5.706,5.706,0,0,0-2.2,0,.714.714,0,0,0-.359-.107c-.8,0-2.313-1.156-3.135-1.977a.73.73,0,0,0-1.247.516,3.467,3.467,0,0,0,1.61,3.288,5.99,5.99,0,0,0-.4.475c-1.476-1.439-4.65-3.18-7.529-.662a.713.713,0,0,0-.074.089.69.69,0,0,0-.051.061.722.722,0,0,0-.1.234s0,0,0,.007,0,.007,0,.01a.725.725,0,0,0,0,.251.614.614,0,0,0,.023.089.69.69,0,0,0,.026.1c.057.131,1.434,3.2,3.84,3.467a3.082,3.082,0,0,0,.337.018,3.771,3.771,0,0,0,2.4-.973,5.777,5.777,0,0,0-.069.846.73.73,0,1,0,1.461,0,4.386,4.386,0,0,1,3.651-4.316v5.26a5.085,5.085,0,0,0,2.825,4.572l1.783.892c-.032.061-.07.118-.105.177-.041,0-.08-.012-.122-.012H46.416a2.911,2.911,0,0,0-2.487,1.41,4.4,4.4,0,0,1-1.894-3.6V13.954a.73.73,0,1,0-1.461,0v1.461A5.863,5.863,0,0,0,43.5,20.462c0,.022-.007.042-.007.065a2.924,2.924,0,0,0,2.921,2.921h3.651a2.915,2.915,0,0,0,1.552-5.387,5.809,5.809,0,0,0,.639-2.647V11.033a5.821,5.821,0,0,0-.291-1.81,3.853,3.853,0,0,0,1.178.2A2.484,2.484,0,0,0,54.3,9.157c1.566-.806,1.611-2.99,1.611-3.236a.73.73,0,0,0-.73-.73Zm-5.112,16.8H46.416a1.461,1.461,0,0,1,0-2.921h3.651a1.461,1.461,0,0,1,0,2.921ZM39.717,7.741l-2.9-.645A3.991,3.991,0,0,1,39.717,7.741ZM38.065,9.692a2.954,2.954,0,0,1-1.8-1.222l3.279.729A2.133,2.133,0,0,1,38.065,9.692Zm11.1,5.551a3.633,3.633,0,0,1-2.019-3.266V6.717A4.385,4.385,0,0,1,50.8,11.033v4.382a4.493,4.493,0,0,1-.047.621ZM53.628,7.86c-.456.233-1.183.085-2.1-.416a9.557,9.557,0,0,1,2.82-.749A1.727,1.727,0,0,1,53.628,7.86Z" transform="translate(-9.172 -0.809)"/>
      <path id="Trazado_919037" data-name="Trazado 919037" d="M27.921,54.516V52.191a.727.727,0,0,0-.214-.516l-1.461-1.461a.73.73,0,1,0-1.033,1.033l1.247,1.247v2.023a2.191,2.191,0,1,0,1.461,0Zm-.73,2.787a.73.73,0,1,1,.73-.73A.731.731,0,0,1,27.191,57.3Z" transform="translate(-6.743 -13.486)"/>
      <path id="Trazado_919038" data-name="Trazado 919038" d="M.73,4.382H6.27l4.168,4.168a.73.73,0,1,0,1.033-1.033L7.089,3.135a.727.727,0,0,0-.516-.214H4.382V.73A.73.73,0,0,0,3.651,0H.73A.73.73,0,0,0,0,.73V3.651a.73.73,0,0,0,.73.73Zm.73-2.921H2.921V2.921H1.461Z"/>
      <path id="Trazado_919039" data-name="Trazado 919039" d="M14.73,1.461h5.842a.73.73,0,0,0,0-1.461H14.73a.73.73,0,0,0,0,1.461Z" transform="translate(-3.776 0)"/>
      <path id="Trazado_919040" data-name="Trazado 919040" d="M14.73,5.461h2.921a.73.73,0,0,0,0-1.461H14.73a.73.73,0,0,0,0,1.461Z" transform="translate(-3.776 -1.079)"/>
      <path id="Trazado_919041" data-name="Trazado 919041" d="M47.73,16.191a.73.73,0,0,0,.73-.73v-.73a.73.73,0,0,0-1.461,0v.73A.73.73,0,0,0,47.73,16.191Z" transform="translate(-12.677 -3.776)"/>
      <path id="Trazado_919042" data-name="Trazado 919042" d="M53.73,14a.73.73,0,0,0-.73.73v.73a.73.73,0,0,0,1.461,0v-.73A.73.73,0,0,0,53.73,14Z" transform="translate(-14.295 -3.776)"/>
      <path id="Trazado_919043" data-name="Trazado 919043" d="M24.1,32.8H12.78a4.752,4.752,0,0,0,4.747-4.747V24.771a.73.73,0,0,0-1.461,0v3.286a3.29,3.29,0,0,1-3.286,3.286A5.483,5.483,0,0,0,7.3,36.821l0,4.82.285,2.848H4.7L5.11,38.7a.658.658,0,0,0,0-.085l-.53-11.652H7.3a2.924,2.924,0,0,0,2.921-2.921V22.58a1.462,1.462,0,0,1,1.461-1.461A2.924,2.924,0,0,0,14.606,18.2V13.087H16.8l.028,0c.137,3.086,1.139,5.433,3.006,6.965a10.665,10.665,0,0,0,6.819,2.043,21.6,21.6,0,0,0,4.165-.434.73.73,0,1,0-.286-1.432c-2.457.491-6.993.972-9.773-1.307-1.561-1.28-2.388-3.321-2.481-6.052l5.2-.8a.73.73,0,0,0-.223-1.444l-6.516,1H13.875a10.938,10.938,0,0,0-3.13.454.73.73,0,0,0,.209,1.43.746.746,0,0,0,.209-.031,9.416,9.416,0,0,1,1.982-.364V18.2a1.462,1.462,0,0,1-1.461,1.461A2.924,2.924,0,0,0,8.763,22.58v1.461A1.462,1.462,0,0,1,7.3,25.5H4.515L4.382,22.58a9.507,9.507,0,0,1,4.069-7.792.723.723,0,0,0,.277-.8.674.674,0,0,0,.036-.175.73.73,0,0,0-.73-.73H3.651A3.656,3.656,0,0,0,0,16.738V36.456a.73.73,0,0,0,1.315.438l2.127-2.836.208,4.58L2.923,48.819a.73.73,0,0,0,.728.782H8.763a.731.731,0,0,0,.727-.8L9.278,46.68h3.868a.73.73,0,0,0,.716-.873l-1.438-7.19.1-.83a5.122,5.122,0,0,0,2.085.8v.787a.73.73,0,1,0,1.461,0v-.789a5.068,5.068,0,0,0,1.889-.672l.516.516A.73.73,0,1,0,19.5,37.4l-.411-.411a5.09,5.09,0,0,0,1.3-2.724H24.1a.73.73,0,0,0,0-1.461ZM1.461,34.265V32.52l.582.969ZM2.922,22.613l.467,10.282L1.461,29.681V16.738a2.194,2.194,0,0,1,2.191-2.191h2.79A10.984,10.984,0,0,0,2.922,22.613ZM4.436,48.14l.156-2.191H7.737l.219,2.191Zm4.7-2.921L8.91,43.028h2.906l.438,2.191Zm6.205-8.033a3.667,3.667,0,0,1-3.164-1.826.73.73,0,1,0-1.263.732,5.127,5.127,0,0,0,.29.432l-.24,2.037a.707.707,0,0,0,.009.229l.555,2.778H8.763V36.821a4,4,0,0,1,.921-2.556h9.229a3.658,3.658,0,0,1-3.578,2.921Z" transform="translate(0 -2.863)"/>
      <path id="Trazado_919044" data-name="Trazado 919044" d="M47.929,32.063a.731.731,0,0,0-.964.371l-1.932,4.35a5.183,5.183,0,0,1-2.717,2.362l1.149-4.024a.73.73,0,0,0-1.405-.4L40.6,39.833a.689.689,0,0,0-.008.1.858.858,0,0,0-.019.1l0,7.376.285,2.848H37.966l.413-5.79a.74.74,0,0,0-.026-.253L36.893,39.1c0-.012-.013-.021-.018-.034s0-.025-.007-.037L35.409,35.38a.731.731,0,0,0-1.357.542L35.5,39.537l1.415,4.953-.721,10.1a.732.732,0,0,0,.729.784h5.112a.731.731,0,0,0,.727-.8l-.139-1.388h3.064a.731.731,0,0,0,.727-.8l-.727-7.23V38.572a.739.739,0,0,0-.023-.113,6.645,6.645,0,0,0,.69-1.051L48.3,33.027a.731.731,0,0,0-.371-.964Zm-3.7,7.762,0,5.392.285,2.848H42.107l-.074-.73V40.7A5.12,5.12,0,0,0,44.225,39.825ZM37.705,53.908l.156-2.191h3.145l.219,2.191Zm4.768-2.191-.221-2.191h2.4l.219,2.191Z" transform="translate(-9.17 -8.631)"/>
    </g>
  </g>
</svg>
