<svg xmlns="http://www.w3.org/2000/svg" width="69" height="69" viewBox="0 0 69 69">
  <g id="Grupo_1121062" data-name="Grupo 1121062" transform="translate(-984.051 -5765)">
    <circle id="Elipse_11753" data-name="Elipse 11753" cx="34.5" cy="34.5" r="34.5" transform="translate(984.051 5765)" fill="#0d8449"/>
    <g id="Milk_Tank" data-name="Milk Tank" transform="translate(919.957 5773)">
      <g id="Filled" transform="translate(85.118 0.839)">
        <path id="Trazado_918968" data-name="Trazado 918968" d="M156.135,45.034V40h-15.1v5.034L136,55.1V83.626h25.169V55.1Z" transform="translate(-135.161 -36.644)" fill="#e2dbd5"/>
        <path id="Trazado_918969" data-name="Trazado 918969" d="M136,252.208v9.459h25.169V238.9A24.525,24.525,0,0,1,136,252.208Z" transform="translate(-135.161 -214.686)" fill="#d9d1cc"/>
        <circle id="Elipse_11885" data-name="Elipse 11885" cx="9.229" cy="9.229" r="9.229" transform="translate(4.195 21.813)" fill="#e08261"/>
        <path id="Trazado_918970" data-name="Trazado 918970" d="M202.936,217.687a9.022,9.022,0,0,0,1.928,3.623l-2.015,2.9c-1.1,1.556,1.389,3.891,2.788,1.869l1.238-1.783a1.432,1.432,0,0,1,2.57.558l.554,3.069c.354,2.087,3.708,1.538,3.3-.6l-.566-3.138a9.043,9.043,0,0,0,4.2-1.814A9.247,9.247,0,0,0,202.936,217.687Z" transform="translate(-194.755 -194.242)" fill="#f09b73"/>
        <path id="Trazado_918971" data-name="Trazado 918971" d="M205.653,300.742a12.6,12.6,0,0,1-3.078-.382c-.156,1.438,1.852,2.918,3.053,1.181l.564-.812C206.013,300.737,205.834,300.742,205.653,300.742Z" transform="translate(-194.747 -269.701)" fill="#e58b6c"/>
        <path id="Trazado_918972" data-name="Trazado 918972" d="M267.76,259.276a1.456,1.456,0,0,1,.033.144l.554,3.069c.354,2.087,3.709,1.538,3.3-.6l-.566-3.138a9.043,9.043,0,0,0,4.2-1.814,9.255,9.255,0,0,0-1.108-2.267A12.607,12.607,0,0,1,267.76,259.276Z" transform="translate(-253.103 -228.805)" fill="#e58b6c"/>
        <circle id="Elipse_11886" data-name="Elipse 11886" cx="1.678" cy="1.678" r="1.678" transform="translate(10.906 22.809)" fill="#f2bba5"/>
        <circle id="Elipse_11887" data-name="Elipse 11887" cx="0.839" cy="0.839" r="0.839" transform="translate(14.577 26.584)" fill="#f2bba5"/>
        <path id="Trazado_918973" data-name="Trazado 918973" d="M189.034,349.593a2.531,2.531,0,1,1-5.034,0c0-1.737,2.517-5.593,2.517-5.593S189.034,347.856,189.034,349.593Z" transform="translate(-178.127 -308.764)" fill="#fff"/>
        <path id="Trazado_918974" data-name="Trazado 918974" d="M128,456h26.847v5.034H128Z" transform="translate(-128 -409.018)" fill="#efebe8"/>
        <path id="Trazado_918975" data-name="Trazado 918975" d="M186.457,11.356H168A4.43,4.43,0,0,1,172.3,8h9.861a4.43,4.43,0,0,1,4.3,3.356Z" transform="translate(-163.805 -8)" fill="#e2dbd5"/>
        <path id="Trazado_918976" data-name="Trazado 918976" d="M276.2,8h-.3a7.928,7.928,0,0,1-2.846,3.356H280.5A4.43,4.43,0,0,0,276.2,8Z" transform="translate(-257.85 -8)" fill="#c4bcb7"/>
        <path id="Trazado_918977" data-name="Trazado 918977" d="M309.388,461.034V456H304.2a10.011,10.011,0,0,1-3.553,5.034Z" transform="translate(-282.542 -409.018)" fill="#e2dbd5"/>
        <g id="Grupo_1121061" data-name="Grupo 1121061" transform="translate(6.461 9.229)">
          <path id="Trazado_918978" data-name="Trazado 918978" d="M193.894,388.446a6.292,6.292,0,0,1-4.284,2.808,2.4,2.4,0,0,0,1.929.921,2.553,2.553,0,0,0,2.517-2.8A3.46,3.46,0,0,0,193.894,388.446Z" transform="translate(-189.61 -357.777)" fill="#efebe8"/>
          <circle id="Elipse_11888" data-name="Elipse 11888" cx="2.097" cy="2.097" r="2.097" transform="translate(0.251)" fill="#efebe8"/>
          <circle id="Elipse_11889" data-name="Elipse 11889" cx="1.258" cy="1.258" r="1.258" transform="translate(5.284 3.356)" fill="#efebe8"/>
        </g>
      </g>
      <g id="Outline" transform="translate(80.094 0)">
        <path id="Trazado_918979" data-name="Trazado 918979" d="M177.139,211.022A10.069,10.069,0,0,0,160.7,221.956a.84.84,0,0,0,1.553-.635,8.38,8.38,0,0,1,2.109-9.375,9.925,9.925,0,0,0,1.293,2.263l-1.65,2.377c-1.72,2.415,2.177,5.765,4.162,2.832,1.643-2.366,1.15-1.652,1.245-1.793a.583.583,0,0,1,1.049.238l.553,3.06c.463,3.066,5.589,2.28,4.955-.886l-.419-2.324a10.075,10.075,0,0,0,2.715-1.11,8.385,8.385,0,0,1-3.869,8.7.839.839,0,0,0,.874,1.433,10.083,10.083,0,0,0,1.871-15.712Zm-3.244,5.537a.839.839,0,0,0-.145.64c.466,3.067.834,3.429.363,3.83-.422.359-1.32.362-1.448-.394l-.553-3.06a2.27,2.27,0,0,0-4.089-.891c-1.108,1.475-1.336,2.252-1.909,2.2-.531-.045-1.109-.807-.735-1.336l2.016-2.9a.839.839,0,0,0-.061-1.034,8.264,8.264,0,0,1-1.569-2.7,8.4,8.4,0,0,1,12.005,4.023C175.515,216.44,174.368,215.9,173.9,216.558Z" transform="translate(-151.572 -186.261)"/>
        <path id="Trazado_918980" data-name="Trazado 918980" d="M178.653,336.379c-.272.416-2.653,4.12-2.653,6.052a3.367,3.367,0,1,0,6.712,0c0-1.931-2.382-5.636-2.653-6.052a.839.839,0,0,0-1.405,0Zm-.975,6.052a11.645,11.645,0,0,1,1.678-3.989,11.624,11.624,0,0,1,1.678,3.989C181.034,345.055,177.678,345.056,177.678,342.431Z" transform="translate(-165.942 -300.763)"/>
        <path id="Trazado_918981" data-name="Trazado 918981" d="M115.2,13.648c-1.754-.727-2.889.448-5.316,1.3L106.93,9.03v-4c.578-.051,1.122.161,1.5-.323a.839.839,0,0,0,.153-.72A5.262,5.262,0,0,0,103.471,0H93.61A5.262,5.262,0,0,0,88.5,3.991a.839.839,0,0,0,.814,1.042h.839v4l-2.957,5.913c-2.422-.846-3.562-2.023-5.316-1.3A2.89,2.89,0,0,0,82.2,19.1l2.914.828V46.981a.839.839,0,0,0-.839.839v5.034a.839.839,0,0,0,.839.839h26.847a.839.839,0,0,0,.839-.839V47.82a.839.839,0,0,0-.839-.839V19.93c2.076-.762,3.876-.584,4.74-2.348a2.884,2.884,0,0,0-1.5-3.934ZM93.61,1.678h9.861a3.586,3.586,0,0,1,3.04,1.678H90.57A3.587,3.587,0,0,1,93.61,1.678ZM82.661,17.486a1.209,1.209,0,0,1-.14-2.288c.818-.339,1.265.232,3.922,1.25L85.517,18.3Zm28.464,34.529H85.957V48.659H101.9a.839.839,0,0,0,0-1.678H86.8V20.135h2.517a.839.839,0,0,0,0-1.678h-2l4.195-8.39h1.159a.839.839,0,1,0,0-1.678h-.839V5.034h13.423V8.39H99.38a.839.839,0,1,0,0,1.678h6.193l4.195,8.39H96.024a.839.839,0,1,0,0,1.678h14.262V46.981h-1.678a.839.839,0,1,0,0,1.678h2.517Zm3.294-34.528-2.854.812-.926-1.851c2.728-1.044,3.109-1.586,3.922-1.25a1.209,1.209,0,0,1-.142,2.289Z" transform="translate(-80.094 0)"/>
        <circle id="Elipse_11890" data-name="Elipse 11890" cx="0.839" cy="0.839" r="0.839" transform="translate(15.091 8.39)"/>
        <circle id="Elipse_11891" data-name="Elipse 11891" cx="0.839" cy="0.839" r="0.839" transform="translate(11.736 18.457)"/>
        <circle id="Elipse_11892" data-name="Elipse 11892" cx="0.839" cy="0.839" r="0.839" transform="translate(24.32 46.982)"/>
        <circle id="Elipse_11893" data-name="Elipse 11893" cx="0.839" cy="0.839" r="0.839" transform="translate(18.447 40.27)"/>
      </g>
    </g>
  </g>
</svg>
