<svg xmlns="http://www.w3.org/2000/svg" width="69" height="69" viewBox="0 0 69 69">
  <g id="Grupo_1121060" data-name="Grupo 1121060" transform="translate(-564.051 -5765)">
    <circle id="Elipse_11752" data-name="Elipse 11752" cx="34.5" cy="34.5" r="34.5" transform="translate(564.051 5765)" fill="#0d8449"/>
    <g id="Grupo_1121059" data-name="Grupo 1121059" transform="translate(577.051 5778.003)">
      <path id="Trazado_918930" data-name="Trazado 918930" d="M34.811,58.776,34.449,54.8l6.266-4.078v8.057Z" transform="translate(-11.504 -17.1)" fill="#e3d3af"/>
      <path id="Trazado_918931" data-name="Trazado 918931" d="M49.014,15.656a12.432,12.432,0,0,1-5.558,1.312H41.671a12.168,12.168,0,0,1-4.8-.985A12.166,12.166,0,0,0,32.082,15h-2.75l-7,17.058.075.113a11.705,11.705,0,0,1,1.924,5.518,5.3,5.3,0,0,0,7.255,4.487l2.985-1.2,4.789-.243A12.776,12.776,0,0,0,44.68,41.9a7.814,7.814,0,0,0,4.334-1.312Z" transform="translate(-7.337 -4.816)" fill="#e5d3af"/>
      <path id="Trazado_918932" data-name="Trazado 918932" d="M42.006,21.023a12.168,12.168,0,0,1-4.8-.985,12.15,12.15,0,0,0-3.3-.88,8.822,8.822,0,0,1,2.312,5.932v2.023l-.815-.2a10.438,10.438,0,0,1-5.65-3.617,5.252,5.252,0,0,1-.344.6,4.052,4.052,0,0,0-.6,1.458l-1.585,7.923A1.9,1.9,0,0,1,24.518,34.6a4.33,4.33,0,0,0-1.079-.364l-.131.318a11.693,11.693,0,0,1,1.36,4.566,5.307,5.307,0,0,0,7.259,4.487l2.982-1.2,4.789-.243a12.776,12.776,0,0,0,5.317,1.161,7.814,7.814,0,0,0,4.334-1.312V19.71a12.43,12.43,0,0,1-5.558,1.312Z" transform="translate(-7.672 -6.246)" fill="#fff7e2"/>
      <path id="Trazado_918933" data-name="Trazado 918933" d="M8.745,7.135A5.947,5.947,0,0,1,4.005,2.041L4,2A10.4,10.4,0,0,0,9.908,4.944" transform="translate(-1.032 -0.345)" fill="#a37763"/>
      <path id="Trazado_918934" data-name="Trazado 918934" d="M32.149,7.135a5.946,5.946,0,0,0,4.739-5.094L36.894,2a10.4,10.4,0,0,1-5.925,2.947" transform="translate(-10.307 -0.345)" fill="#a37763"/>
      <path id="Trazado_918935" data-name="Trazado 918935" d="M7.9,16.243l.1,4.627A9.854,9.854,0,0,1,2,25.269V24.088a8.16,8.16,0,0,1,5.9-7.845Z" transform="translate(-0.344 -5.243)" fill="#916657"/>
      <path id="Trazado_918936" data-name="Trazado 918936" d="M4.054,24.426A6.9,6.9,0,0,1,7.341,19.25l.051,2.281A8.475,8.475,0,0,1,4.054,24.426Z" transform="translate(-1.05 -6.278)" fill="#fff7e2"/>
      <path id="Trazado_918937" data-name="Trazado 918937" d="M32.947,16.243a8.16,8.16,0,0,1,5.9,7.845v1.181a9.854,9.854,0,0,1-6.005-4.4Z" transform="translate(-10.953 -5.243)" fill="#916657"/>
      <path id="Trazado_918938" data-name="Trazado 918938" d="M38.2,24.426a8.475,8.475,0,0,1-3.337-2.895l.051-2.281A6.9,6.9,0,0,1,38.2,24.426Z" transform="translate(-11.645 -6.278)" fill="#fff7e2"/>
      <path id="Trazado_918939" data-name="Trazado 918939" d="M20.382,4a5.05,5.05,0,0,1,5.052,5.052v6.639a4.724,4.724,0,0,1-.794,2.624,4.733,4.733,0,0,0-.7,1.693l-1.585,7.925a1.243,1.243,0,0,1-1.775.866,4.971,4.971,0,0,0-2.223-.525h-.277a4.971,4.971,0,0,0-2.224.525,1.24,1.24,0,0,1-1.771-.868L12.5,20.008a4.733,4.733,0,0,0-.7-1.695A4.724,4.724,0,0,1,11,15.689V9.052A5.053,5.053,0,0,1,16.052,4Z" transform="translate(-3.439 -1.033)" fill="#e3d3af"/>
      <path id="Trazado_918940" data-name="Trazado 918940" d="M19.052,5A5.05,5.05,0,0,0,14,10.052v6.639a4.724,4.724,0,0,0,.794,2.624,4.724,4.724,0,0,1,.7,1.693l1.588,7.923c.008.04.022.076.033.114a4.972,4.972,0,0,1,1.993-.427h.277a4.971,4.971,0,0,1,2.224.525,1.243,1.243,0,0,0,1.771-.868l1.588-7.923a4.724,4.724,0,0,1,.7-1.695,4.724,4.724,0,0,0,.794-2.624V9.4a5.018,5.018,0,0,0-2.521-4.364A5.038,5.038,0,0,0,23.382,5Z" transform="translate(-4.471 -1.377)" fill="#fff7e2"/>
      <path id="Trazado_918941" data-name="Trazado 918941" d="M24,17.272a9.513,9.513,0,0,0,1.356,4.895,9.5,9.5,0,0,1,.954,2.161l1.075,3.584,1.024-5.117a4.724,4.724,0,0,1,.7-1.695,4.724,4.724,0,0,0,.794-2.624V12.1l-1.346.134A5.063,5.063,0,0,0,24,17.272Z" transform="translate(-7.91 -3.818)" fill="#bf9275"/>
      <path id="Trazado_918942" data-name="Trazado 918942" d="M14.595,24.328a9.5,9.5,0,0,1,.955-2.161A9.513,9.513,0,0,0,16.9,17.273a5.063,5.063,0,0,0-4.559-5.037L11,12.1v6.376a4.724,4.724,0,0,0,.794,2.624,4.724,4.724,0,0,1,.7,1.693l1.024,5.117Z" transform="translate(-3.439 -3.818)" fill="#a37763"/>
      <path id="Trazado_918943" data-name="Trazado 918943" d="M17.936,17.4a5.06,5.06,0,0,0-3.924-4.928c0,.051-.012.1-.012.151V19.26a4.724,4.724,0,0,0,.794,2.624,4.724,4.724,0,0,1,.7,1.693l.16.8a9.507,9.507,0,0,1,.926-2.082,9.513,9.513,0,0,0,1.355-4.9Z" transform="translate(-4.471 -3.946)" fill="#bf9275"/>
      <path id="Trazado_918944" data-name="Trazado 918944" d="M18.381,37.261l-.069-.138A1.459,1.459,0,0,0,17,36.312V35a2.763,2.763,0,0,1,2.486,1.537l.07.138Z" transform="translate(-5.503 -11.694)" fill="#383838"/>
      <path id="Trazado_918945" data-name="Trazado 918945" d="M24.284,37.261l-1.174-.587.07-.138A2.763,2.763,0,0,1,25.662,35v1.312a1.459,1.459,0,0,0-1.312.811Z" transform="translate(-7.604 -11.694)" fill="#383838"/>
      <path id="Trazado_918946" data-name="Trazado 918946" d="M44.5,47.312a39.138,39.138,0,0,0-1.771,8.061l-.2,1.781H38.593V51.9a5.311,5.311,0,0,0-2.363-4.416L34,46Z" transform="translate(-11.349 -15.478)" fill="#fff7e2"/>
      <path id="Trazado_918947" data-name="Trazado 918947" d="M14,19h1.312v1.968H14Z" transform="translate(-4.471 -6.192)" fill="#383838"/>
      <path id="Trazado_918948" data-name="Trazado 918948" d="M28,19h1.312v1.968H28Z" transform="translate(-9.286 -6.192)" fill="#383838"/>
      <path id="Trazado_918949" data-name="Trazado 918949" d="M35.875,39.936a2.187,2.187,0,1,1,3.062-3.062,4.373,4.373,0,0,0,3.5,1.75h.438a1.312,1.312,0,0,1,0,2.624H39.811a6.561,6.561,0,0,1-3.936-1.312Z" transform="translate(-11.693 -12.038)" fill="#bf9275"/>
      <path id="Trazado_918950" data-name="Trazado 918950" d="M51.6,17.312H49.81a12.173,12.173,0,0,1-3.81-.62V20.08a4.381,4.381,0,0,0,2.127,3.757,2.376,2.376,0,0,1,1.154,2.037,3.248,3.248,0,0,0,5.544,2.3l2.329-2.329V16A12.43,12.43,0,0,1,51.6,17.312Z" transform="translate(-15.477 -5.16)" fill="#a37763"/>
      <path id="Trazado_918951" data-name="Trazado 918951" d="M49.81,21.312a12.173,12.173,0,0,1-3.81-.62v.764a4.381,4.381,0,0,0,2.127,3.757A2.376,2.376,0,0,1,49.28,27.25a3.248,3.248,0,0,0,5.544,2.3l2.329-2.329V20A12.43,12.43,0,0,1,51.6,21.312Z" transform="translate(-15.477 -6.535)" fill="#bf9275"/>
      <circle id="Elipse_11883" data-name="Elipse 11883" cx="7.873" cy="7.873" r="7.873" transform="translate(25.275 25.274)" fill="#0056c0"/>
      <path id="Trazado_918952" data-name="Trazado 918952" d="M46.561,38a7.827,7.827,0,0,0-4.867,1.693A7.865,7.865,0,0,0,52.74,50.74,7.865,7.865,0,0,0,46.561,38Z" transform="translate(-13.413 -12.726)" fill="#0068dd"/>
      <g id="Grupo_1121058" data-name="Grupo 1121058" transform="translate(28.741 28.747)">
        <path id="Trazado_918953" data-name="Trazado 918953" d="M0,0H2.784V1.312H0Z" transform="translate(5.905 1.968) rotate(-45)" fill="#8bc000"/>
        <path id="Trazado_918954" data-name="Trazado 918954" d="M0,0H2.784V1.312H0Z" transform="translate(0 7.872) rotate(-45)" fill="#8bc000"/>
        <path id="Trazado_918955" data-name="Trazado 918955" d="M0,0H1.312V2.784H0Z" transform="translate(0.001 0.928) rotate(-45)" fill="#8bc000"/>
        <path id="Trazado_918956" data-name="Trazado 918956" d="M0,0H1.312V2.784H0Z" transform="translate(5.904 6.832) rotate(-45)" fill="#8bc000"/>
      </g>
      <circle id="Elipse_11884" data-name="Elipse 11884" cx="3.28" cy="3.28" r="3.28" transform="translate(29.867 29.866)" fill="#709300"/>
      <path id="Trazado_918957" data-name="Trazado 918957" d="M48.624,45a3.254,3.254,0,0,0-1.96.664,3.267,3.267,0,0,0,4.577,4.577A3.267,3.267,0,0,0,48.624,45Z" transform="translate(-15.476 -15.134)" fill="#80ac00"/>
      <path id="Trazado_918958" data-name="Trazado 918958" d="M48.656,45.593h1.312v-3.28h.656V41H48v1.312h.656Z" transform="translate(-16.164 -13.758)" fill="#709300"/>
      <path id="Trazado_918959" data-name="Trazado 918959" d="M49.968,52H48.656v3.28H48v1.312h2.624V55.28h-.656Z" transform="translate(-16.164 -17.541)" fill="#709300"/>
      <path id="Trazado_918960" data-name="Trazado 918960" d="M55.28,48v.656H52v1.312h3.28v.656h1.312V48Z" transform="translate(-17.54 -16.165)" fill="#709300"/>
      <path id="Trazado_918961" data-name="Trazado 918961" d="M45.593,49.968V48.656h-3.28V48H41v2.624h1.312v-.656Z" transform="translate(-13.757 -16.165)" fill="#709300"/>
      <path id="Trazado_918962" data-name="Trazado 918962" d="M17,35v1.312a1.459,1.459,0,0,1,1.312.811l.069.138,1.174-.587-.07-.138A2.763,2.763,0,0,0,17,35Z" transform="translate(-5.503 -11.694)"/>
      <path id="Trazado_918963" data-name="Trazado 918963" d="M23.175,36.537l-.07.138,1.174.587.069-.138a1.459,1.459,0,0,1,1.312-.811V35a2.763,2.763,0,0,0-2.486,1.537Z" transform="translate(-7.602 -11.694)"/>
      <path id="Trazado_918964" data-name="Trazado 918964" d="M14,19h1.312v1.968H14Z" transform="translate(-4.471 -6.192)"/>
      <path id="Trazado_918965" data-name="Trazado 918965" d="M28,19h1.312v1.968H28Z" transform="translate(-9.286 -6.192)"/>
      <path id="Trazado_918966" data-name="Trazado 918966" d="M32.313,19.238a1.727,1.727,0,0,1,.835,1.476,3.9,3.9,0,0,0,6.664,2.76l2.329-2.329-.928-.928-2.329,2.329a2.591,2.591,0,0,1-4.424-1.832,3.046,3.046,0,0,0-1.472-2.6A3.746,3.746,0,0,1,31.18,14.92V12.4a12.748,12.748,0,0,0,3.154.409h1.785a13.155,13.155,0,0,0,5.852-1.378l-.587-1.174a11.829,11.829,0,0,1-5.265,1.24H34.334a11.46,11.46,0,0,1-4.536-.931,12.76,12.76,0,0,0-5.053-1.037H22.651V8.019a5.655,5.655,0,0,0-.054-.746,6.605,6.605,0,0,0,4.642-5.537.656.656,0,0,0-1.115-.546,9.793,9.793,0,0,1-5.241,2.7,5.672,5.672,0,0,0-3.939-1.583h-4.33A5.671,5.671,0,0,0,8.676,3.9,9.8,9.8,0,0,1,3.432,1.191a.647.647,0,0,0-.75-.1.682.682,0,0,0-.36.691,6.586,6.586,0,0,0,4.636,5.5,5.674,5.674,0,0,0-.054.745v2.506A8.853,8.853,0,0,0,1,18.844v1.181a.656.656,0,0,0,.815.636,10.432,10.432,0,0,0,5.648-3.629,5.413,5.413,0,0,0,.346.611,4.06,4.06,0,0,1,.6,1.459L10,27.028a1.9,1.9,0,0,0,2.712,1.326,4.348,4.348,0,0,1,1.928-.456,11.073,11.073,0,0,1,1.706,5.03A6,6,0,0,0,22.284,38.4a.443.443,0,0,0,.066,0l.3,3.346,1.308-.122-.308-3.386a5.889,5.889,0,0,0,.846-.262l1.3-.519a8.512,8.512,0,0,0,.788,1.144v3.084H27.9v-1.82a8.495,8.495,0,0,0,2.665,1.417l-.037.328,1.3.146.02-.182a8.525,8.525,0,1,0-2.641-15.976,3.691,3.691,0,0,1-1.443-1.146,2.843,2.843,0,1,0-3.98,3.98,7.193,7.193,0,0,0,1.723.951,8.442,8.442,0,0,0-.659,1.828l-1.837-1.225-.728,1.092,2.231,1.487c.044.03.085.066.127.094-.009.166-.025.328-.025.5a8.469,8.469,0,0,0,.6,3.121l-1.207.483a4.615,4.615,0,0,1-1.727.333,4.678,4.678,0,0,1-4.635-4.264,12.37,12.37,0,0,0-1.367-4.693,4.279,4.279,0,0,1,.563.228,1.9,1.9,0,0,0,2.712-1.325L21.142,19.1a4.06,4.06,0,0,1,.6-1.459,5.414,5.414,0,0,0,.346-.611,10.432,10.432,0,0,0,5.648,3.629.656.656,0,0,0,.816-.636V18.844a8.857,8.857,0,0,0-5.125-8h1.312a11.46,11.46,0,0,1,4.536.931c.193.083.394.144.587.217V14.92a5.064,5.064,0,0,0,2.448,4.318Zm8.051,13.909a7.217,7.217,0,1,1-7.217-7.217,7.217,7.217,0,0,1,7.217,7.217ZM24.575,27.373a1.531,1.531,0,1,1,2.143-2.143,5.018,5.018,0,0,0,1.247,1.159,8.608,8.608,0,0,0-1.771,1.837,5.873,5.873,0,0,1-1.618-.853ZM22.277,6a5.661,5.661,0,0,0-.469-.959A11.159,11.159,0,0,0,25.3,3.54,5.274,5.274,0,0,1,22.277,6ZM4.263,3.546a11.141,11.141,0,0,0,3.485,1.5A5.72,5.72,0,0,0,7.279,6,5.258,5.258,0,0,1,4.263,3.546Zm-1.951,15.6v-.3A7.536,7.536,0,0,1,6.9,11.935v2.725a5.357,5.357,0,0,0,.066.822,9.131,9.131,0,0,1-4.658,3.662Zm5.9-4.486V9.006l.624.066a4.4,4.4,0,0,1,3.969,4.381,8.858,8.858,0,0,1-1.263,4.558,10.183,10.183,0,0,0-1.02,2.309l-.32,1.064L9.7,18.844a5.355,5.355,0,0,0-.8-1.93,4.054,4.054,0,0,1-.684-2.257ZM17.433,27.18a5.659,5.659,0,0,0-2.517-.594h-.277a5.659,5.659,0,0,0-2.517.594.6.6,0,0,1-.838-.409l-.529-2.645L11.784,20.7a8.862,8.862,0,0,1,.888-2.012,10.169,10.169,0,0,0,1.449-5.233,5.7,5.7,0,0,0-5.15-5.69l-.726-.072a4.362,4.362,0,0,1,4.368-4.068h4.33a4.362,4.362,0,0,1,4.368,4.068l-.726.073a5.7,5.7,0,0,0-5.151,5.689,10.17,10.17,0,0,0,1.45,5.233,8.862,8.862,0,0,1,.888,2.011L18.8,24.125l-.529,2.646a.6.6,0,0,1-.838.409Zm3.222-10.264a5.355,5.355,0,0,0-.8,1.929l-.508,2.54-.32-1.064a10.191,10.191,0,0,0-1.02-2.309,8.857,8.857,0,0,1-1.262-4.557,4.4,4.4,0,0,1,3.969-4.385L21.338,9v5.651A4.054,4.054,0,0,1,20.655,16.915Zm6.588,1.929v.3a9.131,9.131,0,0,1-4.658-3.664,5.357,5.357,0,0,0,.066-.822V11.933a7.536,7.536,0,0,1,4.593,6.912Z"/>
      <path id="Trazado_918967" data-name="Trazado 918967" d="M41,45.593v2.624h1.312v-.656h.715a3.913,3.913,0,0,0,.672,1.621l-1.2,1.2.928.928,1.2-1.2a3.913,3.913,0,0,0,1.621.672V51.5h-.656v1.312h2.624V51.5h-.656v-.715a3.913,3.913,0,0,0,1.621-.672l1.2,1.2.928-.928-1.2-1.2a3.913,3.913,0,0,0,.672-1.621H51.5v.656h1.312V45.593H51.5v.656h-.715a3.913,3.913,0,0,0-.672-1.621l1.2-1.2-.928-.928-1.2,1.2a3.913,3.913,0,0,0-1.621-.672v-.715h.656V41H45.593v1.312h.656v.715a3.913,3.913,0,0,0-1.621.672l-1.2-1.2-.928.928,1.2,1.2a3.913,3.913,0,0,0-.672,1.621h-.715v-.656Zm5.249-1.219v1.219h1.312V44.374a2.624,2.624,0,0,1,1.875,1.875H48.217v1.312h1.219a2.624,2.624,0,0,1-1.875,1.875V48.217H46.249v1.219a2.624,2.624,0,0,1-1.875-1.875h1.219V46.249H44.374A2.624,2.624,0,0,1,46.249,44.374Z" transform="translate(-13.757 -13.758)"/>
    </g>
  </g>
</svg>
