<svg xmlns="http://www.w3.org/2000/svg" width="11.426" height="11.426" viewBox="0 0 11.426 11.426">
  <path id="arrow-alt-circle-right-solid_1_" data-name="arrow-alt-circle-right-solid (1)" d="M13.713,8A5.713,5.713,0,1,1,8,13.713,5.712,5.712,0,0,1,13.713,8Zm-2.672,6.727h2.672V16.36a.277.277,0,0,0,.472.2l2.633-2.647a.274.274,0,0,0,0-.389L14.185,10.87a.276.276,0,0,0-.472.2V12.7H11.041a.277.277,0,0,0-.276.276V14.45A.277.277,0,0,0,11.041,14.727Z" transform="translate(-8 -8)" fill="#0d8449"/>
</svg>
