<svg xmlns="http://www.w3.org/2000/svg" width="77" height="77" viewBox="0 0 77 77">
  <g id="Grupo_1119907" data-name="Grupo 1119907" transform="translate(2212 9856)">
    <g id="Grupo_1119906" data-name="Grupo 1119906">
      <g id="Grupo_1098742" data-name="Grupo 1098742" transform="translate(-2212 -9856)">
        <rect id="Rect치ngulo_400898" data-name="Rect치ngulo 400898" width="77" height="77" rx="38.5" transform="translate(0 0)" fill="#ccda2d"/>
        <rect id="Rect치ngulo_400907" data-name="Rect치ngulo 400907" width="77" height="77" rx="38.5" transform="translate(0 0)" fill="none"/>
      </g>
      <g id="Grupo_1119905" data-name="Grupo 1119905" transform="translate(-2198.998 -9843.002)">
        <g id="Grupo_1119904" data-name="Grupo 1119904" transform="translate(1.757 1.761)">
          <g id="Grupo_1119900" data-name="Grupo 1119900" transform="translate(0 9.867)">
            <path id="Trazado_917921" data-name="Trazado 917921" d="M140.043,434.943l-15.05.193-3.344,5.737a.351.351,0,0,0,.3.528H143.2a.351.351,0,0,0,.3-.528Z" transform="translate(-110.914 -404.386)" fill="#003748" fill-rule="evenodd"/>
            <path id="Trazado_917922" data-name="Trazado 917922" d="M299.333,434.943l-1.741.022,3.443,5.908a.351.351,0,0,1-.3.528h1.754a.351.351,0,0,0,.3-.528Z" transform="translate(-270.204 -404.386)" fill="#00242f" fill-rule="evenodd"/>
            <path id="Trazado_917923" data-name="Trazado 917923" d="M50.06,112.968a2.268,2.268,0,0,1,2.262,2.262v26.348a2.268,2.268,0,0,1-2.262,2.262h-38.8A2.268,2.268,0,0,1,9,141.578V115.23a2.268,2.268,0,0,1,2.262-2.262Z" transform="translate(-9 -112.968)" fill="#e6f8ff" fill-rule="evenodd"/>
            <path id="Trazado_917924" data-name="Trazado 917924" d="M416.558,112.968a2.268,2.268,0,0,1,2.262,2.262v26.348a2.268,2.268,0,0,1-2.262,2.262h-2.631a2.269,2.269,0,0,0,2.262-2.262V115.23a2.268,2.268,0,0,0-2.262-2.262Z" transform="translate(-375.498 -112.968)" fill="#d0f1ff" fill-rule="evenodd"/>
            <path id="Trazado_917925" data-name="Trazado 917925" d="M52.322,407.6H9v1.525a2.268,2.268,0,0,0,2.262,2.262h38.8a2.268,2.268,0,0,0,2.262-2.262Z" transform="translate(-9 -379.637)" fill="#004960" fill-rule="evenodd"/>
            <path id="Trazado_917926" data-name="Trazado 917926" d="M418.82,407.6H416.19v1.525a2.268,2.268,0,0,1-2.262,2.262h2.631a2.268,2.268,0,0,0,2.262-2.262Z" transform="translate(-375.499 -379.637)" fill="#003748" fill-rule="evenodd"/>
          </g>
          <g id="Grupo_1119901" data-name="Grupo 1119901" transform="translate(7.386 0)">
            <path id="Trazado_917927" data-name="Trazado 917927" d="M114.114,44.41H88.092a1.266,1.266,0,0,1-1.264-1.264V16.075a1.22,1.22,0,0,1,.37-.894L93.009,9.37A1.22,1.22,0,0,1,93.9,9h20.211a1.266,1.266,0,0,1,1.264,1.264V43.147A1.266,1.266,0,0,1,114.114,44.41Z" transform="translate(-86.828 -9)" fill="#ffda2d" fill-rule="evenodd"/>
            <path id="Trazado_917928" data-name="Trazado 917928" d="M114.114,44.41H88.092a1.266,1.266,0,0,1-1.264-1.264v-.635h25.388a1.266,1.266,0,0,0,1.264-1.264V9h.635a1.266,1.266,0,0,1,1.264,1.264V43.147A1.266,1.266,0,0,1,114.114,44.41Z" transform="translate(-86.828 -9)" fill="#ffc700" fill-rule="evenodd"/>
            <path id="Trazado_917929" data-name="Trazado 917929" d="M101.147,11.327,103.1,9.37A1.22,1.22,0,0,1,104,9h.426v5.411a1.143,1.143,0,0,1-1.141,1.141h-5.3a2.124,2.124,0,0,1,.261-.37Z" transform="translate(-96.923 -9)" fill="#ffc700" fill-rule="evenodd"/>
            <path id="Trazado_917930" data-name="Trazado 917930" d="M132.108,70.956h4.473a.4.4,0,0,1,.4.4v4.473a.4.4,0,0,1-.4.4h-4.473a.4.4,0,0,1-.4-.4V71.356A.4.4,0,0,1,132.108,70.956Zm0-22.682h4.473a.4.4,0,0,1,.4.4v4.473a.4.4,0,0,1-.4.4h-4.473a.4.4,0,0,1-.4-.4V48.675A.4.4,0,0,1,132.108,48.274Zm0,7.561h4.473a.4.4,0,0,1,.4.4v4.473a.4.4,0,0,1-.4.4h-4.473a.4.4,0,0,1-.4-.4V56.235A.4.4,0,0,1,132.108,55.835Zm0,7.56h4.473a.4.4,0,0,1,.4.4v4.473a.4.4,0,0,1-.4.4h-4.473a.4.4,0,0,1-.4-.4V63.8A.4.4,0,0,1,132.108,63.4Z" transform="translate(-127.448 -44.547)" fill="#64b5f6" fill-rule="evenodd"/>
            <path id="Trazado_917931" data-name="Trazado 917931" d="M132.108,70.956h4.473a.4.4,0,0,1,.4.4V71.9h-3.924a.4.4,0,0,0-.4.4V76.23h-.548a.4.4,0,0,1-.4-.4V71.356A.4.4,0,0,1,132.108,70.956Zm0-22.682h4.473a.4.4,0,0,1,.4.4v.548h-3.924a.4.4,0,0,0-.4.4v3.924h-.548a.4.4,0,0,1-.4-.4V48.675A.4.4,0,0,1,132.108,48.274Zm0,7.561h4.473a.4.4,0,0,1,.4.4v.548h-3.924a.4.4,0,0,0-.4.4v3.924h-.548a.4.4,0,0,1-.4-.4V56.235A.4.4,0,0,1,132.108,55.835Zm0,7.56h4.473a.4.4,0,0,1,.4.4v.548h-3.924a.4.4,0,0,0-.4.4v3.924h-.548a.4.4,0,0,1-.4-.4V63.8A.4.4,0,0,1,132.108,63.4Z" transform="translate(-127.448 -44.547)" fill="#42a5f5" fill-rule="evenodd"/>
            <path id="Trazado_917932" data-name="Trazado 917932" d="M131.707,51.1h2.1a1.143,1.143,0,0,0,1.141-1.141V48.274h-2.84a.4.4,0,0,0-.4.4Z" transform="translate(-127.448 -44.547)" fill="#42a5f5" fill-rule="evenodd"/>
            <path id="Trazado_917933" data-name="Trazado 917933" d="M131.707,51.1h.949V49.624a.4.4,0,0,1,.4-.4h1.891v-.949h-2.84a.4.4,0,0,0-.4.4Z" transform="translate(-127.448 -44.547)" fill="#2d90f1" fill-rule="evenodd"/>
            <path id="Trazado_917934" data-name="Trazado 917934" d="M145.989,161.65a.757.757,0,1,1,1.074,1.068l-1.278,1.29a.757.757,0,0,1-1.065.009l-.713-.695a.757.757,0,1,1,1.056-1.085l.176.171Zm0-15.121a.757.757,0,0,1,1.074,1.068l-1.278,1.29a.757.757,0,0,1-1.065.009l-.713-.695a.757.757,0,1,1,1.056-1.085l.176.171Z" transform="translate(-138.372 -133.275)" fill="#42a5f5" fill-rule="evenodd"/>
            <path id="Trazado_917935" data-name="Trazado 917935" d="M94.053,10.415l-5.811,5.811a1.267,1.267,0,0,0-.261.37h5.3a1.143,1.143,0,0,0,1.141-1.141v-5.3A1.268,1.268,0,0,0,94.053,10.415Z" transform="translate(-87.872 -10.044)" fill="#eff4f7" fill-rule="evenodd"/>
          </g>
          <g id="Grupo_1119903" data-name="Grupo 1119903" transform="translate(25.691 19.694)">
            <path id="Trazado_917936" data-name="Trazado 917936" d="M299.57,230.62c-.029-.049-8.9,4.85-8.928,4.8-1.966-3.21-3.628-2.69-9.065-5.854-2.855-1.662-2.225-5.1.474-4.015l4.141,1.666-4.851-8.4A1.539,1.539,0,0,1,284,217.276l3.56,6.167a1.539,1.539,0,0,1,2.665-1.539l.294.51a1.539,1.539,0,0,1,2.668-1.533l.391.678a1.539,1.539,0,1,1,2.665-1.539l1.19,2.061C298.345,223.651,300.219,227.429,299.57,230.62Z" transform="translate(-279.711 -216.511)" fill="#ffd6bd" fill-rule="evenodd"/>
            <g id="Grupo_1119902" data-name="Grupo 1119902" transform="translate(0 0)">
              <path id="Trazado_917937" data-name="Trazado 917937" d="M299.786,227.221l-4.851-8.4a1.537,1.537,0,0,1,1.793-2.236,1.527,1.527,0,0,0-.275.125,1.543,1.543,0,0,0-.563,2.1l5.147,8.914Z" transform="translate(-293.305 -216.511)" fill="#f9c6aa" fill-rule="evenodd"/>
              <path id="Trazado_917938" data-name="Trazado 917938" d="M291.366,319.315c-.446.238-.718.38-.723.372-1.966-3.21-3.628-2.69-9.065-5.854-2.682-1.561-2.289-4.689,0-4.164-1.385.433-1.3,2.846.95,4.155C287.755,316.863,289.495,316.5,291.366,319.315Z" transform="translate(-279.712 -300.775)" fill="#f9c6aa" fill-rule="evenodd"/>
              <path id="Trazado_917939" data-name="Trazado 917939" d="M360.6,267.7l-.085-.147a1.537,1.537,0,0,1,1.793-2.235,1.538,1.538,0,0,0-.838,2.226l.381.66Z" transform="translate(-352.659 -260.619)" fill="#f9c6aa" fill-rule="evenodd"/>
              <path id="Trazado_917940" data-name="Trazado 917940" d="M391.814,256.916l-.085-.147a1.537,1.537,0,0,1,1.793-2.235,1.538,1.538,0,0,0-.838,2.226l.381.66Z" transform="translate(-380.912 -250.861)" fill="#f9c6aa" fill-rule="evenodd"/>
              <path id="Trazado_917941" data-name="Trazado 917941" d="M424.017,247.842l-.085-.147a1.537,1.537,0,0,1,1.793-2.235,1.538,1.538,0,0,0-.838,2.226l.381.66Z" transform="translate(-410.059 -242.648)" fill="#f9c6aa" fill-rule="evenodd"/>
            </g>
            <path id="Trazado_917942" data-name="Trazado 917942" d="M402.023,354.875l-8.835,5.1a.294.294,0,0,0-.107.4l1.014,1.757a.294.294,0,0,0,.4.107l8.835-5.1a.294.294,0,0,0,.107-.4l-1.014-1.757A.294.294,0,0,0,402.023,354.875Z" transform="translate(-382.286 -341.709)" fill="#64b5f6" fill-rule="evenodd"/>
            <path id="Trazado_917943" data-name="Trazado 917943" d="M393.583,374.232l-.4.228a.294.294,0,0,0-.107.4l1.014,1.757a.294.294,0,0,0,.4.107l8.835-5.1a.294.294,0,0,0,.107-.4l-.222-.385-8.44,4.873a.294.294,0,0,1-.4-.107Z" transform="translate(-382.286 -356.193)" fill="#42a5f5" fill-rule="evenodd"/>
          </g>
        </g>
        <path id="Trazado_917944" data-name="Trazado 917944" d="M47.6,36.385l-.542-.939L39.08,40.054l.542.939Zm-3.281,4.73a1.506,1.506,0,0,1-1.5,1.5H39.845l3.931-2.268h.546ZM31.145,44.135H15.691l-2.185,3.749H33.329ZM4.019,42.617H38.864a.742.742,0,0,1-.178-.208l-1.008-1.746,0,0c-.066-.11-.132-.214-.2-.313H2.517v.766a1.5,1.5,0,0,0,1.5,1.5Zm-1.5-28.727V38.83h33.6a8.414,8.414,0,0,0-1.526-.9H10.407a2.025,2.025,0,0,1-2.022-2.023V12.387H4.019a1.5,1.5,0,0,0-1.5,1.5Zm8.46-6.336h3.578a.382.382,0,0,0,.381-.381V3.594Zm3.578,1.519a1.9,1.9,0,0,0,1.9-1.9V6.247h1.464V10H14.162V9.072ZM36.43,2.52a.5.5,0,0,1,.5.5v22.3a2.287,2.287,0,0,0-2.092.78l-2.465-4.27a2.3,2.3,0,0,0-2.928-.935h-7.31a.759.759,0,0,0,0,1.518h6.04a2.282,2.282,0,0,0,.2,1.657H22.139a.759.759,0,0,0,0,1.518h7.12l2.881,4.991-1.982-.8a.759.759,0,0,0-.5-1.327H22.139a.759.759,0,1,0,0,1.518h5.291a2.039,2.039,0,0,0-.5.65,2.43,2.43,0,0,0-.235,1.008H22.139a.759.759,0,0,0,0,1.519h4.9a4.634,4.634,0,0,0,1.88,1.948c.906.527,1.705.952,2.421,1.309H10.407a.5.5,0,0,1-.5-.5V9.072h2.741v1.29a1.161,1.161,0,0,0,1.16,1.16h4.472a1.161,1.161,0,0,0,1.16-1.16V5.889a1.162,1.162,0,0,0-1.16-1.16H16.454V2.52Zm2.022,9.867V24.551a2.273,2.273,0,0,1,1.677-.194,2.315,2.315,0,0,1,.478.186,2.271,2.271,0,0,1,.825-.816,2.3,2.3,0,0,1,2.89.5V13.889a1.505,1.505,0,0,0-1.5-1.5ZM46.578,33.97,38.221,38.8a9.581,9.581,0,0,0-4.085-2.747,45.36,45.36,0,0,1-4.449-2.26c-1.328-.773-1.665-1.946-1.4-2.5.222-.452.849-.281,1.2-.138l4.12,1.658a.759.759,0,0,0,.941-1.084l-4.827-8.36a.772.772,0,0,1,1.334-.775l4.013,6.952a.759.759,0,0,0,1.316-.759l-.471-.815h0a.772.772,0,1,1,1.337-.772l.293.508a.759.759,0,0,0,1.316-.757.769.769,0,0,1,.869-1.126.764.764,0,0,1,.469.358l.387.671,0,0a.759.759,0,0,0,1.316-.759.772.772,0,0,1,1.338-.772l1.182,2.05a15.174,15.174,0,0,1,2.148,6.595Zm2.8,2.888a.771.771,0,0,1-.358.461l-3.178,1.837v1.958a3.025,3.025,0,0,1-3.022,3.021H32.9l2.1,3.6A1.094,1.094,0,0,1,35,48.841a1.118,1.118,0,0,1-.966.561H12.8a1.118,1.118,0,0,1-.966-.562,1.093,1.093,0,0,1,.007-1.108l2.1-3.6H4.019A3.024,3.024,0,0,1,1,41.115V13.889a3.025,3.025,0,0,1,3.021-3.021H8.384V8.836a1.985,1.985,0,0,1,.592-1.431l5.811-5.811A1.987,1.987,0,0,1,16.218,1H36.43a2.025,2.025,0,0,1,2.022,2.023v7.844h4.365a3.025,3.025,0,0,1,3.022,3.021V26.781a16.22,16.22,0,0,1,2.26,7.426l1.2,2.076A.784.784,0,0,1,49.375,36.859ZM22.139,7.3h7.516a.759.759,0,0,0,0-1.519H22.139a.759.759,0,0,0,0,1.519Zm0,3.176H33.433a.759.759,0,0,0,0-1.518H22.139a.759.759,0,0,0,0,1.518Zm0,4.385a.759.759,0,1,1,0-1.518h7.516a.759.759,0,1,1,0,1.518Zm0,3.176a.759.759,0,0,1,0-1.519H33.433a.759.759,0,0,1,0,1.519Zm-4.221-4.225v3.756H14.162V13.808Zm1.519-.359v4.473a1.161,1.161,0,0,1-1.16,1.16H13.8a1.161,1.161,0,0,1-1.16-1.16V13.449a1.161,1.161,0,0,1,1.16-1.16h4.472A1.161,1.161,0,0,1,19.436,13.449Zm-4.209,3.425-.713-.695a.759.759,0,1,1,1.06-1.088l.174.17.748-.756a.759.759,0,0,1,1.079,1.069L16.3,16.865a.759.759,0,0,1-1.07.009Zm2.691,4.494v3.756H14.162V21.369Zm1.519-.359v4.473a1.161,1.161,0,0,1-1.16,1.16H13.8a1.161,1.161,0,0,1-1.16-1.16V21.01a1.161,1.161,0,0,1,1.16-1.16h4.472A1.162,1.162,0,0,1,19.436,21.01Zm-1.519,7.92v3.755H14.162V28.929Zm1.519-.359v4.472a1.161,1.161,0,0,1-1.16,1.16H13.8a1.161,1.161,0,0,1-1.16-1.16V28.571a1.161,1.161,0,0,1,1.16-1.16h4.472A1.162,1.162,0,0,1,19.436,28.571ZM14.514,31.3a.759.759,0,1,1,1.06-1.087l.174.169.748-.755A.759.759,0,0,1,17.575,30.7L16.3,31.987a.76.76,0,0,1-1.07.009Z" fill-rule="evenodd"/>
      </g>
    </g>
  </g>
</svg>
