<svg xmlns="http://www.w3.org/2000/svg" width="69" height="69" viewBox="0 0 69 69">
  <g id="Grupo_1121064" data-name="Grupo 1121064" transform="translate(-984.051 -5652)">
    <circle id="Elipse_11751" data-name="Elipse 11751" cx="34.5" cy="34.5" r="34.5" transform="translate(984.051 5652)" fill="#0d8449"/>
    <g id="Grupo_1121063" data-name="Grupo 1121063" transform="translate(994.036 5662)">
      <path id="Trazado_918982" data-name="Trazado 918982" d="M116.132,18.245a8.065,8.065,0,0,0,.29-8.729,1.807,1.807,0,0,0-3.111-.1c-1.434,2.515-5.19,4.15-5.924,4.449H95.508c-.733-.3-4.489-1.934-5.924-4.449a1.808,1.808,0,0,0-3.111.1,8.066,8.066,0,0,0,.29,8.729L94.195,25.5h12.089Zm0,0" transform="translate(-77.255 -7.765)" fill="#f5f5f5"/>
      <path id="Trazado_918983" data-name="Trazado 918983" d="M293.88,18.25,284.031,25.5h-2.418l9.849-7.253a8.066,8.066,0,0,0,.29-8.729,1.66,1.66,0,0,0-.387-.492,1.834,1.834,0,0,1,2.8.492A8.065,8.065,0,0,1,293.88,18.25Zm0,0" transform="translate(-255.003 -7.77)" fill="#cfd8dc"/>
      <path id="Trazado_918984" data-name="Trazado 918984" d="M50.763,116.9a6.472,6.472,0,0,0,8.208-2.3.4.4,0,0,0-.383-.629,4.707,4.707,0,0,1-2.079-.081,6.332,6.332,0,0,1-2.249-1.588,5.206,5.206,0,0,0-3.465-1.346,5.356,5.356,0,0,0-.717.04,6.182,6.182,0,0,0-1.918.54h-24.1a6.182,6.182,0,0,0-1.918-.54,5.359,5.359,0,0,0-.717-.04,5.207,5.207,0,0,0-3.466,1.346,6.328,6.328,0,0,1-2.249,1.588,4.706,4.706,0,0,1-2.079.081.4.4,0,0,0-.383.629,6.472,6.472,0,0,0,8.209,2.3Zm0,0" transform="translate(-11.918 -100.478)" fill="sienna"/>
      <path id="Trazado_918985" data-name="Trazado 918985" d="M50.763,116.9a6.472,6.472,0,0,0,8.208-2.3.4.4,0,0,0-.383-.629,4.707,4.707,0,0,1-2.079-.081,6.332,6.332,0,0,1-2.249-1.588,5.206,5.206,0,0,0-3.465-1.346,5.356,5.356,0,0,0-.717.04,6.182,6.182,0,0,0-1.918.54h-24.1a6.182,6.182,0,0,0-1.918-.54,5.359,5.359,0,0,0-.717-.04,5.207,5.207,0,0,0-3.466,1.346,6.328,6.328,0,0,1-2.249,1.588,4.706,4.706,0,0,1-2.079.081.4.4,0,0,0-.383.629,6.472,6.472,0,0,0,8.209,2.3Zm0,0" transform="translate(-11.918 -100.478)" fill="sienna"/>
      <path id="Trazado_918986" data-name="Trazado 918986" d="M405.452,114.6a6.435,6.435,0,0,1-6.73,2.764,6.89,6.89,0,0,0,3.941-2.764.4.4,0,0,0-.387-.629,4.767,4.767,0,0,1-2.079-.081,6.328,6.328,0,0,1-2.249-1.588,5.254,5.254,0,0,0-2.16-1.169,6.837,6.837,0,0,1,.766-.137,5.355,5.355,0,0,1,.717-.04,5.208,5.208,0,0,1,3.466,1.346,6.33,6.33,0,0,0,2.248,1.588,4.768,4.768,0,0,0,2.079.081.4.4,0,0,1,.387.629Zm0,0" transform="translate(-358.395 -100.478)" fill="#783e22"/>
      <path id="Trazado_918987" data-name="Trazado 918987" d="M123.531,73.906a16.672,16.672,0,0,0,1.322-6.561c0-8.906-6.843-16.119-15.273-16.119S94.308,58.44,94.308,67.345a16.672,16.672,0,0,0,1.322,6.561" transform="translate(-85.387 -46.388)" fill="#6d4122"/>
      <path id="Trazado_918988" data-name="Trazado 918988" d="M120.869,73.906a17.872,17.872,0,0,0,1.22-6.561c0-8.906-6.318-16.119-14.1-16.119s-14.1,7.213-14.1,16.119a17.872,17.872,0,0,0,1.22,6.561" transform="translate(-85.001 -46.388)" fill="#91562d"/>
      <path id="Trazado_918989" data-name="Trazado 918989" d="M96.823,259.581c0-6.677-8.3-12.089-18.537-12.089S59.75,252.9,59.75,259.581s8.3,12.089,18.537,12.089S96.823,266.258,96.823,259.581Zm0,0" transform="translate(-54.093 -224.117)" fill="#dfc49c"/>
      <path id="Trazado_918990" data-name="Trazado 918990" d="M94.405,259.581c0-6.677-7.758-12.089-17.328-12.089S59.75,252.9,59.75,259.581s7.758,12.089,17.328,12.089S94.405,266.258,94.405,259.581Zm0,0" transform="translate(-54.093 -224.117)" fill="#ffe0b2"/>
      <path id="Trazado_918991" data-name="Trazado 918991" d="M182.439,163.772a1.612,1.612,0,1,1-1.612-1.612A1.612,1.612,0,0,1,182.439,163.772Zm0,0" transform="translate(-162.275 -146.845)" fill="#3f51b5"/>
      <path id="Trazado_918992" data-name="Trazado 918992" d="M307.727,406.579l.693,6.246.065.564.322-.645,1.474-2.948a.806.806,0,0,1,1.392-.086l1.172,1.761h.008l1.273,1.918v-4.523a.806.806,0,0,1,1.061-.764l6.192,2.064-2.8-2.49-4.151-3.683" transform="translate(-278.65 -365.836)" fill="#008a00"/>
      <path id="Trazado_918993" data-name="Trazado 918993" d="M66.7,403.992l-4.15,3.683-2.8,2.49,6.192-2.064a.806.806,0,0,1,1.061.764v4.523l1.274-1.918h.008l1.172-1.761a.806.806,0,0,1,1.392.086l1.8,3.593.065-.564.693-6.246" transform="translate(-54.093 -365.836)" fill="#008a00"/>
      <path id="Trazado_918994" data-name="Trazado 918994" d="M301.907,163.772a1.612,1.612,0,1,1-1.612-1.612A1.612,1.612,0,0,1,301.907,163.772Zm0,0" transform="translate(-270.461 -146.845)" fill="#3f51b5"/>
      <path id="Trazado_918995" data-name="Trazado 918995" d="M115.8,66.983a.807.807,0,0,1-.742-1.123,15.77,15.77,0,0,0,1.257-6.244c0-8.443-6.49-15.313-14.466-15.313S87.384,51.173,87.384,59.616a15.777,15.777,0,0,0,1.257,6.244.806.806,0,1,1-1.483.634,17.4,17.4,0,0,1-1.386-6.878c0-9.332,7.213-16.925,16.079-16.925s16.078,7.592,16.078,16.925a17.39,17.39,0,0,1-1.386,6.878A.807.807,0,0,1,115.8,66.983Zm0,0" transform="translate(-77.658 -38.659)"/>
      <path id="Trazado_918996" data-name="Trazado 918996" d="M194.746,491.146a27.885,27.885,0,0,1-5.743-.582.806.806,0,1,1,.332-1.577,27.17,27.17,0,0,0,10.822,0,.806.806,0,1,1,.332,1.577A27.89,27.89,0,0,1,194.746,491.146Zm0,0" transform="translate(-170.552 -442.787)"/>
      <path id="Trazado_918997" data-name="Trazado 918997" d="M142.349,476.26h-.008a.806.806,0,1,1,.008,0Zm0,0" transform="translate(-128.158 -429.819)"/>
      <path id="Trazado_918998" data-name="Trazado 918998" d="M54.817,278.04a.8.8,0,0,1-.583-.249,10.018,10.018,0,0,1-3.02-6.932c0-4.415,3.31-8.47,8.854-10.847a.806.806,0,0,1,.636,1.481c-4.933,2.115-7.878,5.617-7.878,9.366a8.44,8.44,0,0,0,2.573,5.818.806.806,0,0,1-.582,1.363Zm0,0" transform="translate(-46.364 -235.395)"/>
      <path id="Trazado_918999" data-name="Trazado 918999" d="M361.544,278.04a.806.806,0,0,1-.583-1.363,8.439,8.439,0,0,0,2.573-5.818c0-3.749-2.945-7.251-7.878-9.366a.806.806,0,1,1,.636-1.481c5.544,2.377,8.854,6.433,8.854,10.847a10.021,10.021,0,0,1-3.02,6.933A.8.8,0,0,1,361.544,278.04Zm0,0" transform="translate(-321.611 -235.395)"/>
      <path id="Trazado_919000" data-name="Trazado 919000" d="M354.232,476.26h-.008a.806.806,0,1,1,.008,0Zm0,0" transform="translate(-320.029 -429.819)"/>
      <path id="Trazado_919001" data-name="Trazado 919001" d="M199.582,241.174a.76.76,0,0,1-.168-.018,27.186,27.186,0,0,0-10.979,0,.806.806,0,1,1-.335-1.576,28.789,28.789,0,0,1,11.65,0,.806.806,0,0,1-.167,1.594Zm0,0" transform="translate(-169.731 -216.413)"/>
      <path id="Trazado_919002" data-name="Trazado 919002" d="M173.1,158.461a2.418,2.418,0,1,1,2.418-2.418A2.418,2.418,0,0,1,173.1,158.461Zm0-3.224a.806.806,0,1,0,.806.806A.806.806,0,0,0,173.1,155.237Zm0,0" transform="translate(-154.55 -139.115)"/>
      <path id="Trazado_919003" data-name="Trazado 919003" d="M292.566,158.461a2.418,2.418,0,1,1,2.418-2.418A2.418,2.418,0,0,1,292.566,158.461Zm0-3.224a.806.806,0,1,0,.806.806A.806.806,0,0,0,292.566,155.237Zm0,0" transform="translate(-262.732 -139.115)"/>
      <path id="Trazado_919004" data-name="Trazado 919004" d="M172.99,287.923a.8.8,0,0,1-.314-.065,3.222,3.222,0,1,1,4.226-1.716.806.806,0,0,1-1.486-.626,1.61,1.61,0,1,0-2.112.858.806.806,0,0,1-.314,1.548Zm0,0" transform="translate(-154.574 -255.066)"/>
      <path id="Trazado_919005" data-name="Trazado 919005" d="M277.235,287.926a.806.806,0,0,1-.314-1.548,1.612,1.612,0,1,0-2.112-.857.806.806,0,0,1-1.486.626,3.222,3.222,0,1,1,4.226,1.716A.8.8,0,0,1,277.235,287.926Zm0,0" transform="translate(-247.265 -255.07)"/>
      <path id="Trazado_919006" data-name="Trazado 919006" d="M79.053,11.3a.806.806,0,0,1-.665-.349,8.824,8.824,0,0,1-.341-9.558A2.6,2.6,0,0,1,80.324.014a2.452,2.452,0,0,1,2.249,1.245c1.317,2.309,4.986,3.879,5.5,4.091a.808.808,0,0,1,.528.756.827.827,0,0,1-1.114.746c-.779-.317-4.747-2.038-6.32-4.8a.892.892,0,0,0-.818-.431,1,1,0,0,0-.878.508c-1.485,2.852-1.4,5.51.24,7.9a.807.807,0,0,1-.664,1.263Zm0,0" transform="translate(-69.543 -0.01)"/>
      <path id="Trazado_919007" data-name="Trazado 919007" d="M319.921,11.286a.806.806,0,0,1-.663-1.263c1.643-2.39,1.725-5.047.24-7.9a1,1,0,0,0-.878-.508.878.878,0,0,0-.819.43c-1.573,2.759-5.541,4.48-6.32,4.8a.806.806,0,1,1-.608-1.493c.425-.173,4.189-1.755,5.527-4.1A2.42,2.42,0,0,1,318.65,0a2.6,2.6,0,0,1,2.277,1.375,8.825,8.825,0,0,1-.341,9.558A.806.806,0,0,1,319.921,11.286Zm0,0" transform="translate(-281.045 0)"/>
      <path id="Trazado_919008" data-name="Trazado 919008" d="M6.618,110.6c-4.39,0-6.5-4.136-6.52-4.188a.806.806,0,0,1,.919-1.139,4.773,4.773,0,0,0,2.546.115,4.437,4.437,0,0,0,1.593-1.1c.118-.107.235-.215.353-.319A6.011,6.011,0,0,1,9.5,102.424h0a6.338,6.338,0,0,1,.828.047,7.051,7.051,0,0,1,2.186.626.806.806,0,0,1-.75,1.427,5.528,5.528,0,0,0-1.645-.455,4.628,4.628,0,0,0-.615-.033,4.417,4.417,0,0,0-2.931,1.143l-.333.3a5.777,5.777,0,0,1-2.222,1.456,5.237,5.237,0,0,1-1.451.19,5.6,5.6,0,0,0,6.663,1.3.806.806,0,0,1,.612,1.491A8.486,8.486,0,0,1,6.618,110.6Zm0,0" transform="translate(0 -92.75)"/>
      <path id="Trazado_919009" data-name="Trazado 919009" d="M381.546,110.6a8.479,8.479,0,0,1-3.229-.688.806.806,0,0,1,.612-1.492,5.592,5.592,0,0,0,6.663-1.3,4.95,4.95,0,0,1-1.454-.19,5.779,5.779,0,0,1-2.219-1.455l-.332-.3a4.42,4.42,0,0,0-2.937-1.144,4.484,4.484,0,0,0-.605.033,5.549,5.549,0,0,0-1.651.455.806.806,0,0,1-.749-1.427,7.047,7.047,0,0,1,2.19-.626,6.276,6.276,0,0,1,.82-.047,6.015,6.015,0,0,1,4,1.548c.117.1.234.211.352.319a4.444,4.444,0,0,0,1.59,1.1,4.756,4.756,0,0,0,2.549-.114.806.806,0,0,1,.919,1.139C388.04,106.467,385.935,110.6,381.546,110.6Zm0,0" transform="translate(-339.778 -92.75)"/>
      <path id="Trazado_919010" data-name="Trazado 919010" d="M109.191,358.725c-14.258,0-15.272-7.645-15.308-7.971a.806.806,0,0,1,1.6-.184c.036.281,1,6.543,13.706,6.543a.806.806,0,0,1,0,1.612Zm0,0" transform="translate(-84.998 -316.814)"/>
      <path id="Trazado_919011" data-name="Trazado 919011" d="M248.287,358.759a.806.806,0,1,1,0-1.612c12.831,0,13.7-6.471,13.706-6.536a.806.806,0,0,1,1.6.178C263.558,351.114,262.545,358.759,248.287,358.759Zm0,0" transform="translate(-224.094 -316.847)"/>
      <path id="Trazado_919012" data-name="Trazado 919012" d="M306.391,406.467a.805.805,0,0,1-.671-.36l-1.22-1.838a.665.665,0,0,1-.06-.08l-1.173-1.761-1.8,3.593a.806.806,0,0,1-1.521-.269l-.759-6.813a.806.806,0,1,1,1.6-.178l.455,4.1,1.2-2.4a.806.806,0,0,1,1.392-.086L305.586,403v-2.984a.806.806,0,0,1,1.061-.764l3.537,1.179-4.021-3.567a.806.806,0,1,1,1.071-1.206l6.948,6.175a.806.806,0,0,1-.791,1.366l-6.193-2.064v4.523a.806.806,0,0,1-.806.806Zm0,0" transform="translate(-270.915 -358.108)"/>
      <path id="Trazado_919013" data-name="Trazado 919013" d="M59.276,406.467a.806.806,0,0,1-.806-.806v-4.523L52.278,403.2a.806.806,0,0,1-.791-1.366l6.948-6.175a.806.806,0,1,1,1.07,1.206l-4.02,3.567,3.536-1.179a.806.806,0,0,1,1.061.764V403l1.747-2.624a.806.806,0,0,1,1.392.086l1.2,2.4.455-4.1a.806.806,0,0,1,1.6.178l-.759,6.813a.806.806,0,0,1-1.521.269l-1.8-3.593-1.173,1.761a.826.826,0,0,1-.061.081l-1.219,1.836A.807.807,0,0,1,59.276,406.467Zm0,0" transform="translate(-46.366 -358.108)"/>
    </g>
  </g>
</svg>
