<svg xmlns="http://www.w3.org/2000/svg" xmlns:xlink="http://www.w3.org/1999/xlink" width="86" height="86" viewBox="0 0 86 86">
  <defs>
    <clipPath id="clip-path">
      <circle id="Elipse_11815" data-name="Elipse 11815" cx="43" cy="43" r="43" transform="translate(304.102 6670)" fill="#ccda2d"/>
    </clipPath>
  </defs>
  <g id="Grupo_1119480" data-name="Grupo 1119480" transform="translate(-304.102 -6670)">
    <circle id="Elipse_11759" data-name="Elipse 11759" cx="43" cy="43" r="43" transform="translate(304.102 6670)" fill="#ccda2d"/>
    <g id="Enmascarar_grupo_1098793" data-name="Enmascarar grupo 1098793" clip-path="url(#clip-path)">
      <g id="Cow_udder" data-name="Cow udder" transform="translate(302.622 6670)">
        <path id="Trazado_916895" data-name="Trazado 916895" d="M50.3,49.472,46.2,63.42H31.61c.54-3.121,2.328-13.765,2.476-14.82Z" transform="translate(-3.479 -6.233)" fill="#b09482"/>
        <path id="Trazado_916896" data-name="Trazado 916896" d="M63.99,28.807a19.292,19.292,0,0,1-8.552,16l1.569,2.615a2.572,2.572,0,1,1-4.429,2.615c-1.9-3.3-1.744-2.973-1.656-3.008a19.065,19.065,0,0,1-8.535.872l-.445,2.546a2.563,2.563,0,1,1-5.047-.872L37.4,46.6a19.309,19.309,0,0,1-7.576-5.588L27.768,42.2a2.566,2.566,0,0,1-2.5-4.481l1.857-1.037A19.283,19.283,0,1,1,63.99,28.746Z" transform="translate(-2.497 -1.216)" fill="#d1384c"/>
        <path id="Trazado_916897" data-name="Trazado 916897" d="M64.6,27.174A19.179,19.179,0,0,1,60.02,41.323a20.791,20.791,0,0,1-20.974-.549,3.121,3.121,0,0,0-2.615-.235,1.822,1.822,0,0,1-2.389-1.744,4.089,4.089,0,0,0-.654-3.121A20.791,20.791,0,0,1,30.2,16.914,19.292,19.292,0,0,1,64.6,27.174Z" transform="translate(-3.173 -1.222)" fill="#ef6f83"/>
        <path id="Trazado_916898" data-name="Trazado 916898" d="M5.48,0H51.169V27.922H5.48Z" transform="translate(-0.128 0)" fill="#eddcd2"/>
        <path id="Trazado_916899" data-name="Trazado 916899" d="M51.169,20.467v9.947H5.48v-4.1H28.512a16.884,16.884,0,0,0,11.932-4.941L42.19,19.63Z" transform="translate(-0.128 -2.517)" fill="#ddbea9"/>
        <path id="Trazado_916900" data-name="Trazado 916900" d="M5.48,23h8.857a.785.785,0,0,0,.558-1.29l-.61-.619a4.629,4.629,0,0,0-3.252-1.343H5.48Z" transform="translate(-0.128 -2.533)" fill="#ddbea9"/>
        <path id="Trazado_916901" data-name="Trazado 916901" d="M84.769,0a13.643,13.643,0,0,1-.785,4.272c-3.775,9.955-3.565,9.354-3.836,10.278a12.431,12.431,0,0,0,.384,7.654c2.458,6.486,2.083,5.492,2.563,6.774a13.181,13.181,0,0,1,.288,8.4C71.074,79.687,72.87,73.541,70.411,81.945H58.39c1.744-9.755,6.181-34.3,6.817-37.773A12.2,12.2,0,0,0,61.816,33.5L51.355,23.041A21.131,21.131,0,0,1,45.2,8.133V0Z" transform="translate(-5.222 0)" fill="#eddcd2"/>
        <path id="Trazado_916902" data-name="Trazado 916902" d="M61.533,86.39H74.287l-1.935,6.634H60.33Z" transform="translate(-7.162 -11.079)" fill="#495a83"/>
        <path id="Trazado_916903" data-name="Trazado 916903" d="M85.493,39.515c-5.771,19.771-5.231,18.01-11.071,37.948-13.748,0-12.763,0-12.745-.07,5.571-30.7,5.51-29.919,5.431-29.919a7.1,7.1,0,0,0,6.756-4.908l8.4-25.856a12.431,12.431,0,0,0,.384,7.654c2.458,6.486,2.084,5.492,2.563,6.774a13.181,13.181,0,0,1,.288,8.378Z" transform="translate(-7.332 -2.143)" fill="#ddbea9"/>
        <path id="Trazado_916904" data-name="Trazado 916904" d="M53.469,41.946a2.136,2.136,0,0,0-2.014-1.526h-3.7c.209,1.151,1.334,4.734,1.159,4.167a2.668,2.668,0,0,0,3.1,1.892,2.563,2.563,0,0,0,1.848-3.226Z" transform="translate(-5.549 -5.184)" fill="#d1384c"/>
        <path id="Trazado_916905" data-name="Trazado 916905" d="M57.563,0V11.429a10.1,10.1,0,0,1-2.04,6.1l-4.158,5.483A21.131,21.131,0,0,1,45.21,8.107V0Z" transform="translate(-5.223 0)" fill="#cb997e"/>
        <path id="Trazado_916906" data-name="Trazado 916906" d="M22.9,70.89l3.095,20.146H47.9L51,70.89Z" transform="translate(-2.362 -9.091)" fill="#c2c2c2"/>
        <path id="Trazado_916907" data-name="Trazado 916907" d="M25.76,89.48H48.844l-.575,3.94H26.362Z" transform="translate(-2.729 -11.475)" fill="#d6d6d6"/>
        <rect id="Rect치ngulo_405369" data-name="Rect치ngulo 405369" width="32.421" height="4.638" rx="1.09" transform="translate(18.376 57.161)" fill="#d6d6d6"/>
        <rect id="Rect치ngulo_405370" data-name="Rect치ngulo 405370" width="15.665" height="4.638" rx="1.09" transform="translate(26.753 57.161)" fill="#ebebeb"/>
        <path id="Trazado_916908" data-name="Trazado 916908" d="M76.7,68.23l-1.247,3.287a14.018,14.018,0,0,1-13.076,9.075l-.619,3.487H74.47l4.141-14.192Z" transform="translate(-7.346 -8.75)" fill="#c9a090"/>
        <path id="Trazado_916909" data-name="Trazado 916909" d="M87.472,41.5l-7.323,25.22L78.2,62.62a11.394,11.394,0,0,1-.776-7.663L80.907,40.7a11.594,11.594,0,0,1,2.615-4.925l3.26-3.6.349.933a13.181,13.181,0,0,1,.34,8.4Z" transform="translate(-9.311 -4.126)" fill="#cb997e"/>
        <path id="Trazado_916910" data-name="Trazado 916910" d="M47.642,59.9l-1.456,4.943H31.61c.192-1.116.366-2.153.532-3.112C43.213,61.731,40.336,62.114,47.642,59.9Z" transform="translate(-3.479 -7.682)" fill="#a1856e"/>
        <path id="Trazado_916911" data-name="Trazado 916911" d="M48.489,70.89l-2.022,9.284a5.353,5.353,0,0,1-5.231,4.237H36.563a11.332,11.332,0,0,0-7.321,2.684H49.291L51.81,70.89Z" transform="translate(-3.176 -9.091)" fill="#a8a8a8"/>
        <path id="Trazado_916912" data-name="Trazado 916912" d="M23.49,74.75H35.843a2.188,2.188,0,0,1,2.127,2.676l-.549,2.345a2.179,2.179,0,0,1-2.153,1.683H32.774a4.524,4.524,0,0,0-3.016,1.159l-4.446,3.993Z" transform="translate(-2.438 -9.586)" fill="#d6d6d6"/>
        <path id="Trazado_916913" data-name="Trazado 916913" d="M34.044,76.68H36.4a.959.959,0,0,1,.933,1.194l-.2.776a.924.924,0,0,1-.872.7h-.872a1.4,1.4,0,0,1-.994-.41c-.793-.793-.924-.872-.933-1.194v-.392a.663.663,0,0,1,.584-.671Z" transform="translate(-3.716 -9.834)" fill="#ebebeb"/>
        <path id="Trazado_916914" data-name="Trazado 916914" d="M75.33,24.034,72.715,31.3A2.894,2.894,0,0,1,70,33.258H68.844a2.9,2.9,0,0,1-2.781-3.714l.663-2.249A7.035,7.035,0,0,1,69.9,23.2l2.537-1.508a1.988,1.988,0,0,1,2.894,2.345Z" transform="translate(-7.883 -2.746)" fill="#ddbea9"/>
        <path id="Trazado_916915" data-name="Trazado 916915" d="M86.588,0a13.791,13.791,0,0,1-.61,3.757H67.339a11.246,11.246,0,0,0-7.959,3.3V0Z" transform="translate(-7.041 0)" fill="#fff1e6"/>
        <g id="Grupo_1119479" data-name="Grupo 1119479" transform="translate(4.48 0)">
          <path id="Trazado_916916" data-name="Trazado 916916" d="M76.121,22.762a11.542,11.542,0,0,1,0-8.195l3.487-9.119A14.645,14.645,0,0,0,80.48.872a.872.872,0,0,0-1.744,0,13.015,13.015,0,0,1-.724,3.958l-3.522,9.119a13.32,13.32,0,0,0,0,9.432l2.031,5.387c-2.851,3.138-4.821,4.847-5.727,8.5L67.308,51.53a12.2,12.2,0,0,0,.872,8.247l1.8,3.8L66.471,75.32H55.408l5.431-30.128a13.076,13.076,0,0,0-3.6-11.437L47.292,23.8l3.7-4.882A10.975,10.975,0,0,0,53.211,12.3V.872a.872.872,0,0,0-1.744,0V12.3A9.267,9.267,0,0,1,49.6,17.862l-3.487,4.646A20.111,20.111,0,0,1,40.885,8.97V.872a.872.872,0,1,0-1.744,0v8.1a21.846,21.846,0,0,0,6.407,15.517L48.94,27.9H5.352a.872.872,0,0,0,0,1.744H22.063a20.138,20.138,0,0,0,1.308,6.442l-1,.593a3.435,3.435,0,0,0,1.682,6.434c1.081,0,1.63-.41,2.886-1.116a19.4,19.4,0,0,0,2.615,2.519c-.1.671.1-.575-2.145,12.649H19.326A1.831,1.831,0,0,0,17.5,58.983v2.729a1.831,1.831,0,0,0,1.822,1.831h.427l1.421,8.988-3.879,3.879a.872.872,0,0,0,1.238,1.229L21.5,74.675l1.116,7.27H7.706a.872.872,0,0,0,0,1.744H77.1a.872.872,0,1,0,0-1.744H66.349L79.033,38.488a14.123,14.123,0,0,0-.34-8.953Zm-17,22.125L52.444,81.945H46.56l2.833-18.4h.462a1.831,1.831,0,0,0,1.822-1.831V58.983a1.831,1.831,0,0,0-1.822-1.822H43.883L46.5,48.348c.523-.113,1.037-.262,1.543-.418l1.3,2.232a3.443,3.443,0,0,0,5.937-3.487l-1.133-1.953A19.772,19.772,0,0,0,58.8,39.647a11.333,11.333,0,0,1,.323,5.239Zm-6.434.872,1.064,1.822a1.613,1.613,0,0,1,.174,1.281,1.691,1.691,0,0,1-3.095.418l-1.142-1.953a20.844,20.844,0,0,0,3-1.569Zm-27.844-4.6a1.691,1.691,0,1,1-1.6-2.955l.872-.488a19.606,19.606,0,0,0,1.744,2.9ZM23.807,29.64h2.615c.427,2.145.54,3.409,1.613,4.969a.874.874,0,1,0,1.438-.994c-.872-1.194-.872-2.11-1.273-3.975H50.692c5.562,5.579,6.181,5.972,7.262,8.011a18.185,18.185,0,0,1-5.379,6.1h-.061a18.185,18.185,0,0,1-11.647,3.321l.4-2.371a.884.884,0,1,0-1.744-.3l-.593,3.539a5.8,5.8,0,0,0-3.365-.4l.636-3.679a.884.884,0,0,0-1.744-.3l-.27,1.761A18.124,18.124,0,0,1,23.807,29.64Zm11.446,19.8a3.792,3.792,0,0,1,3.382.279v.3a1.694,1.694,0,1,1-3.339-.575Zm-4.167-3.792a20.486,20.486,0,0,0,2.763,1.491L33.5,49.141a3.437,3.437,0,0,0,6.774,1.168l.288-1.491a18.665,18.665,0,0,0,4-.113L42.07,57.161H29.159ZM19.248,61.712c0-2.912,0-2.807.078-2.807H49.838c.113,0,.078-.07.078,2.807,0,.131,1,.087-15.552.087l.828-.872a.872.872,0,1,0-1.229-1.238L31.9,61.755C18.515,61.8,19.248,61.842,19.248,61.712Zm2.3,1.831h8.613L22.7,71Zm11.08,0h15.02L45.4,78H23.772l-.741-4.864Zm-8.247,18.4-.34-2.2H45.13l-.34,2.2Zm29.832,0,.872-4.882H65.956l-1.421,4.882ZM77.359,38,70.638,61.023l-.968-2.031a10.6,10.6,0,0,1-.715-7.079l3.539-14.262c.758-3.086,2.362-4.49,4.707-7.079A12.414,12.414,0,0,1,77.359,38Z" transform="translate(-4.48 0)" fill="#231f20"/>
          <path id="Trazado_916917" data-name="Trazado 916917" d="M40.473,39.505l3.26.654a3.191,3.191,0,0,1,2.441,2.214l.924,3.095a3.436,3.436,0,0,0,6.582-1.979l-1.63-5.431a.873.873,0,1,0-1.674.5l.933,3.138A4.359,4.359,0,0,0,48.083,42.7l-.262-.828a4.917,4.917,0,0,0-3.749-3.426L40.847,37.8a.875.875,0,0,0-.375,1.709ZM51.9,43.629l.1.366a1.692,1.692,0,0,1-3.243.968l-.087-.3A2.615,2.615,0,0,1,51.9,43.629Z" transform="translate(-9.011 -4.801)" fill="#231f20"/>
        </g>
      </g>
    </g>
  </g>
</svg>
