<svg xmlns="http://www.w3.org/2000/svg" width="61" height="61" viewBox="0 0 61 61">
  <g id="Grupo_1121270" data-name="Grupo 1121270" transform="translate(-620.051 -5123)">
    <circle id="Elipse_11781" data-name="Elipse 11781" cx="30.5" cy="30.5" r="30.5" transform="translate(620.051 5123)" fill="#fff"/>
    <g id="Grupo_1121269" data-name="Grupo 1121269" transform="translate(-2538.949 11682)">
      <path id="Trazado_919229" data-name="Trazado 919229" d="M57.915,59.458A26.458,26.458,0,1,1,31.458,33,26.457,26.457,0,0,1,57.915,59.458Zm0,0" transform="translate(3157.593 -6588.407)" fill="#88e288"/>
      <path id="Trazado_919230" data-name="Trazado 919230" d="M73.169,77.085A24.085,24.085,0,1,1,49.085,53,24.085,24.085,0,0,1,73.169,77.085Zm0,0" transform="translate(3139.966 -6606.034)" fill="#e9e9ea"/>
      <path id="Trazado_919232" data-name="Trazado 919232" d="M148.094,214.274l-6.051-6.051a2.366,2.366,0,0,1,3.346-3.346l4.366,4.366,8.4-8.4a2.366,2.366,0,0,1,3.346,3.346L151.439,214.25A2.342,2.342,0,0,1,148.094,214.274Zm0,0" transform="translate(3037.421 -6735.725)" fill="#6dcc6d"/>
      <path id="Trazado_919238" data-name="Trazado 919238" d="M27.051,82.1A27.051,27.051,0,1,1,54.1,55.051,27.039,27.039,0,0,1,27.051,82.1Zm0-52.915A25.864,25.864,0,1,0,52.915,55.051,25.864,25.864,0,0,0,27.051,29.186Zm0,0" transform="translate(3162 -6584)" fill="#231f20"/>
      <path id="Trazado_919239" data-name="Trazado 919239" d="M44.678,97.356A24.678,24.678,0,1,1,69.356,72.678,24.689,24.689,0,0,1,44.678,97.356Zm0-48.169A23.491,23.491,0,1,0,68.169,72.678,23.484,23.484,0,0,0,44.678,49.186Zm0,0" transform="translate(3144.373 -6601.627)" fill="#231f20"/>
      <path id="Trazado_919241" data-name="Trazado 919241" d="M145.439,210.861a2.889,2.889,0,0,1-2.088-.878l-6.051-6.051a2.97,2.97,0,1,1,4.176-4.224l.024.024,3.939,3.939,7.973-7.973a2.97,2.97,0,0,1,4.223,4.176l-.024.024-10.085,10.108A2.965,2.965,0,0,1,145.439,210.861Zm-6.051-10.773a1.778,1.778,0,0,0-1.257,3.037l6.051,6.051a1.79,1.79,0,0,0,2.515,0l10.061-10.061a1.778,1.778,0,0,0-2.515-2.515l-8.4,8.4a.573.573,0,0,1-.831,0l-4.366-4.39A1.778,1.778,0,0,0,139.388,200.088Zm0,0" transform="translate(3041.761 -6731.031)" fill="#231f20"/>
    </g>
  </g>
</svg>
