<svg xmlns="http://www.w3.org/2000/svg" width="210" height="164.427" viewBox="0 0 210 164.427">
  <g id="Grupo_1119485" data-name="Grupo 1119485" transform="translate(-180.051 -7090)">
    <rect id="BG" width="210" height="164.427" transform="translate(180.051 7090)" fill="#0d8449" opacity="0.996"/>
    <g id="Grupo_1119484" data-name="Grupo 1119484" transform="translate(235.316 7123.264)">
      <g id="Grupo_1119481" data-name="Grupo 1119481" transform="translate(31.619 65.809)">
        <path id="Trazado_916918" data-name="Trazado 916918" d="M360,341.334v2.225a18.211,18.211,0,0,1-5.334,12.877h0v13.11l2.667,2.763h-10V342.555Z" transform="translate(-311.989 -341.334)" fill="#898998"/>
        <path id="Trazado_916919" data-name="Trazado 916919" d="M176.668,341.334v2.225a18.211,18.211,0,0,1-5.334,12.877h0v13.11L174,372.31H164V343.765Z" transform="translate(-164 -341.334)" fill="#898998"/>
      </g>
      <path id="Trazado_916920" data-name="Trazado 916920" d="M67.438,146h37.843a15.193,15.193,0,0,1,15.193,15.193V179.94a11.946,11.946,0,0,1-11.946,11.946h-.81a18.207,18.207,0,0,1-4.316,6.876v13.11l2.667,2.763h-10v-22.75H94.51a8.6,8.6,0,0,1-7.052,3.674H72.148a18.2,18.2,0,0,1-2.551,3.2v13.11l2.667,2.763h-10v-22.75h-.231A15.461,15.461,0,0,1,46.571,176.44l-.009-9.54A20.876,20.876,0,0,1,67.438,146Z" transform="translate(-37.585 -117.852)" fill="#d8d8e4"/>
      <path id="Trazado_916921" data-name="Trazado 916921" d="M203.192,358.4h0a8.609,8.609,0,0,1-8.609,8.609h-15.31l3.39-8.609h20.529" transform="translate(-144.71 -289.305)" fill="#edf2fa"/>
      <g id="Grupo_1119482" data-name="Grupo 1119482" transform="translate(9.054 19.335)">
        <path id="Trazado_916922" data-name="Trazado 916922" d="M46.963,165.088A20.877,20.877,0,0,1,67.762,146h9.5l-.445.672h0A18.415,18.415,0,0,1,58.4,165.088H46.963Z" transform="translate(-46.963 -137.187)" fill="#898998"/>
        <path id="Trazado_916923" data-name="Trazado 916923" d="M202.813,234.417H194.3a3.33,3.33,0,0,0-3.33,3.33h0a3.33,3.33,0,0,1-3.33,3.33h-.157a3.816,3.816,0,0,0-3.816,3.816h0a3.816,3.816,0,0,0,3.816,3.816h15.33a7.146,7.146,0,0,0,7.146-7.146h0A7.146,7.146,0,0,0,202.813,234.417Z" transform="translate(-157.311 -208.556)" fill="#898998"/>
        <path id="Trazado_916924" data-name="Trazado 916924" d="M352.523,108.583h0a9.37,9.37,0,0,1-4.217-7.826v-.475l9.867,4.374Z" transform="translate(-290.208 -100.282)" fill="#898998"/>
      </g>
      <path id="Trazado_916925" data-name="Trazado 916925" d="M332.606,126.555l.019.006a4.758,4.758,0,0,0,2.9-.081,5.368,5.368,0,0,1,4.13.38l.461-.724a13.326,13.326,0,0,1,17.307,0l.912.74a5.3,5.3,0,0,1,3.98-.31,4.759,4.759,0,0,0,2.9.081l.019-.006c.33,5.52-4.03,6.239-5.121,6.333v6.633a14.853,14.853,0,0,1-7.751,13.045h0a6.94,6.94,0,0,1-6.637,0h0a14.853,14.853,0,0,1-7.751-13.045v-6.619h-.245l-.031-.1C336.559,132.781,332.279,132.028,332.606,126.555Z" transform="translate(-268.466 -99.24)" fill="#d8d8e4"/>
      <g id="Grupo_1119483" data-name="Grupo 1119483" transform="translate(73.966 19.335)">
        <path id="Trazado_916926" data-name="Trazado 916926" d="M383.647,247.243a7.379,7.379,0,0,1,13.22,0,14.841,14.841,0,0,1-3.292,2.436h0a6.94,6.94,0,0,1-6.637,0h0A14.839,14.839,0,0,1,383.647,247.243Z" transform="translate(-383.647 -215.601)" fill="#898998"/>
        <path id="Trazado_916927" data-name="Trazado 916927" d="M439.188,108.583h0a9.37,9.37,0,0,0,4.217-7.826v-.475l-9.867,4.374Z" transform="translate(-423.919 -100.282)" fill="#898998"/>
      </g>
      <path id="Trazado_916928" data-name="Trazado 916928" d="M282.235,139.292a1.927,1.927,0,1,1,1.363.565A1.934,1.934,0,0,1,282.235,139.292Z" transform="translate(-227.365 -109.78)"/>
      <path id="Trazado_916929" data-name="Trazado 916929" d="M0,120.4V132.24a1.928,1.928,0,0,0,3.856,0V120.4a17.479,17.479,0,0,1,12.158-16.627,23.18,23.18,0,0,0-2.295,2.012,22.653,22.653,0,0,0-6.67,16.142l.008,8.644A18.317,18.317,0,0,0,22.75,148.652v21.007a1.928,1.928,0,0,0,1.928,1.928h16.9a1.928,1.928,0,0,0,1.387-3.267l-2.126-2.2V154.482l1.642-1.972h7.394a10.487,10.487,0,0,0,6.681-2.4v19.543a1.928,1.928,0,0,0,1.928,1.928H76.714A1.928,1.928,0,0,0,78.1,168.32l-2.126-2.2v-11.2a13.841,13.841,0,0,0,4.795-10.047,13.624,13.624,0,0,0,4.048-9.7v-7.192a16.771,16.771,0,0,0,8.756-14.738v-5.057a7.324,7.324,0,0,0,3.221-1.967,7.819,7.819,0,0,0,1.9-6.056,1.915,1.915,0,0,0-.836-1.512,1.86,1.86,0,0,0-1.668-.213,2.856,2.856,0,0,1-1.711-.059c-.178-.061-.359-.112-.54-.158a11.284,11.284,0,0,0,1.445-5.534v-.475a1.928,1.928,0,0,0-2.709-1.763L82.8,94.82c-.021.009-.04.02-.06.03a14.968,14.968,0,0,0-4.882,0c-.02-.01-.039-.021-.06-.03l-9.867-4.374a1.928,1.928,0,0,0-2.709,1.763v.475a11.282,11.282,0,0,0,1.444,5.532c-.079.024-.159.047-.238.075a2.85,2.85,0,0,1-1.71.059,1.858,1.858,0,0,0-1.67.212,1.915,1.915,0,0,0-.836,1.512,7.819,7.819,0,0,0,1.9,6.056,7.394,7.394,0,0,0,3.466,2.039v5.072a16.771,16.771,0,0,0,8.757,14.739,8.86,8.86,0,0,0,4.24,1.084c.129,0,.257-.006.386-.012v6.119a9.825,9.825,0,0,1-8.269,9.688,20.334,20.334,0,0,0,.386-3.951v-2.225a1.928,1.928,0,1,0-3.856,0v2.225a16.176,16.176,0,0,1-4.769,11.514,1.929,1.929,0,0,0-.565,1.363v13.11a1.928,1.928,0,0,0,.19.835H60.411V139.9a1.928,1.928,0,1,0-3.856,0v2.07a6.688,6.688,0,0,1-6.681,6.681H37.737a20.108,20.108,0,0,0,1.538-7.747v-2.225a1.928,1.928,0,1,0-3.856,0v2.225a16.174,16.174,0,0,1-2.445,8.585c-.014.021-.027.042-.04.064a16.408,16.408,0,0,1-2.284,2.865,1.928,1.928,0,0,0-.565,1.363v13.11a1.928,1.928,0,0,0,.19.835H26.606V148.363a1.926,1.926,0,0,0-1.263-3.382,14.448,14.448,0,0,1-14.429-14.415l-.008-8.527h9.589a20.368,20.368,0,0,0,20.3-19.087h6.567a1.928,1.928,0,1,0,0-3.856H21.3A21.328,21.328,0,0,0,0,120.4Zm78.179,4.194a12.952,12.952,0,0,1-1.671-1.086c.07-.078.139-.156.214-.23a5.457,5.457,0,0,1,7.709,0c.074.074.145.151.215.229a12.942,12.942,0,0,1-1.673,1.087A4.994,4.994,0,0,1,78.179,124.593ZM72.605,96.734a15.224,15.224,0,0,0-1.527,1.024A7.4,7.4,0,0,1,69.59,95.4ZM91.014,95.4a7.407,7.407,0,0,1-1.488,2.36A15.258,15.258,0,0,0,88,96.734Zm-1.3,11.138v6.705a12.914,12.914,0,0,1-2.391,7.49c-.057-.06-.11-.122-.169-.181a9.318,9.318,0,0,0-13.162,0c-.058.058-.115.118-.171.178a12.915,12.915,0,0,1-2.39-7.487v-6.705a1.927,1.927,0,0,0-1.914-1.927h0a4.121,4.121,0,0,1-2.61-1.132,3.052,3.052,0,0,1-.664-1.212,6.839,6.839,0,0,0,1.44-.328c1.959-.674,3.981,1.125,4.257,1.383l.021.022a1.929,1.929,0,0,0,3.12-2.207,2.468,2.468,0,0,0-.433-.556q.037.033.071.067-.039-.04-.08-.077c-.11-.111-.235-.223-.366-.336a11.385,11.385,0,0,1,12.286.146c-.1.091-.2.181-.291.271-.029.027-.058.054-.086.083.023-.023.046-.046.072-.068l-.068.071h0a2.286,2.286,0,0,0-.364.484,1.929,1.929,0,0,0,3.119,2.207l.021-.022c.276-.258,2.3-2.057,4.257-1.383a6.809,6.809,0,0,0,1.44.328A3.054,3.054,0,0,1,94,103.562a3.8,3.8,0,0,1-2.093,1.065,1.915,1.915,0,0,0-2.186,1.909Zm-17.6,47.474V166.9a1.928,1.928,0,0,0,.19.835H69.3l-1.558-1.614V154.561a20.064,20.064,0,0,0,3.721-5.732,13.577,13.577,0,0,0,4.863-1.014,10.014,10.014,0,0,1-3.068,4.345l-.439.361A1.929,1.929,0,0,0,72.119,154.01Zm-35.138-.225V166.9a1.928,1.928,0,0,0,.19.835H35.5l-1.558-1.614V154.561a20.323,20.323,0,0,0,1.66-2.05h1.861l-.034.041A1.928,1.928,0,0,0,36.981,153.785ZM16.447,108.508a18.823,18.823,0,0,1,13.406-5.557h7.076a16.506,16.506,0,0,1-16.435,15.231H11.267A18.813,18.813,0,0,1,16.447,108.508Z" transform="translate(0 -72.873)"/>
      <path id="Trazado_916930" data-name="Trazado 916930" d="M379.2,199.728h-.04a1.928,1.928,0,0,1,0-3.856h.04a1.928,1.928,0,0,1,0,3.856Z" transform="translate(-304.504 -158.108)"/>
      <path id="Trazado_916931" data-name="Trazado 916931" d="M437.286,199.728h-.04a1.928,1.928,0,0,1,0-3.856h.04a1.928,1.928,0,0,1,0,3.856Z" transform="translate(-351.391 -158.108)"/>
      <path id="Trazado_916932" data-name="Trazado 916932" d="M1.928,339a1.928,1.928,0,1,1-1.363,3.291A1.928,1.928,0,0,1,1.928,339Z" transform="translate(0 -273.642)"/>
      <path id="Trazado_916933" data-name="Trazado 916933" d="M194.741,224.417h-8.513a5.264,5.264,0,0,0-5.258,5.258,1.4,1.4,0,0,1-1.4,1.4h-.157a5.744,5.744,0,1,0,0,11.488h15.33a9.074,9.074,0,1,0,0-18.148Zm5.218,9.074a5.224,5.224,0,0,1-5.218,5.218h-15.33a1.888,1.888,0,1,1,0-3.777h.157a5.264,5.264,0,0,0,5.258-5.258,1.4,1.4,0,0,1,1.4-1.4h8.513A5.224,5.224,0,0,1,199.959,233.491Z" transform="translate(-140.185 -181.149)"/>
      <path id="Trazado_916934" data-name="Trazado 916934" d="M215.543,52.243a1.928,1.928,0,0,1-1.363-3.291,10.758,10.758,0,0,1,15.214,0,1.928,1.928,0,0,1-2.727,2.727,6.9,6.9,0,0,0-9.761,0A1.924,1.924,0,0,1,215.543,52.243Z" transform="translate(-172.431 -36.97)"/>
      <path id="Trazado_916935" data-name="Trazado 916935" d="M206.769,8.465a15.732,15.732,0,0,0-22.249,0,1.928,1.928,0,0,1-2.727-2.727,19.588,19.588,0,0,1,27.7,0,1.928,1.928,0,1,1-2.727,2.727Z" transform="translate(-146.289 0)"/>
      <path id="Trazado_916936" data-name="Trazado 916936" d="M246,93.738a1.925,1.925,0,1,1,.565,1.365A1.942,1.942,0,0,1,246,93.738Z" transform="translate(-198.572 -74.109)"/>
    </g>
  </g>
</svg>
