<svg xmlns="http://www.w3.org/2000/svg" width="61" height="61" viewBox="0 0 61 61">
  <g id="Grupo_1119755" data-name="Grupo 1119755" transform="translate(-1044.051 -9163)">
    <circle id="Elipse_11762" data-name="Elipse 11762" cx="30.5" cy="30.5" r="30.5" transform="translate(1044.051 9163)" fill="#fff"/>
    <g id="Grupo_1119754" data-name="Grupo 1119754" transform="translate(1027.991 9172)">
      <g id="Grupo_1119752" data-name="Grupo 1119752" transform="translate(27.702 0.637)">
        <g id="Grupo_1119751" data-name="Grupo 1119751" transform="translate(0)">
          <path id="Trazado_917396" data-name="Trazado 917396" d="M69.07,108.785,58.152,92.409a4.247,4.247,0,0,1-.713-2.356V81.405H47.187v8.648a4.247,4.247,0,0,1-.713,2.356L35.556,108.785a5.5,5.5,0,0,0,4.578,8.554H64.492A5.5,5.5,0,0,0,69.07,108.785Z" transform="translate(-34.623 -75.128)" fill="#d8ecfe"/>
          <path id="Trazado_917397" data-name="Trazado 917397" d="M69.074,108.785,58.156,92.409a4.247,4.247,0,0,1-.713-2.356V81.405H54.47v9.548a4.246,4.246,0,0,0,.713,2.356L66.6,110.434a2.529,2.529,0,0,1-2.1,3.933H40.138a2.475,2.475,0,0,1-2.23-1.336,2.606,2.606,0,0,1-.306-1.339H34.629a5.509,5.509,0,0,0,5.509,5.648H64.5A5.5,5.5,0,0,0,69.074,108.785Z" transform="translate(-34.627 -75.128)" fill="#c4e2ff"/>
          <path id="Trazado_917398" data-name="Trazado 917398" d="M98.607,110.434,87.19,93.309a4.247,4.247,0,0,1-.713-2.356V81.405H82.171v9.548a4.247,4.247,0,0,1-.713,2.356L70.04,110.434a2.529,2.529,0,0,0,2.1,3.933H96.5a2.529,2.529,0,0,0,2.1-3.933Z" transform="translate(-66.633 -75.128)" fill="#b3dafe"/>
          <path id="Trazado_917399" data-name="Trazado 917399" d="M244.673,99.037h2.65L243.5,93.309a4.247,4.247,0,0,1-.713-2.356V81.405h-2.364v9.988a4.246,4.246,0,0,0,.713,2.356Z" transform="translate(-222.948 -75.128)" fill="#8ac9fe"/>
          <path id="Trazado_917400" data-name="Trazado 917400" d="M98.733,302.994a2.475,2.475,0,0,0-.126-2.6l-7.6-11.4H77.639l-7.6,11.4a2.53,2.53,0,0,0,2.1,3.933H96.5A2.475,2.475,0,0,0,98.733,302.994Z" transform="translate(-66.633 -265.092)" fill="#fedf30"/>
          <path id="Trazado_917401" data-name="Trazado 917401" d="M96.581,387.316a9.248,9.248,0,0,1-2.3.524l1.683,2.524.009.013a.807.807,0,0,1-.681,1.244H69.614a2.606,2.606,0,0,0,.306,1.339,2.475,2.475,0,0,0,2.23,1.336H96.508a2.529,2.529,0,0,0,2.1-3.933Z" transform="translate(-66.639 -355.057)" fill="#fed402"/>
          <path id="Trazado_917402" data-name="Trazado 917402" d="M129.754,436a2.845,2.845,0,0,0-2.845,2.845h5.69A2.845,2.845,0,0,0,129.754,436Z" transform="translate(-119.071 -399.607)" fill="#f8f6f6"/>
          <path id="Trazado_917403" data-name="Trazado 917403" d="M167.334,13.862H154.678a1.274,1.274,0,0,1-1.274-1.274V8.774A1.274,1.274,0,0,1,154.678,7.5h12.656a1.274,1.274,0,0,1,1.274,1.274v3.814A1.274,1.274,0,0,1,167.334,13.862Z" transform="translate(-143.316 -7.5)" fill="#c4e2ff"/>
          <path id="Trazado_917404" data-name="Trazado 917404" d="M167.334,7.5h-2.292V9.921a1.274,1.274,0,0,1-1.274,1.274H153.4v1.393a1.274,1.274,0,0,0,1.274,1.274h12.656a1.274,1.274,0,0,0,1.274-1.274V8.774A1.274,1.274,0,0,0,167.334,7.5Z" transform="translate(-143.316 -7.5)" fill="#b3dafe"/>
          <circle id="Elipse_11838" data-name="Elipse 11838" cx="1.699" cy="1.699" r="1.699" transform="translate(13.104 30.873)" fill="#fff"/>
          <circle id="Elipse_11839" data-name="Elipse 11839" cx="1.699" cy="1.699" r="1.699" transform="translate(21.767 31.722)" fill="#fff"/>
          <circle id="Elipse_11840" data-name="Elipse 11840" cx="9.3" cy="9.3" r="9.3" transform="translate(17.435 14.226)" fill="#a2e62e"/>
          <path id="Trazado_917405" data-name="Trazado 917405" d="M307.726,175.124a9.3,9.3,0,0,1-3.909,17.74c-.147,0-.293,0-.438-.011a9.3,9.3,0,1,0,4.347-17.73Z" transform="translate(-280.553 -160.887)" fill="#97d729"/>
          <g id="Grupo_1119750" data-name="Grupo 1119750" transform="translate(20.836 16.212)">
            <path id="Trazado_917406" data-name="Trazado 917406" d="M286.854,210.488a1.861,1.861,0,0,1-1.735-.5l-4.9-4.9a.93.93,0,0,1,0-1.315l1.315-1.315a.93.93,0,0,1,1.315,0l3.581,3.581,7.387-7.387a.93.93,0,0,1,1.315,0l1.315,1.315a.93.93,0,0,1,0,1.315l-8.673,8.673A1.931,1.931,0,0,1,286.854,210.488Z" transform="translate(-279.95 -198.386)" fill="#fff"/>
          </g>
          <path id="Trazado_917407" data-name="Trazado 917407" d="M415.879,199.975l-1.315-1.315a.93.93,0,0,0-1.315,0l-2.787,2.787a9.275,9.275,0,0,1,.643,3.405,9.375,9.375,0,0,1-.091,1.3l4.865-4.865A.93.93,0,0,0,415.879,199.975Z" transform="translate(-378.541 -182.175)" fill="#eaf6ff"/>
          <path id="Trazado_917408" data-name="Trazado 917408" d="M366.237,53.255l.994,1.818a.49.49,0,0,0,.195.195l1.818.994a.49.49,0,0,1,0,.86l-1.818.994a.49.49,0,0,0-.195.195l-.994,1.818a.49.49,0,0,1-.859,0l-.994-1.818a.49.49,0,0,0-.195-.195l-1.818-.994a.49.49,0,0,1,0-.86l1.818-.994a.49.49,0,0,0,.195-.195l.994-1.818A.49.49,0,0,1,366.237,53.255Z" transform="translate(-334.301 -49.136)" fill="#fedf30"/>
          <path id="Trazado_917409" data-name="Trazado 917409" d="M393.314,79.755l-1.818-.994a.489.489,0,0,1-.114-.087,3.867,3.867,0,0,1-2.962,3.078.5.5,0,0,1,.033.052l.994,1.818a.49.49,0,0,0,.859,0L391.3,81.8a.49.49,0,0,1,.195-.195l1.818-.994a.49.49,0,0,0,0-.86Z" transform="translate(-358.371 -72.629)" fill="#fed402"/>
          <path id="Trazado_917410" data-name="Trazado 917410" d="M59.236,144.255l.994,1.818a.49.49,0,0,0,.195.195l1.818.994a.49.49,0,0,1,0,.86l-1.818.994a.49.49,0,0,0-.195.195l-.994,1.818a.49.49,0,0,1-.86,0l-.994-1.818a.49.49,0,0,0-.195-.195l-1.818-.994a.49.49,0,0,1,0-.86l1.818-.994a.49.49,0,0,0,.195-.195l.994-1.818A.49.49,0,0,1,59.236,144.255Z" transform="translate(-53.375 -132.407)" fill="#fedf30"/>
          <path id="Trazado_917411" data-name="Trazado 917411" d="M85.163,172.131l-1.743-.953a3.867,3.867,0,0,1-3.257,2.842.489.489,0,0,1,.14.159L81.3,176a.49.49,0,0,0,.86,0l.994-1.818a.49.49,0,0,1,.195-.195l1.818-.994A.49.49,0,0,0,85.163,172.131Z" transform="translate(-76.295 -157.276)" fill="#fed402"/>
        </g>
      </g>
      <g id="Grupo_1119753" data-name="Grupo 1119753" transform="translate(27.06)">
        <path id="Trazado_917412" data-name="Trazado 917412" d="M183.745,363.5a2.336,2.336,0,1,0,2.336,2.336A2.338,2.338,0,0,0,183.745,363.5Zm0,3.4a1.062,1.062,0,1,1,1.062-1.062A1.063,1.063,0,0,1,183.745,366.9Z" transform="translate(-168.3 -332.627)"/>
        <path id="Trazado_917413" data-name="Trazado 917413" d="M355.2,50.817l1.78.973.973,1.78a1.127,1.127,0,0,0,1.977,0l.973-1.78,1.78-.973a1.127,1.127,0,0,0,0-1.977l-1.78-.973-.973-1.78a1.127,1.127,0,0,0-1.977,0l-.973,1.78-1.78.973a1.127,1.127,0,0,0,0,1.977Zm2.429-1.854a1.124,1.124,0,0,0,.448-.448l.865-1.582.865,1.582a1.125,1.125,0,0,0,.448.448l1.582.865-1.582.865a1.124,1.124,0,0,0-.448.448l-.865,1.582-.865-1.582a1.124,1.124,0,0,0-.448-.448l-1.582-.865Z" transform="translate(-326.796 -41.636)"/>
        <path id="Trazado_917414" data-name="Trazado 917414" d="M48.2,141.819l1.78.973.973,1.78a1.127,1.127,0,0,0,1.977,0l.973-1.78,1.78-.973a1.127,1.127,0,0,0,0-1.977l-1.78-.973-.973-1.78a1.127,1.127,0,0,0-1.977,0l-.973,1.78-1.78.973a1.127,1.127,0,0,0,0,1.977Zm2.429-1.854a1.124,1.124,0,0,0,.448-.448l.865-1.582.865,1.582a1.125,1.125,0,0,0,.448.448l1.582.865-1.582.865a1.125,1.125,0,0,0-.448.448l-.865,1.582-.865-1.582a1.124,1.124,0,0,0-.448-.448l-1.582-.865Z" transform="translate(-45.87 -124.909)"/>
        <path id="Trazado_917415" data-name="Trazado 917415" d="M65.491,17.987l-1.315-1.315a1.569,1.569,0,0,0-2.216,0l-.481.481a9.934,9.934,0,0,0-10.323-2.368V7.636h.565a1.913,1.913,0,0,0,1.911-1.911V1.911A1.913,1.913,0,0,0,51.72,0H39.065a1.913,1.913,0,0,0-1.911,1.911V5.725a1.913,1.913,0,0,0,1.911,1.911h.565v7.926a3.6,3.6,0,0,1-.606,2L31.539,28.791a.637.637,0,1,0,1.06.707l7.485-11.227a4.868,4.868,0,0,0,.82-2.709V7.636h1.7v2.9a.637.637,0,0,0,1.274,0v-2.9h3.032v8.826a4.868,4.868,0,0,0,.122,1.084A9.9,9.9,0,0,0,44.5,23.908H39.9l3.158-4.737a4.868,4.868,0,0,0,.82-2.709V13.5a.637.637,0,0,0-1.274,0v2.958a3.6,3.6,0,0,1-.606,2L30.579,35.59a3.166,3.166,0,0,0,2.635,4.923H57.571a3.166,3.166,0,0,0,2.635-4.923l-1.6-2.405a9.945,9.945,0,0,0,1.478-.846l1.539,2.309a4.865,4.865,0,0,1-4.048,7.564H33.214a4.865,4.865,0,0,1-4.048-7.564l1.783-2.674a.637.637,0,0,0-1.06-.707l-1.783,2.674a6.139,6.139,0,0,0,5.108,9.545H57.571a6.139,6.139,0,0,0,5.108-9.545l-1.6-2.4a9.935,9.935,0,0,0,2.969-9.9L65.49,20.2a1.569,1.569,0,0,0,0-2.216ZM39.065,6.362a.638.638,0,0,1-.637-.637V1.911a.638.638,0,0,1,.637-.637H51.72a.638.638,0,0,1,.637.637V5.725a.638.638,0,0,1-.637.637ZM49.881,7.636v7.7a9.967,9.967,0,0,0-1.7,1.114V7.636Zm-13.61,31.6a2.208,2.208,0,0,1,4.229,0ZM59.146,36.3a1.893,1.893,0,0,1-1.575,2.942H41.808a3.481,3.481,0,0,0-6.846,0H33.214A1.893,1.893,0,0,1,31.639,36.3l7.41-11.114h5.5a9.952,9.952,0,0,0,4.742,7.481A2.335,2.335,0,1,0,53.5,34.058v0c.308.029.619.044.934.044a9.9,9.9,0,0,0,2.947-.446Zm-9.04-2.239a1.054,1.054,0,0,1,.354-.789,9.845,9.845,0,0,0,1.747.579,1.041,1.041,0,0,1,.023.21,1.062,1.062,0,0,1-2.123,0ZM64.59,19.3l-8.673,8.673a1.291,1.291,0,0,1-.617.356A1.22,1.22,0,0,1,54.158,28l-4.9-4.9a.293.293,0,0,1,0-.414l1.315-1.315a.293.293,0,0,1,.414,0l3.581,3.581a.637.637,0,0,0,.9,0l1.765-1.765a.637.637,0,1,0-.9-.9l-1.314,1.314-3.131-3.131a1.569,1.569,0,0,0-2.216,0L48.36,21.792a1.567,1.567,0,0,0,0,2.216l4.9,4.9a2.483,2.483,0,0,0,1.761.732,2.535,2.535,0,0,0,.567-.065,2.563,2.563,0,0,0,1.233-.7l6.161-6.161a8.665,8.665,0,1,1-2.4-4.662l-2.139,2.139a.637.637,0,0,0,.9.9l3.52-3.52a.293.293,0,0,1,.414,0l1.315,1.315a.293.293,0,0,1,0,.414Z" transform="translate(-27.06 0)"/>
      </g>
    </g>
  </g>
</svg>
