<svg xmlns="http://www.w3.org/2000/svg" width="77" height="77" viewBox="0 0 77 77">
  <g id="Grupo_1121332" data-name="Grupo 1121332" transform="translate(-1086.051 -7365)">
    <g id="Grupo_1121268" data-name="Grupo 1121268">
      <g id="Grupo_1098742" data-name="Grupo 1098742" transform="translate(1086.051 7365)">
        <rect id="Rect치ngulo_400898" data-name="Rect치ngulo 400898" width="77" height="77" rx="38.5" transform="translate(0 0)" fill="#ccda2d"/>
        <rect id="Rect치ngulo_400907" data-name="Rect치ngulo 400907" width="77" height="77" rx="38.5" transform="translate(0 0)" fill="none"/>
      </g>
      <g id="Grupo_1121267" data-name="Grupo 1121267" transform="translate(1095.051 7324.397)">
        <g id="Grupo_1121262" data-name="Grupo 1121262" transform="translate(0.873 61.444)">
          <g id="Grupo_1121258" data-name="Grupo 1121258" transform="translate(12.342 23.573)">
            <path id="Trazado_919206" data-name="Trazado 919206" d="M124.222,308.19l-6.467,4.912-.185,3.453-.361,6.754h-3.724V311.027l1.789-2.837Z" transform="translate(-113.483 -308.19)" fill="#fee7c9"/>
            <path id="Trazado_919207" data-name="Trazado 919207" d="M124.222,308.19l-6.467,4.912-.185,3.453a9.975,9.975,0,0,1-4.086-1.992v-3.536l1.789-2.837Z" transform="translate(-113.483 -308.19)" fill="#ffd597"/>
          </g>
          <path id="Trazado_919208" data-name="Trazado 919208" d="M102.024,302.527a7.686,7.686,0,0,0,15.3,0Z" transform="translate(-91.016 -279.614)" fill="#fcac8d"/>
          <path id="Trazado_919209" data-name="Trazado 919209" d="M102.021,302.525a7.665,7.665,0,0,0,2.506,4.967l.712-.54a3.766,3.766,0,0,1,2.25-.789,3.632,3.632,0,0,1,1.4.275,8.281,8.281,0,0,0,.841.3.755.755,0,0,1,.234,1.339,7.637,7.637,0,0,1-2.355,1.115,7.691,7.691,0,0,0,9.71-6.663Z" transform="translate(-91.014 -279.612)" fill="#fb946d"/>
          <g id="Grupo_1121259" data-name="Grupo 1121259" transform="translate(31.32 22.834)">
            <path id="Trazado_919210" data-name="Trazado 919210" d="M282.41,301.844,280.339,317.7h-3.886l1.521-15.858Z" transform="translate(-276.453 -301.844)" fill="#fee7c9"/>
            <path id="Trazado_919211" data-name="Trazado 919211" d="M291.064,301.843l-.987,7.558-.206-2.746a1.08,1.08,0,0,0-1.071-1h-.066l-2.485.146.38-3.963h4.437Z" transform="translate(-285.106 -301.843)" fill="#ffd597"/>
          </g>
          <path id="Trazado_919212" data-name="Trazado 919212" d="M96.062,131.75v1.295a1.093,1.093,0,0,1-.433.872L94.3,134.922a1.1,1.1,0,0,1-.484.207l-1.8.295a6.275,6.275,0,0,0-5.2,5.356l-.239,1.771a4.461,4.461,0,0,1-2.857,3.586,3.706,3.706,0,0,0-2.4,3.47v11.812H77.437l-.843-11.22a3.408,3.408,0,0,0-3.6-3.148l-13.31.783q-.227.017-.454.017a5.989,5.989,0,0,1-2.279-.452,5.969,5.969,0,0,0-5.889.764l-4.014,3.049L46.5,161.418H42.23v-11.6a2.375,2.375,0,0,1,.367-1.268l1.672-2.652V133.536a6.874,6.874,0,0,1,6.893-6.873l1.153,0,9.551.027,17.766.05,6.769-1.782,1.937.314a1.093,1.093,0,0,1,.826.638l.614,1.393,5.76,3.508a1.1,1.1,0,0,1,.525.935Z" transform="translate(-38.186 -122.726)" fill="#fff2e3"/>
          <g id="Grupo_1121260" data-name="Grupo 1121260" transform="translate(14.129 3.94)">
            <path id="Trazado_919213" data-name="Trazado 919213" d="M138.381,139.629l-3.94,3.938a1.163,1.163,0,0,1-1.647,0L128.83,139.6Z" transform="translate(-128.83 -139.602)" fill="#fee7c9"/>
          </g>
          <path id="Trazado_919214" data-name="Trazado 919214" d="M368.26,131.752v1.3a1.094,1.094,0,0,1-.434.872l-1.325,1a1.1,1.1,0,0,1-.484.208l-1.8.295a6.273,6.273,0,0,0-5.2,5.355l-.238,1.771a4.466,4.466,0,0,1-2.857,3.586,3.706,3.706,0,0,0-2.4,3.47V161.42H350.3V149.608a3.707,3.707,0,0,1,2.4-3.47,4.462,4.462,0,0,0,2.856-3.586l.239-1.771a6.272,6.272,0,0,1,5.2-5.355l1.8-.295a1.1,1.1,0,0,0,.484-.208l1.325-1a1.094,1.094,0,0,0,.434-.872v-1.3a1.094,1.094,0,0,0-.526-.935l-5.759-3.508-.614-1.393a1.1,1.1,0,0,0-.779-.628l1.233-.324,1.936.315a1.1,1.1,0,0,1,.825.638l.614,1.393,5.76,3.508a1.1,1.1,0,0,1,.525.935Z" transform="translate(-310.383 -122.728)" fill="#fee7c9"/>
          <path id="Trazado_919215" data-name="Trazado 919215" d="M289.837,131.754v1.3a1.094,1.094,0,0,1-.434.872l-1.325,1a1.1,1.1,0,0,1-.484.208l-1.8.295a6.274,6.274,0,0,0-5.2,5.356l-.238,1.771a4.463,4.463,0,0,1-2.221,3.287A5.955,5.955,0,0,1,277,141.68a1.813,1.813,0,0,0-1.544-2l-.076-.01a5.172,5.172,0,0,0-4.046,1.217,5.944,5.944,0,0,1-9.74-3.785,6.046,6.046,0,0,1,1.686-4.942c1.831-1.941,1.446-4.94,1.624-5.436l8.506.024,6.769-1.781,1.936.315a1.1,1.1,0,0,1,.825.638l.614,1.393,5.76,3.508a1.094,1.094,0,0,1,.525.935Z" transform="translate(-231.96 -122.73)" fill="#3f5959"/>
          <path id="Trazado_919216" data-name="Trazado 919216" d="M407.29,131.753v1.3a1.094,1.094,0,0,1-.434.872l-1.325,1a1.1,1.1,0,0,1-.484.208l-1.8.295a6.275,6.275,0,0,0-5.2,5.355l-.238,1.771a4.463,4.463,0,0,1-2.221,3.287,5.9,5.9,0,0,1-1.113-2.709,4.533,4.533,0,0,0,.117-.578l.239-1.771a6.272,6.272,0,0,1,5.2-5.355l1.8-.295a1.1,1.1,0,0,0,.484-.208l1.325-1a1.094,1.094,0,0,0,.434-.872v-1.3a1.094,1.094,0,0,0-.526-.935l-5.759-3.508-.614-1.393a1.093,1.093,0,0,0-.778-.628l1.232-.324,1.936.315a1.1,1.1,0,0,1,.825.638l.614,1.393,5.76,3.508A1.094,1.094,0,0,1,407.29,131.753Z" transform="translate(-349.414 -122.729)" fill="#384848"/>
          <path id="Trazado_919217" data-name="Trazado 919217" d="M468.458,164.115v1.3a1.094,1.094,0,0,1-.434.872l-1.325,1a1.1,1.1,0,0,1-.484.208l-.654.107c.462-3.47-1.853-2.229-1.853-4.429,0-.936.789-1.377,1.618-1.581l2.608,1.588A1.1,1.1,0,0,1,468.458,164.115Z" transform="translate(-410.582 -155.091)" fill="#fcac8d"/>
          <g id="Grupo_1121261" data-name="Grupo 1121261">
            <path id="Trazado_919218" data-name="Trazado 919218" d="M381.492,107.195a3.218,3.218,0,0,1,.286,3.057,1.076,1.076,0,0,1-.974.652,3.222,3.222,0,0,1-3-4.487,1.076,1.076,0,0,1,.974-.652A3.219,3.219,0,0,1,381.492,107.195Z" transform="translate(-334.45 -105.764)" fill="#3f5959"/>
            <path id="Trazado_919219" data-name="Trazado 919219" d="M8.274,259.782a.774.774,0,0,1-.774-.774V256.03a2.4,2.4,0,0,1,2.4-2.4.774.774,0,0,1,.774.774v2.978A2.4,2.4,0,0,1,8.274,259.782Z" transform="translate(-7.5 -236.412)" fill="#3f5959"/>
            <path id="Trazado_919220" data-name="Trazado 919220" d="M113.184,189.785a1.358,1.358,0,0,0-.659-.031,1.62,1.62,0,0,1-1.636-.625,2.373,2.373,0,0,0-1.914-1.069c-1.414,0-2.56,1.425-2.56,3.184s1.146,3.184,2.56,3.184a2.2,2.2,0,0,0,1.365-.491,1.621,1.621,0,0,1,1.571-.287q.043.016.088.03a2.084,2.084,0,0,0,1.184-3.894Z" transform="translate(-94.896 -178.476)" fill="#3f5959"/>
          </g>
          <path id="Trazado_919221" data-name="Trazado 919221" d="M113.48,419.119v1.935a.583.583,0,0,0,.583.583h4.332a.583.583,0,0,0,.583-.583v-1.286a.583.583,0,0,0-.159-.4l-1.076-1.141a.583.583,0,0,0-.511-.176l-3.255.492A.583.583,0,0,0,113.48,419.119Z" transform="translate(-101.138 -381.678)" fill="#384848"/>
          <path id="Trazado_919222" data-name="Trazado 919222" d="M342.97,419.119v1.935a.583.583,0,0,0,.583.583h4.332a.583.583,0,0,0,.583-.583v-1.286a.583.583,0,0,0-.159-.4l-1.077-1.141a.583.583,0,0,0-.511-.176l-3.255.492A.583.583,0,0,0,342.97,419.119Z" transform="translate(-303.904 -381.678)" fill="#3f5959"/>
          <path id="Trazado_919223" data-name="Trazado 919223" d="M276.453,419.119v1.935a.583.583,0,0,0,.583.583h4.332a.583.583,0,0,0,.583-.583v-1.286a.583.583,0,0,0-.159-.4l-1.076-1.141a.583.583,0,0,0-.511-.176l-3.255.492A.583.583,0,0,0,276.453,419.119Z" transform="translate(-245.133 -381.678)" fill="#384848"/>
          <path id="Trazado_919224" data-name="Trazado 919224" d="M42.229,419.119v1.935a.583.583,0,0,0,.583.583h4.332a.583.583,0,0,0,.583-.583v-1.286a.583.583,0,0,0-.159-.4l-1.076-1.141a.583.583,0,0,0-.511-.176l-3.255.492A.583.583,0,0,0,42.229,419.119Z" transform="translate(-38.185 -381.678)" fill="#3f5959"/>
        </g>
        <g id="Grupo_1121266" data-name="Grupo 1121266" transform="translate(0 55.603)">
          <g id="Grupo_1121263" data-name="Grupo 1121263" transform="translate(13.215 0.873)">
            <path id="Trazado_919225" data-name="Trazado 919225" d="M125.636,68.6a3.221,3.221,0,0,0-4.555-4.555l-1.021,1.021-1.021-1.021a3.283,3.283,0,0,0-3.966-.393l-.106.071a3.051,3.051,0,0,0-.483,4.877l4.753,4.753a1.165,1.165,0,0,0,1.647,0Z" transform="translate(-113.484 -63.102)" fill="#fb6a3b"/>
          </g>
          <g id="Grupo_1121264" data-name="Grupo 1121264" transform="translate(18.204 0.873)">
            <path id="Trazado_919226" data-name="Trazado 919226" d="M163.484,68.6l-4.754,4.752a1.165,1.165,0,0,1-1.647,0l-.764-.764,4.475-4.474a3.222,3.222,0,0,0,0-4.556,3.075,3.075,0,0,0-.416-.349,3.221,3.221,0,0,1,3.1,5.391Z" transform="translate(-156.32 -63.102)" fill="#fb5532"/>
          </g>
          <g id="Grupo_1121265" data-name="Grupo 1121265" transform="translate(0 0)">
            <path id="Trazado_919227" data-name="Trazado 919227" d="M14.138,85.535a10.661,10.661,0,0,0-.915.649L9.208,89.234a.873.873,0,0,0-.344.649l-.379,7.078-2.694.407v-2.6a.873.873,0,0,0-1.747,0v6.051A1.458,1.458,0,0,0,5.5,102.276H9.832a1.458,1.458,0,0,0,1.456-1.456V99.534a1.451,1.451,0,0,0-.4-1l-.7-.744.4-7.411,1.755-1.333V100.82a1.458,1.458,0,0,0,1.456,1.456h4.332a1.458,1.458,0,0,0,1.456-1.456V99.534a1.452,1.452,0,0,0-.4-1l-1.076-1.141a1.459,1.459,0,0,0-.144-.132l.278-5.184a8.68,8.68,0,0,0,1.285.1,8.54,8.54,0,0,0,7.8-5.04l5.259-.309-.116,1.21a.873.873,0,0,0,.786.953c.028,0,.056,0,.084,0a.874.874,0,0,0,.868-.79l.142-1.48,1.377-.081a2.507,2.507,0,0,1,1.2.225L35.61,96.983l-2.27.343.476-4.961a.873.873,0,1,0-1.739-.167l-.571,5.971a1.459,1.459,0,0,0-.186.715v1.935a1.458,1.458,0,0,0,1.456,1.456h4.332a1.458,1.458,0,0,0,1.456-1.456V99.534a1.451,1.451,0,0,0-.4-1l-.877-.929,1.122-8.593s.71,9.417.716,9.449c-.04.134-.063,2.359-.063,2.359a1.458,1.458,0,0,0,1.456,1.456h4.332a1.458,1.458,0,0,0,1.456-1.456V99.534a1.452,1.452,0,0,0-.4-1l-1.03-1.091V88.325a2.846,2.846,0,0,1,1.838-2.653,5.331,5.331,0,0,0,3.416-4.287l.238-1.771A5.372,5.372,0,0,1,54.854,75l1.8-.295a1.977,1.977,0,0,0,.869-.373l1.326-1a1.978,1.978,0,0,0,.779-1.568v-1.3a1.979,1.979,0,0,0-.944-1.68l-5.525-3.365-.5-1.142a1.961,1.961,0,0,0-1.485-1.148l-1.936-.315a.871.871,0,0,0-.333.011,4.092,4.092,0,0,0-3.709-2.258,1.946,1.946,0,0,0-1.767,1.183,4.087,4.087,0,0,0-.213,2.57l-1,.263-1.286-.007h0a.873.873,0,0,0,0,1.747l1.4.007h0a.874.874,0,0,0,.222-.029L44,65.924a4.1,4.1,0,0,0,.588.6.873.873,0,1,0,1.11-1.349,2.344,2.344,0,0,1-.666-2.733.2.2,0,0,1,.18-.121h.028a2.348,2.348,0,0,1,2.186,3.209.873.873,0,1,0,1.626.639A4.1,4.1,0,0,0,49.33,64.6l1.556.253a.22.22,0,0,1,.167.129l.614,1.393a.874.874,0,0,0,.345.393l1.822,1.109a2.208,2.208,0,0,0-.706,1.645,2.521,2.521,0,0,0,1.253,2.293,1.291,1.291,0,0,1,.663,1.384l-.472.077a7.109,7.109,0,0,0-5.926,6.1l-.239,1.771A3.586,3.586,0,0,1,47.3,83.3a5.046,5.046,0,0,1-.545-2.289,5.131,5.131,0,0,1,.03-.556,2.67,2.67,0,0,0-2.317-2.929,5.734,5.734,0,0,0-4.724,1.356,5.07,5.07,0,0,1-8.37-3.175,5.167,5.167,0,0,1,1.455-4.234,7.9,7.9,0,0,0,1.788-5.162l2.119.006h0a.873.873,0,0,0,0-1.747l-12.7-.034,1.943-1.943a4.094,4.094,0,1,0-5.79-5.79l-.4.4-.4-.4a4.132,4.132,0,0,0-5.068-.5l-.106.071a3.923,3.923,0,0,0-.616,6.221l1.92,1.92-1.666,0h-.023A7.694,7.694,0,0,0,8.36,66.769c-.081.081-.159.163-.236.247A5.777,5.777,0,0,0,3.185,72.73v5.062A3.274,3.274,0,0,0,0,81.062v2.978a1.65,1.65,0,0,0,1.648,1.648,3.275,3.275,0,0,0,3.271-3.271l.013-9.686A4.032,4.032,0,0,1,6.6,69.463a7.741,7.741,0,0,0-.518,2.791V84.369L4.545,86.807a3.247,3.247,0,0,0-.5,1.735v2.044a.873.873,0,0,0,1.747,0V88.542a1.5,1.5,0,0,1,.232-.8L7.7,85.088a.873.873,0,0,0,.135-.466V72.254a6,6,0,0,1,6-6h.017l3.422.009,1.081,1.081a2.04,2.04,0,0,0,2.882,0L22.3,66.277l10.565.028a6.172,6.172,0,0,1-1.31,3.968,6.884,6.884,0,0,0-1.917,5.651,6.817,6.817,0,0,0,11.255,4.27,4.048,4.048,0,0,1,3.3-.944l.045.006a.907.907,0,0,1,.806,1.007A6.887,6.887,0,0,0,45,81.01a6.784,6.784,0,0,0,.778,3.164,4.6,4.6,0,0,0-2.646,4.151v8.692l-2.344.354-.64-8.521A4.3,4.3,0,0,0,35.632,84.9l-13.311.782h-.015a5.118,5.118,0,0,1-2.333-.371,6.81,6.81,0,0,0-2.283-.506,6.349,6.349,0,0,0,1.258-3.093l.083-.7a.873.873,0,1,0-1.734-.208l-.083.7a4.605,4.605,0,0,1-1.905,3.2ZM3.172,82.416a1.527,1.527,0,0,1-1.425,1.521V81.062A1.527,1.527,0,0,1,3.172,79.54ZM20,66.11a.291.291,0,0,1-.412,0l-4.753-4.753a2.181,2.181,0,0,1,.35-3.533l.106-.071a2.216,2.216,0,0,1,1.226-.348,2.337,2.337,0,0,1,1.638.632l1.021,1.021a.873.873,0,0,0,1.235,0l1.021-1.021a2.348,2.348,0,0,1,3.32,3.32ZM9.541,100.53H5.791V99.135L8.649,98.7l.893.947Zm8.3,0h-3.75V99.135l2.858-.432.893.947ZM16.23,97.044l-2.142.324V90.226a8.469,8.469,0,0,0,2.432,1.406Zm3.3-6.617a6.772,6.772,0,0,1-5.439-2.709l.187-.142a5.117,5.117,0,0,1,5.028-.652,6.876,6.876,0,0,0,3.124.5l2.86-.168a6.8,6.8,0,0,1-5.76,3.173Zm17.287,10.1h-3.75V99.135l2.858-.432.893.947Zm7.746,0h-3.75V99.135L43.67,98.7l.893.947ZM57.877,71.763a.222.222,0,0,1-.087.176l-1.02.773A2.863,2.863,0,0,0,55.393,70.4c-.4-.284-.519-.37-.519-.87,0-.126,0-.4.623-.632l2.274,1.385a.222.222,0,0,1,.106.189Z" transform="translate(0 -55.603)"/>
            <path id="Trazado_919228" data-name="Trazado 919228" d="M104.253,188a.76.76,0,0,1,.721-.157c.047.018.094.034.144.049a2.734,2.734,0,0,0,3.247-2.053,3.169,3.169,0,0,0-.065-2.1,2.372,2.372,0,0,0-1.49-1.417,2.217,2.217,0,0,0-1.08-.053.749.749,0,0,1-.758-.276,3.24,3.24,0,0,0-2.624-1.435c-1.893,0-3.433,1.82-3.433,4.057s1.54,4.057,3.433,4.057A3.065,3.065,0,0,0,104.253,188Zm-3.592-3.38c0-1.252.772-2.31,1.687-2.31a1.536,1.536,0,0,1,1.2.7,2.5,2.5,0,0,0,2.514.974.483.483,0,0,1,.237.01.652.652,0,0,1,.377.4,1.44,1.44,0,0,1,.015.937c-.2.655-.723.994-1.067.89l-.031-.011a2.475,2.475,0,0,0-2.423.416,1.318,1.318,0,0,1-.826.3C101.433,186.926,100.661,185.868,100.661,184.616Z" transform="translate(-87.395 -166.008)"/>
          </g>
        </g>
      </g>
    </g>
  </g>
</svg>
