<svg xmlns="http://www.w3.org/2000/svg" width="91" height="91" viewBox="0 0 91 91">
  <g id="Grupo_1120096" data-name="Grupo 1120096" transform="translate(-617.051 -4676)">
    <circle id="Elipse_11768" data-name="Elipse 11768" cx="45.5" cy="45.5" r="45.5" transform="translate(617.051 4676)" fill="#ccda2d"/>
    <g id="_6._Signature" data-name="6. Signature" transform="translate(634.051 4693)">
      <rect id="Rectángulo_405570" data-name="Rectángulo 405570" width="39" height="55" rx="4" transform="translate(1 0.391)" fill="#f6f6f6"/>
      <path id="Trazado_918256" data-name="Trazado 918256" d="M45.006,465.762H9.762A1.762,1.762,0,0,1,8,464v2.643a1.762,1.762,0,0,0,1.762,1.762H45.006a1.762,1.762,0,0,0,1.762-1.762V464A1.762,1.762,0,0,1,45.006,465.762Z" transform="translate(-7.119 -412.896)" fill="#dcdcdc"/>
      <path id="Trazado_918257" data-name="Trazado 918257" d="M37.887,56.391H2.643A2.643,2.643,0,0,1,0,53.747V2.643A2.643,2.643,0,0,1,2.643,0H37.887a2.643,2.643,0,0,1,2.643,2.643V14.1a.881.881,0,0,1-1.762,0V2.643a.881.881,0,0,0-.881-.881H2.643a.881.881,0,0,0-.881.881v51.1a.881.881,0,0,0,.881.881H37.887a.881.881,0,0,0,.881-.881V46.7a.881.881,0,0,1,1.762,0v7.049A2.643,2.643,0,0,1,37.887,56.391Z"/>
      <path id="Trazado_918258" data-name="Trazado 918258" d="M352.881,192.671a.881.881,0,0,1-.881-.881V168.881a.881.881,0,0,1,1.762,0V191.79A.881.881,0,0,1,352.881,192.671Z" transform="translate(-313.231 -149.497)"/>
      <path id="Trazado_918259" data-name="Trazado 918259" d="M77.076,193.762h-28.2a.881.881,0,0,1,0-1.762h28.2a.881.881,0,0,1,0,1.762Z" transform="translate(-42.713 -170.854)"/>
      <path id="Trazado_918260" data-name="Trazado 918260" d="M77.076,233.762h-28.2a.881.881,0,0,1,0-1.762h28.2a.881.881,0,0,1,0,1.762Z" transform="translate(-42.713 -206.448)"/>
      <path id="Trazado_918261" data-name="Trazado 918261" d="M77.076,273.762h-28.2a.881.881,0,0,1,0-1.762h28.2a.881.881,0,0,1,0,1.762Z" transform="translate(-42.713 -242.042)"/>
      <path id="Trazado_918262" data-name="Trazado 918262" d="M77.076,313.762h-28.2a.881.881,0,0,1,0-1.762h28.2a.881.881,0,0,1,0,1.762Z" transform="translate(-42.713 -277.637)"/>
      <path id="Trazado_918263" data-name="Trazado 918263" d="M77.076,353.762h-28.2a.881.881,0,0,1,0-1.762h28.2a.881.881,0,0,1,0,1.762Z" transform="translate(-42.713 -313.231)"/>
      <path id="Trazado_918264" data-name="Trazado 918264" d="M464,256h4.406v14.979H464Z" transform="translate(-412.896 -227.805)" fill="#a8edfd"/>
      <path id="Trazado_918265" data-name="Trazado 918265" d="M464,368h4.406v2.643H464Z" transform="translate(-412.896 -327.469)" fill="#8bd4de"/>
      <path id="Trazado_918266" data-name="Trazado 918266" d="M461.287,264.741h-4.406a.881.881,0,0,1-.881-.881V248.881a.881.881,0,0,1,.881-.881h4.406a.881.881,0,0,1,.881.881V263.86A.881.881,0,0,1,461.287,264.741Zm-3.524-1.762h2.643V249.762h-2.643Z" transform="translate(-405.777 -220.686)"/>
      <path id="Trazado_918267" data-name="Trazado 918267" d="M212.744,243.051c-4.866,10.427-4.733,10.166-4.744,10.166a3.735,3.735,0,0,0,4.241-1.4l2.043-2.919a8.5,8.5,0,0,1,6.932-3.609,2.643,2.643,0,0,1,0,5.287h-3.524a4.406,4.406,0,0,0-4.406,4.406h8.446a3.009,3.009,0,0,1,2.126.881,3.009,3.009,0,0,0,2.127.882h5.974a3.022,3.022,0,0,0,1.346-.317l2.889-1.445V243.524h-1.032a6.018,6.018,0,0,1-4.254-1.762A6.017,6.017,0,0,0,226.654,240h-9.119a5.287,5.287,0,0,0-4.791,3.051Z" transform="translate(-185.091 -213.567)" fill="#e0c3aa"/>
      <path id="Trazado_918268" data-name="Trazado 918268" d="M200.592,246.933a.881.881,0,0,1-.52-1.212l4.744-10.166A6.191,6.191,0,0,1,210.405,232h9.119a6.853,6.853,0,0,1,4.878,2.02,5.1,5.1,0,0,0,3.635,1.5h1.029a.881.881,0,0,1,.881.881v5.287a.881.881,0,1,1-1.762,0v-4.406h-.151a6.853,6.853,0,0,1-4.878-2.02,5.1,5.1,0,0,0-3.635-1.5H210.4a4.422,4.422,0,0,0-3.992,2.542l-4.243,9.1a2.87,2.87,0,0,0,2.223-1.212l2.044-2.92a9.352,9.352,0,0,1,7.653-3.986,3.524,3.524,0,0,1,3.524,3.524.881.881,0,0,1-1.762,0,1.762,1.762,0,0,0-1.762-1.762,7.581,7.581,0,0,0-6.209,3.232l-2.045,2.92a4.645,4.645,0,0,1-5.241,1.732Z" transform="translate(-177.962 -206.448)"/>
      <path id="Trazado_918269" data-name="Trazado 918269" d="M0,0H5.287V26.433H0Z" transform="matrix(0.857, 0.516, -0.516, 0.857, 37.046, 20.762)" fill="#6fc3e2"/>
      <path id="Trazado_918270" data-name="Trazado 918270" d="M209.573,207.386l-4.53-2.726a.881.881,0,0,1-.3-1.212l13.63-22.645a.881.881,0,0,1,1.212-.3l4.53,2.726a.881.881,0,0,1,.3,1.212l-13.633,22.645a.881.881,0,0,1-1.208.3Zm-2.864-3.781,3.014,1.817,12.721-21.139-3.02-1.817Z" transform="translate(-182.08 -160.509)"/>
      <path id="Trazado_918271" data-name="Trazado 918271" d="M208.9,394.01l-.46,5.893,4.99-3.168Z" transform="translate(-185.483 -350.615)" fill="#a6806f"/>
      <path id="Trazado_918272" data-name="Trazado 918272" d="M200.438,392.72l.461-5.892a.881.881,0,0,1,1.333-.686l4.53,2.726a.881.881,0,0,1,.018,1.5l-4.991,3.166a.881.881,0,0,1-1.35-.813Zm2.107-4.334-.213,2.715,2.3-1.453Z" transform="translate(-178.36 -343.5)"/>
      <path id="Trazado_918273" data-name="Trazado 918273" d="M266.573,312a2.643,2.643,0,0,1-2.643,2.643h-3.524A4.406,4.406,0,0,0,256,319.049h8.446a3.009,3.009,0,0,1,2.126.881,3.009,3.009,0,0,0,2.127.882h5.974a3.022,3.022,0,0,0,1.346-.317l2.889-1.445v-6.168" transform="translate(-227.805 -277.637)" fill="#e0c3aa"/>
      <path id="Trazado_918274" data-name="Trazado 918274" d="M274.674,353.762H268.7a3.008,3.008,0,0,1-2.126-.881,3.009,3.009,0,0,0-2.127-.882h-7.565a4.39,4.39,0,0,0-.881,2.643h8.446a3.008,3.008,0,0,1,2.126.881,3.009,3.009,0,0,0,2.127.882h5.974a3.022,3.022,0,0,0,1.346-.317l2.889-1.445V352l-2.889,1.445A3.022,3.022,0,0,1,274.674,353.762Z" transform="translate(-227.805 -313.231)" fill="#d0a37f"/>
      <path id="Trazado_918275" data-name="Trazado 918275" d="M267.555,314.573h-5.974a3.864,3.864,0,0,1-2.753-1.139,2.109,2.109,0,0,0-1.5-.623h-8.446a.881.881,0,0,1-.881-.881,5.292,5.292,0,0,1,5.287-5.287h3.524a1.762,1.762,0,0,0,1.762-1.762.881.881,0,0,1,1.762,0,3.524,3.524,0,0,1-3.524,3.524h-3.524a3.531,3.531,0,0,0-3.414,2.643h7.454a3.864,3.864,0,0,1,2.753,1.139,2.109,2.109,0,0,0,1.5.623h5.974a2.147,2.147,0,0,0,.952-.22l2.4-1.2v-5.624a.881.881,0,0,1,1.762,0v6.168a.881.881,0,0,1-.487.789l-2.89,1.444A3.9,3.9,0,0,1,267.555,314.573Z" transform="translate(-220.686 -270.518)"/>
      <path id="Trazado_918276" data-name="Trazado 918276" d="M340.907,163.419a2.643,2.643,0,0,0-3.628.9l-.909,1.51,4.53,2.726.909-1.51A2.643,2.643,0,0,0,340.907,163.419Z" transform="translate(-299.323 -145.083)" fill="#5f79a5"/>
      <path id="Trazado_918277" data-name="Trazado 918277" d="M333.323,162.188l-4.53-2.726a.881.881,0,0,1-.3-1.212l.909-1.51a3.525,3.525,0,0,1,6.04,3.635l-.909,1.51A.881.881,0,0,1,333.323,162.188Zm-2.864-3.781,3.02,1.817.455-.754a1.765,1.765,0,1,0-3.024-1.822Z" transform="translate(-292.2 -137.958)"/>
      <path id="Trazado_918278" data-name="Trazado 918278" d="M112.89,443.513a.881.881,0,0,1-.7-1.41l.73-.974a2.853,2.853,0,0,1,4.566,0,2.864,2.864,0,0,1,3.817.621h11.855a.881.881,0,1,1,0,1.762H120.82a.881.881,0,0,1-.789-.487,1.087,1.087,0,0,0-1.947,0,.881.881,0,0,1-1.577,0l-.336-.673a1.088,1.088,0,0,0-1.849-.162l-.73.974A.881.881,0,0,1,112.89,443.513Z" transform="translate(-99.673 -391.527)"/>
      <path id="Trazado_918279" data-name="Trazado 918279" d="M56,56H84.2v7.049H56Z" transform="translate(-49.832 -49.832)" fill="#ead590"/>
      <path id="Trazado_918280" data-name="Trazado 918280" d="M56,96H84.2v2.643H56Z" transform="translate(-49.832 -85.427)" fill="#f1cb66"/>
      <path id="Trazado_918281" data-name="Trazado 918281" d="M77.076,56.811h-28.2A.881.881,0,0,1,48,55.93V48.881A.881.881,0,0,1,48.881,48h28.2a.881.881,0,0,1,.881.881V55.93A.881.881,0,0,1,77.076,56.811ZM49.762,55.049H76.2V49.762H49.762Z" transform="translate(-42.713 -42.713)"/>
      <path id="Trazado_918282" data-name="Trazado 918282" d="M61.217,153.762H48.881a.881.881,0,0,1,0-1.762H61.217a.881.881,0,0,1,0,1.762Z" transform="translate(-42.713 -135.259)"/>
    </g>
  </g>
</svg>
