<svg xmlns="http://www.w3.org/2000/svg" width="77" height="77" viewBox="0 0 77 77">
  <g id="Grupo_1121379" data-name="Grupo 1121379" transform="translate(-4819.976 4201.68)">
    <g id="Grupo_1098742" data-name="Grupo 1098742" transform="translate(4819.976 -4201.68)">
      <rect id="Rectángulo_400898" data-name="Rectángulo 400898" width="77" height="77" rx="38.5" transform="translate(0 0)" fill="#ccda2d"/>
      <rect id="Rectángulo_400907" data-name="Rectángulo 400907" width="77" height="77" rx="38.5" transform="translate(0 0)" fill="none"/>
    </g>
    <g id="_6._Signature" data-name="6. Signature" transform="translate(4838 -4188.131)">
      <rect id="Rectángulo_405613" data-name="Rectángulo 405613" width="34" height="48" rx="2" transform="translate(1 0.902)" fill="#f6f6f6"/>
      <path id="Trazado_919435" data-name="Trazado 919435" d="M40.748,465.559H9.559A1.559,1.559,0,0,1,8,464v2.339A1.559,1.559,0,0,0,9.559,467.9H40.748a1.559,1.559,0,0,0,1.559-1.559V464A1.559,1.559,0,0,1,40.748,465.559Z" transform="translate(-7.22 -418.776)" fill="#dcdcdc"/>
      <path id="Trazado_919436" data-name="Trazado 919436" d="M33.528,49.9H2.339A2.339,2.339,0,0,1,0,47.563V2.339A2.339,2.339,0,0,1,2.339,0H33.528a2.339,2.339,0,0,1,2.339,2.339V12.475a.78.78,0,0,1-1.559,0V2.339a.78.78,0,0,0-.78-.78H2.339a.78.78,0,0,0-.78.78V47.563a.78.78,0,0,0,.78.78H33.528a.78.78,0,0,0,.78-.78V41.325a.78.78,0,1,1,1.559,0v6.238A2.339,2.339,0,0,1,33.528,49.9Z"/>
      <path id="Trazado_919437" data-name="Trazado 919437" d="M352.78,189.832a.78.78,0,0,1-.78-.78V168.78a.78.78,0,0,1,1.559,0v20.273A.78.78,0,0,1,352.78,189.832Z" transform="translate(-317.692 -151.626)"/>
      <path id="Trazado_919438" data-name="Trazado 919438" d="M73.731,193.559H48.78a.78.78,0,1,1,0-1.559H73.731a.78.78,0,1,1,0,1.559Z" transform="translate(-43.322 -173.287)"/>
      <path id="Trazado_919439" data-name="Trazado 919439" d="M73.731,233.559H48.78a.78.78,0,1,1,0-1.559H73.731a.78.78,0,1,1,0,1.559Z" transform="translate(-43.322 -209.388)"/>
      <path id="Trazado_919440" data-name="Trazado 919440" d="M73.731,273.559H48.78a.78.78,0,0,1,0-1.559H73.731a.78.78,0,0,1,0,1.559Z" transform="translate(-43.322 -245.49)"/>
      <path id="Trazado_919441" data-name="Trazado 919441" d="M73.731,313.559H48.78a.78.78,0,0,1,0-1.559H73.731a.78.78,0,0,1,0,1.559Z" transform="translate(-43.322 -281.591)"/>
      <path id="Trazado_919442" data-name="Trazado 919442" d="M73.731,353.559H48.78a.78.78,0,0,1,0-1.559H73.731a.78.78,0,0,1,0,1.559Z" transform="translate(-43.322 -317.692)"/>
      <path id="Trazado_919443" data-name="Trazado 919443" d="M464,256h3.9v13.255H464Z" transform="translate(-418.776 -231.049)" fill="#a8edfd"/>
      <path id="Trazado_919444" data-name="Trazado 919444" d="M464,368h3.9v2.339H464Z" transform="translate(-418.776 -332.133)" fill="#8bd4de"/>
      <path id="Trazado_919445" data-name="Trazado 919445" d="M460.678,262.815h-3.9a.78.78,0,0,1-.78-.78V248.78a.78.78,0,0,1,.78-.78h3.9a.78.78,0,0,1,.78.78v13.255A.78.78,0,0,1,460.678,262.815Zm-3.119-1.559H459.9v-11.7h-2.339Z" transform="translate(-411.556 -223.829)"/>
      <path id="Trazado_919446" data-name="Trazado 919446" d="M212.2,242.7c-4.306,9.227-4.188,9-4.2,9a3.305,3.305,0,0,0,3.753-1.241l1.808-2.583a7.524,7.524,0,0,1,6.134-3.194,2.339,2.339,0,1,1,0,4.678h-3.119a3.9,3.9,0,0,0-3.9,3.9h7.475a2.662,2.662,0,0,1,1.882.779,2.663,2.663,0,0,0,1.882.78H229.2a2.675,2.675,0,0,0,1.191-.281l2.556-1.279V243.119h-.913a5.325,5.325,0,0,1-3.765-1.559,5.324,5.324,0,0,0-3.765-1.56h-8.07a4.678,4.678,0,0,0-4.24,2.7Z" transform="translate(-187.727 -216.608)" fill="#e0c3aa"/>
      <path id="Trazado_919447" data-name="Trazado 919447" d="M200.523,245.215a.78.78,0,0,1-.46-1.072l4.2-9A5.478,5.478,0,0,1,209.207,232h8.07a6.064,6.064,0,0,1,4.317,1.788,4.512,4.512,0,0,0,3.216,1.331h.91a.78.78,0,0,1,.78.78v4.678a.78.78,0,0,1-1.559,0v-3.9h-.134a6.064,6.064,0,0,1-4.317-1.787,4.512,4.512,0,0,0-3.216-1.331H209.2a3.913,3.913,0,0,0-3.533,2.249l-3.754,8.053a2.54,2.54,0,0,0,1.967-1.072l1.809-2.584a8.276,8.276,0,0,1,6.773-3.527,3.119,3.119,0,0,1,3.119,3.119.78.78,0,1,1-1.559,0,1.559,1.559,0,0,0-1.559-1.559,6.709,6.709,0,0,0-5.494,2.86l-1.81,2.584A4.11,4.11,0,0,1,200.523,245.215Z" transform="translate(-180.497 -209.388)"/>
      <path id="Trazado_919448" data-name="Trazado 919448" d="M0,0H4.678V23.391H0Z" transform="matrix(0.857, 0.516, -0.516, 0.857, 32.783, 18.373)" fill="#6fc3e2"/>
      <path id="Trazado_919449" data-name="Trazado 919449" d="M209,204.278l-4.009-2.412a.78.78,0,0,1-.266-1.072l12.061-20.04a.78.78,0,0,1,1.072-.266l4.009,2.412a.78.78,0,0,1,.266,1.072l-12.064,20.04A.78.78,0,0,1,209,204.278Zm-2.534-3.346,2.668,1.608,11.257-18.706-2.672-1.608Z" transform="translate(-184.673 -162.795)"/>
      <path id="Trazado_919450" data-name="Trazado 919450" d="M208.847,394.01l-.407,5.215,4.416-2.8Z" transform="translate(-188.124 -355.608)" fill="#a6806f"/>
      <path id="Trazado_919451" data-name="Trazado 919451" d="M200.438,391.948l.408-5.214a.78.78,0,0,1,1.179-.607l4.009,2.412a.78.78,0,0,1,.016,1.326l-4.417,2.8a.78.78,0,0,1-1.195-.719Zm1.865-3.835-.188,2.4,2.034-1.286Z" transform="translate(-180.9 -348.392)"/>
      <path id="Trazado_919452" data-name="Trazado 919452" d="M265.357,312a2.339,2.339,0,0,1-2.339,2.339H259.9a3.9,3.9,0,0,0-3.9,3.9h7.475a2.662,2.662,0,0,1,1.882.779,2.663,2.663,0,0,0,1.882.78h5.286a2.674,2.674,0,0,0,1.191-.281l2.557-1.279V312.78" transform="translate(-231.049 -281.591)" fill="#e0c3aa"/>
      <path id="Trazado_919453" data-name="Trazado 919453" d="M272.525,353.559h-5.286a2.662,2.662,0,0,1-1.882-.779,2.663,2.663,0,0,0-1.882-.78H256.78a3.885,3.885,0,0,0-.78,2.339h7.475a2.662,2.662,0,0,1,1.882.779,2.663,2.663,0,0,0,1.882.78h5.286a2.675,2.675,0,0,0,1.191-.281l2.556-1.279V352l-2.556,1.279A2.675,2.675,0,0,1,272.525,353.559Z" transform="translate(-231.049 -317.692)" fill="#d0a37f"/>
      <path id="Trazado_919454" data-name="Trazado 919454" d="M265.3,313.357h-5.286a3.419,3.419,0,0,1-2.437-1.008,1.867,1.867,0,0,0-1.327-.552H248.78a.78.78,0,0,1-.78-.78,4.683,4.683,0,0,1,4.678-4.678H255.8a1.559,1.559,0,0,0,1.559-1.559.78.78,0,0,1,1.559,0A3.119,3.119,0,0,1,255.8,307.9h-3.119a3.125,3.125,0,0,0-3.021,2.339h6.6a3.419,3.419,0,0,1,2.437,1.008,1.867,1.867,0,0,0,1.328.552H265.3a1.9,1.9,0,0,0,.842-.195l2.126-1.066v-4.977a.78.78,0,1,1,1.559,0v5.458a.78.78,0,0,1-.431.7l-2.557,1.278A3.453,3.453,0,0,1,265.3,313.357Z" transform="translate(-223.829 -274.371)"/>
      <path id="Trazado_919455" data-name="Trazado 919455" d="M340.385,163.375a2.339,2.339,0,0,0-3.211.8l-.8,1.336,4.009,2.412.8-1.336A2.339,2.339,0,0,0,340.385,163.375Z" transform="translate(-303.586 -147.149)" fill="#5f79a5"/>
      <path id="Trazado_919456" data-name="Trazado 919456" d="M332.753,161.365l-4.009-2.412a.78.78,0,0,1-.266-1.072l.8-1.336a3.119,3.119,0,1,1,5.345,3.216l-.8,1.336A.78.78,0,0,1,332.753,161.365Zm-2.534-3.346,2.672,1.608.4-.668a1.562,1.562,0,1,0-2.676-1.612Z" transform="translate(-296.362 -139.923)"/>
      <path id="Trazado_919457" data-name="Trazado 919457" d="M112.789,443.107a.78.78,0,0,1-.623-1.248l.646-.862a2.524,2.524,0,0,1,4.041,0,2.534,2.534,0,0,1,3.378.55h10.491a.78.78,0,1,1,0,1.559H119.806a.78.78,0,0,1-.7-.431.962.962,0,0,0-1.723,0,.78.78,0,0,1-1.4,0l-.3-.6a.963.963,0,0,0-1.636-.143l-.646.862A.78.78,0,0,1,112.789,443.107Z" transform="translate(-101.093 -397.104)"/>
      <path id="Trazado_919458" data-name="Trazado 919458" d="M56,56H80.951v6.238H56Z" transform="translate(-50.542 -50.542)" fill="#ead590"/>
      <path id="Trazado_919459" data-name="Trazado 919459" d="M56,96H80.951v2.339H56Z" transform="translate(-50.542 -86.643)" fill="#f1cb66"/>
      <path id="Trazado_919460" data-name="Trazado 919460" d="M73.731,55.8H48.78a.78.78,0,0,1-.78-.78V48.78a.78.78,0,0,1,.78-.78H73.731a.78.78,0,0,1,.78.78v6.238A.78.78,0,0,1,73.731,55.8ZM49.559,54.238H72.951V49.559H49.559Z" transform="translate(-43.322 -43.322)"/>
      <path id="Trazado_919461" data-name="Trazado 919461" d="M59.7,153.559H48.78a.78.78,0,0,1,0-1.559H59.7a.78.78,0,0,1,0,1.559Z" transform="translate(-43.322 -137.185)"/>
    </g>
  </g>
</svg>
