<svg xmlns="http://www.w3.org/2000/svg" width="77" height="77" viewBox="0 0 77 77">
  <g id="Grupo_1121345" data-name="Grupo 1121345" transform="translate(-3234 4202)">
    <g id="Grupo_1098742" data-name="Grupo 1098742" transform="translate(3234 -4202)">
      <rect id="Rect치ngulo_400898" data-name="Rect치ngulo 400898" width="77" height="77" rx="38.5" transform="translate(0 0)" fill="#ccda2d"/>
      <rect id="Rect치ngulo_400907" data-name="Rect치ngulo 400907" width="77" height="77" rx="38.5" transform="translate(0 0)" fill="none"/>
    </g>
    <g id="Grupo_1121344" data-name="Grupo 1121344" transform="translate(3246 -4189)">
      <g id="Grupo_1121343" data-name="Grupo 1121343">
        <g id="Grupo_1121334" data-name="Grupo 1121334" transform="translate(34.284 30.73)">
          <g id="Grupo_1121333" data-name="Grupo 1121333">
            <path id="Trazado_919349" data-name="Trazado 919349" d="M327.7,305.518a9.111,9.111,0,0,1,3.417-7.953V293.7l3.5,2.149a9.12,9.12,0,1,1-6.918,9.667Z" transform="translate(-327.668 -293.702)" fill="#eaf0f0"/>
          </g>
        </g>
        <g id="Grupo_1121335" data-name="Grupo 1121335" transform="translate(8.64 12.941)">
          <path id="Trazado_919350" data-name="Trazado 919350" d="M105.794,127.925v3.169l-1.159,4.911-.03.047c-1.558,2.41-3.428,5.219-3.428,8.089v2.1a1.942,1.942,0,0,0-.282-.208l-1.768-1.069a10.463,10.463,0,0,0-9.652,0l-1.768,1.069a1.948,1.948,0,0,0-.446.371v-2.177c0-2.926-1.9-5.787-3.518-8.226l-1.169-4.911s0,0,0,0v-3.169l5.014-3.548a42.091,42.091,0,0,1,7.637-.7h0a22.47,22.47,0,0,1,5.553.7Z" transform="translate(-82.573 -123.68)" fill="#eaf0f0"/>
        </g>
        <g id="Grupo_1121336" data-name="Grupo 1121336" transform="translate(12.827 33.048)">
          <path id="Trazado_919351" data-name="Trazado 919351" d="M136.727,318.109l-1.768-1.07a10.464,10.464,0,0,0-9.652,0l-1.768,1.07a1.961,1.961,0,0,0-.946,1.678v3.023a1.961,1.961,0,0,0,.524,1.334s1.11,1.537,7.016,1.537c5.924,0,7.016-1.537,7.016-1.537a1.961,1.961,0,0,0,.524-1.334v-3.023A1.961,1.961,0,0,0,136.727,318.109Z" transform="translate(-122.592 -315.861)" fill="#838eb1"/>
        </g>
        <g id="Grupo_1121337" data-name="Grupo 1121337" transform="translate(3.057 2.71)">
          <path id="Trazado_919352" data-name="Trazado 919352" d="M34.8,40.38l-3.734-3.734a6.317,6.317,0,0,1,0-8.934l1.807-1.807v2.811a6.317,6.317,0,0,0,2.72,5.193l4.221,2.924Z" transform="translate(-29.216 -25.905)" fill="#ccd3dd"/>
        </g>
        <g id="Grupo_1121338" data-name="Grupo 1121338" transform="translate(26.847 2.71)">
          <path id="Trazado_919353" data-name="Trazado 919353" d="M261.6,40.38l3.734-3.734a6.317,6.317,0,0,0,0-8.934l-1.807-1.807v2.811a6.317,6.317,0,0,1-2.72,5.193l-4.221,2.924Z" transform="translate(-256.587 -25.905)" fill="#ccd3dd"/>
        </g>
        <g id="Grupo_1121339" data-name="Grupo 1121339" transform="translate(39.008 38.351)">
          <path id="Trazado_919354" data-name="Trazado 919354" d="M372.817,369.128a160.17,160.17,0,0,0,6.367-2.587,2.588,2.588,0,0,1,1.8,4.42l-3.262,3.184a.636.636,0,0,1-.888,0l-3.262-3.185h0A2.58,2.58,0,0,1,372.817,369.128Z" transform="translate(-372.817 -366.541)" fill="#ff7e96"/>
        </g>
        <g id="Grupo_1121340" data-name="Grupo 1121340">
          <path id="Trazado_919355" data-name="Trazado 919355" fill="none" stroke="#000" stroke-linecap="round" stroke-linejoin="round" stroke-miterlimit="10" stroke-width="20"/>
        </g>
        <g id="Grupo_1121341" data-name="Grupo 1121341" transform="translate(30.702 19.321)">
          <path id="Trazado_919356" data-name="Trazado 919356" d="M294.595,185.7c.984-.536,1.442-1.033,2.563-1.033,1.484,0,1.884.492,3.058,1.4l1.97,1.522-.749.861a6.233,6.233,0,0,1-4.664,2.163h-3.336Z" transform="translate(-293.436 -184.666)" fill="#9aa6bf"/>
        </g>
        <g id="Grupo_1121342" data-name="Grupo 1121342" transform="translate(1.046 19.32)">
          <path id="Trazado_919357" data-name="Trazado 919357" d="M17.593,185.689c-.984-.536-1.444-1.033-2.565-1.033-1.484,0-1.884.492-3.058,1.4L10,187.577c1.457,1.674,3.058,3.023,5.414,3.023h3.349Z" transform="translate(-10 -184.656)" fill="#9aa6bf"/>
        </g>
      </g>
      <path id="Trazado_919358" data-name="Trazado 919358" d="M153.518,351.3l-1.4-1.074a1.046,1.046,0,1,0-1.276,1.658l1.4,1.074a1.046,1.046,0,1,0,1.276-1.658Z" transform="translate(-134.697 -313.387)"/>
      <path id="Trazado_919359" data-name="Trazado 919359" d="M208.2,350.226l-1.4,1.074a1.046,1.046,0,0,0,1.276,1.658l1.4-1.074a1.046,1.046,0,1,0-1.276-1.658Z" transform="translate(-184.804 -313.387)"/>
      <path id="Trazado_919360" data-name="Trazado 919360" d="M321.658,283.834a1.046,1.046,0,0,0-.535.913v3.375a10.167,10.167,0,0,0,6.7,17.8q.456,0,.917-.041a10.166,10.166,0,0,0-1.8-20.252,10.3,10.3,0,0,0-1.078.154l-3.142-1.929A1.047,1.047,0,0,0,321.658,283.834Zm1.557,4.777v-1.994l1.907,1.171a1.046,1.046,0,0,0,.795.125A8.074,8.074,0,1,1,328.55,303.8a8.074,8.074,0,0,1-5.73-14.368,1.046,1.046,0,0,0,.4-.819Z" transform="translate(-284.431 -254.017)"/>
      <path id="Trazado_919361" data-name="Trazado 919361" d="M363.891,362.756l3.262,3.184a1.672,1.672,0,0,0,2.35,0l3.262-3.184.008-.008a3.635,3.635,0,0,0-2.533-6.207,3.679,3.679,0,0,0-1.911.523,3.647,3.647,0,0,0-1.878-.523h-.033a3.635,3.635,0,0,0-2.554,6.186Zm2.545-4.122h.015a1.527,1.527,0,0,1,1.118.481,1.046,1.046,0,0,0,1.518,0,1.527,1.527,0,0,1,1.118-.481h.015a1.546,1.546,0,0,1,1.527,1.542,1.531,1.531,0,0,1-.449,1.088l-2.97,2.9-2.957-2.887-.009-.009a1.542,1.542,0,0,1,1.075-2.633Z" transform="translate(-324.855 -319.236)"/>
      <path id="Trazado_919362" data-name="Trazado 919362" d="M249.625,210.242a1.046,1.046,0,1,0-.344,1.24A1.056,1.056,0,0,0,249.625,210.242Z" transform="translate(-221.704 -187.666)"/>
      <path id="Trazado_919363" data-name="Trazado 919363" d="M114.122,176.457a1.046,1.046,0,0,0,0,2.093h1.786a1.032,1.032,0,0,1,1.03,1,15.831,15.831,0,0,0,.822,6.39,1.046,1.046,0,0,0,1.937-.792,14.009,14.009,0,0,1-.67-5.47,3.033,3.033,0,0,0-.885-2.273,3.139,3.139,0,0,0-2.235-.943h-1.786Z" transform="translate(-101.245 -157.994)"/>
      <path id="Trazado_919364" data-name="Trazado 919364" d="M210.833,186.508a1.056,1.056,0,0,0,1.365-.572,15.827,15.827,0,0,0,.822-6.39,1.032,1.032,0,0,1,1.03-1h1.786a1.046,1.046,0,0,0,0-2.093H214.05a3.139,3.139,0,0,0-2.235.943,3.04,3.04,0,0,0-.885,2.272,14.013,14.013,0,0,1-.67,5.471A1.046,1.046,0,0,0,210.833,186.508Z" transform="translate(-188.192 -157.994)"/>
      <path id="Trazado_919365" data-name="Trazado 919365" d="M121.691,210.369a1.046,1.046,0,1,0-.443,1.306A1.053,1.053,0,0,0,121.691,210.369Z" transform="translate(-107.157 -187.794)"/>
      <path id="Trazado_919366" data-name="Trazado 919366" d="M6.075,32.513a4.543,4.543,0,0,0-3.29,1.3c-.126.1-2.378,1.843-2.378,1.843a1.047,1.047,0,0,0-.15,1.515c1.659,1.907,3.54,3.383,6.2,3.383H9.246c1.479,2.243,3.034,4.742,3.034,7.18v1.828a3.014,3.014,0,0,0-.5,1.656v3.023a3,3,0,0,0,.77,2.01c.423.522,2.088,1.907,7.816,1.907s7.394-1.382,7.818-1.909a3,3,0,0,0,.769-2.008V51.214a3.02,3.02,0,0,0-.664-1.879V47.64c0-2.4,1.553-4.879,2.982-7.09h2.767a7.293,7.293,0,0,0,5.454-2.522l.749-.861a1.046,1.046,0,0,0-.15-1.515s-2.252-1.742-2.378-1.843a5.571,5.571,0,0,0-1.952-1.135,4.471,4.471,0,0,0-2.854.134v-.952L34.162,30.6a1.046,1.046,0,1,0-1.48-1.48l-.937.938L29.66,28.585l-.989-.7,2.992-2.073a7.365,7.365,0,0,0,3.17-6.053v-.284l.021.021A5.251,5.251,0,0,1,36.3,22.219a1.046,1.046,0,1,0,2.054-.4,7.337,7.337,0,0,0-2.021-3.8l-1.807-1.807a1.046,1.046,0,0,0-1.786.74v2.81a5.272,5.272,0,0,1-2.269,4.333L26.635,26.75a23.547,23.547,0,0,0-5.343-.617,46.91,46.91,0,0,0-7.418.621l-3.843-2.662a5.272,5.272,0,0,1-2.269-4.333v-2.81a1.046,1.046,0,0,0-1.786-.74L4.168,18.017a7.364,7.364,0,0,0,0,10.413l3.426,3.426v.953a3.807,3.807,0,0,0-1.519-.3Zm.193,5.941a5.171,5.171,0,0,1-3.7-1.824s1.389-1.076,1.523-1.182a2.515,2.515,0,0,1,1.988-.843,2.329,2.329,0,0,1,1.388.508l.264.161.758,3.183H6.46C6.4,38.457,6.333,38.456,6.268,38.454ZM26.861,54.237a.808.808,0,0,1-.312.693c-.2.188-1.59,1.132-6.182,1.132s-5.979-.959-6.186-1.137a.8.8,0,0,1-.308-.688V51.214a.93.93,0,0,1,.441-.783l1.136-.687a9.421,9.421,0,0,1,9.875.025l1.094.662a.93.93,0,0,1,.441.783v3.023Zm7.563-19.63a2.515,2.515,0,0,1,1.988.842c.133.106,1.523,1.182,1.523,1.182a5.194,5.194,0,0,1-3.9,1.827H32.024l.751-3.184.265-.161a2.289,2.289,0,0,1,1.384-.507Zm-13.13-6.381a21.445,21.445,0,0,1,5.109.618l2.33,1.648,2.083,1.474v2.506l-1.089,4.617-.064.1C28.038,41.7,26.2,44.542,26.2,47.64v.21c-.169-.1-.336-.213-.51-.307a11.541,11.541,0,0,0-10.64,0c-.23.124-.45.271-.674.406v-.22c0-3.175-1.969-6.2-3.59-8.649l-1.1-4.611v-2.5l4.41-3.121a43.191,43.191,0,0,1,7.2-.621Zm-17.19-5A5.236,5.236,0,0,1,5.647,19.5l.021-.021v.284a7.365,7.365,0,0,0,3.17,6.053l2.992,2.072L8.757,30.06l-3.11-3.11A5.236,5.236,0,0,1,4.1,23.223Z" transform="translate(0 -14.239)"/>
      <path id="Trazado_919367" data-name="Trazado 919367" d="M340.925,107.919a1.046,1.046,0,1,0-.289,1.45A1.054,1.054,0,0,0,340.925,107.919Z" transform="translate(-303.542 -96.214)"/>
    </g>
  </g>
</svg>
