<svg xmlns="http://www.w3.org/2000/svg" width="91" height="91" viewBox="0 0 91 91">
  <g id="Grupo_1120101" data-name="Grupo 1120101" transform="translate(-208.051 -4882)">
    <circle id="Elipse_11766" data-name="Elipse 11766" cx="45.5" cy="45.5" r="45.5" transform="translate(208.051 4882)" fill="#ccda2d"/>
    <g id="Grupo_1120100" data-name="Grupo 1120100" transform="translate(226.551 4896)">
      <path id="Trazado_918305" data-name="Trazado 918305" d="M47.558,103.813H10.1a2.09,2.09,0,0,1-2.091-2.091v-52A2.09,2.09,0,0,1,10.1,47.629H47.558a2.09,2.09,0,0,1,2.091,2.091v52A2.09,2.09,0,0,1,47.558,103.813Zm0,0" transform="translate(-6.588 -41.772)" fill="#ffded5"/>
      <path id="Trazado_918306" data-name="Trazado 918306" d="M47.537,47.629H45.324V97.273a2.112,2.112,0,0,1-2.112,2.112H8.012V101.7a2.112,2.112,0,0,0,2.112,2.112H47.537a2.112,2.112,0,0,0,2.112-2.112V49.741A2.112,2.112,0,0,0,47.537,47.629Zm0,0" transform="translate(-6.588 -41.772)" fill="#f7c6ba"/>
      <path id="Trazado_918307" data-name="Trazado 918307" d="M125.4,16.083H111.331a1.23,1.23,0,0,1-1.23-1.23v-4.39a2.952,2.952,0,0,1,2.951-2.951h10.625a2.952,2.952,0,0,1,2.951,2.951v4.39A1.23,1.23,0,0,1,125.4,16.083Zm0,0" transform="translate(-96.123 -6.588)" fill="#ff6914"/>
      <path id="Trazado_918308" data-name="Trazado 918308" d="M123.647,7.512h-.761a2.992,2.992,0,0,1,.1.75v4.347a1.242,1.242,0,0,1-1.242,1.242H110.1v.99a1.242,1.242,0,0,0,1.242,1.242h14.043a1.242,1.242,0,0,0,1.242-1.242V10.493A2.982,2.982,0,0,0,123.647,7.512Zm0,0" transform="translate(-96.123 -6.588)" fill="#ed500a"/>
      <path id="Trazado_918309" data-name="Trazado 918309" d="M253.875,88.131A10.811,10.811,0,1,1,243.064,77.32,10.81,10.81,0,0,1,253.875,88.131Zm0,0" transform="translate(-203.253 -67.812)" fill="#ff8900"/>
      <path id="Trazado_918310" data-name="Trazado 918310" d="M267.645,83.473a10.813,10.813,0,0,1-11.9,17.409,10.811,10.811,0,1,0,11.9-17.409Zm0,0" transform="translate(-223.853 -73.207)" fill="#ff6914"/>
      <path id="Trazado_918311" data-name="Trazado 918311" d="M263.594,95.029a2.113,2.113,0,0,1-1.494-.618l-5.172-5.172a2.112,2.112,0,1,1,2.987-2.987l3.678,3.678,9.556-9.556a2.112,2.112,0,1,1,2.987,2.987L265.087,94.41A2.113,2.113,0,0,1,263.594,95.029Zm0,0" transform="translate(-224.351 -69.947)" fill="#0882bf"/>
      <path id="Trazado_918312" data-name="Trazado 918312" d="M307.2,80.979a2.1,2.1,0,0,0-.9-.534,2.111,2.111,0,0,1-.534,2.086l-11.05,11.05a2.111,2.111,0,0,1-2.987,0l1.434,1.435a2.113,2.113,0,0,0,2.987,0L307.2,83.966A2.112,2.112,0,0,0,307.2,80.979Zm0,0" transform="translate(-255.416 -70.552)" fill="#005ca0"/>
      <g id="Grupo_1120099" data-name="Grupo 1120099" transform="translate(5.483 13.652)">
        <path id="Trazado_918313" data-name="Trazado 918313" d="M118.081,190.394H106.826a.924.924,0,0,1,0-1.848h11.256a.924.924,0,1,1,0,1.848Zm0,0" transform="translate(-97.923 -179.012)" fill="#0882bf"/>
        <path id="Trazado_918314" data-name="Trazado 918314" d="M48.159,112.859H41.943a.924.924,0,1,1,0-1.848h6.216a.924.924,0,1,1,0,1.848Zm0,0" transform="translate(-41.02 -111.012)" fill="#0882bf"/>
        <path id="Trazado_918315" data-name="Trazado 918315" d="M118.081,225.242H106.826a.924.924,0,0,1,0-1.847h11.256a.924.924,0,1,1,0,1.847Zm0,0" transform="translate(-97.923 -209.574)" fill="#0882bf"/>
        <path id="Trazado_918316" data-name="Trazado 918316" d="M121.97,281.5H106.826a.924.924,0,0,1,0-1.848H121.97a.924.924,0,1,1,0,1.848Zm0,0" transform="translate(-97.923 -258.91)" fill="#0882bf"/>
        <path id="Trazado_918317" data-name="Trazado 918317" d="M114.4,316.344h-7.572a.924.924,0,0,1,0-1.848H114.4a.924.924,0,0,1,0,1.848Zm0,0" transform="translate(-97.923 -289.472)" fill="#0882bf"/>
        <path id="Trazado_918318" data-name="Trazado 918318" d="M118.081,372.7H106.826a.924.924,0,0,1,0-1.848h11.256a.924.924,0,1,1,0,1.848Zm0,0" transform="translate(-97.923 -338.894)" fill="#0882bf"/>
        <path id="Trazado_918319" data-name="Trazado 918319" d="M121.97,407.542H106.826a.924.924,0,0,1,0-1.847H121.97a.924.924,0,1,1,0,1.847Zm0,0" transform="translate(-97.923 -369.456)" fill="#0882bf"/>
      </g>
      <path id="Trazado_918320" data-name="Trazado 918320" d="M47.259,192.354a2.807,2.807,0,1,1-2.807-2.807A2.807,2.807,0,0,1,47.259,192.354Zm0,0" transform="translate(-36.085 -166.237)" fill="#ff8900"/>
      <path id="Trazado_918321" data-name="Trazado 918321" d="M47.259,284.565a2.807,2.807,0,1,1-2.807-2.807A2.807,2.807,0,0,1,47.259,284.565Zm0,0" transform="translate(-36.085 -247.108)" fill="#ff8900"/>
      <path id="Trazado_918322" data-name="Trazado 918322" d="M47.259,375.76a2.807,2.807,0,1,1-2.807-2.807A2.807,2.807,0,0,1,47.259,375.76Zm0,0" transform="translate(-36.085 -327.088)" fill="#ff8900"/>
      <path id="Trazado_918323" data-name="Trazado 918323" d="M118.081,190.394H106.826a.924.924,0,0,1,0-1.848h11.256a.924.924,0,1,1,0,1.848Zm0,0" transform="translate(-92.44 -165.36)"/>
      <path id="Trazado_918324" data-name="Trazado 918324" d="M48.159,112.859H41.943a.924.924,0,1,1,0-1.848h6.216a.924.924,0,1,1,0,1.848Zm0,0" transform="translate(-35.537 -97.36)"/>
      <path id="Trazado_918325" data-name="Trazado 918325" d="M118.081,225.242H106.826a.924.924,0,0,1,0-1.847h11.256a.924.924,0,1,1,0,1.847Zm0,0" transform="translate(-92.44 -195.922)"/>
      <path id="Trazado_918326" data-name="Trazado 918326" d="M121.97,281.5H106.826a.924.924,0,0,1,0-1.848H121.97a.924.924,0,1,1,0,1.848Zm0,0" transform="translate(-92.44 -245.258)"/>
      <path id="Trazado_918327" data-name="Trazado 918327" d="M114.4,316.344h-7.572a.924.924,0,0,1,0-1.848H114.4a.924.924,0,0,1,0,1.848Zm0,0" transform="translate(-92.44 -275.82)"/>
      <path id="Trazado_918328" data-name="Trazado 918328" d="M118.081,372.7H106.826a.924.924,0,0,1,0-1.848h11.256a.924.924,0,1,1,0,1.848Zm0,0" transform="translate(-92.44 -325.242)"/>
      <path id="Trazado_918329" data-name="Trazado 918329" d="M121.97,407.542H106.826a.924.924,0,0,1,0-1.847H121.97a.924.924,0,1,1,0,1.847Zm0,0" transform="translate(-92.44 -355.804)"/>
      <path id="Trazado_918330" data-name="Trazado 918330" d="M37.864,189.5a3.731,3.731,0,1,1,3.731-3.731A3.735,3.735,0,0,1,37.864,189.5Zm0-5.615a1.884,1.884,0,1,0,1.884,1.884A1.886,1.886,0,0,0,37.864,183.883Zm0,0" transform="translate(-29.497 -159.649)"/>
      <path id="Trazado_918331" data-name="Trazado 918331" d="M37.864,281.7a3.731,3.731,0,1,1,3.731-3.731A3.735,3.735,0,0,1,37.864,281.7Zm0-5.615a1.884,1.884,0,1,0,1.884,1.884A1.886,1.886,0,0,0,37.864,276.09Zm0,0" transform="translate(-29.497 -240.516)"/>
      <path id="Trazado_918332" data-name="Trazado 918332" d="M37.864,372.9a3.731,3.731,0,1,1,3.731-3.731A3.735,3.735,0,0,1,37.864,372.9Zm0-5.615a1.884,1.884,0,1,0,1.884,1.884A1.886,1.886,0,0,0,37.864,367.289Zm0,0" transform="translate(-29.497 -320.5)"/>
      <path id="Trazado_918333" data-name="Trazado 918333" d="M36.218,15.651a3.036,3.036,0,1,0-4.294,4.293L37.1,25.116a3.036,3.036,0,0,0,4.293,0l11.05-11.05a3.036,3.036,0,1,0-4.293-4.293l-1.218,1.218a11.735,11.735,0,0,0-2.943-1.641V7.97a3.039,3.039,0,0,0-3.036-3.036H31.43V3.88A3.884,3.884,0,0,0,27.55,0H16.934a3.884,3.884,0,0,0-3.88,3.88V8.263a2.158,2.158,0,0,0,2.155,2.155H29.274A2.158,2.158,0,0,0,31.43,8.263V6.781h9.519A1.19,1.19,0,0,1,42.137,7.97V8.82a11.732,11.732,0,1,0,0,23V59.929a1.19,1.19,0,0,1-1.188,1.188H3.536a1.189,1.189,0,0,1-1.188-1.188V7.97A1.19,1.19,0,0,1,3.536,6.781H9.676a.924.924,0,0,0,0-1.848H3.536A3.039,3.039,0,0,0,.5,7.97v51.96a3.039,3.039,0,0,0,3.036,3.036H40.949a3.039,3.039,0,0,0,3.036-3.036V31.288a11.74,11.74,0,0,0,7.554-10.559.924.924,0,0,0-1.847-.063,9.837,9.837,0,0,1-6.843,9.069.878.878,0,0,0-.154.05,9.89,9.89,0,1,1-2.884-19.352,9.87,9.87,0,0,1,5.8,1.879l-6.365,6.366ZM29.582,8.263a.308.308,0,0,1-.308.308H15.21a.308.308,0,0,1-.308-.308V3.88a2.034,2.034,0,0,1,2.032-2.032H27.55A2.034,2.034,0,0,1,29.582,3.88Zm19.87,2.817a1.188,1.188,0,1,1,1.68,1.68L40.083,23.81a1.188,1.188,0,0,1-1.68,0L33.23,18.638a1.188,1.188,0,1,1,1.681-1.68l3.678,3.678a.923.923,0,0,0,1.306,0Zm0,0"/>
    </g>
  </g>
</svg>
