<svg xmlns="http://www.w3.org/2000/svg" width="77" height="77" viewBox="0 0 77 77">
  <g id="Grupo_1121349" data-name="Grupo 1121349" transform="translate(-3549 4202)">
    <g id="Grupo_1098742" data-name="Grupo 1098742" transform="translate(3549 -4202)">
      <rect id="Rect치ngulo_400898" data-name="Rect치ngulo 400898" width="77" height="77" rx="38.5" transform="translate(0 0)" fill="#ccda2d"/>
      <rect id="Rect치ngulo_400907" data-name="Rect치ngulo 400907" width="77" height="77" rx="38.5" transform="translate(0 0)" fill="none"/>
    </g>
    <g id="Grupo_1121348" data-name="Grupo 1121348" transform="translate(3564.368 -4187)">
      <g id="Grupo_1121347" data-name="Grupo 1121347" transform="translate(1.63 1.73)">
        <path id="Trazado_919368" data-name="Trazado 919368" d="M38.809,7.108a2.189,2.189,0,1,1,4.379,0v2.919a2.189,2.189,0,0,1,4.379,0V21.1a2.192,2.192,0,0,0-2.919,2.065,2.919,2.919,0,0,0,0,5.838c.036,0,.066-.007.1-.007a2.9,2.9,0,0,0,2.817,2.2v14.6H30.052v-8.2a1.454,1.454,0,0,0-.372-.971l-3.992-4.5a8.331,8.331,0,0,1-.9-1.189V30.92l2.182-9.261.562,1.416a1.306,1.306,0,0,0,2.518-.489V7.108a2.189,2.189,0,0,1,4.379,0V4.189a2.189,2.189,0,0,1,4.379,0Z" transform="translate(-8.159 -2)" fill="#f5e0cd"/>
        <path id="Trazado_919369" data-name="Trazado 919369" d="M24.532,24.919a3.457,3.457,0,0,0-3.211,2.175l-.292.73-.992-4.218a1.343,1.343,0,0,1-.036-.3A1.3,1.3,0,0,1,21.306,22a3.457,3.457,0,0,1,3.211,2.175l.314.781a1.343,1.343,0,0,0-.3-.036Z" transform="translate(-6.864 -7.405)" fill="#f5e0cd"/>
        <path id="Trazado_919370" data-name="Trazado 919370" d="M19.966,23.875l-.314-.781a3.457,3.457,0,0,0-3.211-2.175,1.3,1.3,0,0,0-1.306,1.306,1.343,1.343,0,0,0,.036.3l.992,4.218.292-.73a3.457,3.457,0,0,1,3.211-2.175,1.343,1.343,0,0,1,.3.036ZM6.962,34.5l4.2-13.194A4.739,4.739,0,0,1,15.683,18a4.828,4.828,0,0,1,1.759.336l6.451,2.583V26.91a1.306,1.306,0,0,1-2.518.489l-.562-1.416-2.182,9.261v.007l-.029.131a6.6,6.6,0,0,1-2.452,3.751L13,41.5a2.194,2.194,0,0,0-.868,1.554l-.642,7.057H2l1.438-4.524c.036.015.08.029.124.044A2.183,2.183,0,0,0,7.838,45a2.312,2.312,0,0,0-.036-.387,2.893,2.893,0,0,0,1.5-2.532,2.986,2.986,0,0,0-.19-1.022A2.861,2.861,0,0,0,10.3,40.009a2.922,2.922,0,0,0-2.459-4.5h-1.2Z" transform="translate(-2 -6.324)" fill="#f5e0cd"/>
        <g id="Grupo_1121346" data-name="Grupo 1121346" transform="translate(0)">
          <path id="Trazado_919371" data-name="Trazado 919371" d="M10.757,44.379a2.893,2.893,0,0,1-.46,1.576,2.861,2.861,0,0,1-1.189,1.051,2.986,2.986,0,0,1,.19,1.022A2.893,2.893,0,0,1,7.8,50.56a2.312,2.312,0,0,1,.036.387,2.183,2.183,0,0,1-4.276.628c-.044-.015-.088-.029-.124-.044a2.169,2.169,0,0,1-.649-3.714A2.868,2.868,0,0,1,2,45.838a2.906,2.906,0,0,1,1.708-2.649,2.181,2.181,0,0,1,3.255-2.744L6.641,41.46h1.2a2.918,2.918,0,0,1,2.919,2.919Z" transform="translate(-2 -12.269)" fill="#69d6f4"/>
          <circle id="Elipse_11909" data-name="Elipse 11909" cx="1.46" cy="1.46" r="1.46" transform="translate(1.46)" fill="#69d6f4"/>
          <circle id="Elipse_11910" data-name="Elipse 11910" cx="5.108" cy="5.108" r="5.108" transform="translate(0 5.838)" fill="#69d6f4"/>
          <circle id="Elipse_11911" data-name="Elipse 11911" cx="2.189" cy="2.189" r="2.189" transform="translate(14.595 2.919)" fill="#69d6f4"/>
          <circle id="Elipse_11912" data-name="Elipse 11912" cx="2.189" cy="2.189" r="2.189" transform="translate(37.947 1.46)" fill="#69d6f4"/>
          <path id="Trazado_919372" data-name="Trazado 919372" d="M48,32.027a2.918,2.918,0,0,1,2.919-2.919,2.192,2.192,0,0,1,2.919-2.065V24a2.918,2.918,0,0,1,2.919,2.919,3.465,3.465,0,0,1-.036.387,2.9,2.9,0,0,1-.467,5.276,2.869,2.869,0,0,1,.5,1.635,2.913,2.913,0,0,1-5.736.722c-.036,0-.066.007-.1.007A2.918,2.918,0,0,1,48,32.027Z" transform="translate(-14.431 -7.945)" fill="#69d6f4"/>
        </g>
        <circle id="Elipse_11913" data-name="Elipse 11913" cx="1.46" cy="1.46" r="1.46" transform="translate(36.488 21.893)" fill="#3bafda"/>
      </g>
      <path id="Trazado_919373" data-name="Trazado 919373" d="M44.676,46.865a.73.73,0,1,1-1.46,0V36.649a2.189,2.189,0,0,0-4.379,0v2.919a.73.73,0,1,1-1.46,0V35.189a2.189,2.189,0,1,0-4.379,0v.73h1.46v-.73a.73.73,0,1,1,1.46,0v4.379a2.189,2.189,0,1,0,4.379,0V36.649a.73.73,0,1,1,1.46,0V46.865a2.189,2.189,0,1,0,4.379,0V40.3h-1.46Z" transform="translate(-8.747 -8.648)"/>
      <path id="Trazado_919374" data-name="Trazado 919374" d="M44.686,20.719V20.7a3.654,3.654,0,0,0-2.919-3.575V9.757a2.89,2.89,0,0,0-.43-1.5,2.879,2.879,0,0,0,.43.044,2.919,2.919,0,1,0-2.919-2.919,2.89,2.89,0,0,0,.43,1.5,2.642,2.642,0,0,0-1.889.362V6.838a2.922,2.922,0,0,0-2.919-2.919,2.889,2.889,0,0,0-1.46.406V3.919a2.919,2.919,0,1,0-5.838,0v.406a2.889,2.889,0,0,0-1.46-.406,2.922,2.922,0,0,0-2.919,2.919v8.409l-5.45-2.18a5.422,5.422,0,0,0-4.825.39,5.835,5.835,0,1,0-5.78,5.057,5.8,5.8,0,0,0,2.98-.827L6.162,28.867a2.886,2.886,0,0,0-.883-.136A2.922,2.922,0,0,0,2.36,31.65a2.8,2.8,0,0,0,.083.677A3.652,3.652,0,0,0,.9,35.3a3.609,3.609,0,0,0,.564,1.937,2.889,2.889,0,0,0,.723,4.119L.632,46.245H41.767V31.576a3.651,3.651,0,0,0,2.678-4.881,3.622,3.622,0,0,0,.241-5.976Zm-2.919-16.8a1.46,1.46,0,1,1-1.46,1.46A1.461,1.461,0,0,1,41.767,3.919ZM2.36,12.676a4.379,4.379,0,1,1,4.379,4.379A4.383,4.383,0,0,1,2.36,12.676Zm.591,24.107a2.171,2.171,0,0,1,.693-3.471l.7-.318-.351-.68A1.444,1.444,0,0,1,5.279,30.19a1.412,1.412,0,0,1,.44.069L5.276,31.65H7.468a2.19,2.19,0,0,1,.95,4.163l-.6.289.234.623a2.141,2.141,0,0,1-.979,2.662l-.453.254.091.511a1.418,1.418,0,0,1,.028.255,1.461,1.461,0,0,1-1.46,1.46,1.446,1.446,0,0,1-1.388-1.043l-.113-.376L3.4,40.334a1.44,1.44,0,0,1-.515-2.5l.587-.493Zm.38,5.792a2.887,2.887,0,0,0,1.948.751A2.922,2.922,0,0,0,8.2,40.407v-.016a3.639,3.639,0,0,0,1.46-2.9,3.486,3.486,0,0,0-.068-.681A3.648,3.648,0,0,0,7.468,30.19h-.2l4.219-13.26a4.01,4.01,0,0,1,5.31-2.507l5.991,2.4v5.5a.576.576,0,0,1-1.11.214l-.479-1.2.074-.316a2.013,2.013,0,0,0,.055-.467,2.035,2.035,0,0,0-1.179-1.841l-.193-.483A4.168,4.168,0,0,0,16.074,15.6a2.038,2.038,0,0,0-1.983,2.5l.939,3.993-.937,2.343a2.178,2.178,0,0,1-2.032,1.376h-.943v1.46h.943a3.632,3.632,0,0,0,3.388-2.294l1.315-3.288A2.714,2.714,0,0,1,19.3,19.974a.579.579,0,0,1,.563.711l-2.338,9.938a5.854,5.854,0,0,1-2.18,3.334l-3.153,2.364a2.924,2.924,0,0,0-1.156,2.071l-.582,6.395H2.629ZM16.049,20.054l-.539-2.289a.584.584,0,0,1-.015-.133.578.578,0,0,1,.578-.578,2.709,2.709,0,0,1,2.447,1.539A4.152,4.152,0,0,0,16.049,20.054Zm6.744,24.731H11.916l.569-6.263a1.459,1.459,0,0,1,.578-1.035l3.153-2.364a7.313,7.313,0,0,0,2.3-2.907c.032.037.061.077.093.115l4,4.5a.73.73,0,0,1,.184.485Zm1.46,0V37.313a2.184,2.184,0,0,0-.553-1.454l-4-4.5a8.036,8.036,0,0,1-.654-.856l1.617-6.874a2.035,2.035,0,0,0,3.588-1.314V6.838a1.46,1.46,0,1,1,2.919,0V18.514h1.46V3.919a1.46,1.46,0,1,1,2.919,0v14.6h1.46V6.838a1.46,1.46,0,1,1,2.919,0V18.514h1.46V9.757a1.46,1.46,0,0,1,2.919,0V19.974a2.923,2.923,0,0,0-2.841,2.248,3.649,3.649,0,0,0,.225,7.214,3.634,3.634,0,0,0,2.615,2.131V44.785ZM39.577,24.352a.73.73,0,1,1-.73.73A.73.73,0,0,1,39.577,24.352Zm3.637,1.325-.9.314.532.784a2.186,2.186,0,1,1-3.926,1.765l-.147-.574-.592.025c-.039,0-.077.006-.069.009a2.184,2.184,0,0,1-.175-4.361,2.237,2.237,0,1,0,.9-.613v-.134a1.462,1.462,0,0,1,1.946-1.377l.973.345V18.639a2.193,2.193,0,0,1,1.46,2.064,1.551,1.551,0,0,1-.022.212l-.075.566.431.242a2.168,2.168,0,0,1-.345,3.954Z" transform="translate(0 0)"/>
      <path id="Trazado_919375" data-name="Trazado 919375" d="M9,13v1.46a1.461,1.461,0,0,1,1.46,1.46h1.46A2.922,2.922,0,0,0,9,13Z" transform="translate(-2.261 -3.243)"/>
      <path id="Trazado_919376" data-name="Trazado 919376" d="M5.189,5.379A2.189,2.189,0,1,0,3,3.189,2.192,2.192,0,0,0,5.189,5.379Zm0-2.919a.73.73,0,1,1-.73.73A.731.731,0,0,1,5.189,2.46Z" transform="translate(-0.64)"/>
      <path id="Trazado_919377" data-name="Trazado 919377" d="M26.838,7.919a2.919,2.919,0,1,0-2.919,2.919A2.922,2.922,0,0,0,26.838,7.919Zm-4.379,0a1.46,1.46,0,1,1,1.46,1.46A1.461,1.461,0,0,1,22.46,7.919Z" transform="translate(-5.504 -1.081)"/>
    </g>
  </g>
</svg>
