<svg xmlns="http://www.w3.org/2000/svg" width="61" height="61" viewBox="0 0 61 61">
  <g id="Grupo_1119749" data-name="Grupo 1119749" transform="translate(-1044.051 -9055)">
    <g id="Grupo_1119748" data-name="Grupo 1119748">
      <circle id="Elipse_11763" data-name="Elipse 11763" cx="30.5" cy="30.5" r="30.5" transform="translate(1044.051 9055)" fill="#fff"/>
      <g id="Grupo_1119747" data-name="Grupo 1119747" transform="translate(1031.327 9067)">
        <g id="Grupo_1119745" data-name="Grupo 1119745" transform="translate(27.265 0.541)">
          <g id="Grupo_1119744" data-name="Grupo 1119744" transform="translate(0)">
            <path id="Trazado_917376" data-name="Trazado 917376" d="M58.947,7.5H36.094a1.87,1.87,0,0,0-1.87,1.87V39.078a1.87,1.87,0,0,0,1.87,1.87H58.947a1.87,1.87,0,0,0,1.87-1.87V9.37A1.87,1.87,0,0,0,58.947,7.5Z" transform="translate(-34.224 -7.5)" fill="#f5f8f9"/>
            <path id="Trazado_917377" data-name="Trazado 917377" d="M58.947,7.5H57.933V36.194a1.87,1.87,0,0,1-1.87,1.87H34.224v1.014a1.87,1.87,0,0,0,1.87,1.87H58.947a1.87,1.87,0,0,0,1.87-1.87V9.37A1.87,1.87,0,0,0,58.947,7.5Z" transform="translate(-34.224 -7.5)" fill="#e8edf2"/>
            <g id="Grupo_1119743" data-name="Grupo 1119743" transform="translate(15.69 19.545)">
              <circle id="Elipse_11837" data-name="Elipse 11837" cx="8.149" cy="8.149" r="8.149" fill="#0593fc"/>
              <path id="Trazado_917378" data-name="Trazado 917378" d="M288.242,288.3a8.15,8.15,0,0,1-9.53,12.722,8.149,8.149,0,1,0,9.53-12.722Z" transform="translate(-276.77 -287.598)" fill="#0182fc"/>
              <path id="Trazado_917379" data-name="Trazado 917379" d="M298.121,349.24a1.27,1.27,0,0,1-.9-.373l-3.341-3.341a.423.423,0,0,1,0-.6l1.2-1.2a.423.423,0,0,1,.6,0l2.44,2.44,3.952-3.952a.423.423,0,0,1,.6,0l1.2,1.2a.423.423,0,0,1,0,.6l-4.853,4.853A1.271,1.271,0,0,1,298.121,349.24Z" transform="translate(-290.728 -337.503)" fill="#fff"/>
              <g id="Grupo_1119742" data-name="Grupo 1119742" transform="translate(6.522 5.34)">
                <path id="Trazado_917380" data-name="Trazado 917380" d="M348.282,352.553,342.23,358.6a1.272,1.272,0,0,0,1.772-.028l4.853-4.853a.423.423,0,0,0,0-.6Z" transform="translate(-342.23 -352.553)" fill="#f5f8f9"/>
              </g>
            </g>
            <path id="Trazado_917381" data-name="Trazado 917381" d="M74.225,51.593V47.861a.361.361,0,0,1,.361-.361h20.1a.361.361,0,0,1,.361.361v3.733a.361.361,0,0,1-.361.361h-20.1A.361.361,0,0,1,74.225,51.593Z" transform="translate(-71.34 -44.615)" fill="#5de1c4"/>
            <path id="Trazado_917382" data-name="Trazado 917382" d="M94.688,47.5h-1.6v2.128a.361.361,0,0,1-.361.361h-18.5v1.6a.361.361,0,0,0,.361.361h20.1a.361.361,0,0,0,.361-.361V47.861A.361.361,0,0,0,94.688,47.5Z" transform="translate(-71.34 -44.615)" fill="#0ed2b3"/>
            <path id="Trazado_917383" data-name="Trazado 917383" d="M74.225,51.593V47.861a.361.361,0,0,1,.361-.361h3.644v4.454H74.586A.361.361,0,0,1,74.225,51.593Z" transform="translate(-71.34 -44.615)" fill="#0ed2b3"/>
            <path id="Trazado_917384" data-name="Trazado 917384" d="M74.225,82v1.6a.361.361,0,0,0,.361.361h3.644V82Z" transform="translate(-71.34 -76.63)" fill="#0ab69f"/>
          </g>
        </g>
        <g id="Grupo_1119746" data-name="Grupo 1119746" transform="translate(26.724 0)">
          <path id="Trazado_917385" data-name="Trazado 917385" d="M91.464,338.177H82.649a.541.541,0,1,0,0,1.082h8.816a.541.541,0,0,0,0-1.082Z" transform="translate(-78.114 -313.789)"/>
          <path id="Trazado_917386" data-name="Trazado 917386" d="M91.464,393.221H82.649a.541.541,0,1,0,0,1.082h8.816a.541.541,0,0,0,0-1.082Z" transform="translate(-78.114 -364.863)"/>
          <path id="Trazado_917387" data-name="Trazado 917387" d="M83.4,146.475a.541.541,0,0,0,.765,0l1.761-1.76a.541.541,0,1,0-.765-.765l-1.378,1.378-.752-.752a.541.541,0,0,0-.765.765Z" transform="translate(-78.115 -133.421)"/>
          <path id="Trazado_917388" data-name="Trazado 917388" d="M164.678,157.9H151a.541.541,0,1,0,0,1.082h13.676a.541.541,0,1,0,0-1.082Z" transform="translate(-141.537 -146.508)"/>
          <path id="Trazado_917389" data-name="Trazado 917389" d="M82.267,202.356l1.134,1.134a.541.541,0,0,0,.765,0l1.761-1.76a.541.541,0,1,0-.765-.765l-1.378,1.378-.752-.752a.541.541,0,0,0-.765.765Z" transform="translate(-78.114 -186.326)"/>
          <path id="Trazado_917390" data-name="Trazado 917390" d="M165.219,215.451a.541.541,0,0,0-.541-.541H151a.541.541,0,1,0,0,1.082h13.676A.541.541,0,0,0,165.219,215.451Z" transform="translate(-141.537 -199.411)"/>
          <path id="Trazado_917391" data-name="Trazado 917391" d="M83.4,260.507a.541.541,0,0,0,.765,0l1.761-1.761a.541.541,0,1,0-.765-.765l-1.378,1.378-.752-.752a.541.541,0,0,0-.765.765Z" transform="translate(-78.115 -239.23)"/>
          <path id="Trazado_917392" data-name="Trazado 917392" d="M158.932,272.468a.541.541,0,0,0-.541-.541H151a.541.541,0,1,0,0,1.082h7.389A.541.541,0,0,0,158.932,272.468Z" transform="translate(-141.537 -252.316)"/>
          <path id="Trazado_917393" data-name="Trazado 917393" d="M54.4,20.194V2.411A2.414,2.414,0,0,0,51.988,0H29.135a2.414,2.414,0,0,0-2.411,2.411V25.484a.541.541,0,0,0,1.082,0V2.411a1.331,1.331,0,0,1,1.329-1.33H51.988a1.331,1.331,0,0,1,1.33,1.33V19.831a8.7,8.7,0,0,0-7.142,1.246.541.541,0,0,0,.614.891,7.61,7.61,0,1,1-1.712,1.622.541.541,0,0,0-.856-.661,8.681,8.681,0,0,0-.065,10.52H29.135a1.331,1.331,0,0,1-1.33-1.33V28.008a.541.541,0,0,0-1.082,0v4.111a2.414,2.414,0,0,0,2.411,2.411H45.121A8.688,8.688,0,1,0,54.4,20.194Z" transform="translate(-26.724 0)"/>
          <path id="Trazado_917394" data-name="Trazado 917394" d="M289.887,342.29a1.815,1.815,0,0,0,2.567,0l4.853-4.853a.965.965,0,0,0,0-1.364l-1.2-1.2a.964.964,0,0,0-1.364,0l-3.569,3.569-2.058-2.058a.966.966,0,0,0-1.364,0l-1.2,1.2a.966.966,0,0,0,0,1.363Zm-1.456-5.061,2.357,2.357a.541.541,0,0,0,.765,0l3.869-3.869,1.037,1.037-4.77,4.77a.733.733,0,0,1-1.037,0l-3.258-3.258Z" transform="translate(-267.546 -310.459)"/>
          <path id="Trazado_917395" data-name="Trazado 917395" d="M82.163,41.082a.541.541,0,1,0,0-1.082H67.626a.9.9,0,0,0-.9.9v3.733a.9.9,0,0,0,.9.9h20.1a.9.9,0,0,0,.9-.9V40.9a.9.9,0,0,0-.9-.9H84.687a.541.541,0,1,0,0,1.082h2.862v3.372H71.811V41.082ZM70.729,44.454H67.807V41.082h2.923Z" transform="translate(-63.84 -37.115)"/>
        </g>
      </g>
    </g>
  </g>
</svg>
