<svg xmlns="http://www.w3.org/2000/svg" width="61" height="61" viewBox="0 0 61 61">
  <g id="Grupo_1119741" data-name="Grupo 1119741" transform="translate(-750.102 -9163)">
    <circle id="Elipse_11761" data-name="Elipse 11761" cx="30.5" cy="30.5" r="30.5" transform="translate(750.102 9163)" fill="#fff"/>
    <g id="Grupo_1119740" data-name="Grupo 1119740" transform="translate(695.415 9173.77)">
      <g id="Grupo_1119738" data-name="Grupo 1119738" transform="translate(71.662 0.57)">
        <g id="Grupo_1119727" data-name="Grupo 1119727" transform="translate(0)">
          <g id="Grupo_1119726" data-name="Grupo 1119726">
            <path id="Trazado_917354" data-name="Trazado 917354" d="M104.187,45.249H79.946a1.354,1.354,0,0,1-1.354-1.354V8.854A1.354,1.354,0,0,1,79.946,7.5h24.241a1.354,1.354,0,0,1,1.354,1.354v35.04A1.354,1.354,0,0,1,104.187,45.249Z" transform="translate(-78.592 -7.5)" fill="#f3f0f3"/>
          </g>
        </g>
        <g id="Grupo_1119729" data-name="Grupo 1119729" transform="translate(0)">
          <g id="Grupo_1119728" data-name="Grupo 1119728">
            <path id="Trazado_917355" data-name="Trazado 917355" d="M104.187,7.5h-.924V41.616a1.354,1.354,0,0,1-1.354,1.354H78.592v.924a1.354,1.354,0,0,0,1.354,1.354h24.241a1.354,1.354,0,0,0,1.354-1.354V8.854A1.354,1.354,0,0,0,104.187,7.5Z" transform="translate(-78.592 -7.5)" fill="#e2dee2"/>
          </g>
        </g>
        <g id="Grupo_1119731" data-name="Grupo 1119731" transform="translate(3.328 8.607)">
          <g id="Grupo_1119730" data-name="Grupo 1119730">
            <path id="Trazado_917356" data-name="Trazado 917356" d="M126.317,125.156h-3.482a.424.424,0,0,1-.424-.424V121.25a.424.424,0,0,1,.424-.424h3.482a.424.424,0,0,1,.424.424v3.482A.424.424,0,0,1,126.317,125.156Z" transform="translate(-122.411 -120.826)" fill="#6ed5a1"/>
          </g>
        </g>
        <g id="Grupo_1119733" data-name="Grupo 1119733" transform="translate(3.328 16.294)">
          <g id="Grupo_1119732" data-name="Grupo 1119732">
            <path id="Trazado_917357" data-name="Trazado 917357" d="M126.317,226.356h-3.482a.424.424,0,0,1-.424-.424V222.45a.424.424,0,0,1,.424-.424h3.482a.424.424,0,0,1,.424.424v3.482A.424.424,0,0,1,126.317,226.356Z" transform="translate(-122.411 -222.026)" fill="#fd8087"/>
          </g>
        </g>
        <g id="Grupo_1119735" data-name="Grupo 1119735" transform="translate(3.328 2.944)">
          <g id="Grupo_1119734" data-name="Grupo 1119734">
            <path id="Trazado_917358" data-name="Trazado 917358" d="M143.08,48.405H122.946a.535.535,0,0,1-.535-.535V46.79a.535.535,0,0,1,.535-.535H143.08a.535.535,0,0,1,.535.535v1.08A.535.535,0,0,1,143.08,48.405Z" transform="translate(-122.411 -46.255)" fill="#a79ba7"/>
          </g>
        </g>
        <g id="Grupo_1119737" data-name="Grupo 1119737" transform="translate(11.987 23.457)">
          <g id="Grupo_1119736" data-name="Grupo 1119736">
            <path id="Trazado_917359" data-name="Trazado 917359" d="M246.616,327.16h-9.59a.616.616,0,0,1-.616-.616v-9.59a.616.616,0,0,1,.616-.616h9.59a.616.616,0,0,1,.616.616v9.59A.616.616,0,0,1,246.616,327.16Z" transform="translate(-236.41 -316.338)" fill="#ffe177"/>
          </g>
        </g>
      </g>
      <g id="Grupo_1119739" data-name="Grupo 1119739" transform="translate(71.092 0)">
        <path id="Trazado_917360" data-name="Trazado 917360" d="M97.257,0H73.016a1.926,1.926,0,0,0-1.924,1.924v35.04a1.926,1.926,0,0,0,1.924,1.924H88.731a.57.57,0,0,0,0-1.139H73.016a.786.786,0,0,1-.785-.785V1.924a.786.786,0,0,1,.785-.785H97.257a.786.786,0,0,1,.785.785v35.04a.786.786,0,0,1-.785.785H91.39a.57.57,0,1,0,0,1.139h5.867a1.926,1.926,0,0,0,1.924-1.924V1.924A1.926,1.926,0,0,0,97.257,0Z" transform="translate(-71.092 0)"/>
        <path id="Trazado_917361" data-name="Trazado 917361" d="M115.9,118.8h3.482a1,1,0,0,0,.993-.993v-3.482a1,1,0,0,0-.993-.993H115.9a.994.994,0,0,0-.993.993V117.8A.994.994,0,0,0,115.9,118.8Zm.146-4.33h3.191v3.191H116.05Z" transform="translate(-111.583 -104.719)"/>
        <path id="Trazado_917362" data-name="Trazado 917362" d="M218.02,125.645a.57.57,0,0,0,0-1.139h-8.1a.57.57,0,0,0,0,1.139Z" transform="translate(-198.849 -115.049)"/>
        <path id="Trazado_917363" data-name="Trazado 917363" d="M214.216,160.292h13.705a.57.57,0,0,0,0-1.139H214.216a.57.57,0,0,0,0,1.139Z" transform="translate(-202.819 -147.065)"/>
        <path id="Trazado_917364" data-name="Trazado 917364" d="M114.911,219a.994.994,0,0,0,.993.993h3.482a1,1,0,0,0,.993-.993v-3.482a.994.994,0,0,0-.993-.993H115.9a.994.994,0,0,0-.993.993Zm1.139-3.336h3.191v3.191H116.05Z" transform="translate(-111.583 -198.231)"/>
        <path id="Trazado_917365" data-name="Trazado 917365" d="M209.92,226.845h8.1a.57.57,0,0,0,0-1.139h-8.1a.57.57,0,0,0,0,1.139Z" transform="translate(-198.849 -208.563)"/>
        <path id="Trazado_917366" data-name="Trazado 917366" d="M214.216,261.492h13.705a.57.57,0,0,0,0-1.139H214.216a.57.57,0,0,0,0,1.139Z" transform="translate(-202.819 -240.578)"/>
        <path id="Trazado_917367" data-name="Trazado 917367" d="M128.666,41.475a.57.57,0,0,0-.57-.57H116.05V39.894h20.065v1.011h-5.361a.57.57,0,0,0,0,1.139h5.4a1.106,1.106,0,0,0,1.1-1.1V39.86a1.106,1.106,0,0,0-1.1-1.1H116.016a1.106,1.106,0,0,0-1.1,1.1v1.08a1.106,1.106,0,0,0,1.1,1.1H128.1A.57.57,0,0,0,128.666,41.475Z" transform="translate(-111.583 -35.811)"/>
        <path id="Trazado_917368" data-name="Trazado 917368" d="M301.943,362.519h1.243a.57.57,0,0,0,0-1.139h-1.243a.57.57,0,1,0,0,1.139Z" transform="translate(-283.882 -333.932)"/>
        <path id="Trazado_917369" data-name="Trazado 917369" d="M256.569,362.519h1.243a.57.57,0,1,0,0-1.139h-1.243a.57.57,0,1,0,0,1.139Z" transform="translate(-241.955 -333.932)"/>
        <path id="Trazado_917370" data-name="Trazado 917370" d="M256.569,392.186a.57.57,0,0,0,.57-.57v-.9a.57.57,0,0,0-1.139,0v.9A.57.57,0,0,0,256.569,392.186Z" transform="translate(-241.955 -360.515)"/>
        <path id="Trazado_917371" data-name="Trazado 917371" d="M230.1,320.8h9.59a1.187,1.187,0,0,0,1.186-1.186v-9.59a1.187,1.187,0,0,0-1.186-1.186H230.1a1.187,1.187,0,0,0-1.186,1.186v9.59A1.187,1.187,0,0,0,230.1,320.8Zm-.046-10.775a.046.046,0,0,1,.046-.046h.872v1.371a.57.57,0,0,0,1.139,0v-1.371h3v.887h-1.6a.57.57,0,1,0,0,1.139h2.172a.57.57,0,0,0,.57-.57v-1.457h1.315v1.457a.57.57,0,0,0,1.139,0v-1.457h.984a.046.046,0,0,1,.046.046v2.805h-1.457a.57.57,0,1,0,0,1.139h1.457v1.046h-5.52a.57.57,0,0,0-.57.57v.9a.57.57,0,0,0,1.139,0v-.329h2.924v.727a.57.57,0,0,0,1.139,0v-.727h.887v3.46a.046.046,0,0,1-.046.046h-.841v-.552a.57.57,0,1,0-1.139,0v.552h-.888v-1.348a.57.57,0,0,0-1.139,0v1.348h-1.315v-1.348a.57.57,0,0,0-.57-.57h-2.172a.57.57,0,1,0,0,1.139h1.6v.779H230.1a.046.046,0,0,1-.046-.046Z" transform="translate(-216.923 -285.382)"/>
        <path id="Trazado_917372" data-name="Trazado 917372" d="M120.822,321.883h-5.342a.57.57,0,0,0,0,1.139h5.342a.57.57,0,0,0,0-1.139Z" transform="translate(-111.583 -297.435)"/>
        <path id="Trazado_917373" data-name="Trazado 917373" d="M115.481,361.818h4.33a.57.57,0,1,0,0-1.139h-4.33a.57.57,0,1,0,0,1.139Z" transform="translate(-111.583 -333.284)"/>
        <path id="Trazado_917374" data-name="Trazado 917374" d="M121.392,400.045a.57.57,0,0,0-.57-.57h-5.342a.57.57,0,1,0,0,1.139h5.342A.57.57,0,0,0,121.392,400.045Z" transform="translate(-111.583 -369.134)"/>
        <path id="Trazado_917375" data-name="Trazado 917375" d="M115.481,438.271a.57.57,0,1,0,0,1.139h2.671a.57.57,0,1,0,0-1.139Z" transform="translate(-111.583 -404.983)"/>
      </g>
    </g>
  </g>
</svg>
