<svg xmlns="http://www.w3.org/2000/svg" width="77" height="77" viewBox="0 0 77 77">
  <g id="Grupo_1121378" data-name="Grupo 1121378" transform="translate(-4504.976 4202)">
    <g id="Grupo_1098742" data-name="Grupo 1098742" transform="translate(4504.976 -4202)">
      <rect id="Rect치ngulo_400898" data-name="Rect치ngulo 400898" width="77" height="77" rx="38.5" transform="translate(0 0)" fill="#ccda2d"/>
      <rect id="Rect치ngulo_400907" data-name="Rect치ngulo 400907" width="77" height="77" rx="38.5" transform="translate(0 0)" fill="none"/>
    </g>
    <g id="Grupo_1121377" data-name="Grupo 1121377" transform="translate(4509.873 -4190)">
      <g id="Grupo_1121375" data-name="Grupo 1121375" transform="translate(6.902 0.775)">
        <path id="Trazado_919405" data-name="Trazado 919405" d="M97.987,107.824v.008l-.013,5.445h-7.19v-5.454a3.6,3.6,0,0,1,7.2,0Z" transform="translate(-82.814 -94.232)" fill="#99e6fc"/>
        <path id="Trazado_919406" data-name="Trazado 919406" d="M94.834,223.085l-1.627-2.918.755-8.128a21.51,21.51,0,0,0,.092-2.234l-.136-13.356.011-4.559H86.74v4.559h0l-.333,2.185a11.868,11.868,0,0,0,.282,4.9L88.9,210.6l-.662,9.564-.138,1.992a1.889,1.889,0,0,0,1.884,2.019h4.208A.735.735,0,0,0,94.834,223.085Z" transform="translate(-78.77 -172.845)" fill="#6c7fd8"/>
        <path id="Trazado_919407" data-name="Trazado 919407" d="M131.714,223.085l-1.627-2.918.755-8.128a21.51,21.51,0,0,0,.092-2.234l-.136-13.356.011-4.559h-2.686l-.011,4.559.136,13.356a21.515,21.515,0,0,1-.092,2.234l-.755,8.128,1.627,2.918a.735.735,0,0,1-.642,1.094h2.686A.735.735,0,0,0,131.714,223.085Z" transform="translate(-115.65 -172.845)" fill="#4f66d0"/>
        <path id="Trazado_919408" data-name="Trazado 919408" d="M110.006,469.672H105.8a1.889,1.889,0,0,1-1.884-2.019l.138-1.992h4.969l1.627,2.918A.735.735,0,0,1,110.006,469.672Z" transform="translate(-94.584 -418.338)" fill="#fef48b"/>
        <path id="Trazado_919409" data-name="Trazado 919409" d="M131.714,468.578l-1.627-2.918H127.4l1.627,2.918a.735.735,0,0,1-.642,1.094h2.686A.735.735,0,0,0,131.714,468.578Z" transform="translate(-115.65 -418.338)" fill="#fef056"/>
        <path id="Trazado_919410" data-name="Trazado 919410" d="M107.125,40.39v1.066a2.876,2.876,0,0,1-5.751,0V40.39Z" transform="translate(-92.311 -36.993)" fill="#ffb09e"/>
        <path id="Trazado_919411" data-name="Trazado 919411" d="M120.436,40.39v1.066A2.874,2.874,0,0,1,116.218,44a2.873,2.873,0,0,0,1.532-2.542V40.39Z" transform="translate(-105.621 -36.993)" fill="#ffa78f"/>
        <g id="Grupo_1121372" data-name="Grupo 1121372" transform="translate(23.79 13.386)">
          <path id="Trazado_919412" data-name="Trazado 919412" d="M243.953,139.666V138.41a1.314,1.314,0,0,1,1.314-1.314h3.914a1.29,1.29,0,0,1,.484,2.485l-4.184,1.693Z" transform="translate(-243.953 -137.096)" fill="#6c7fd8"/>
          <path id="Trazado_919413" data-name="Trazado 919413" d="M243.953,139.666V138.41a1.314,1.314,0,0,1,1.314-1.314h3.914a1.29,1.29,0,0,1,.484,2.485l-4.184,1.693Z" transform="translate(-243.953 -137.096)" fill="#6c7fd8"/>
          <path id="Trazado_919414" data-name="Trazado 919414" d="M243.953,139.666V138.41a1.314,1.314,0,0,1,1.314-1.314h3.914a1.29,1.29,0,0,1,.484,2.485l-4.184,1.693Z" transform="translate(-243.953 -137.096)" fill="#6c7fd8"/>
        </g>
        <path id="Trazado_919415" data-name="Trazado 919415" d="M109.264,9.2a1.7,1.7,0,0,1-1.7,1.7h-6.192v-.522A2.876,2.876,0,0,1,104.25,7.5h3.316A1.7,1.7,0,0,1,109.264,9.2Z" transform="translate(-92.311 -7.5)" fill="#b98080"/>
        <path id="Trazado_919416" data-name="Trazado 919416" d="M139.7,9.2h0a1.7,1.7,0,0,1-1.7,1.7h-2.685a1.7,1.7,0,0,0,1.7-1.7h0a1.7,1.7,0,0,0-1.7-1.7H138a1.7,1.7,0,0,1,1.7,1.7Z" transform="translate(-122.749 -7.5)" fill="#ae6c6c"/>
        <g id="Grupo_1121373" data-name="Grupo 1121373" transform="translate(0 16.453)">
          <path id="Trazado_919417" data-name="Trazado 919417" d="M36.421,169.41c-7.821,4.339-10.175,12.218-11.894,17.971a24.372,24.372,0,0,1-2.231,5.842c-3.228,4.954-6.7,6.594-8.672,7.137v-2.919c1.536-.593,3.944-2.07,6.336-5.741a23.245,23.245,0,0,0,1.9-5.118,49.729,49.729,0,0,1,3.934-10.151,23.435,23.435,0,0,1,9.279-9.46,1.394,1.394,0,1,1,1.352,2.439Z" transform="translate(-13.624 -166.797)" fill="#c7dae0"/>
        </g>
        <path id="Trazado_919418" data-name="Trazado 919418" d="M119.1,110.689l2.262,3.984,6.91.305a1.61,1.61,0,0,1,.062,3.212l-7.459.586a2.225,2.225,0,0,1-1.9-.787l-3.592-4.889a2.221,2.221,0,1,1,3.721-2.412Z" transform="translate(-104.485 -99.023)" fill="#99e6fc"/>
        <g id="Grupo_1121374" data-name="Grupo 1121374" transform="translate(11.345 10.542)">
          <path id="Trazado_919419" data-name="Trazado 919419" d="M221.021,161.106l-2.275-.1a2.267,2.267,0,0,1,1.11,1.76c0-.052.007-.1.007-.155v.31c0-.051,0-.1-.007-.155a1.911,1.911,0,0,1-1.459,1.759l-.018.006,2.7-.212a1.61,1.61,0,0,0-.062-3.212Z" transform="translate(-208.576 -155.693)" fill="#62dbfb"/>
          <path id="Trazado_919420" data-name="Trazado 919420" d="M124.047,110.69l2.384,3.616a.817.817,0,0,0,.682.367h1.882l-2.262-3.984a2.221,2.221,0,0,0-3.274-.672A2.215,2.215,0,0,1,124.047,110.69Z" transform="translate(-123.459 -109.565)" fill="#62dbfb"/>
        </g>
      </g>
      <g id="Grupo_1121376" data-name="Grupo 1121376" transform="translate(6.128 0)">
        <path id="Trazado_919421" data-name="Trazado 919421" d="M97.524,8.888a3.654,3.654,0,0,0,3.65-3.65V4.923A2.473,2.473,0,0,0,100.84,0H97.524a3.654,3.654,0,0,0-3.65,3.65V5.238A3.654,3.654,0,0,0,97.524,8.888Zm2.1-3.65a2.1,2.1,0,0,1-4.2,0V4.946h4.2Zm-2.1-3.688h3.316a.924.924,0,1,1,0,1.848h-5.4A2.1,2.1,0,0,1,97.524,1.549Z" transform="translate(-84.811 0)"/>
        <path id="Trazado_919422" data-name="Trazado 919422" d="M35.92,100.274H32.006a2.091,2.091,0,0,0-2.089,2.089v.446l-2.481-.11a.775.775,0,1,0-.068,1.548l3.285.145a.836.836,0,0,1,.041,1.666l-7.467.587a1.453,1.453,0,0,1-1.227-.5l-3.576-4.866a.775.775,0,1,0-1.249.917l2.743,3.733H15.647v-4.679a2.8,2.8,0,0,1,.886-2.055,2.855,2.855,0,0,1,4.357.587l2.219,3.909a.775.775,0,1,0,1.347-.765l-2.113-3.721a4.572,4.572,0,0,0-.609-.874h0a4.421,4.421,0,0,0-6.266-.262,4.335,4.335,0,0,0-1.371,3.181v9.961l-.323,2.12c-.535,2.882.415,5.745,1.251,8.258-.655,2.05-1.623,5.788-2.436,7-2.258,3.465-4.491,4.872-5.966,5.441a.775.775,0,1,0,.558,1.445c1.688-.652,4.222-2.229,6.706-6.041a23.461,23.461,0,0,0,1.987-5.313l0-.011a49.072,49.072,0,0,1,3.868-9.991,25.726,25.726,0,0,1,2.921-4.234,22.127,22.127,0,0,1,1.717-1.785l2.1-.165c-5.863,4.635-7.892,11.423-9.421,16.542a23.967,23.967,0,0,1-2.136,5.634c-1.349,2.07-4.212,5.709-8.228,6.813a.775.775,0,1,0,.411,1.494,12.9,12.9,0,0,0,4.115-2.034,19.774,19.774,0,0,0,4.609-4.846l-.373,5.377a2.663,2.663,0,0,0,2.657,2.847h4.208a1.51,1.51,0,0,0,1.319-2.246l-1.627-2.918a.8.8,0,0,0-.687-.4H17.2l.443-6.4c.3-.889.6-1.86.9-2.892a53.953,53.953,0,0,1,2.788-7.77l.077,7.479a20.809,20.809,0,0,1-.089,2.154l-.419,4.509a.775.775,0,0,0,.7.843q.037,0,.073,0a.775.775,0,0,0,.77-.7l.419-4.508a22.345,22.345,0,0,0,.1-2.314l-.1-10.258a19.793,19.793,0,0,1,6.709-6.656l1.258-.1a2.369,2.369,0,0,0,2.107-1.827l3.765-1.523a2.064,2.064,0,0,0-.774-3.978ZM20.884,135.76l1.373,2.462H18.116a1.114,1.114,0,0,1-1.111-1.191l.088-1.271ZM18.39,113.375a38.033,38.033,0,0,0-2.528,5.7,11.413,11.413,0,0,1-.556-5.51l.333-2.184a.774.774,0,0,0,.008-.155v-3.746h5.5c.044.038.089.074.136.109l0,1.539A26.909,26.909,0,0,0,18.39,113.375Zm17.723-10.56-3.364,1.361A2.386,2.386,0,0,0,31.467,103v-.641a.54.54,0,0,1,.539-.539H35.92a.515.515,0,0,1,.193.992Z" transform="translate(-6.128 -86.888)"/>
        <path id="Trazado_919423" data-name="Trazado 919423" d="M338,140.557h-.775a.775.775,0,0,0,0,1.549H338a.775.775,0,1,0,0-1.549Z" transform="translate(-302.334 -126.039)"/>
        <path id="Trazado_919424" data-name="Trazado 919424" d="M383.789,140.557h-1.359a.775.775,0,0,0,0,1.549h1.359a.775.775,0,1,0,0-1.549Z" transform="translate(-342.869 -126.039)"/>
        <path id="Trazado_919425" data-name="Trazado 919425" d="M434.647,140.557h-1.359a.775.775,0,1,0,0,1.549h1.359a.775.775,0,1,0,0-1.549Z" transform="translate(-388.474 -126.039)"/>
        <path id="Trazado_919426" data-name="Trazado 919426" d="M484.147,142.106h.775a.775.775,0,0,0,0-1.549h-.775a.775.775,0,1,0,0,1.549Z" transform="translate(-434.079 -126.039)"/>
        <path id="Trazado_919427" data-name="Trazado 919427" d="M332.5,169.517l-.738-.234a.775.775,0,0,0-.468,1.477l.738.234a.775.775,0,0,0,.469-1.477Z" transform="translate(-297.22 -151.766)"/>
        <path id="Trazado_919428" data-name="Trazado 919428" d="M379.764,184.511l-1.421-.451a.775.775,0,0,0-.468,1.477l1.421.451a.775.775,0,0,0,.469-1.477Z" transform="translate(-338.993 -165.017)"/>
        <path id="Trazado_919429" data-name="Trazado 919429" d="M432.958,201.383l-1.421-.451a.775.775,0,0,0-.469,1.477l1.421.451a.775.775,0,0,0,.469-1.477Z" transform="translate(-386.693 -180.145)"/>
        <path id="Trazado_919430" data-name="Trazado 919430" d="M485.469,218.038l-.738-.234a.775.775,0,0,0-.469,1.477l.738.234a.775.775,0,0,0,.469-1.477Z" transform="translate(-434.392 -195.274)"/>
        <path id="Trazado_919431" data-name="Trazado 919431" d="M331.523,111.377a.775.775,0,0,0,.234-.036l.738-.234a.775.775,0,0,0-.469-1.477l-.738.234a.775.775,0,0,0,.234,1.513Z" transform="translate(-297.219 -98.273)"/>
        <path id="Trazado_919432" data-name="Trazado 919432" d="M431.3,77.85a.775.775,0,0,0,.234-.036l1.421-.451a.775.775,0,0,0-.469-1.477l-1.421.451a.775.775,0,0,0,.234,1.513Z" transform="translate(-386.693 -68.015)"/>
        <path id="Trazado_919433" data-name="Trazado 919433" d="M378.109,94.721a.773.773,0,0,0,.234-.036l1.421-.451a.775.775,0,0,0-.469-1.477l-1.421.451a.775.775,0,0,0,.234,1.513Z" transform="translate(-338.994 -83.143)"/>
        <path id="Trazado_919434" data-name="Trazado 919434" d="M484.5,62.858a.775.775,0,0,0,.234-.036l.738-.234A.775.775,0,0,0,485,61.11l-.738.234a.775.775,0,0,0,.234,1.513Z" transform="translate(-434.391 -54.766)"/>
      </g>
    </g>
  </g>
</svg>
