<svg xmlns="http://www.w3.org/2000/svg" width="77" height="77" viewBox="0 0 77 77">
  <g id="Grupo_1121287" data-name="Grupo 1121287" transform="translate(-862.051 -9188)">
    <g id="Grupo_1098742" data-name="Grupo 1098742" transform="translate(862.051 9188)">
      <rect id="Rect치ngulo_400898" data-name="Rect치ngulo 400898" width="77" height="77" rx="38.5" transform="translate(0)" fill="#ccda2d"/>
      <rect id="Rect치ngulo_400907" data-name="Rect치ngulo 400907" width="77" height="77" rx="38.5" fill="none"/>
    </g>
    <g id="Grupo_1121286" data-name="Grupo 1121286" transform="translate(839.996 9201)">
      <g id="Grupo_1121284" data-name="Grupo 1121284" transform="translate(39.794 0.74)">
        <path id="Trazado_919255" data-name="Trazado 919255" d="M181.144,13.971l-5.167-4.936L175.559,7.5H156.7l-.8.844v6.878h11.906l.35.362h4.166l5.924,6.21V48.741l.661.607h2.682a1.042,1.042,0,0,0,1.042-1.042V14.574Z" transform="translate(-145.105 -7.5)" fill="#ffc365"/>
        <g id="Grupo_1121281" data-name="Grupo 1121281" transform="translate(7.221 0)">
          <path id="Trazado_919256" data-name="Trazado 919256" d="M124.774,7.5h-4.055a1.042,1.042,0,0,0-1.042,1.042v6.178l.944.5h4.055l-.944-.5V8.542A1.042,1.042,0,0,1,124.774,7.5Z" transform="translate(-119.677 -7.5)" fill="#ffa90f"/>
          <path id="Trazado_919257" data-name="Trazado 919257" d="M287.878,119.556a2.05,2.05,0,0,1-.58-1.429V92.52a1.518,1.518,0,0,0-.433-1.062l-5.177-5.288a1.518,1.518,0,0,0-1.085-.456h-4.108l6.748,6.977V118.96l.855.88h4.055Z" transform="translate(-261.012 -77.992)" fill="#ffa90f"/>
          <path id="Trazado_919258" data-name="Trazado 919258" d="M356.044,14.573h6.031L355,7.5v6.031A1.042,1.042,0,0,0,356.044,14.573Z" transform="translate(-331.769 -7.5)" fill="#ffa90f"/>
        </g>
        <path id="Trazado_919259" data-name="Trazado 919259" d="M107.276,87.232l-5.43-5.438-.431-1.16H82.261l-.614.5v40.61l.889.736h24.909a1.042,1.042,0,0,0,1.042-1.042V87.708Z" transform="translate(-78.181 -73.414)" fill="#fff5f5"/>
        <path id="Trazado_919260" data-name="Trazado 919260" d="M50.6,121.441V81.677a1.042,1.042,0,0,1,1.042-1.042H47.584a1.042,1.042,0,0,0-1.042,1.042v39.763a1.042,1.042,0,0,0,1.042,1.042h4.055A1.042,1.042,0,0,1,50.6,121.441Z" transform="translate(-46.542 -73.414)" fill="#eee1dd"/>
        <path id="Trazado_919261" data-name="Trazado 919261" d="M150.128,122.081h-1.681l-.59-.675v-2.09l-.339-.171H133.365l-.564.682v6.509l.472.474h16.574a.8.8,0,0,0,.8-.8v-3.6Z" transform="translate(-124.285 -108.122)" fill="#8479c2"/>
        <path id="Trazado_919262" data-name="Trazado 919262" d="M91.587,126.013V119.94a.8.8,0,0,1,.8-.8H87.338a.8.8,0,0,0-.8.8v6.073a.8.8,0,0,0,.8.8h5.045A.8.8,0,0,1,91.587,126.013Z" transform="translate(-82.593 -108.122)" fill="#6e60b8"/>
        <path id="Trazado_919263" data-name="Trazado 919263" d="M328.821,207.472a8.637,8.637,0,0,0-5.518-2.516,8.964,8.964,0,0,0,0,17.3,8.671,8.671,0,0,0,5.518-14.783Z" transform="translate(-290.021 -185.461)" fill="#f27182"/>
        <path id="Trazado_919264" data-name="Trazado 919264" d="M295.021,219.538a8.672,8.672,0,0,1,4.672-14.682,8.673,8.673,0,1,0,0,17.1,8.63,8.63,0,0,1-4.672-2.415Z" transform="translate(-265.565 -185.26)" fill="#ed5469"/>
        <path id="Trazado_919265" data-name="Trazado 919265" d="M358.091,255.059a.384.384,0,0,1,0-.542l1.312-1.312a1.507,1.507,0,0,0,.079-2.07,1.48,1.48,0,0,0-2.142-.052L356,252.425a.384.384,0,0,1-.542,0l-1.289-1.289h-.273l-.543,1.337,2.088,2.316-2.088,2.4.283,1.052.532.2,1.289-1.289a.384.384,0,0,1,.542,0l1.341,1.341a1.48,1.48,0,0,0,2.142-.052,1.507,1.507,0,0,0-.079-2.07Z" transform="translate(-323.061 -226.644)" fill="#dbedff"/>
        <g id="Grupo_1121282" data-name="Grupo 1121282" transform="translate(28.538 24.006)">
          <path id="Trazado_919266" data-name="Trazado 919266" d="M338.242,256.372l1.312-1.312a.384.384,0,0,0,0-.542l-1.312-1.312a1.507,1.507,0,0,1-.08-2.07l-.052-.052a1.48,1.48,0,0,0-2.142.052,1.507,1.507,0,0,0,.079,2.07l1.312,1.312a.384.384,0,0,1,0,.542l-1.312,1.312a1.507,1.507,0,0,0-.079,2.07,1.48,1.48,0,0,0,2.142.052l.052-.052A1.507,1.507,0,0,1,338.242,256.372Z" transform="translate(-335.594 -250.651)" fill="#b5dcff"/>
        </g>
        <g id="Grupo_1121283" data-name="Grupo 1121283" transform="translate(23.233 7.221)">
          <path id="Trazado_919267" data-name="Trazado 919267" d="M282.909,87.708h6.031l-7.073-7.073v6.031a1.042,1.042,0,0,0,1.042,1.042Z" transform="translate(-281.867 -80.635)" fill="#eee1dd"/>
        </g>
      </g>
      <g id="Grupo_1121285" data-name="Grupo 1121285" transform="translate(39.055 0)">
        <path id="Trazado_919268" data-name="Trazado 919268" d="M77.323,13.571a.74.74,0,0,0,.74-.74V7.814a.75.75,0,0,0-.217-.524L70.773.217A.752.752,0,0,0,70.249,0H48.058a1.785,1.785,0,0,0-1.783,1.783V7.221H40.838A1.785,1.785,0,0,0,39.055,9V48.767a1.785,1.785,0,0,0,1.783,1.783h11.6a.74.74,0,0,0,0-1.481h-11.6a.3.3,0,0,1-.3-.3V9a.3.3,0,0,1,.3-.3H62.288v2.321H44.541A1.538,1.538,0,0,0,43,12.559v6.073a1.538,1.538,0,0,0,1.536,1.536H65.357a1.538,1.538,0,0,0,1.536-1.536V15.775h2.468v4.213a9.509,9.509,0,0,0-4.316,3.093H44.541a.74.74,0,1,0,0,1.481H64.094a9.3,9.3,0,0,0-.761,2.007H44.541a.74.74,0,1,0,0,1.481H63.085c-.025.288-.037.593-.037.835a9.952,9.952,0,0,0,.072,1.173H44.541a.74.74,0,0,0,0,1.481H63.425a9.3,9.3,0,0,0,.852,2.007H44.541a.74.74,0,0,0,0,1.481H65.324a9.424,9.424,0,0,0,4.038,2.757V48.766a.3.3,0,0,1-.3.3H55.894a.74.74,0,1,0,0,1.481H69.06a1.785,1.785,0,0,0,1.783-1.783V43.328h5.438a1.785,1.785,0,0,0,1.783-1.783V36.47a9.425,9.425,0,0,0,0-15.168V16.286a.74.74,0,1,0-1.481,0V20.4a9.386,9.386,0,0,0-4.112-.942,9.5,9.5,0,0,0-1.627.14V15.034a.746.746,0,0,0-.217-.524L63.553,7.437a.747.747,0,0,0-.524-.217H47.757V1.783a.3.3,0,0,1,.3-.3H69.509V6.772a1.785,1.785,0,0,0,1.783,1.783h5.291V12.83a.74.74,0,0,0,.74.741Zm-.74,27.975a.3.3,0,0,1-.3.3H70.843v-3.68a9.743,9.743,0,0,0,1.627.139,9.4,9.4,0,0,0,4.112-.94v4.179Zm-4.112-20.6a7.94,7.94,0,1,1-7.941,7.938,7.932,7.932,0,0,1,7.941-7.938Zm-8.7-11.2,4.545,4.545H64.071a.3.3,0,0,1-.3-.3Zm.3,6.026h1.342v2.857a.055.055,0,0,1-.055.055H44.541a.055.055,0,0,1-.055-.055V12.559a.055.055,0,0,1,.055-.055H62.289v1.489A1.784,1.784,0,0,0,64.071,15.775Zm7.221-8.7a.3.3,0,0,1-.3-.3V2.528l4.545,4.545H71.292Z" transform="translate(-39.055 0)"/>
        <path id="Trazado_919269" data-name="Trazado 919269" d="M87.857,376.594h20.817a.74.74,0,0,0,0-1.481H87.857a.74.74,0,0,0,0,1.481Z" transform="translate(-82.372 -338.079)"/>
        <path id="Trazado_919270" data-name="Trazado 919270" d="M87.857,411.927h20.817a.74.74,0,1,0,0-1.481H87.857a.74.74,0,1,0,0,1.481Z" transform="translate(-82.372 -369.923)"/>
        <path id="Trazado_919271" data-name="Trazado 919271" d="M87.857,447.26h20.817a.74.74,0,1,0,0-1.481H87.857a.74.74,0,1,0,0,1.481Z" transform="translate(-82.372 -401.768)"/>
        <path id="Trazado_919272" data-name="Trazado 919272" d="M329.853,248l-1.061,1.061a2.222,2.222,0,1,0,3.112,3.171l1.09-1.09,1.09,1.09a2.222,2.222,0,1,0,3.112-3.171L336.136,248l1.061-1.061a2.222,2.222,0,1,0-3.112-3.171l-1.091,1.09-1.09-1.09a2.222,2.222,0,1,0-3.112,3.171Zm-.069-3.158a.74.74,0,0,1,1.073-.027l1.343,1.343a1.124,1.124,0,0,0,1.59,0l1.343-1.343a.74.74,0,0,1,1.072.027.771.771,0,0,1-.055,1.05l-1.313,1.313a1.124,1.124,0,0,0,0,1.59l1.313,1.313a.771.771,0,0,1,.055,1.05.739.739,0,0,1-1.072.027l-1.343-1.343a1.125,1.125,0,0,0-1.59,0l-1.343,1.343a.739.739,0,0,1-1.073-.027.771.771,0,0,1,.055-1.05l1.313-1.313a1.126,1.126,0,0,0,0-1.59l-1.313-1.313A.771.771,0,0,1,329.784,244.84Z" transform="translate(-299.579 -219.113)"/>
      </g>
    </g>
  </g>
</svg>
