<svg xmlns="http://www.w3.org/2000/svg" width="164" height="164" viewBox="0 0 164 164">
  <g id="Grupo_1119355" data-name="Grupo 1119355" transform="translate(-334 -841)">
    <circle id="Elipse_11571" data-name="Elipse 11571" cx="82" cy="82" r="82" transform="translate(334 841)" fill="#f7dbb0"/>
    <g id="Grupo_1119354" data-name="Grupo 1119354" transform="translate(364.998 841.255)">
      <g id="Grupo_1119352" data-name="Grupo 1119352" transform="translate(1.658 34.555)">
        <g id="Grupo_1119349" data-name="Grupo 1119349" transform="translate(64.525 87.057)">
          <path id="Trazado_916624" data-name="Trazado 916624" d="M301.1,435.8l3.56-1.836,3.565,1.836,3.036,5.5a.664.664,0,0,1-.581.984h-3.444l-3.56-.313a2.654,2.654,0,0,1-2.654-2.654Z" transform="translate(-300.619 -433.967)" fill="#878382"/>
          <path id="Trazado_916625" data-name="Trazado 916625" d="M306.277,444.781h-4.424a2.655,2.655,0,0,1-2.654-2.654v-3.833l2.669-1.128,1.755,1.128v3.833A2.655,2.655,0,0,0,306.277,444.781Z" transform="translate(-299.199 -436.458)" fill="#7a7473"/>
        </g>
        <g id="Grupo_1119350" data-name="Grupo 1119350" transform="translate(4.767 87.057)">
          <path id="Trazado_916626" data-name="Trazado 916626" d="M30.941,435.8l3.56-1.836,3.565,1.836,3.036,5.5a.664.664,0,0,1-.581.984H37.077l-3.56-.313a2.654,2.654,0,0,1-2.654-2.654Z" transform="translate(-30.46 -433.967)" fill="#878382"/>
          <path id="Trazado_916627" data-name="Trazado 916627" d="M36.118,444.781H31.694a2.655,2.655,0,0,1-2.654-2.654v-3.833l2.669-1.128,1.755,1.128v3.833A2.655,2.655,0,0,0,36.118,444.781Z" transform="translate(-29.04 -436.458)" fill="#7a7473"/>
        </g>
        <path id="Trazado_916628" data-name="Trazado 916628" d="M171.854,41.423a1.154,1.154,0,0,1,.05,1.056L170,46.642a4.421,4.421,0,1,1-3.595-6.226l4.556.435A1.154,1.154,0,0,1,171.854,41.423Z" transform="translate(-127.468 -40.396)" fill="#7a7473"/>
        <path id="Trazado_916629" data-name="Trazado 916629" d="M89.257,145c-3.138-.8-6-.311-9.181.281-1.881.35-3.883-1.143-5.784-.946a70.994,70.994,0,0,1-7.323.378H58.454a102.583,102.583,0,0,1-23.346-2.692c-.453-.106-1.914.647-1.914.647-1.934-.48-4.247-.791-4.247-.791a16.611,16.611,0,0,0-16.821,18.778c.972,6.285,2.419,15.809,3.081,20.105a4.407,4.407,0,0,1-1.188,3.735,5.284,5.284,0,0,0-1.446,4.384c.447,3.055.819,6.675,1.385,9.333a22.127,22.127,0,0,1,.375,6.831l-.209,1.421a1.327,1.327,0,0,0,1.321,1.461l4.71.4h3.183l-.853-5.415a13.272,13.272,0,0,1,1.877-9.133l2.356-3.744a11.011,11.011,0,0,0,.637-1.16c.384-.81-.17-2.706.01-3.587l1.031-5.184a9.767,9.767,0,0,1,1.443-2.436l4.3,2.589,1.695.308a18.3,18.3,0,0,1,6.62,2.611,18.3,18.3,0,0,0,14.115,2.414l8.173-1.936c.472-.112.985-.21,1.463-.284,0,0,3.042-2.139,4.479-2.017.384,2.118,1.577,5.837,2.207,7.9l1.811,4.434a21.183,21.183,0,0,1,.26,10.861l-.323,1.505a1.505,1.505,0,0,0,1.249,1.842l3.529.43H83.1l-.635-3.8a12.171,12.171,0,0,1,.761-6.662,9.1,9.1,0,0,0,.668-4.158l-.107-1.446a24.209,24.209,0,0,1,.169-5.149l2.277-.945,1.9,1.43a9.515,9.515,0,0,0,4.957-2.049l.086-.069a9.75,9.75,0,0,0,3.537-6.115c.746-4.831,1.961-12.645,1.961-12.645l4.089-19.541Z" transform="translate(-10.964 -119.427)" fill="#f5f8f9"/>
        <path id="Trazado_916630" data-name="Trazado 916630" d="M7.489,187.449a16.917,16.917,0,0,0,.2,2.584c.971,6.284,2.471,16.023,3.134,20.319a4.41,4.41,0,0,1-1.188,3.736l-.042.042a5.159,5.159,0,0,0-1.4,4.342c.447,3.055,1.208,6.831,1.772,9.489a22.136,22.136,0,0,1,.376,6.831l-.168,1.672a1.326,1.326,0,0,0,1.321,1.46H16.68a4.609,4.609,0,0,1-1.036-2.98,36.476,36.476,0,0,0-.6-6.983c-.564-2.659-1.325-6.435-1.772-9.489a5.159,5.159,0,0,1,1.4-4.342l.042-.042a4.41,4.41,0,0,0,1.188-3.736c-.664-4.3-2.163-14.035-3.134-20.319a16.839,16.839,0,0,1,1.323-9.578,9.835,9.835,0,0,0-3.144-.568,10.749,10.749,0,0,1-2.532,2.037,16.853,16.853,0,0,0-.933,5.525Z" transform="translate(-7.489 -149.031)" fill="#e8edf2"/>
        <path id="Trazado_916631" data-name="Trazado 916631" d="M293.7,366.552l.323-1.5a22.156,22.156,0,0,0-.471-11.1l-1.409-4.612c-.226-.738-.429-1.482-.623-2.229a13.4,13.4,0,0,1-3.3,2.541l-.147,3.012.393,1.288a22.156,22.156,0,0,1,.471,11.1l-.323,1.5a1.326,1.326,0,0,0,1.3,1.606H295A1.326,1.326,0,0,1,293.7,366.552Z" transform="translate(-226.007 -279.266)" fill="#e8edf2"/>
        <path id="Trazado_916632" data-name="Trazado 916632" d="M352.159,79.268l-7.76-6.512a.222.222,0,0,0-.317.031,6.473,6.473,0,0,0,.941,8.943l2.975,2.5,4.161-.469Z" transform="translate(-268.56 -65.557)" fill="#878382"/>
        <path id="Trazado_916633" data-name="Trazado 916633" d="M424.651,79.268l7.76-6.512a.222.222,0,0,1,.317.031,6.473,6.473,0,0,1-.941,8.943l-2.975,2.5-4.161-.969v-3.99Z" transform="translate(-332.376 -65.558)" fill="#878382"/>
        <path id="Trazado_916634" data-name="Trazado 916634" d="M293.867,151.6l-4.088,19.541s-.031.192-.082.535h-6.8c-6.247,0-5.714-2.608-9.034-3.9-4.444-1.723-6.678,1.327-11.181-.792a9.05,9.05,0,0,1-5.2-10.109c.686-3.763,3.785-6.881,7.914-8.116q2.853-.3,5.676-.821a22.363,22.363,0,0,1,5.488-.334c.46.029,1.323,1.266,1.781,1.323.917.114,1.424-.909,2.325-.681Z" transform="translate(-202.07 -123.861)" fill="#878382"/>
        <path id="Trazado_916635" data-name="Trazado 916635" d="M305.489,137.993c0-2.258,1.08-4.088,4.1-4.088,2.516,0,5.379,2.844,6.26,3.788a.439.439,0,0,1,0,.6c-.881.944-3.744,3.788-6.26,3.788C306.569,142.081,305.489,140.251,305.489,137.993Z" transform="translate(-239.572 -113.221)" fill="#7a7473"/>
        <path id="Trazado_916636" data-name="Trazado 916636" d="M377.1,124.5l-2.727,6.78H365.2l-6.121-14.236a7.767,7.767,0,0,1,1.188-7.817l5.162-6.194,4.569-.66h3.145l4.035,4.944Z" transform="translate(-280.873 -88.665)" fill="#f5f8f9"/>
        <path id="Trazado_916637" data-name="Trazado 916637" d="M357.815,117.18l5.685,14.1h-5.53l-5.685-14.1a7.767,7.767,0,0,1,1.188-7.817l5.7-6.988h5.53l-5.7,6.988A7.767,7.767,0,0,0,357.815,117.18Z" transform="translate(-275.578 -88.665)" fill="#e8edf2"/>
        <path id="Trazado_916638" data-name="Trazado 916638" d="M380.136,225.275l3.541-.281c.083,0,.164-.01.294-.009a5.162,5.162,0,0,1,4.91,5.173v3.625a2.072,2.072,0,0,1-2.072,2.072h-6.066l-3.456-.248a2.072,2.072,0,0,1-2.072-2.072l-.078-3.118A4.994,4.994,0,0,1,380.136,225.275Z" transform="translate(-293.816 -184.154)" fill="#fecec8"/>
        <path id="Trazado_916639" data-name="Trazado 916639" d="M379.383,235.831h-4.424a2.071,2.071,0,0,1-2.07-2.073v-3.623a5.18,5.18,0,0,1,5.178-5.18h3.884c.088,0,.179,0,.268.007a5.18,5.18,0,0,0-4.906,5.174v3.623A2.071,2.071,0,0,0,379.383,235.831Z" transform="translate(-292.064 -184.131)" fill="#fec0b7"/>
        <path id="Trazado_916640" data-name="Trazado 916640" d="M466.971,137.956c0,2.264-1.078,4.1-4.089,4.1s-6.566-4.1-6.566-4.1,3.555-4.1,6.566-4.1S466.971,135.693,466.971,137.956Z" transform="translate(-357.036 -113.184)" fill="#7a7473"/>
        <path id="Trazado_916641" data-name="Trazado 916641" d="M41.171,149.237c-1.517,4.53-6.8,6.563-10.392,5.93-3.431-.606-4.037-3.42-8.556-4.942a14.014,14.014,0,0,0-2.093-.53c-2.027-.351-2.879-1.227-4.143-1.038.327-.945.535-.741,1.031-1.624a14.185,14.185,0,0,1,5.715-5.715c2.539-1.486,5.05-2.79,8.1-2.79.932,0,1.7-.075,2.935-.049l.194.023a24.96,24.96,0,0,1,2.933.54q.677.169,1.358.327A9.568,9.568,0,0,1,41.171,149.237Z" transform="translate(-14.107 -116.781)" fill="#878382"/>
        <path id="Trazado_916642" data-name="Trazado 916642" d="M30.434,137.943a16.868,16.868,0,0,0-12.4,8.446,17.11,17.11,0,0,0-1.243,2.767,15.992,15.992,0,0,0-5.079-.022,16.874,16.874,0,0,1,15.942-11.35A24.333,24.333,0,0,1,30.434,137.943Z" transform="translate(-10.776 -116.243)" fill="#7a7473"/>
        <g id="Grupo_1119351" data-name="Grupo 1119351" transform="translate(0.931 18.565)">
          <path id="Trazado_916643" data-name="Trazado 916643" d="M11.7,189.1h0" transform="translate(-11.699 -174.768)" fill="#878382"/>
          <path id="Trazado_916644" data-name="Trazado 916644" d="M170.708,230.015c.207-.414,2.8-5.838-.529-10.514a9.6,9.6,0,0,0-8-4.057c-.645.023-4.769.166-6.438,3.276a5.567,5.567,0,0,0-.471,4.141c.816,2.515,3.165,2.114,4.646,4.765,1.444,2.583.006,4.381,1.6,5.891,1.636,1.546,4.412.858,4.669.791C168.924,233.59,170.192,231.049,170.708,230.015Z" transform="translate(-123.341 -195.286)" fill="#878382"/>
          <path id="Trazado_916645" data-name="Trazado 916645" d="M68.022,276.242l-1.847,4.266-2.928,1.087a9.9,9.9,0,0,0-.666,2.135l-.964,4.714A11,11,0,0,1,60.762,291c-4.393-3.568-6.711-8.4-5.667-12.606a7.18,7.18,0,0,1,3.314-4.745C61.134,272.236,65.04,273.2,68.022,276.242Z" transform="translate(-45.303 -240.121)" fill="#878382"/>
          <path id="Trazado_916646" data-name="Trazado 916646" d="M417.235,134.271l-2.946,7.326c-1.046-.458-5.975-2.741-7.461-7.881-.389-1.349-1.239-4.287.493-6.713a7.294,7.294,0,0,1,7.052-2.588l1.672,2.046A7.77,7.77,0,0,1,417.235,134.271Z" transform="translate(-318.995 -124.327)" fill="#878382"/>
          <path id="Trazado_916647" data-name="Trazado 916647" d="M274.7,308.727c-.161,4.583-4.192,7.081-4.532,7.282l-1.015-3.325a55.41,55.41,0,0,1-1.52-6.278l-2.55-2.973,1.77-3.389A8.9,8.9,0,0,1,273,303.418,8.488,8.488,0,0,1,274.7,308.727Z" transform="translate(-209.032 -261.177)" fill="#878382"/>
        </g>
      </g>
      <g id="Grupo_1119353" data-name="Grupo 1119353" transform="translate(0.002 32.896)">
        <path id="Trazado_916648" data-name="Trazado 916648" d="M92.657,46.21a23.745,23.745,0,0,0,4.066.371,20.2,20.2,0,0,0,2.438-.147,21.782,21.782,0,0,0,8.2-2.78,6.089,6.089,0,0,0,9.431-2.164l1.9-4.163a2.819,2.819,0,0,0-.123-2.575h0a2.817,2.817,0,0,0-2.169-1.394l-4.556-.435a6.083,6.083,0,0,0-6.365,7.983,17.777,17.777,0,0,1-12.258,2.034,1.659,1.659,0,1,0-.564,3.269Zm15.951-8.056a2.732,2.732,0,0,1,1.46-1.674,2.8,2.8,0,0,1,1.194-.267c.012-.025,4.069.381,4.116.38l-1.607,3.518a2.8,2.8,0,0,1-.95,1.137,2.763,2.763,0,0,1-4.213-3.095Z" transform="translate(-71.09 -32.896)"/>
        <path id="Trazado_916649" data-name="Trazado 916649" d="M84.6,280.82a7.9,7.9,0,0,1-5.77,1.313,22.59,22.59,0,0,1,3.415-8.085,1.659,1.659,0,0,0-2.745-1.864,25.966,25.966,0,0,0-4.4,16.448l.107,1.446a7.479,7.479,0,0,1-.546,3.4,13.816,13.816,0,0,0-.865,7.57l.313,1.872h-5.86l.237-1.1a24.346,24.346,0,0,0-.55-12.071,10.7,10.7,0,0,0,4.255-7.885,10.223,10.223,0,0,0-2.028-6.366,10.359,10.359,0,0,0-5.89-3.784q-.042-1.061-.043-2.124a1.659,1.659,0,0,0-3.318,0,57.051,57.051,0,0,0,.59,8.178,19.88,19.88,0,0,0-4.167.528l-8.173,1.936a16.726,16.726,0,0,1-12.836-2.195,19.862,19.862,0,0,0-7.22-2.848l-3.724-.678a9.481,9.481,0,0,1,6.063-3.786l2.6-.46a1.659,1.659,0,1,0-.577-3.268l-2.6.46a13,13,0,0,0-3,.913c-3.331-2.863-7.493-3.7-10.661-2.064a8.408,8.408,0,0,0-4.161,5.818c-1.093,4.406.879,9.438,5.17,13.388l-2.289,3.639a14.929,14.929,0,0,0-2.112,10.274l.551,3.5H8.3l.132-1.307a23.748,23.748,0,0,0-.4-7.343c-.557-2.615-1.313-6.366-1.754-9.384a3.778,3.778,0,0,1,1-2.991,6.1,6.1,0,0,0,1.635-5.14l-.735-4.768a1.659,1.659,0,0,0-3.279.505l.735,4.767a2.766,2.766,0,0,1-.742,2.33,7.05,7.05,0,0,0-1.894,5.776c.454,3.106,1.225,6.932,1.792,9.594a20.444,20.444,0,0,1,.347,6.319l-.169,1.672A2.978,2.978,0,0,0,7.492,306.2v2.211a4.318,4.318,0,0,0,4.313,4.313h8.083a1.659,1.659,0,0,0,1.452-2.46L17.9,304.033l-.807-5.127a11.611,11.611,0,0,1,1.642-7.991l2.356-3.744a12.793,12.793,0,0,0,1.712-4.265c.37-1.729.726-3.708,1.1-5.293l4.6.838a16.56,16.56,0,0,1,6.019,2.374,20.058,20.058,0,0,0,10.824,3.164,19.83,19.83,0,0,0,4.571-.532L58.1,281.52a16.568,16.568,0,0,1,3.981-.445q.537,2.609,1.317,5.168l1.408,4.613a20.508,20.508,0,0,1,.436,10.264l-.323,1.505a2.983,2.983,0,0,0,1.884,3.426v2.361a4.318,4.318,0,0,0,4.313,4.313h8.531a1.659,1.659,0,0,0,1.452-2.46l-3.442-6.239-.588-3.525a10.5,10.5,0,0,1,.657-5.754,10.815,10.815,0,0,0,.79-4.916l-.107-1.446a22.349,22.349,0,0,1-.021-2.961,11.229,11.229,0,0,0,8.112-1.886,1.659,1.659,0,1,0-1.9-2.718ZM11.8,309.407a1,1,0,0,1-1-1v-2.174h4.52l1.749,3.17Zm4.464-36.487a5.276,5.276,0,0,1,2.466-3.67c1.691-.875,4.035-.455,6.126.984a12.8,12.8,0,0,0-4.341,7.294l-.953,4.656c-2.773-2.937-4.022-6.344-3.3-9.264Zm51.244,4.572a6.836,6.836,0,0,1,1.361,4.251,6.935,6.935,0,0,1-2.01,4.5l-.294-.964a53.713,53.713,0,0,1-2.039-10.018,6.8,6.8,0,0,1,2.982,2.235Zm3.6,31.915a1,1,0,0,1-1-1v-2.174h4.968l1.749,3.17Z" transform="translate(-2.279 -214.028)"/>
        <path id="Trazado_916650" data-name="Trazado 916650" d="M107.717,78.616c-2.016,0-4.051,1.319-5.494,2.529a12.425,12.425,0,0,0-1.875-2.813l1.787-1.5a8.141,8.141,0,0,0,1-11.457,1.659,1.659,0,0,0-2.337-.2l-7.472,6.269H85.86l-7.472-6.269a1.659,1.659,0,0,0-2.337.2,8.141,8.141,0,0,0,1,11.457l1.788,1.5a12.019,12.019,0,0,0-1.878,2.821c-1.437-1.212-3.469-2.536-5.5-2.536-2.827,0-4.766,1.45-5.358,3.879-4.78.685-12.117.5-16.961.517a101.029,101.029,0,0,1-24.3-2.97,26.228,26.228,0,0,0-6.31-.771A18.553,18.553,0,0,0,6.271,83.911a13.051,13.051,0,0,1-.67-8.252,8.882,8.882,0,0,1,3.624-4.936A7.5,7.5,0,0,1,14.138,69.6a1.659,1.659,0,0,0,.256-3.308,10.753,10.753,0,0,0-6.957,1.638,12.257,12.257,0,0,0-5.024,6.811A16.419,16.419,0,0,0,3.836,86.517,18.5,18.5,0,0,0,.217,100.641l1.192,7.716a1.659,1.659,0,0,0,3.279-.506L3.5,100.133A15.277,15.277,0,0,1,3.859,93.8a13.252,13.252,0,0,1,5.386.6,11.668,11.668,0,0,1,4.145,2.51,9.258,9.258,0,0,0,4.652,2.493,9.482,9.482,0,0,0,1.646.14c4.22,0,9.071-2.593,10.607-7.177a10.518,10.518,0,0,0-.6-7.874,104.354,104.354,0,0,0,19.45,1.834c1.614,0,8.105.01,9.312-.007a11.277,11.277,0,0,0-3.019,5.787,11.587,11.587,0,0,0-.171,2.371,1.659,1.659,0,0,0,1.657,1.611h.049a1.659,1.659,0,0,0,1.61-1.706,8.327,8.327,0,0,1,.118-1.68c.556-3.05,3.155-5.7,6.636-6.783.257-.027.514-.057.771-.087.6,2.422,2.533,3.868,5.355,3.868A8.744,8.744,0,0,0,76.5,87.544a9.434,9.434,0,0,0,.328.976l5.226,12.965a6.8,6.8,0,0,0-1.229,3.9v.076a5.518,5.518,0,0,1-3.71-1.7,9.415,9.415,0,0,0-3.063-2.007,10.7,10.7,0,0,0-6.256-.368,7.049,7.049,0,0,1-4.82-.377,8.312,8.312,0,0,1-1.71-1.076,1.659,1.659,0,0,0-2.1,2.572,11.64,11.64,0,0,0,2.394,1.507,10.211,10.211,0,0,0,6.787.646,7.613,7.613,0,0,1,4.5.19,6.16,6.16,0,0,1,2.044,1.381,8.7,8.7,0,0,0,5.929,2.561v.219a3.735,3.735,0,0,0,3.73,3.73h2.189c-.3,1.915-.711,4.6-1,6.456a1.659,1.659,0,0,0,1.353,1.917,1.677,1.677,0,0,0,.284.024,1.659,1.659,0,0,0,1.633-1.378c.289-1.841.721-4.66,1.089-7.019h4.551a3.735,3.735,0,0,0,3.73-3.73V105.39a6.8,6.8,0,0,0-1.23-3.9l5.216-12.968a9.457,9.457,0,0,0,.324-.966,8.776,8.776,0,0,0,5.025,2.15,5.543,5.543,0,0,0,0-11.086Zm-80.569,12.7c-1.289,3.847-5.862,5.294-8.53,4.823a6.236,6.236,0,0,1-3.085-1.758,14.843,14.843,0,0,0-5.23-3.122,16.146,16.146,0,0,0-5.077-.83,15.349,15.349,0,0,1,13.306-7.84,22.908,22.908,0,0,1,5.512.674c.306.076.614.148.921.221a7.779,7.779,0,0,1,2.183,7.833Zm74.288-22.349A4.823,4.823,0,0,1,100,74.289L98.25,75.761l-2-2.446Zm-22.25,5.322a4.823,4.823,0,0,1-1.434-5.322l5.184,4.35-2,2.444Zm-7.72,12.1c-1.607,0-2.233-.624-2.233-2.225s.626-2.225,2.233-2.225c1.144,0,2.739,1.17,3.885,2.225-1.146,1.055-2.741,2.225-3.885,2.225Zm9.37-5.251,5.206-6.376h7.1l1.406,1.723a8.054,8.054,0,0,0-4.989,3.185c-2.2,3.08-1.171,6.624-.734,8.138a14.153,14.153,0,0,0,6.944,8.222l-1.285,3.2a6.8,6.8,0,0,0-2.943-.667H87.661a6.8,6.8,0,0,0-2.945.668L79.9,87.28a6.11,6.11,0,0,1,.934-6.147Zm14.227,27.882a.413.413,0,0,1-.413.413h-10.1a.413.413,0,0,1-.413-.413V105.39a3.524,3.524,0,0,1,3.52-3.52h3.884a3.524,3.524,0,0,1,3.52,3.52v3.625ZM99.29,87.279,97.025,92.91a10.83,10.83,0,0,1-5.008-6.029c-.355-1.229-1.016-3.517.249-5.291a5.286,5.286,0,0,1,4.845-1.978l1.244,1.524A6.109,6.109,0,0,1,99.29,87.279Zm8.427-.895c-1.081,0-2.67-1.1-3.9-2.225,1.231-1.129,2.82-2.225,3.9-2.225,1.33,0,2.217.378,2.217,2.225S109.048,86.384,107.717,86.384Z" transform="translate(-0.002 -57.728)"/>
        <path id="Trazado_916651" data-name="Trazado 916651" d="M150.731,220.821a4.66,4.66,0,0,1,1.9,1.773,4.741,4.741,0,0,1,.532,2.487,4.778,4.778,0,0,0,1.381,3.8,5.827,5.827,0,0,0,4.081,1.456,8.825,8.825,0,0,0,2.148-.267c3.462-.908,5-3.994,5.582-5.156.339-.679,3.2-6.79-.662-12.216a11.245,11.245,0,0,0-9.409-4.753c-1.72.06-5.928.584-7.842,4.149a7.233,7.233,0,0,0-.587,5.439A5.794,5.794,0,0,0,150.731,220.821Zm.637-7.158c1.1-2.048,3.887-2.362,5.034-2.4a8.106,8.106,0,0,1,6.589,3.36c2.785,3.915.5,8.613.4,8.812-.47.942-1.448,2.9-3.455,3.428-.586.154-2.287.384-3.108-.392-.29-.275-.322-.5-.342-1.458a7.523,7.523,0,0,0-4-7.007c-.878-.546-1.243-.8-1.471-1.5A3.917,3.917,0,0,1,151.368,213.663Z" transform="translate(-114.918 -169.219)"/>
      </g>
    </g>
  </g>
</svg>
