<svg xmlns="http://www.w3.org/2000/svg" width="77" height="77" viewBox="0 0 77 77">
  <g id="Grupo_1119786" data-name="Grupo 1119786" transform="translate(6250 219)">
    <g id="Grupo_1098742" data-name="Grupo 1098742" transform="translate(-6250 -219)">
      <rect id="Rect치ngulo_400898" data-name="Rect치ngulo 400898" width="77" height="77" rx="38.5" transform="translate(0 0)" fill="#ccda2d"/>
      <rect id="Rect치ngulo_400907" data-name="Rect치ngulo 400907" width="77" height="77" rx="38.5" transform="translate(0 0)" fill="none"/>
    </g>
    <g id="Grupo_1119785" data-name="Grupo 1119785" transform="translate(-6243 -287.472)">
      <path id="Trazado_917538" data-name="Trazado 917538" d="M65.635,335.776H8.818a1.339,1.339,0,0,1-1.339-1.339v-4.479H67.341v4.112A1.706,1.706,0,0,1,65.635,335.776Z" transform="translate(-6.578 -213.282)" fill="#399aea"/>
      <path id="Trazado_917539" data-name="Trazado 917539" d="M375.913,205.909h-15.67v-23.6h9.93a1.935,1.935,0,0,1,1.377.575l5.511,5.579a1.935,1.935,0,0,1,.558,1.36V204.2A1.706,1.706,0,0,1,375.913,205.909Z" transform="translate(-316.857 -83.414)" fill="#61aff6"/>
      <path id="Trazado_917540" data-name="Trazado 917540" d="M400.824,188.462l-5.511-5.579a1.935,1.935,0,0,0-1.377-.575H387.26a1.935,1.935,0,0,1,1.377.575l5.511,5.579a1.935,1.935,0,0,1,.558,1.36v16.086h4.97a1.706,1.706,0,0,0,1.706-1.706v-14.38A1.935,1.935,0,0,0,400.824,188.462Z" transform="translate(-340.62 -83.414)" fill="#399aea"/>
      <path id="Trazado_917541" data-name="Trazado 917541" d="M387.8,220.055v-7.333a.8.8,0,0,1,.8-.8h4.9a.8.8,0,0,1,.569.237l4.24,4.293a.8.8,0,0,1,.231.562v3.04a.8.8,0,0,1-.8.8H388.6A.8.8,0,0,1,387.8,220.055Z" transform="translate(-341.095 -109.463)" fill="#33d8dd"/>
      <circle id="Elipse_11845" data-name="Elipse 11845" cx="5.245" cy="5.245" r="5.245" transform="translate(46.435 116.676)" fill="#3d6687"/>
      <circle id="Elipse_11846" data-name="Elipse 11846" cx="2.026" cy="2.026" r="2.026" transform="translate(49.653 119.894)" fill="#cccbca"/>
      <path id="Trazado_917542" data-name="Trazado 917542" d="M7.479,125.739H49.965V95.907a.957.957,0,0,0-.957-.957H8.436a.957.957,0,0,0-.957.957Z" transform="translate(-6.578 -6.577)" fill="#ffc06c"/>
      <path id="Trazado_917543" data-name="Trazado 917543" d="M310.529,94.949H304.81v30.79h6.676V95.906A.957.957,0,0,0,310.529,94.949Z" transform="translate(-268.1 -6.576)" fill="#eda558"/>
      <circle id="Elipse_11847" data-name="Elipse 11847" cx="5.245" cy="5.245" r="5.245" transform="translate(6.145 116.676)" fill="#3d6687"/>
      <circle id="Elipse_11848" data-name="Elipse 11848" cx="2.026" cy="2.026" r="2.026" transform="translate(9.363 119.894)" fill="#cccbca"/>
      <path id="Trazado_917544" data-name="Trazado 917544" d="M149.855,105.951h-8.529a.719.719,0,0,1-.719-.719V94.949h9.967v10.283A.719.719,0,0,1,149.855,105.951Z" transform="translate(-123.673 -6.576)" fill="#ff4c4c"/>
      <path id="Trazado_917545" data-name="Trazado 917545" d="M286.109,261.292a.9.9,0,0,0,0-1.8h-3.851a.9.9,0,0,0,0,1.8Z" transform="translate(-247.471 -151.302)"/>
      <path id="Trazado_917546" data-name="Trazado 917546" d="M235.795,261.292h1.4a.9.9,0,0,0,0-1.8h-1.4a.9.9,0,1,0,0,1.8Z" transform="translate(-206.604 -151.302)"/>
      <path id="Trazado_917547" data-name="Trazado 917547" d="M235.795,304.5h9.447a.9.9,0,1,0,0-1.8h-9.447a.9.9,0,0,0,0,1.8Z" transform="translate(-206.604 -189.306)"/>
      <path id="Trazado_917548" data-name="Trazado 917548" d="M407.728,349.2a2.927,2.927,0,1,0,2.927,2.927A2.93,2.93,0,0,0,407.728,349.2Zm0,4.053a1.126,1.126,0,1,1,1.126-1.126A1.127,1.127,0,0,1,407.728,353.255Z" transform="translate(-356.048 -230.208)"/>
      <path id="Trazado_917549" data-name="Trazado 917549" d="M73.2,349.2a2.927,2.927,0,1,0,2.927,2.927A2.93,2.93,0,0,0,73.2,349.2Zm0,4.053a1.126,1.126,0,1,1,1.126-1.126A1.127,1.127,0,0,1,73.2,353.255Z" transform="translate(-61.806 -230.208)"/>
      <path id="Trazado_917550" data-name="Trazado 917550" d="M388.13,204.95a1.711,1.711,0,0,0-1.209-.505h-4.9a1.7,1.7,0,0,0-1.7,1.7v7.333a1.7,1.7,0,0,0,1.7,1.7h9.14a1.7,1.7,0,0,0,1.7-1.7v-3.04a1.691,1.691,0,0,0-.49-1.195Zm2.93,8.426h-8.937v-7.13h4.756l4.181,4.233Z" transform="translate(-334.516 -102.885)"/>
      <path id="Trazado_917551" data-name="Trazado 917551" d="M61.663,120.784V106.408a2.819,2.819,0,0,0-.818-1.993l-5.511-5.579a2.854,2.854,0,0,0-2.017-.843H44.287V89.329a1.86,1.86,0,0,0-1.857-1.857H1.857A1.859,1.859,0,0,0,0,89.329v2.378a.9.9,0,1,0,1.8,0V89.329a.056.056,0,0,1,.056-.056H16.033v9.382a1.622,1.622,0,0,0,1.62,1.62h8.529a1.622,1.622,0,0,0,1.62-1.62V89.273H42.43a.056.056,0,0,1,.056.056v28.932H16.327a6.1,6.1,0,0,0-3.652-2.35l-.088-.018q-.1-.02-.207-.037l-.145-.021c-.057-.008-.115-.016-.172-.022s-.133-.012-.2-.018c-.044,0-.088-.008-.132-.01-.113-.006-.227-.01-.341-.01s-.228,0-.341.01l-.132.01c-.067.005-.134.01-.2.018s-.115.014-.172.022l-.146.021q-.1.017-.206.037l-.089.018a6.1,6.1,0,0,0-3.652,2.35H1.8V95.97a.9.9,0,0,0-1.8,0v25.185a2.242,2.242,0,0,0,2.24,2.24H5.425a6.145,6.145,0,0,0,11.931,0H45.715a6.145,6.145,0,0,0,11.931,0h1.411a2.61,2.61,0,0,0,2.607-2.6s0,0,0-.007A.033.033,0,0,1,61.663,120.784ZM26,98.474H17.835v-9.2H26Zm-20.473,21.6q-.054.171-.1.347c-.005.021-.01.043-.015.065q-.034.143-.062.287c-.006.033-.012.065-.018.1q-.023.134-.04.269c0,.032-.009.064-.012.1-.012.111-.022.222-.028.335,0,.008,0,.015,0,.023H2.24a.439.439,0,0,1-.439-.439v-1.092h3.73ZM15.707,122.4a4.343,4.343,0,0,1-8.635,0,4.4,4.4,0,0,1-.026-.475c0-.091,0-.182.01-.273,0-.025,0-.049.006-.073q.009-.108.022-.215c0-.02,0-.04.008-.061.013-.09.028-.18.047-.269,0-.01,0-.02.007-.03.017-.078.036-.156.058-.233l.02-.07q.032-.108.069-.214l.016-.047c.029-.079.061-.158.094-.236.013-.03.026-.059.04-.088.023-.051.048-.1.073-.152.016-.032.032-.063.049-.095q.055-.1.116-.2c.023-.038.047-.075.072-.112l.059-.088c.029-.043.059-.085.09-.126l.033-.043a4.351,4.351,0,0,1,2.556-1.624l.03-.007c.043-.009.087-.016.13-.023l.126-.02.111-.014q.08-.009.16-.015l.089-.007c.085,0,.17-.008.255-.008s.171,0,.255.008l.089.007c.054,0,.107.009.16.015l.111.014.126.02c.044.007.087.015.13.023l.03.007a4.351,4.351,0,0,1,2.557,1.625l.032.042c.031.042.061.084.091.127l.058.087c.024.037.049.075.072.113q.061.1.116.2c.017.031.033.063.049.1q.038.075.073.151c.013.029.027.059.04.088.033.078.065.156.094.235.006.016.01.031.016.047q.037.106.069.213l.02.07c.021.077.041.154.057.232,0,.01,0,.02.007.03.019.089.034.179.047.269,0,.02.005.04.008.061q.014.107.022.215c0,.024,0,.049.006.073.006.091.01.182.01.273A4.37,4.37,0,0,1,15.707,122.4Zm26.778-.8H17.526c0-.008,0-.015,0-.023-.006-.112-.016-.224-.028-.335,0-.032-.008-.064-.012-.1q-.017-.136-.04-.269c-.006-.033-.011-.065-.018-.1q-.027-.145-.062-.287c-.005-.022-.01-.043-.015-.065q-.044-.175-.1-.347l0-.012H42.486ZM56,122.4a4.343,4.343,0,0,1-8.635,0,4.4,4.4,0,0,1-.026-.475A4.344,4.344,0,1,1,56,122.4Zm3.865-1.607a.806.806,0,0,1-.806.806h-1.24c0-.091-.012-.182-.021-.272,0-.01,0-.019,0-.029q-.016-.152-.039-.3c0-.029-.01-.057-.015-.086-.012-.071-.024-.142-.038-.212-.007-.035-.016-.07-.024-.1-.014-.063-.028-.126-.043-.188-.01-.038-.021-.075-.031-.112-.016-.059-.032-.117-.05-.175-.012-.039-.025-.076-.038-.115-.018-.056-.037-.112-.057-.167-.014-.038-.029-.076-.044-.114-.021-.054-.041-.108-.064-.162-.016-.038-.033-.075-.05-.113s-.046-.1-.071-.156-.037-.074-.056-.111-.05-.1-.077-.15-.041-.073-.061-.109-.055-.1-.083-.145-.044-.071-.066-.107-.059-.094-.09-.14-.047-.069-.071-.1-.063-.09-.1-.135l-.076-.1c-.033-.043-.067-.087-.1-.129l-.081-.1c-.035-.042-.071-.083-.107-.124l-.086-.094q-.055-.06-.112-.118l-.091-.09q-.058-.057-.118-.112l-.1-.087c-.04-.036-.081-.071-.122-.106l-.1-.083-.127-.1-.1-.078-.132-.094-.108-.073c-.045-.03-.09-.059-.136-.087l-.111-.069c-.046-.028-.093-.054-.14-.081l-.115-.064-.144-.074-.118-.058c-.049-.023-.1-.045-.148-.067l-.121-.053c-.05-.021-.1-.04-.152-.06l-.124-.047c-.052-.019-.1-.036-.156-.053l-.126-.041c-.053-.016-.107-.031-.161-.046l-.127-.035c-.055-.014-.11-.026-.165-.038L52.9,115.9c-.057-.012-.115-.021-.172-.031-.042-.007-.083-.015-.125-.022-.061-.009-.122-.016-.184-.023l-.119-.015c-.068-.007-.136-.011-.2-.016l-.1-.008q-.154-.008-.311-.008t-.311.008l-.1.008c-.069,0-.137.009-.2.016l-.119.015c-.061.007-.123.014-.184.023l-.125.022c-.058.01-.115.019-.172.031l-.128.029c-.055.012-.111.024-.165.038l-.127.035c-.054.015-.107.029-.16.046l-.126.041c-.052.017-.1.034-.156.053l-.124.047c-.051.02-.1.039-.152.06l-.121.053c-.05.022-.1.044-.148.067l-.118.058c-.048.024-.1.049-.144.074l-.115.064-.14.081-.112.069c-.046.029-.091.057-.136.087l-.108.074-.132.094-.1.078c-.043.033-.085.066-.127.1l-.1.082-.123.106-.1.086q-.06.055-.118.112l-.091.09q-.057.058-.112.118l-.086.094c-.036.041-.072.082-.107.124l-.082.1c-.035.043-.068.086-.1.129l-.076.1c-.033.044-.064.089-.1.135s-.048.069-.071.1-.06.093-.09.14-.045.071-.066.107-.056.1-.083.145-.041.073-.061.109-.052.1-.077.15-.038.074-.056.111-.047.1-.071.156-.034.075-.05.113c-.022.053-.043.107-.064.161-.015.038-.03.076-.044.114-.02.055-.038.112-.057.168-.013.038-.026.076-.038.114-.018.058-.034.117-.05.176-.01.037-.021.074-.031.112-.016.062-.03.125-.043.188-.008.035-.017.069-.024.1-.014.07-.026.141-.038.212,0,.029-.011.057-.015.086q-.023.15-.039.3c0,.012,0,.024,0,.036-.008.088-.016.176-.02.265H44.287v-21.8h9.029a1.04,1.04,0,0,1,.736.307l5.511,5.579h0a1.028,1.028,0,0,1,.3.727v14.38Z" transform="translate(0)"/>
    </g>
  </g>
</svg>
