<svg xmlns="http://www.w3.org/2000/svg" width="77" height="77" viewBox="0 0 77 77">
  <g id="Grupo_1119805" data-name="Grupo 1119805" transform="translate(5935.27 218.68)">
    <g id="Grupo_1098742" data-name="Grupo 1098742" transform="translate(-5935.27 -218.68)">
      <rect id="Rect치ngulo_400898" data-name="Rect치ngulo 400898" width="77" height="77" rx="38.5" transform="translate(0 0)" fill="#ccda2d"/>
      <rect id="Rect치ngulo_400907" data-name="Rect치ngulo 400907" width="77" height="77" rx="38.5" transform="translate(0 0)" fill="none"/>
    </g>
    <g id="Grupo_1119804" data-name="Grupo 1119804" transform="translate(-5923.797 -203.321)">
      <g id="Grupo_1119802" data-name="Grupo 1119802" transform="translate(0.792 0.792)">
        <g id="Grupo_1119787" data-name="Grupo 1119787">
          <path id="Trazado_917552" data-name="Trazado 917552" d="M9.715,3.377,3.377,9.715,1.562,7.9a1.913,1.913,0,0,1,0-2.709L5.191,1.562a1.913,1.913,0,0,1,2.709,0Z" transform="translate(-1 -1)" fill="#69d6f4"/>
        </g>
        <g id="Grupo_1119788" data-name="Grupo 1119788" transform="translate(2.377 2.377)">
          <path id="Trazado_917553" data-name="Trazado 917553" d="M7.961,11.13a1.589,1.589,0,0,0-1.584,1.584L4,10.338,10.338,4,14.3,7.961h-.792a.8.8,0,0,0-.792.792V11.13Z" transform="translate(-4 -4)" fill="#69d6f4"/>
        </g>
        <g id="Grupo_1119789" data-name="Grupo 1119789" transform="translate(15.94)">
          <path id="Trazado_917554" data-name="Trazado 917554" d="M30.532,8.225v3.866H24.194V8.13a.8.8,0,0,0-.792-.792H21.12a4.179,4.179,0,0,1,3.074-3.169V1h3.169V4.169A4.185,4.185,0,0,1,30.532,8.225Z" transform="translate(-21.12 -1)" fill="#ffeaa7"/>
        </g>
        <g id="Grupo_1119790" data-name="Grupo 1119790" transform="translate(11.091 6.338)">
          <path id="Trazado_917555" data-name="Trazado 917555" d="M22.922,9.792v3.961H18.169a1.589,1.589,0,0,0-1.584-1.584H15V9.792A.8.8,0,0,1,15.792,9H22.13A.8.8,0,0,1,22.922,9.792Z" transform="translate(-15 -9)" fill="#e6e9ed"/>
        </g>
        <g id="Grupo_1119791" data-name="Grupo 1119791" transform="translate(1.584 14.26)">
          <path id="Trazado_917556" data-name="Trazado 917556" d="M14.091,25.338a1.6,1.6,0,0,0,1.584-1.584V19H28.351L27.084,44.351h-5.07a1.589,1.589,0,0,0-1.584,1.584V49.1a1.589,1.589,0,0,0,1.584,1.584H7.595a3.167,3.167,0,0,1-3.161-3.01L3,19H6.169v9.507a1.584,1.584,0,0,0,3.169,0V22.169a1.589,1.589,0,0,1,1.584-1.584,1.6,1.6,0,0,1,1.584,1.584v1.584a1.589,1.589,0,0,0,1.584,1.584Z" transform="translate(-3 -19)" fill="#b4dd7f"/>
        </g>
        <g id="Grupo_1119792" data-name="Grupo 1119792" transform="translate(14.26 11.091)">
          <path id="Trazado_917557" data-name="Trazado 917557" d="M33.26,15.792v1.584a.8.8,0,0,1-.792.792H19V15H32.468A.8.8,0,0,1,33.26,15.792Z" transform="translate(-19 -15)" fill="#8cc152"/>
        </g>
        <g id="Grupo_1119793" data-name="Grupo 1119793" transform="translate(0 11.091)">
          <path id="Trazado_917558" data-name="Trazado 917558" d="M5.753,15v3.169H1.792A.8.8,0,0,1,1,17.377V15.792A.8.8,0,0,1,1.792,15Z" transform="translate(-1 -15)" fill="#8cc152"/>
        </g>
        <g id="Grupo_1119794" data-name="Grupo 1119794" transform="translate(4.753 9.507)">
          <path id="Trazado_917559" data-name="Trazado 917559" d="M7,14.584A1.589,1.589,0,0,1,8.584,13h6.338a1.589,1.589,0,0,1,1.584,1.584v7.922a1.6,1.6,0,0,1-1.584,1.584,1.589,1.589,0,0,1-1.584-1.584V20.922a1.6,1.6,0,0,0-1.584-1.584,1.589,1.589,0,0,0-1.584,1.584V27.26A1.584,1.584,0,0,1,7,27.26V14.584Z" transform="translate(-7 -13)" fill="#a0d468"/>
        </g>
        <g id="Grupo_1119795" data-name="Grupo 1119795" transform="translate(31.689 41.196)">
          <path id="Trazado_917560" data-name="Trazado 917560" d="M44.169,54.584v.792a.8.8,0,0,1-.792.792H41V53h2.377a.8.8,0,0,1,.792.792Z" transform="translate(-41 -53)" fill="#fcd770"/>
        </g>
        <g id="Grupo_1119796" data-name="Grupo 1119796" transform="translate(19.013 39.611)">
          <path id="Trazado_917561" data-name="Trazado 917561" d="M34.507,51H26.584A1.589,1.589,0,0,0,25,52.584v3.169a1.589,1.589,0,0,0,1.584,1.584h7.922l3.169-1.584V52.584Z" transform="translate(-25 -51)" fill="#ffeaa7"/>
        </g>
        <g id="Grupo_1119797" data-name="Grupo 1119797" transform="translate(33.274 42.78)">
          <path id="Trazado_917562" data-name="Trazado 917562" d="M54.883,55a2.377,2.377,0,0,1,0,4.753H49.338a1.589,1.589,0,0,1-1.584-1.584H44.584A1.589,1.589,0,0,1,43,56.584h.792a.8.8,0,0,0,.792-.792V55h10.3Z" transform="translate(-43 -55)" fill="#69d6f4"/>
        </g>
        <g id="Grupo_1119798" data-name="Grupo 1119798" transform="translate(41.234 39.366)">
          <ellipse id="Elipse_11849" data-name="Elipse 11849" cx="1.401" cy="1.868" rx="1.401" ry="1.868" transform="translate(0 0)" fill="#4fc1e9"/>
        </g>
        <g id="Grupo_1119799" data-name="Grupo 1119799" transform="translate(7.922 20.598)">
          <path id="Trazado_917563" data-name="Trazado 917563" d="M17.338,39.676H15.753a1.589,1.589,0,0,1-1.584-1.584V37.3l-.1-.024a4.09,4.09,0,0,1-2.218-1.442,4.047,4.047,0,0,1-.856-2.5,6.338,6.338,0,0,1,12.676,0A4.059,4.059,0,0,1,20.6,37.275l-.1.024v.792a1.589,1.589,0,0,1-1.584,1.584Z" transform="translate(-11 -27)" fill="#969faa"/>
        </g>
        <g id="Grupo_1119800" data-name="Grupo 1119800" transform="translate(14.15 25.357)">
          <ellipse id="Elipse_11850" data-name="Elipse 11850" cx="1.868" cy="1.401" rx="1.868" ry="1.401" transform="translate(0 0)" fill="#ccd1d9"/>
        </g>
        <g id="Grupo_1119801" data-name="Grupo 1119801" transform="translate(11.349 25.357)">
          <circle id="Elipse_11851" data-name="Elipse 11851" cx="1.401" cy="1.401" r="1.401" transform="translate(0 0)" fill="#ccd1d9"/>
        </g>
      </g>
      <g id="Grupo_1119803" data-name="Grupo 1119803" transform="translate(0)">
        <path id="Trazado_917564" data-name="Trazado 917564" d="M21.922,34.377a2.367,2.367,0,0,0-3.961-1.759,2.377,2.377,0,1,0,0,3.517,2.367,2.367,0,0,0,3.961-1.759Zm-5.546.792a.792.792,0,1,1,.792-.792A.794.794,0,0,1,16.377,35.169Zm2.377-.792a.792.792,0,1,1,.792.792A.794.794,0,0,1,18.753,34.377Z" transform="translate(-2.909 -6.649)"/>
        <path id="Trazado_917565" data-name="Trazado 917565" d="M45.949,42.78H45.8a2.35,2.35,0,0,0,.146-.792,2.377,2.377,0,0,0-4.753,0,2.35,2.35,0,0,0,.146.792h-1.73V32.809l7.13-7.13L47.766,26.7l1.12-1.12-1.024-1.024,1.024-1.024-1.12-1.12-3.4,3.4V20.6H42.78v2.049l-1.024-1.024-1.12,1.12,2.145,2.145V27.4l-3.169,3.169V21.718l6.106-6.106-1.12-1.12L42.78,16.309V14.26H41.2v3.633l-1.584,1.584V11.555L37.795,9.739l-1.12,1.12,1.352,1.352v12.02l-4.985-4.985-1.12,1.12,1.817,1.817L31.921,24l1.12,1.12L34.858,23.3l3.169,3.169v8.851l-6.57-6.57-1.12,1.12,1.817,1.817-1.817,1.817,1.12,1.12,1.817-1.817,4.753,4.753V42.78H36.443A1.586,1.586,0,0,0,34.858,41.2h-2.19L29.5,39.611H27.293l1.188-23.767h.039A1.586,1.586,0,0,0,30.1,14.26V12.676a1.586,1.586,0,0,0-1.584-1.584H26.936V8.02a4.969,4.969,0,0,0-3.169-4.637v-1.8h1.584V0H17.429V1.584h1.584v1.8A5.027,5.027,0,0,0,16.14,6.338H13.8L8.25.792a2.769,2.769,0,0,0-3.825,0L.792,4.425a2.7,2.7,0,0,0,0,3.825l2.841,2.841H1.584A1.586,1.586,0,0,0,0,12.676V14.26a1.586,1.586,0,0,0,1.584,1.584h.039l1.4,27.926a3.957,3.957,0,0,0,3.956,3.763H29.5l3.169-1.584h.751a2.373,2.373,0,0,0,2.231,1.584h2.512A2.381,2.381,0,0,0,40.4,49.118h5.546a3.169,3.169,0,1,0,0-6.338Zm-3.169-.792a.792.792,0,1,1,.792.792A.794.794,0,0,1,42.78,41.988Zm-7.922,2.377H33.274V42.78h1.584ZM25.351,41.2v4.753H23.767V41.2Zm1.584,0H28.52v4.753H26.936ZM28.52,14.26H15.845V12.676H28.52ZM14.26,31.689v1.584h-.792a.794.794,0,0,1-.792-.792V31.07l-.695-.173a3.261,3.261,0,0,1-2.474-3.169,5.546,5.546,0,1,1,11.091,0A3.261,3.261,0,0,1,18.125,30.9l-.7.173v1.412a.794.794,0,0,1-.792.792h-.792V31.689ZM5.241,10.458l-.951-.951L9.507,4.289,11.814,6.6a1.582,1.582,0,0,0-.723,1.326V9.507H7.13A2.365,2.365,0,0,0,5.241,10.458Zm13.773.633H15.7a2.373,2.373,0,0,0-2.231-1.584h-.792V7.922h6.338Zm-12.676.792a.794.794,0,0,1,.792-.792h6.338a.794.794,0,0,1,.792.792v7.922a.792.792,0,0,1-1.584,0V18.221a2.377,2.377,0,1,0-4.753,0v6.338a.792.792,0,0,1-1.584,0Zm3.169,6.338a.792.792,0,1,1,1.584,0v1.584a2.363,2.363,0,0,0,.644,1.616,7.166,7.166,0,0,0-2.229,1.835ZM20,4.73l.6-.15v-3h1.584v3l.6.15a3.387,3.387,0,0,1,2.569,3.29v3.071H20.6V7.922a1.586,1.586,0,0,0-1.584-1.584h-1.13A3.411,3.411,0,0,1,20,4.73ZM1.584,6.338a1.129,1.129,0,0,1,.328-.792L5.546,1.912a1.16,1.16,0,0,1,1.584,0L8.387,3.169,3.169,8.387,1.912,7.13a1.129,1.129,0,0,1-.328-.792Zm0,6.338H4.753V14.26H1.584ZM6.976,45.949A2.376,2.376,0,0,1,4.6,43.691L3.209,15.845H4.753v8.715A2.38,2.38,0,0,0,7.13,26.936,2.35,2.35,0,0,0,8,26.767a7.126,7.126,0,0,0-.073.961,4.845,4.845,0,0,0,3.169,4.551v.2a2.38,2.38,0,0,0,2.377,2.377h3.169a2.38,2.38,0,0,0,2.377-2.377v-.2a4.844,4.844,0,0,0,3.169-4.551,7.137,7.137,0,0,0-6.494-7.1,2.361,2.361,0,0,0,.156-.825V15.845H26.9L25.707,39.611H21.534l-4.225-1.584,4.225-1.584h2.233V34.858H22.182V33.274H20.6V35.1l-5.546,2.08L9.507,35.1V33.274H7.922v1.584H6.338v1.584H8.57L12.8,38.027,8.57,39.611H6.338V41.2H7.922V42.78H9.507V40.953l5.546-2.08,4.462,1.673a2.354,2.354,0,0,0-.5,1.442v3.169a2.384,2.384,0,0,0,.135.792ZM20.6,45.157V41.988a.794.794,0,0,1,.792-.792h.792v4.753H21.39A.794.794,0,0,1,20.6,45.157Zm11.091-.49L30.1,45.46V41.685l1.584.792Zm14.26,2.866H40.4a.794.794,0,0,1-.792-.792v-.792H35.65a.781.781,0,0,1-.33-.077,1.582,1.582,0,0,0,1.122-1.508h9.507a1.584,1.584,0,0,1,0,3.169Z" transform="translate(0)"/>
      </g>
    </g>
  </g>
</svg>
