<svg xmlns="http://www.w3.org/2000/svg" width="77" height="77" viewBox="0 0 77 77">
  <g id="Grupo_1121280" data-name="Grupo 1121280" transform="translate(-242.051 -9188)">
    <g id="Grupo_1098742" data-name="Grupo 1098742" transform="translate(242.051 9188)">
      <rect id="Rectángulo_400898" data-name="Rectángulo 400898" width="77" height="77" rx="38.5" transform="translate(0)" fill="#0d8449"/>
      <rect id="Rectángulo_400907" data-name="Rectángulo 400907" width="77" height="77" rx="38.5" fill="none"/>
    </g>
    <g id="Grupo_1121279" data-name="Grupo 1121279" transform="translate(256.047 9202)">
      <path id="Trazado_919242" data-name="Trazado 919242" d="M50.033,57.116H11.919A1.915,1.915,0,0,1,10,55.2V11.915A1.915,1.915,0,0,1,11.919,10H50.033a1.915,1.915,0,0,1,1.915,1.915V55.2A1.915,1.915,0,0,1,50.033,57.116Z" transform="translate(-9.042 -9.042)" fill="#a5ddff"/>
      <rect id="Rectángulo_405612" data-name="Rectángulo 405612" width="32.752" height="37.923" transform="translate(5.558 5.554)" fill="#fff"/>
      <path id="Trazado_919243" data-name="Trazado 919243" d="M380.128,310.7v9l-3.064-3.049L374,319.7v-9Z" transform="translate(-338.18 -280.942)" fill="#95e540"/>
      <path id="Trazado_919244" data-name="Trazado 919244" d="M320.173,118.973h0a1.828,1.828,0,0,1,2.611.7h0a1.828,1.828,0,0,0,1.709.987h0a1.828,1.828,0,0,1,1.911,1.911h0a1.828,1.828,0,0,0,.987,1.709h0a1.828,1.828,0,0,1,.7,2.611h0a1.828,1.828,0,0,0,0,1.974h0a1.828,1.828,0,0,1-.7,2.611h0a1.828,1.828,0,0,0-.987,1.709h0a1.828,1.828,0,0,1-1.911,1.911h0a1.828,1.828,0,0,0-1.709.987h0a1.828,1.828,0,0,1-2.611.7h0a1.828,1.828,0,0,0-1.973,0h0a1.828,1.828,0,0,1-2.611-.7h0a1.828,1.828,0,0,0-1.709-.987h0a1.828,1.828,0,0,1-1.911-1.911h0a1.828,1.828,0,0,0-.987-1.709h0a1.828,1.828,0,0,1-.7-2.611h0a1.828,1.828,0,0,0,0-1.974h0a1.828,1.828,0,0,1,.7-2.611h0a1.828,1.828,0,0,0,.987-1.709h0a1.828,1.828,0,0,1,1.911-1.911h0a1.828,1.828,0,0,0,1.709-.987h0a1.828,1.828,0,0,1,2.611-.7h0A1.829,1.829,0,0,0,320.173,118.973Z" transform="translate(-280.303 -107.318)" fill="#fe6663"/>
      <path id="Trazado_919245" data-name="Trazado 919245" d="M42.906,42.519a.958.958,0,0,0-.958.958v2.681a.959.959,0,0,1-.958.958H2.877a.959.959,0,0,1-.958-.958V2.873a.959.959,0,0,1,.958-.958H40.991a.959.959,0,0,1,.958.958V7.948a.958.958,0,0,0,1.915,0V2.873A2.876,2.876,0,0,0,40.991,0H2.877A2.876,2.876,0,0,0,0,2.873V46.158a2.876,2.876,0,0,0,2.873,2.873H40.991a2.876,2.876,0,0,0,2.873-2.873V43.477A.958.958,0,0,0,42.906,42.519Z"/>
      <path id="Trazado_919246" data-name="Trazado 919246" d="M81.708,52.405a.958.958,0,0,0,.958-.958v-2.49A.958.958,0,0,0,81.708,48H48.956a.958.958,0,0,0-.958.958V68.972a.958.958,0,0,0,1.915,0V49.915H80.75v1.532A.958.958,0,0,0,81.708,52.405Z" transform="translate(-43.398 -43.403)"/>
      <path id="Trazado_919247" data-name="Trazado 919247" d="M48.952,295.915a.958.958,0,1,0-.677-.281A.963.963,0,0,0,48.952,295.915Z" transform="translate(-43.394 -265.845)"/>
      <path id="Trazado_919248" data-name="Trazado 919248" d="M49.913,333.458a.958.958,0,0,0-1.915,0v10.678a.958.958,0,0,0,.958.958H81.708a.958.958,0,0,0,.958-.958v-2.107a.958.958,0,0,0-1.915,0v1.149H49.913Z" transform="translate(-43.398 -300.658)"/>
      <path id="Trazado_919249" data-name="Trazado 919249" d="M231.471,350.687l-1.893,1.893L228.4,351.4a1.907,1.907,0,0,0-2.694,0l-.766.766a.958.958,0,0,0,1.354,1.354l.758-.758,1.176,1.177a1.907,1.907,0,0,0,2.694,0l1.9-1.9a.958.958,0,0,0-1.354-1.354Z" transform="translate(-203.143 -316.85)"/>
      <path id="Trazado_919250" data-name="Trazado 919250" d="M153.281,118.372a2.786,2.786,0,0,0-1.066-3.978.873.873,0,0,1-.47-.814,2.786,2.786,0,0,0-2.912-2.912.87.87,0,0,1-.814-.47,2.786,2.786,0,0,0-3.978-1.066h0a.873.873,0,0,1-.94,0,2.786,2.786,0,0,0-3.978,1.066.875.875,0,0,1-.814.47,2.786,2.786,0,0,0-2.912,2.912.873.873,0,0,1-.47.814,2.78,2.78,0,0,0-1.48,2.85H116.736a.958.958,0,0,0,0,1.915h17.2a.862.862,0,0,1-.076.153,2.792,2.792,0,0,0-.346,2.225,2.747,2.747,0,0,0,.1.3h-16.88a.958.958,0,1,0,0,1.915h18.6a.865.865,0,0,1,.057.348,2.786,2.786,0,0,0,2.912,2.912.872.872,0,0,1,.814.47,2.778,2.778,0,0,0,.426.608v8.944a.958.958,0,0,0,1.633.679l2.389-2.377,2.389,2.377a.958.958,0,0,0,1.633-.679v-8.944a2.776,2.776,0,0,0,.426-.608.874.874,0,0,1,.814-.47,2.786,2.786,0,0,0,2.912-2.912.873.873,0,0,1,.47-.814,2.786,2.786,0,0,0,1.066-3.979A.872.872,0,0,1,153.281,118.372Zm-9.035,14.938a.958.958,0,0,0-1.351,0l-1.431,1.424v-5.745a2.793,2.793,0,0,0,1.637-.437.873.873,0,0,1,.94,0,2.791,2.791,0,0,0,1.505.44c.044,0,.088,0,.131,0v5.746Zm7.423-12.965a.871.871,0,0,1-.333,1.243,2.793,2.793,0,0,0-1.5,2.6.871.871,0,0,1-.91.91,2.793,2.793,0,0,0-2.6,1.5.871.871,0,0,1-1.243.333,2.794,2.794,0,0,0-3.007,0,.871.871,0,0,1-1.243-.333,2.792,2.792,0,0,0-2.6-1.5.871.871,0,0,1-.91-.91,2.792,2.792,0,0,0-.758-2.039c-.015-.016-.03-.032-.046-.048a2.77,2.77,0,0,0-.7-.517.871.871,0,0,1-.333-1.243,2.793,2.793,0,0,0,0-3.007.871.871,0,0,1,.333-1.243,2.794,2.794,0,0,0,1.5-2.6.871.871,0,0,1,.91-.91,2.793,2.793,0,0,0,2.6-1.5.871.871,0,0,1,1.243-.333,2.793,2.793,0,0,0,3.007,0,.871.871,0,0,1,1.243.333,2.793,2.793,0,0,0,2.6,1.5.871.871,0,0,1,.91.91,2.793,2.793,0,0,0,1.5,2.6.871.871,0,0,1,.333,1.243A2.793,2.793,0,0,0,151.669,120.346Z" transform="translate(-104.687 -98.282)"/>
      <path id="Trazado_919251" data-name="Trazado 919251" d="M382.017,184.838l-3.178,3.179-1.265-1.265a.958.958,0,1,0-1.354,1.354l1.943,1.943a.958.958,0,0,0,1.354,0l3.856-3.856a.958.958,0,0,0-1.354-1.354Z" transform="translate(-339.933 -166.883)"/>
      <path id="Trazado_919252" data-name="Trazado 919252" d="M106.919,118.958a.958.958,0,1,0-.281.677A.965.965,0,0,0,106.919,118.958Z" transform="translate(-94.945 -106.7)"/>
      <path id="Trazado_919253" data-name="Trazado 919253" d="M143.288,118a.958.958,0,0,0,0,1.915h4.661a.958.958,0,1,0,0-1.915Z" transform="translate(-128.696 -106.7)"/>
      <path id="Trazado_919254" data-name="Trazado 919254" d="M190.422,294H179.474a.958.958,0,1,0,0,1.915h10.948a.958.958,0,0,0,0-1.915Z" transform="translate(-161.417 -265.845)"/>
    </g>
  </g>
</svg>
