<svg xmlns="http://www.w3.org/2000/svg" width="77" height="77" viewBox="0 0 77 77">
  <g id="Grupo_1119780" data-name="Grupo 1119780" transform="translate(6893 219)">
    <g id="Grupo_1098742" data-name="Grupo 1098742" transform="translate(-6893 -219)">
      <rect id="Rect치ngulo_400898" data-name="Rect치ngulo 400898" width="77" height="77" rx="38.5" transform="translate(0 0)" fill="#ccda2d"/>
      <rect id="Rect치ngulo_400907" data-name="Rect치ngulo 400907" width="77" height="77" rx="38.5" transform="translate(0 0)" fill="none"/>
    </g>
    <g id="Grupo_1119779" data-name="Grupo 1119779" transform="translate(-6954.246 -208)">
      <g id="Grupo_1119766" data-name="Grupo 1119766" transform="translate(84.214 26.359)">
        <path id="Trazado_917515" data-name="Trazado 917515" d="M140.292,248.554l-15.162-2.473-16.118,2.473h-.058c2.481,17.274,1.339,9.328,3.009,20.96l12.658,1.535,12.658-1.535Z" transform="translate(-108.955 -246.081)" fill="#cbe2ff" fill-rule="evenodd"/>
      </g>
      <g id="Grupo_1119767" data-name="Grupo 1119767" transform="translate(82.049 24.387)">
        <path id="Trazado_917516" data-name="Trazado 917516" d="M122.354,227.668H90.968a2.223,2.223,0,0,0,0,4.445h31.385a2.223,2.223,0,0,0,0-4.445Z" transform="translate(-88.746 -227.668)" fill="#9dc6fb" fill-rule="evenodd"/>
      </g>
      <g id="Grupo_1119768" data-name="Grupo 1119768" transform="translate(84.727 39.784)">
        <path id="Trazado_917517" data-name="Trazado 917517" d="M122.063,372.859a2.046,2.046,0,0,0-2.441-1.378,15.99,15.99,0,0,1-3.835.465,2.041,2.041,0,0,0-.322,4.057,1.871,1.871,0,0,0,.322.024,20.05,20.05,0,0,0,4.812-.583,2.041,2.041,0,0,0,1.494-2.469C122.084,372.935,122.072,372.9,122.063,372.859Z" transform="translate(-113.747 -371.42)" fill="#ffe07d" fill-rule="evenodd"/>
      </g>
      <g id="Grupo_1119769" data-name="Grupo 1119769" transform="translate(87.223 49.791)">
        <path id="Trazado_917518" data-name="Trazado 917518" d="M162.363,464.843H137.047l.325,2.247a2.121,2.121,0,0,0,2,2H160.04a2.127,2.127,0,0,0,2-2Z" transform="translate(-137.047 -464.843)" fill="#9dc6fb" fill-rule="evenodd"/>
      </g>
      <g id="Grupo_1119770" data-name="Grupo 1119770" transform="translate(84.214 28.832)">
        <path id="Trazado_917519" data-name="Trazado 917519" d="M128.922,269.167H108.956l.377,2.629H136.37l-2.635,18.33h3.546l3.012-20.96Z" transform="translate(-108.956 -269.167)" fill="#bed8fb" fill-rule="evenodd"/>
      </g>
      <g id="Grupo_1119771" data-name="Grupo 1119771" transform="translate(106.67 49.791)">
        <path id="Trazado_917520" data-name="Trazado 917520" d="M324.47,464.843h-3.546l-.322,2.247a2.122,2.122,0,0,1-2,2h3.546a2.127,2.127,0,0,0,2-2Z" transform="translate(-318.601 -464.843)" fill="#80b4fb" fill-rule="evenodd"/>
      </g>
      <g id="Grupo_1119772" data-name="Grupo 1119772" transform="translate(111.352 24.387)">
        <path id="Trazado_917521" data-name="Trazado 917521" d="M368.839,229.891a2.228,2.228,0,0,0-2.223-2.223h-4.305a2.223,2.223,0,0,1,0,4.445h4.305A2.23,2.23,0,0,0,368.839,229.891Z" transform="translate(-362.311 -227.668)" fill="#80b4fb" fill-rule="evenodd"/>
      </g>
      <g id="Grupo_1119773" data-name="Grupo 1119773" transform="translate(84.827 40.011)">
        <path id="Trazado_917522" data-name="Trazado 917522" d="M120.424,376.15a20.066,20.066,0,0,1-4.293.577c-.173,0-.346.006-.519.006a1.932,1.932,0,0,1-.325-.027,1.988,1.988,0,0,1-.6-.2,2.054,2.054,0,0,0,1.618,1.385,1.871,1.871,0,0,0,.322.024,20.051,20.051,0,0,0,4.812-.583,2.041,2.041,0,0,0,1.494-2.469c-.009-.039-.021-.076-.03-.115a2.035,2.035,0,0,0-1.023-1.211l.009.027c.012.036.021.076.03.112a2.043,2.043,0,0,1-1.491,2.472Z" transform="translate(-114.682 -373.539)" fill="#ffd064" fill-rule="evenodd"/>
      </g>
      <g id="Grupo_1119774" data-name="Grupo 1119774" transform="translate(83.566 0.804)">
        <path id="Trazado_917523" data-name="Trazado 917523" d="M134.187,7.5h-29.77a14.819,14.819,0,0,0,1.2,6.953l-1.8,1.038a1.829,1.829,0,1,0,1.831,3.167l1.822-1.051a14.9,14.9,0,0,0,2.745,2.751l-1.051,1.819a1.83,1.83,0,1,0,3.17,1.828l1.035-1.794a15.084,15.084,0,0,0,4.1,1.117v1.63a1.829,1.829,0,0,0,3.659,0V23.331a14.774,14.774,0,0,0,4.105-1.12l1.035,1.794a1.83,1.83,0,1,0,3.17-1.828l-1.054-1.822a14.827,14.827,0,0,0,2.751-2.748l1.819,1.051a1.829,1.829,0,1,0,1.831-3.167l-1.8-1.038A14.963,14.963,0,0,0,134.187,7.5Z" transform="translate(-102.903 -7.5)" fill="#ffdfcf" fill-rule="evenodd"/>
      </g>
      <path id="Trazado_917524" data-name="Trazado 917524" d="M118.683,223.191a3.028,3.028,0,0,0-3.026-3.023H96.647a.8.8,0,1,0,0,1.607h7.262a17.008,17.008,0,0,1-.375,2.835H84.272a1.418,1.418,0,1,1,0-2.835H92.94a.8.8,0,1,0,0-1.607H84.272a3.024,3.024,0,0,0-.769,5.95l1.518,10.575a2.841,2.841,0,0,0,.7,4.886l1.028,7.157a2.911,2.911,0,0,0,2.793,2.691h20.671a2.918,2.918,0,0,0,2.8-2.69l3.244-22.58A3.03,3.03,0,0,0,118.683,223.191Zm-33.543,3.026H103.1a17.258,17.258,0,0,1-9.671,10.572,2.852,2.852,0,0,0-3.018-1.14,15.2,15.2,0,0,1-3.642.441c-.07,0-.14,0-.209.008Zm1.088,11.606.017-.008a1.228,1.228,0,0,1,.523-.117,16.808,16.808,0,0,0,4.028-.488,1.237,1.237,0,0,1,.594,2.4h0a19.268,19.268,0,0,1-4.62.56,1.236,1.236,0,0,1-.54-2.349Zm23.988,12H89.546a1.352,1.352,0,0,1-1.2-1.312l-.191-1.329h9.928a.8.8,0,0,0,0-1.607H87.921l-.546-3.8a20.852,20.852,0,0,0,4.4-.6,2.847,2.847,0,0,0,2.164-2.853,18.811,18.811,0,0,0,10.858-12.1h9.83l-2.781,19.356h-9.907a.8.8,0,1,0,0,1.607h9.676l-.191,1.328a1.357,1.357,0,0,1-1.206,1.313Zm5.441-25.21H105.184a18.832,18.832,0,0,0,.335-2.835h10.138a1.418,1.418,0,1,1,0,2.835Z" transform="translate(0 -196.585)"/>
      <g id="Grupo_1119775" data-name="Grupo 1119775" transform="translate(96.359 0.804)">
        <path id="Trazado_917525" data-name="Trazado 917525" d="M239.634,14.453a14.963,14.963,0,0,0,1.2-6.953H229.937a8.548,8.548,0,0,1,1.943,5.3,7.59,7.59,0,0,1-.073,1.054c-.553,4.072-4.281,7.512-9.467,9.139a15.245,15.245,0,0,0,1.776.331v1.63a1.829,1.829,0,0,0,3.659,0V23.331a14.774,14.774,0,0,0,4.105-1.12l1.035,1.794a1.83,1.83,0,1,0,3.17-1.828l-1.054-1.822a14.827,14.827,0,0,0,2.751-2.748l1.819,1.051a1.829,1.829,0,1,0,1.831-3.167Z" transform="translate(-222.34 -7.5)" fill="#ffcebf" fill-rule="evenodd"/>
      </g>
      <g id="Grupo_1119776" data-name="Grupo 1119776" transform="translate(82.761 0)">
        <path id="Trazado_917526" data-name="Trazado 917526" d="M112.595,20.894a2.634,2.634,0,0,1-2.631-2.631v-.937a15.856,15.856,0,0,1-2.955-.8l-.686,1.189a2.633,2.633,0,0,1-4.562-2.63l.707-1.225a15.713,15.713,0,0,1-1.9-1.9l-1.225.707A2.632,2.632,0,0,1,96.71,8.1L97.9,7.412A15.726,15.726,0,0,1,96.91.748a.8.8,0,0,1,1.6.111,14.094,14.094,0,0,0,1.131,6.577.8.8,0,0,1-.335,1.017l-1.8,1.038a1.026,1.026,0,0,0,1.027,1.776l1.823-1.051a.8.8,0,0,1,1.039.207,14.118,14.118,0,0,0,2.6,2.6.8.8,0,0,1,.206,1.038l-1.051,1.819a1.026,1.026,0,1,0,1.779,1.024l1.035-1.794a.8.8,0,0,1,1.014-.336,14.263,14.263,0,0,0,3.886,1.058.8.8,0,0,1,.7.8v1.63a1.026,1.026,0,0,0,2.052,0V16.635a.8.8,0,0,1,.706-.8,13.975,13.975,0,0,0,3.882-1.06.8.8,0,0,1,1.016.335l1.035,1.794a1.026,1.026,0,1,0,1.778-1.026l-1.053-1.82a.8.8,0,0,1,.207-1.04,14.037,14.037,0,0,0,2.6-2.6.8.8,0,0,1,1.039-.207l1.819,1.051a1.026,1.026,0,0,0,1.029-1.775l-1.8-1.039a.8.8,0,0,1-.335-1.014A14.2,14.2,0,0,0,126.68.859a.8.8,0,0,1,1.6-.11,15.811,15.811,0,0,1-.991,6.662l1.193.689a2.632,2.632,0,0,1-2.635,4.558l-1.222-.706a15.664,15.664,0,0,1-1.9,1.9l.708,1.225a2.633,2.633,0,0,1-4.561,2.632l-.686-1.188a15.557,15.557,0,0,1-2.956.806v.933a2.635,2.635,0,0,1-2.634,2.631Z" transform="translate(-95.393 0)"/>
      </g>
      <g id="Grupo_1119777" data-name="Grupo 1119777" transform="translate(103.128 5.329)">
        <path id="Trazado_917527" data-name="Trazado 917527" d="M289.031,52.466a4.6,4.6,0,0,1-3.261-1.346.8.8,0,1,1,1.135-1.137,3.014,3.014,0,0,0,4.251,0,.8.8,0,0,1,1.135,1.137A4.6,4.6,0,0,1,289.031,52.466Z" transform="translate(-285.535 -49.748)"/>
      </g>
      <g id="Grupo_1119778" data-name="Grupo 1119778" transform="translate(91.187 7.47)">
        <path id="Trazado_917528" data-name="Trazado 917528" d="M177.547,72.453a4.6,4.6,0,0,1-3.261-1.349.8.8,0,0,1,1.136-1.136,3.009,3.009,0,0,0,4.25,0,.8.8,0,0,1,1.136,1.136A4.6,4.6,0,0,1,177.547,72.453Z" transform="translate(-174.05 -69.733)"/>
      </g>
    </g>
  </g>
</svg>
