<svg xmlns="http://www.w3.org/2000/svg" width="77" height="77" viewBox="0 0 77 77">
  <g id="Grupo_1119810" data-name="Grupo 1119810" transform="translate(5607 219)">
    <g id="Grupo_1098742" data-name="Grupo 1098742" transform="translate(-5607 -219)">
      <rect id="Rect치ngulo_400898" data-name="Rect치ngulo 400898" width="77" height="77" rx="38.5" transform="translate(0 0)" fill="#ccda2d"/>
      <rect id="Rect치ngulo_400907" data-name="Rect치ngulo 400907" width="77" height="77" rx="38.5" transform="translate(0 0)" fill="none"/>
    </g>
    <g id="Grupo_1119809" data-name="Grupo 1119809" transform="translate(-5592 -204)">
      <g id="Grupo_1119807" data-name="Grupo 1119807" transform="translate(0.689 0.689)">
        <path id="Trazado_917566" data-name="Trazado 917566" d="M106.06,7.5H70.268a.643.643,0,0,0-.643.643v7.527H106.7V8.143A.643.643,0,0,0,106.06,7.5Z" transform="translate(-63.921 -7.5)" fill="#b9def9"/>
        <path id="Trazado_917567" data-name="Trazado 917567" d="M415.386,250.226a2.851,2.851,0,0,1-1.431-2.474l-2.873-22.817h5.4a.643.643,0,0,1,.643.643l1.234,22.174C418.363,249.327,415.8,250.466,415.386,250.226Z" transform="translate(-374.025 -204.97)" fill="#ffc344"/>
        <path id="Trazado_917568" data-name="Trazado 917568" d="M461.59,224.936h-2.842a.643.643,0,0,1,.643.643v22.174a2.851,2.851,0,0,1-1.431,2.474,2.853,2.853,0,0,0,4.273-2.474V225.579A.643.643,0,0,0,461.59,224.936Z" transform="translate(-416.599 -204.971)" fill="#feb137"/>
        <g id="Grupo_1119806" data-name="Grupo 1119806" transform="translate(2.852 2.852)">
          <path id="Trazado_917569" data-name="Trazado 917569" d="M75.921,78.5H38.562V39.2a.643.643,0,0,1,.643-.643H74.213l2.9,4.278V77.3A1.193,1.193,0,0,1,75.921,78.5Z" transform="translate(-38.562 -38.562)" fill="#f0fcff"/>
          <path id="Trazado_917570" data-name="Trazado 917570" d="M430.468,64.978l.607,1.853v34.463a1.15,1.15,0,0,1-1.141,1.194h2.8a1.194,1.194,0,0,0,1.194-1.194V66.831Z" transform="translate(-393.998 -62.552)" fill="#d7ecfe"/>
          <path id="Trazado_917571" data-name="Trazado 917571" d="M426.84,38.562V42.2a.643.643,0,0,0,.643.643h3.635Z" transform="translate(-391.188 -38.562)" fill="#9dcffd"/>
        </g>
        <path id="Trazado_917572" data-name="Trazado 917572" d="M45.78,219.543V194.517a.643.643,0,0,0-.643-.643H34.6l-2.852,4.278H8.143a.643.643,0,0,0-.643.643v20.754a2.846,2.846,0,0,0,2.846,2.846H48.632A2.852,2.852,0,0,1,45.78,219.543Z" transform="translate(-7.5 -176.761)" fill="#ffe177"/>
        <path id="Trazado_917573" data-name="Trazado 917573" d="M408.77,219.543h0V194.517a.643.643,0,0,0-.643-.643h-2.755a.643.643,0,0,1,.643.643v25.026h0a2.852,2.852,0,0,0,2.852,2.852h2.755A2.852,2.852,0,0,1,408.77,219.543Z" transform="translate(-368.84 -176.761)" fill="#f9d45d"/>
        <path id="Trazado_917574" data-name="Trazado 917574" d="M62.819,401.482H54.736a.643.643,0,0,1-.643-.643v-4.419a.643.643,0,0,1,.643-.643h8.083a.643.643,0,0,1,.643.643v4.419A.643.643,0,0,1,62.819,401.482Z" transform="translate(-49.815 -360.126)" fill="#ffc344"/>
        <path id="Trazado_917575" data-name="Trazado 917575" d="M144.1,395.778h-2.755a.643.643,0,0,1,.643.643v4.419a.643.643,0,0,1-.643.643H144.1a.643.643,0,0,0,.643-.643v-4.419A.643.643,0,0,0,144.1,395.778Z" transform="translate(-129.053 -360.126)" fill="#feb137"/>
      </g>
      <g id="Grupo_1119808" data-name="Grupo 1119808" transform="translate(0)">
        <path id="Trazado_917576" data-name="Trazado 917576" d="M45.68,19.965H44.159V1.331A1.333,1.333,0,0,0,42.828,0H7.036A1.333,1.333,0,0,0,5.7,1.331V2.852H4.183A1.333,1.333,0,0,0,2.852,4.183V12.54a.689.689,0,0,0,1.377,0V4.229H38.5V7.176a1.333,1.333,0,0,0,1.331,1.331h2.947V42.282a.506.506,0,0,1-.505.505h-.97V27.6a.689.689,0,1,0-1.377,0V43.47a3.523,3.523,0,0,0,.74,2.163H3.535a2.16,2.16,0,0,1-2.158-2.158V22.768H24.932a.688.688,0,0,0,.573-.307l2.648-3.972H39.93V24.6a.689.689,0,1,0,1.377,0V18.444a1.333,1.333,0,0,0-1.331-1.331H27.784a.688.688,0,0,0-.573.307l-2.648,3.972H4.229V15.542a.689.689,0,1,0-1.377,0v5.849H1.331A1.333,1.333,0,0,0,0,22.722V43.476a3.539,3.539,0,0,0,3.535,3.535H43.47a3.545,3.545,0,0,0,3.541-3.541V21.3a1.333,1.333,0,0,0-1.331-1.331ZM7.082,1.377h35.7V6.156c-3.17-3.17-3.091-3.1-3.166-3.159L39.6,2.987a.706.706,0,0,0-.376-.134H7.082ZM39.881,5.2,41.808,7.13H39.881ZM45.634,43.47a2.166,2.166,0,0,1-2.154,2.163H43.47a2.167,2.167,0,0,1-2.049-1.469h.855a1.884,1.884,0,0,0,1.882-1.882V21.342h1.475V43.47Z" transform="translate(0)"/>
        <path id="Trazado_917577" data-name="Trazado 917577" d="M78.345,94.564h24.243a.689.689,0,0,0,0-1.377H78.345a.689.689,0,0,0,0,1.377Z" transform="translate(-70.526 -84.631)"/>
        <path id="Trazado_917578" data-name="Trazado 917578" d="M78.345,146.8H94.031a.689.689,0,1,0,0-1.377H78.345a.689.689,0,0,0,0,1.377Z" transform="translate(-70.526 -132.068)"/>
        <path id="Trazado_917579" data-name="Trazado 917579" d="M78.345,177.859H94.031a.689.689,0,1,0,0-1.377H78.345a.689.689,0,1,0,0,1.377Z" transform="translate(-70.526 -160.277)"/>
        <path id="Trazado_917580" data-name="Trazado 917580" d="M55.608,393.982a.689.689,0,0,0,0,1.377h2.439a1.333,1.333,0,0,0,1.331-1.331v-4.419a1.333,1.333,0,0,0-1.331-1.331H47.924a1.333,1.333,0,0,0-1.331,1.331v4.419a1.333,1.333,0,0,0,1.331,1.331h4.683a.689.689,0,0,0,0-1.377H47.97v-4.327H58v4.327Z" transform="translate(-42.315 -352.626)"/>
      </g>
    </g>
  </g>
</svg>
