<svg xmlns="http://www.w3.org/2000/svg" width="57" height="57" viewBox="0 0 57 57">
  <g id="Grupo_1121573" data-name="Grupo 1121573" transform="translate(-825.051 -11264)">
    <g id="Grupo_1121426" data-name="Grupo 1121426" transform="translate(205 6141)">
      <circle id="Elipse_11781" data-name="Elipse 11781" cx="28.5" cy="28.5" r="28.5" transform="translate(620.051 5123)" fill="#fff"/>
    </g>
    <g id="Grupo_1121572" data-name="Grupo 1121572" transform="translate(833.501 11272.45)">
      <g id="Grupo_1121547" data-name="Grupo 1121547" transform="translate(1.55 1.55)">
        <g id="Grupo_1121540" data-name="Grupo 1121540" transform="translate(24.651 0.006)">
          <g id="Grupo_1121539" data-name="Grupo 1121539">
            <path id="Trazado_919764" data-name="Trazado 919764" d="M54.249,14.093a1.431,1.431,0,0,1-1.434-1.434V5.192a.284.284,0,0,0-.284-.284H45.064a1.434,1.434,0,0,1,0-2.868H52.53a3.159,3.159,0,0,1,3.152,3.152v7.466A1.435,1.435,0,0,1,54.249,14.093Z" transform="translate(-43.346 -1.756)" fill="#656d78"/>
            <path id="Trazado_919765" data-name="Trazado 919765" d="M54.053,14.182a1.72,1.72,0,0,1-1.718-1.718V5H44.868a1.718,1.718,0,0,1,0-3.437h7.466A3.446,3.446,0,0,1,55.778,5v7.466a1.727,1.727,0,0,1-1.724,1.713ZM44.863,2.129a1.15,1.15,0,1,0,0,2.3h7.466A.575.575,0,0,1,52.9,5v7.466a1.15,1.15,0,1,0,2.3,0V5a2.87,2.87,0,0,0-2.868-2.868Z" transform="translate(-43.15 -1.56)"/>
          </g>
        </g>
        <g id="Grupo_1121542" data-name="Grupo 1121542" transform="translate(0)">
          <g id="Grupo_1121541" data-name="Grupo 1121541">
            <path id="Trazado_919766" data-name="Trazado 919766" d="M3.464,14.093A1.431,1.431,0,0,1,2.03,12.659V5.192A3.159,3.159,0,0,1,5.182,2.04h7.466a1.434,1.434,0,1,1,0,2.868H5.188a.284.284,0,0,0-.284.284v7.466a1.44,1.44,0,0,1-1.44,1.434Z" transform="translate(-1.746 -1.75)" fill="#656d78"/>
            <path id="Trazado_919767" data-name="Trazado 919767" d="M3.268,14.178A1.72,1.72,0,0,1,1.55,12.459V4.993A3.446,3.446,0,0,1,4.993,1.55h7.466a1.718,1.718,0,0,1,0,3.437H4.993v7.466a1.726,1.726,0,0,1-1.724,1.724ZM4.993,2.125A2.87,2.87,0,0,0,2.125,4.993v7.466a1.15,1.15,0,1,0,2.3,0V4.993A.575.575,0,0,1,5,4.418h7.466a1.15,1.15,0,1,0,0-2.3H4.993Z" transform="translate(-1.55 -1.55)"/>
          </g>
        </g>
        <g id="Grupo_1121544" data-name="Grupo 1121544" transform="translate(24.633 24.633)">
          <g id="Grupo_1121543" data-name="Grupo 1121543">
            <path id="Trazado_919768" data-name="Trazado 919768" d="M52.5,55.653H45.034a1.434,1.434,0,0,1,0-2.868H52.5a.284.284,0,0,0,.284-.284V45.034a1.434,1.434,0,0,1,2.868,0V52.5A3.159,3.159,0,0,1,52.5,55.653Z" transform="translate(-43.316 -43.316)" fill="#656d78"/>
            <path id="Trazado_919769" data-name="Trazado 919769" d="M52.3,55.742H44.838a1.718,1.718,0,0,1,0-3.437H52.3V44.838a1.718,1.718,0,1,1,3.437,0V52.3A3.439,3.439,0,0,1,52.3,55.742Zm-7.472-2.868a1.15,1.15,0,0,0,0,2.3H52.3A2.87,2.87,0,0,0,55.167,52.3V44.838a1.15,1.15,0,1,0-2.3,0V52.3a.575.575,0,0,1-.575.575h-7.46Z" transform="translate(-43.12 -43.12)"/>
          </g>
        </g>
        <g id="Grupo_1121546" data-name="Grupo 1121546" transform="translate(0 24.645)">
          <g id="Grupo_1121545" data-name="Grupo 1121545">
            <path id="Trazado_919770" data-name="Trazado 919770" d="M12.659,55.683H5.192A3.159,3.159,0,0,1,2.04,52.53V45.064a1.434,1.434,0,1,1,2.868,0V52.53a.284.284,0,0,0,.284.284h7.466a1.434,1.434,0,0,1,0,2.868Z" transform="translate(-1.75 -43.34)" fill="#656d78"/>
            <path id="Trazado_919771" data-name="Trazado 919771" d="M12.459,55.768H4.993A3.446,3.446,0,0,1,1.55,52.325V44.858a1.718,1.718,0,1,1,3.437,0v7.466h7.466a1.721,1.721,0,0,1,.006,3.443ZM3.268,43.715a1.151,1.151,0,0,0-1.15,1.15v7.466A2.87,2.87,0,0,0,4.987,55.2h7.466a1.15,1.15,0,1,0,0-2.3H4.993a.575.575,0,0,1-.575-.575V44.858a1.146,1.146,0,0,0-1.15-1.144Z" transform="translate(-1.55 -43.14)"/>
          </g>
        </g>
      </g>
      <g id="Grupo_1121548" data-name="Grupo 1121548" transform="translate(6.433 6.433)">
        <circle id="Elipse_11959" data-name="Elipse 11959" cx="13.754" cy="13.754" r="13.754" fill="#f76c82"/>
      </g>
      <g id="Grupo_1121549" data-name="Grupo 1121549" transform="translate(6.433 19.612)">
        <path id="Trazado_919772" data-name="Trazado 919772" d="M37.3,32.6a13.754,13.754,0,0,1-27.507,0c0-.19,0-.385.012-.575a13.754,13.754,0,0,0,27.483,0c.006.19.012.385.012.575Z" transform="translate(-9.79 -32.03)" fill="#eb5463"/>
      </g>
      <g id="Grupo_1121550" data-name="Grupo 1121550" transform="translate(6.148 6.148)">
        <path id="Trazado_919773" data-name="Trazado 919773" d="M23.348,37.386A14.038,14.038,0,1,1,37.386,23.348,14.056,14.056,0,0,1,23.348,37.386Zm0-27.5A13.463,13.463,0,1,0,36.811,23.348,13.477,13.477,0,0,0,23.348,9.885Z" transform="translate(-9.31 -9.31)"/>
      </g>
      <g id="Grupo_1121551" data-name="Grupo 1121551" transform="translate(9.301 9.301)">
        <circle id="Elipse_11960" data-name="Elipse 11960" cx="10.885" cy="10.885" r="10.885" fill="#f4f6f8"/>
      </g>
      <g id="Grupo_1121552" data-name="Grupo 1121552" transform="translate(9.301 19.612)">
        <path id="Trazado_919774" data-name="Trazado 919774" d="M36.4,32.6a10.885,10.885,0,1,1-21.771,0c0-.19.006-.385.012-.575a10.886,10.886,0,0,0,21.741,0C36.4,32.22,36.4,32.415,36.4,32.6Z" transform="translate(-14.63 -32.03)" fill="#d7dadf"/>
      </g>
      <g id="Grupo_1121553" data-name="Grupo 1121553" transform="translate(9.016 9.016)">
        <path id="Trazado_919775" data-name="Trazado 919775" d="M25.32,36.49A11.17,11.17,0,1,1,36.49,25.32,11.182,11.182,0,0,1,25.32,36.49Zm0-21.771a10.6,10.6,0,1,0,10.6,10.6A10.613,10.613,0,0,0,25.32,14.719Z" transform="translate(-14.15 -14.15)"/>
      </g>
      <g id="Grupo_1121554" data-name="Grupo 1121554" transform="translate(28.441 18.426)">
        <path id="Trazado_919776" data-name="Trazado 919776" d="M48.463,32.736H53.7a1.044,1.044,0,0,0,1.043-1.043v-.13A1.044,1.044,0,0,0,53.7,30.52H48.463a1.044,1.044,0,0,0-1.043,1.043v.13A1.037,1.037,0,0,0,48.463,32.736Z" transform="translate(-47.13 -30.23)" fill="#fdcd56"/>
        <path id="Trazado_919777" data-name="Trazado 919777" d="M53.436,32.827H48.328a1.4,1.4,0,0,1,0-2.8h5.108a1.4,1.4,0,1,1,0,2.8ZM48.328,30.6a.824.824,0,0,0,0,1.647h5.108a.824.824,0,1,0,0-1.647Z" transform="translate(-46.93 -30.03)"/>
      </g>
      <g id="Grupo_1121555" data-name="Grupo 1121555" transform="translate(3.914 18.426)">
        <path id="Trazado_919778" data-name="Trazado 919778" d="M7.073,32.736h5.238a1.044,1.044,0,0,0,1.043-1.043v-.13a1.044,1.044,0,0,0-1.043-1.043H7.073A1.044,1.044,0,0,0,6.03,31.563v.13a1.037,1.037,0,0,0,1.043,1.043Z" transform="translate(-5.74 -30.23)" fill="#fdcd56"/>
        <path id="Trazado_919779" data-name="Trazado 919779" d="M12.046,32.827H6.938a1.4,1.4,0,0,1,0-2.8h5.108a1.4,1.4,0,0,1,0,2.8ZM6.938,30.6a.824.824,0,0,0,0,1.647h5.108a.824.824,0,1,0,0-1.647Z" transform="translate(-5.54 -30.03)"/>
      </g>
      <g id="Grupo_1121556" data-name="Grupo 1121556" transform="translate(18.729 28.133)">
        <path id="Trazado_919780" data-name="Trazado 919780" d="M31.03,47.953v5.238a1.044,1.044,0,0,0,1.043,1.043h.13a1.044,1.044,0,0,0,1.043-1.043V47.953A1.044,1.044,0,0,0,32.2,46.91h-.13A1.037,1.037,0,0,0,31.03,47.953Z" transform="translate(-30.74 -46.614)" fill="#fdcd56"/>
        <path id="Trazado_919781" data-name="Trazado 919781" d="M31.938,54.315a1.4,1.4,0,0,1-1.4-1.4V47.808a1.4,1.4,0,1,1,2.8,0v5.108A1.4,1.4,0,0,1,31.938,54.315Zm0-7.324a.822.822,0,0,0-.824.824v5.108a.824.824,0,0,0,1.647,0V47.814A.822.822,0,0,0,31.938,46.991Z" transform="translate(-30.54 -46.41)"/>
      </g>
      <g id="Grupo_1121557" data-name="Grupo 1121557" transform="translate(18.729 3.612)">
        <path id="Trazado_919782" data-name="Trazado 919782" d="M31.03,6.563V11.8a1.044,1.044,0,0,0,1.043,1.043h.13A1.044,1.044,0,0,0,33.246,11.8V6.563A1.044,1.044,0,0,0,32.2,5.52h-.13A1.037,1.037,0,0,0,31.03,6.563Z" transform="translate(-30.74 -5.23)" fill="#fdcd56"/>
        <path id="Trazado_919783" data-name="Trazado 919783" d="M31.938,12.929a1.4,1.4,0,0,1-1.4-1.4v-5.1a1.4,1.4,0,1,1,2.8,0v5.108A1.4,1.4,0,0,1,31.938,12.929Zm0-7.324a.822.822,0,0,0-.824.824v5.108a.824.824,0,1,0,1.647,0V6.428a.822.822,0,0,0-.824-.824Z" transform="translate(-30.54 -5.03)"/>
      </g>
      <g id="Grupo_1121571" data-name="Grupo 1121571" transform="translate(14.391 12.599)">
        <path id="Trazado_919784" data-name="Trazado 919784" d="M32.914,35.56H25.507A1.807,1.807,0,0,0,23.7,37.367v3.366H34.716V37.361A1.8,1.8,0,0,0,32.914,35.56Z" transform="translate(-23.416 -26.456)" fill="#8c9ffa"/>
        <g id="Grupo_1121558" data-name="Grupo 1121558" transform="translate(0.284 13.424)">
          <path id="Trazado_919785" data-name="Trazado 919785" d="M23.7,42.85H34.716V43.7H23.7Z" transform="translate(-23.7 -42.85)" fill="#6e7fed"/>
        </g>
        <g id="Grupo_1121559" data-name="Grupo 1121559" transform="translate(0.006 8.82)">
          <path id="Trazado_919786" data-name="Trazado 919786" d="M34.524,40.822H23.514a.284.284,0,0,1-.284-.284V37.089a2.011,2.011,0,0,1,2.009-2.009h7.573a2.011,2.011,0,0,1,2.009,2.009v3.449A.3.3,0,0,1,34.524,40.822ZM23.8,40.247H34.24V37.083a1.439,1.439,0,0,0-1.434-1.434H25.233A1.439,1.439,0,0,0,23.8,37.083Z" transform="translate(-23.23 -35.08)"/>
        </g>
        <g id="Grupo_1121568" data-name="Grupo 1121568" transform="translate(1.996)">
          <g id="Grupo_1121560" data-name="Grupo 1121560" transform="translate(2.2 6.556)">
            <path id="Trazado_919787" data-name="Trazado 919787" d="M33.464,34l-1.339,1.268L30.78,34V31.74h2.684Z" transform="translate(-30.496 -31.456)" fill="#efc7a4"/>
            <path id="Trazado_919788" data-name="Trazado 919788" d="M31.93,35.361a.273.273,0,0,1-.2-.077l-1.345-1.268a.278.278,0,0,1-.089-.207V31.544a.284.284,0,0,1,.284-.284h2.684a.284.284,0,0,1,.284.284v2.264a.278.278,0,0,1-.089.207l-1.345,1.268a.259.259,0,0,1-.19.077Zm-1.061-1.677,1.055,1,1.055-1V31.829H30.863v1.855Z" transform="translate(-30.3 -31.26)"/>
          </g>
          <g id="Grupo_1121561" data-name="Grupo 1121561">
            <path id="Trazado_919789" data-name="Trazado 919789" d="M28.066,26.3c-2.358-2.649.219-4.095.219-4.095-.178-2.062,1.493-1.339,1.493-1.339a3.267,3.267,0,0,1,3.6,5.1Z" transform="translate(-26.785 -20.393)" fill="#656d78"/>
            <path id="Trazado_919790" data-name="Trazado 919790" d="M27.869,26.391a.287.287,0,0,1-.213-.095,3.305,3.305,0,0,1-1.037-2.7,2.771,2.771,0,0,1,1.173-1.736,1.523,1.523,0,0,1,.5-1.393,1.487,1.487,0,0,1,1.3-.095A3.559,3.559,0,0,1,33.4,25.958a.278.278,0,0,1-.2.1l-5.315.332h-.018Zm1.108-5.552a.605.605,0,0,0-.356.095c-.267.19-.279.676-.249,1.055a.276.276,0,0,1-.148.273,2.307,2.307,0,0,0-1.043,1.434,2.685,2.685,0,0,0,.806,2.115L33.03,25.5a2.832,2.832,0,0,0,.154-3.176,2.883,2.883,0,0,0-3.52-1.375.265.265,0,0,1-.2-.012,1.422,1.422,0,0,0-.486-.095Z" transform="translate(-26.588 -20.196)"/>
          </g>
          <g id="Grupo_1121563" data-name="Grupo 1121563" transform="translate(0.866 2.141)">
            <g id="Grupo_1121562" data-name="Grupo 1121562">
              <path id="Trazado_919791" data-name="Trazado 919791" d="M34.015,26.854c0,1.517-1.3,3.478-2.809,3.478s-2.667-1.967-2.667-3.478a2.665,2.665,0,0,1,.19-1c1.416.006,1.867-1.019,2.305-1.44a.358.358,0,0,1,.492,0c.438.427.889,1.452,2.305,1.44a2.918,2.918,0,0,1,.184,1Z" transform="translate(-28.25 -24.016)" fill="#efc7a4"/>
              <path id="Trazado_919792" data-name="Trazado 919792" d="M31.007,30.411c-1.665,0-2.957-2.027-2.957-3.769a2.927,2.927,0,0,1,.213-1.108.29.29,0,0,1,.267-.184h.018a2.1,2.1,0,0,0,1.784-1.013,3.672,3.672,0,0,1,.3-.35.644.644,0,0,1,.889,0,3.673,3.673,0,0,1,.3.35,2.1,2.1,0,0,0,1.784,1.013h.018a.282.282,0,0,1,.267.184,2.927,2.927,0,0,1,.213,1.108C34.1,28.343,32.672,30.411,31.007,30.411Zm-2.275-4.486a2.454,2.454,0,0,0-.107.723c0,1.44,1.1,3.194,2.382,3.194s2.524-1.8,2.524-3.194a2.454,2.454,0,0,0-.107-.723A2.708,2.708,0,0,1,31.38,24.7a2.9,2.9,0,0,0-.255-.3.081.081,0,0,0-.089,0,3.729,3.729,0,0,0-.255.3A2.732,2.732,0,0,1,28.731,25.925Z" transform="translate(-28.05 -23.81)"/>
            </g>
          </g>
          <g id="Grupo_1121566" data-name="Grupo 1121566" transform="translate(2.241 4.997)">
            <g id="Grupo_1121564" data-name="Grupo 1121564" transform="translate(2.37)">
              <path id="Trazado_919793" data-name="Trazado 919793" d="M34.886,29.2h-.231a.284.284,0,0,1-.284-.284.288.288,0,0,1,.284-.284h.231a.284.284,0,0,1,0,.569Z" transform="translate(-34.37 -28.63)"/>
            </g>
            <g id="Grupo_1121565" data-name="Grupo 1121565">
              <path id="Trazado_919794" data-name="Trazado 919794" d="M30.886,29.2h-.231a.284.284,0,0,1-.284-.284.288.288,0,0,1,.284-.284h.231a.284.284,0,1,1,0,.569Z" transform="translate(-30.37 -28.63)"/>
            </g>
          </g>
          <g id="Grupo_1121567" data-name="Grupo 1121567" transform="translate(2.905 6.467)">
            <path id="Trazado_919795" data-name="Trazado 919795" d="M32.409,31.886a1.436,1.436,0,0,1-.788-.249.287.287,0,0,1,.314-.48.8.8,0,0,0,.96,0,.287.287,0,0,1,.314.48A1.5,1.5,0,0,1,32.409,31.886Z" transform="translate(-31.49 -31.11)"/>
          </g>
        </g>
        <g id="Grupo_1121569" data-name="Grupo 1121569" transform="translate(0 11.297)">
          <path id="Trazado_919796" data-name="Trazado 919796" d="M25.97,40.488v1.938H23.7v-2.7h1.505A.761.761,0,0,1,25.97,40.488Z" transform="translate(-23.416 -39.451)" fill="#efc7a4"/>
          <path id="Trazado_919797" data-name="Trazado 919797" d="M25.774,42.525H23.5a.284.284,0,0,1-.284-.284v-2.7a.284.284,0,0,1,.284-.284H25.01a1.051,1.051,0,0,1,1.049,1.049v1.938a.279.279,0,0,1-.284.279Zm-1.979-.575H25.49V40.3a.475.475,0,0,0-.474-.474H23.795Z" transform="translate(-23.22 -39.26)"/>
        </g>
        <g id="Grupo_1121570" data-name="Grupo 1121570" transform="translate(8.746 11.291)">
          <path id="Trazado_919798" data-name="Trazado 919798" d="M38.47,40.488v1.938h2.27v-2.7H39.234A.761.761,0,0,0,38.47,40.488Z" transform="translate(-38.18 -39.446)" fill="#efc7a4"/>
          <path id="Trazado_919799" data-name="Trazado 919799" d="M40.534,42.521h-2.27a.284.284,0,0,1-.284-.284V40.3a1.047,1.047,0,0,1,1.049-1.049h1.505a.284.284,0,0,1,.284.284v2.7A.282.282,0,0,1,40.534,42.521Zm-1.979-.575H40.25V39.819H39.029a.475.475,0,0,0-.474.474Z" transform="translate(-37.98 -39.25)"/>
        </g>
      </g>
    </g>
  </g>
</svg>
