<svg xmlns="http://www.w3.org/2000/svg" width="77" height="77" viewBox="0 0 77 77">
  <g id="Grupo_1111241" data-name="Grupo 1111241" transform="translate(-1020.73 -3093)">
    <g id="Grupo_1098742" data-name="Grupo 1098742" transform="translate(1020.73 3093)">
      <rect id="Rect치ngulo_400898" data-name="Rect치ngulo 400898" width="77" height="77" rx="38.5" transform="translate(0 0)" fill="#ccda2d"/>
      <rect id="Rect치ngulo_400907" data-name="Rect치ngulo 400907" width="77" height="77" rx="38.5" transform="translate(0 0)" fill="none"/>
    </g>
    <g id="Grupo_1111208" data-name="Grupo 1111208" transform="translate(1029.237 3100.292)">
      <path id="Trazado_899805" data-name="Trazado 899805" d="M99.545,28.793s-8.012-3.951-7.025-14.856A16.252,16.252,0,0,1,94.153,8.2l.412-.831a.67.67,0,0,1,1.255.147c.839,3.649,3.477,11.185,11.043,12.037l1.9.27Zm0,0" transform="translate(-81.324 -6.157)" fill="#bc7d53"/>
      <path id="Trazado_899806" data-name="Trazado 899806" d="M101.955,28.421,99.541,30.77s-8.012-3.951-7.025-14.855a16.222,16.222,0,0,1,1.633-5.734l.413-.832a.606.606,0,0,1,.063-.1,18.869,18.869,0,0,0-.3,2.056C93.345,22.1,99.858,27.1,101.955,28.421Zm0,0" transform="translate(-81.321 -8.135)" fill="#af663e"/>
      <path id="Trazado_899807" data-name="Trazado 899807" d="M21.223,163.532S17,158.667,7.93,160.568a1.158,1.158,0,0,0-.9,1.4c.665,2.715,3.221,9.386,12.355,10.242Zm0,0" transform="translate(-6.16 -140.88)" fill="#ffc1b8"/>
      <path id="Trazado_899808" data-name="Trazado 899808" d="M19.888,172.361l-.5,2.367C10.254,173.873,7.7,167.2,7.033,164.487a1.16,1.16,0,0,1,.9-1.405c.167-.035.332-.068.494-.1C9.337,165.94,12.063,171.35,19.888,172.361Zm0,0" transform="translate(-6.159 -143.393)" fill="#ffb3a8"/>
      <path id="Trazado_899809" data-name="Trazado 899809" d="M286.615,28.793s8.013-3.951,7.025-14.856A16.242,16.242,0,0,0,292.007,8.2l-.411-.831a.67.67,0,0,0-1.255.147C289.5,11.169,286.864,18.7,279.3,19.556l-1.9.27Zm0,0" transform="translate(-244.054 -6.157)" fill="#bc7d53"/>
      <path id="Trazado_899810" data-name="Trazado 899810" d="M333.992,28.421l2.414,2.349s8.012-3.951,7.025-14.855a16.233,16.233,0,0,0-1.634-5.734l-.413-.832a.609.609,0,0,0-.063-.1,18.882,18.882,0,0,1,.3,2.056C342.6,22.1,336.09,27.1,333.992,28.421Zm0,0" transform="translate(-293.845 -8.135)" fill="#af663e"/>
      <path id="Trazado_899811" data-name="Trazado 899811" d="M380.332,163.532s4.224-4.865,13.293-2.964a1.158,1.158,0,0,1,.9,1.4c-.665,2.715-3.22,9.386-12.355,10.242Zm0,0" transform="translate(-334.615 -140.88)" fill="#ffc1b8"/>
      <path id="Trazado_899812" data-name="Trazado 899812" d="M391.438,172.361l.5,2.367c9.134-.856,11.689-7.527,12.355-10.242a1.16,1.16,0,0,0-.9-1.405c-.167-.035-.331-.068-.494-.1C401.988,165.94,399.263,171.35,391.438,172.361Zm0,0" transform="translate(-344.385 -143.393)" fill="#ffb3a8"/>
      <path id="Trazado_899813" data-name="Trazado 899813" d="M122.545,88.964A18.723,18.723,0,0,0,108.757,94.2c-5.184,5.293-5.262,12.906-3.937,19.515.1.518.237,1.031.391,1.536.593,1.958,2.239,7.652,2.239,10.508,0,3.784.562,7.7,3.929,10.377a11.335,11.335,0,0,0,4.579,2.1,17.427,17.427,0,0,0,3.289.391c4.324.129,9.28.415,12.93-2.159a10.573,10.573,0,0,0,4.131-6.7,19.75,19.75,0,0,0,.239-4.011c0-2.854,1.644-8.543,2.238-10.5a17.476,17.476,0,0,0,.43-1.741c1.511-7.83.794-16.9-7.086-21.789A19.087,19.087,0,0,0,122.545,88.964Zm0,0" transform="translate(-91.587 -78.265)" fill="#e7e7e7"/>
      <path id="Trazado_899814" data-name="Trazado 899814" d="M261.325,113.514a17.606,17.606,0,0,1-.429,1.741c-.594,1.961-2.239,7.651-2.239,10.5a19.779,19.779,0,0,1-.239,4.011,10.57,10.57,0,0,1-4.131,6.7c-3.049,2.149-7.007,2.3-10.748,2.223,2.942-.086,5.863-.551,8.233-2.223a10.568,10.568,0,0,0,4.131-6.7,19.78,19.78,0,0,0,.239-4.011c0-2.853,1.644-8.543,2.237-10.5a17.114,17.114,0,0,0,.43-1.741c1.511-7.83.794-16.9-7.085-21.789A18.943,18.943,0,0,0,242.895,89q.879-.054,1.762-.033a19.088,19.088,0,0,1,9.583,2.761C262.119,96.618,262.836,105.683,261.325,113.514Zm0,0" transform="translate(-213.698 -78.264)" fill="#cecece"/>
      <path id="Trazado_899815" data-name="Trazado 899815" d="M150.625,338.793a14.536,14.536,0,0,0-5.379-2.575,24.96,24.96,0,0,0-13.5,0,14.532,14.532,0,0,0-5.379,2.575,10.318,10.318,0,0,0-2.922,11.048c1.7,4.48,5.661,5.759,9.69,5.811,3.591.046,7.13.047,10.723,0,4.029-.053,8-1.331,9.691-5.811A10.319,10.319,0,0,0,150.625,338.793Zm0,0" transform="translate(-108.105 -294.984)" fill="#ffc1b8"/>
      <path id="Trazado_899816" data-name="Trazado 899816" d="M259.621,349.845c-1.7,4.479-5.661,5.758-9.69,5.811-2.175.028-4.331.039-6.49.032,1.407,0,2.815-.014,4.232-.032,4.029-.053,8-1.332,9.691-5.811a10.319,10.319,0,0,0-2.922-11.049,14.525,14.525,0,0,0-5.378-2.575,25.465,25.465,0,0,0-5.623-.9,25.111,25.111,0,0,1,7.88.9A14.53,14.53,0,0,1,256.7,338.8,10.321,10.321,0,0,1,259.621,349.845Zm0,0" transform="translate(-214.179 -294.988)" fill="#ffb3a8"/>
      <path id="Trazado_899817" data-name="Trazado 899817" d="M121.512,100.992c-1.594,1.314-4,.712-5.956,1.382a7.862,7.862,0,0,0-3.791,3.5,22.791,22.791,0,0,1-2.977,4.321,6.417,6.417,0,0,1-4.31,1.53c-.911-6.1-.386-12.755,4.284-17.522a18.694,18.694,0,0,1,13.606-5.24q-.037.134-.068.262a11.34,11.34,0,0,0,.157,6C122.954,97.225,123.1,99.683,121.512,100.992Zm0,0" transform="translate(-91.592 -78.267)" fill="#5a5c5e"/>
      <path id="Trazado_899818" data-name="Trazado 899818" d="M60.475,19.762a2.02,2.02,0,0,0-1.291-.9,20.883,20.883,0,0,0-4.045-.458h-.351A.841.841,0,0,0,54.8,20.09h.331a19.178,19.178,0,0,1,3.712.422.329.329,0,0,1,.213.146.3.3,0,0,1,.039.236,12.252,12.252,0,0,1-10.01,9.378,24.842,24.842,0,0,0-.657-7.225q-.153-.6-.339-1.181A11.914,11.914,0,0,1,51.046,20.6a.841.841,0,0,0-.451-1.62,13.718,13.718,0,0,0-3.108,1.284c-.085-.2-.176-.4-.268-.592A16.5,16.5,0,0,0,50.424,7.7a17.018,17.018,0,0,0-1.717-6.031L48.3.842a1.512,1.512,0,0,0-2.828.332A19.825,19.825,0,0,1,42.6,7.948a11,11,0,0,1-3.957,3.571,19.893,19.893,0,0,0-4.29-1.307,20.157,20.157,0,0,0-7.1-.13,23.29,23.29,0,0,0-5.017,1.488,10.968,10.968,0,0,1-4.056-3.623,19.834,19.834,0,0,1-2.868-6.774A1.512,1.512,0,0,0,12.487.842l-.411.832A17.021,17.021,0,0,0,10.358,7.7a16.517,16.517,0,0,0,3.169,11.921,5.648,5.648,0,0,0-.3.591C10.972,18.947,7.143,17.7,1.6,18.866a2.023,2.023,0,0,0-1.291.9,1.971,1.971,0,0,0-.249,1.532,14.89,14.89,0,0,0,3.187,6.174,14.09,14.09,0,0,0,8.606,4.539c.034.322.07.644.114.964a26.813,26.813,0,0,0,.855,4.26,58.329,58.329,0,0,1,2.172,9.559,11.145,11.145,0,0,0-.439,8.365c1.308,3.457,3.992,5.527,7.977,6.153a.841.841,0,1,0,.261-1.662c-3.392-.533-5.572-2.2-6.665-5.087a9.528,9.528,0,0,1,2.665-10.1,13.642,13.642,0,0,1,5.072-2.417,24.269,24.269,0,0,1,13.056,0,13.635,13.635,0,0,1,5.072,2.417,9.528,9.528,0,0,1,2.665,10.1c-1.318,3.484-4.234,5.207-8.914,5.268-3.028.039-5.974.046-9.006.019h-.008a.841.841,0,0,0-.008,1.682c1.241.011,2.467.016,3.69.016,1.779,0,3.552-.012,5.353-.035,5.376-.07,8.9-2.208,10.466-6.354A11.143,11.143,0,0,0,45.8,46.8a.866.866,0,0,0,.053-.224A58.944,58.944,0,0,1,48,37.234a18.368,18.368,0,0,0,.451-1.826q.337-1.747.5-3.407a14.083,14.083,0,0,0,8.581-4.534,14.9,14.9,0,0,0,3.187-6.174A1.97,1.97,0,0,0,60.475,19.762ZM43.977,8.912A21.207,21.207,0,0,0,47,2.01l.2.409a15.34,15.34,0,0,1,1.549,5.437,14.956,14.956,0,0,1-2.416,10.185,16.312,16.312,0,0,0-5.346-5.3c-.18-.112-.362-.219-.546-.324A13.131,13.131,0,0,0,43.977,8.912ZM12.034,7.856a15.336,15.336,0,0,1,1.55-5.436l.2-.41a21.2,21.2,0,0,0,3.019,6.9,13.083,13.083,0,0,0,3.609,3.556,16.391,16.391,0,0,0-5.853,5.387l-.1.155-.008.015A14.985,14.985,0,0,1,12.034,7.856ZM1.692,20.894a.3.3,0,0,1,.039-.235.329.329,0,0,1,.213-.146,18.829,18.829,0,0,1,3.868-.419,13.845,13.845,0,0,1,5.577,1.094,11.275,11.275,0,0,1,1.274.655c-.055.19-.108.376-.16.554a20.734,20.734,0,0,0-.677,3.442,26.358,26.358,0,0,0-.139,3.8c.007.214.018.427.03.64A12.254,12.254,0,0,1,1.692,20.894ZM13.61,32.551a24.883,24.883,0,0,1,.281-8.787,15.358,15.358,0,0,1,5.3-8.416,16.8,16.8,0,0,1,4.453-2.569,17.615,17.615,0,0,1,5.991-1.227l.086,0a12.455,12.455,0,0,0,.328,5.614c.745,2.995.05,4.325-.665,4.914a5.337,5.337,0,0,1-3.017.8,10.636,10.636,0,0,0-2.677.44,8.74,8.74,0,0,0-4.228,3.846c-.236.373-.463.756-.683,1.126a14.592,14.592,0,0,1-2.172,3.045,4.971,4.971,0,0,1-3,1.228S13.61,32.552,13.61,32.551ZM46.8,35.089a16.637,16.637,0,0,1-.409,1.657,74.966,74.966,0,0,0-1.958,7.817,9.147,9.147,0,0,0-1.384-1.407,15.256,15.256,0,0,0-5.686-2.734,25.936,25.936,0,0,0-13.949,0,15.253,15.253,0,0,0-5.686,2.734,9.12,9.12,0,0,0-1.35,1.365,75.411,75.411,0,0,0-1.951-7.778c-.156-.515-.278-.992-.371-1.458-.072-.36-.137-.715-.2-1.068a6.544,6.544,0,0,0,3.924-1.689,16.051,16.051,0,0,0,2.44-3.385c.214-.36.436-.733.66-1.087A6.914,6.914,0,0,1,24.237,24.9a9.246,9.246,0,0,1,2.259-.354,6.631,6.631,0,0,0,3.959-1.175c1.559-1.285,1.984-3.573,1.227-6.617a10.646,10.646,0,0,1-.247-5.2A18.08,18.08,0,0,1,40.1,14.174a14.822,14.822,0,0,1,6.693,9.285A26.857,26.857,0,0,1,46.8,35.089Zm0,0" transform="translate(-0.001 0)"/>
      <g id="Grupo_1111207" data-name="Grupo 1111207" transform="translate(21.815 33.24)">
        <path id="Trazado_899819" data-name="Trazado 899819" d="M184.134,277.854a1.327,1.327,0,1,1-1.326-1.327A1.327,1.327,0,0,1,184.134,277.854Zm0,0" transform="translate(-181.48 -276.527)" fill="#111"/>
        <path id="Trazado_899820" data-name="Trazado 899820" d="M304.747,277.854a1.327,1.327,0,1,1-1.327-1.327A1.327,1.327,0,0,1,304.747,277.854Zm0,0" transform="translate(-287.596 -276.527)" fill="#111"/>
        <path id="Trazado_899821" data-name="Trazado 899821" d="M215.45,411.812c0-1.031-.489-1.866-1.092-1.866s-1.092.836-1.092,1.866.489,1.866,1.092,1.866S215.45,412.842,215.45,411.812Zm0,0" transform="translate(-209.445 -393.908)" fill="#111"/>
        <path id="Trazado_899822" data-name="Trazado 899822" d="M276.4,411.812c0-1.031-.489-1.866-1.092-1.866s-1.092.836-1.092,1.866.489,1.866,1.092,1.866S276.4,412.842,276.4,411.812Zm0,0" transform="translate(-263.064 -393.908)" fill="#111"/>
      </g>
    </g>
  </g>
</svg>
