<svg xmlns="http://www.w3.org/2000/svg" width="83" height="83" viewBox="0 0 83 83">
  <g id="Grupo_1119419" data-name="Grupo 1119419" transform="translate(-853.051 -769)">
    <circle id="Elipse_11756" data-name="Elipse 11756" cx="41.5" cy="41.5" r="41.5" transform="translate(853.051 769)" fill="#0d8449"/>
    <g id="Grupo_1119418" data-name="Grupo 1119418" transform="translate(868.702 784.65)">
      <g id="Grupo_1119416" data-name="Grupo 1119416" transform="translate(0.834 0.834)">
        <g id="Grupo_1119384" data-name="Grupo 1119384" transform="translate(38.357 43.36)">
          <path id="Trazado_916677" data-name="Trazado 916677" d="M376,424h8.338v3.335H376Z" transform="translate(-376 -424)" fill="#cf9e76"/>
        </g>
        <g id="Grupo_1119385" data-name="Grupo 1119385" transform="translate(38.357 35.021)">
          <path id="Trazado_916678" data-name="Trazado 916678" d="M376,344h8.338v3.335H376Z" transform="translate(-376 -344)" fill="#cf9e76"/>
        </g>
        <g id="Grupo_1119386" data-name="Grupo 1119386" transform="translate(38.357 26.683)">
          <path id="Trazado_916679" data-name="Trazado 916679" d="M376,264h8.338v3.335H376Z" transform="translate(-376 -264)" fill="#cf9e76"/>
        </g>
        <g id="Grupo_1119387" data-name="Grupo 1119387" transform="translate(31.693 35.021)">
          <path id="Trazado_916680" data-name="Trazado 916680" d="M315.4,344v3.335H312.07a11.611,11.611,0,0,1,.6-3.335Z" transform="translate(-312.07 -344)" fill="#cf9e76"/>
        </g>
        <g id="Grupo_1119388" data-name="Grupo 1119388" transform="translate(30.852 43.36)">
          <path id="Trazado_916681" data-name="Trazado 916681" d="M308.169,424v3.335H304l.323-1.292.163-.648a11.77,11.77,0,0,0,.26-1.395Z" transform="translate(-304 -424)" fill="#cf9e76"/>
        </g>
        <g id="Grupo_1119389" data-name="Grupo 1119389" transform="translate(15.009 43.36)">
          <path id="Trazado_916682" data-name="Trazado 916682" d="M155.846,426.043l.323,1.292H152V424h3.424a11.77,11.77,0,0,0,.26,1.395Z" transform="translate(-152 -424)" fill="#cf9e76"/>
        </g>
        <g id="Grupo_1119390" data-name="Grupo 1119390" transform="translate(15.009 35.021)">
          <path id="Trazado_916683" data-name="Trazado 916683" d="M155.328,347.335H152V344h2.726A11.609,11.609,0,0,1,155.328,347.335Z" transform="translate(-152 -344)" fill="#cf9e76"/>
        </g>
        <g id="Grupo_1119391" data-name="Grupo 1119391" transform="translate(3.335 43.36)">
          <path id="Trazado_916684" data-name="Trazado 916684" d="M40,424h8.338v3.335H40Z" transform="translate(-40 -424)" fill="#cf9e76"/>
        </g>
        <g id="Grupo_1119392" data-name="Grupo 1119392" transform="translate(3.335 35.021)">
          <path id="Trazado_916685" data-name="Trazado 916685" d="M40,344h8.338v3.335H40Z" transform="translate(-40 -344)" fill="#cf9e76"/>
        </g>
        <g id="Grupo_1119393" data-name="Grupo 1119393" transform="translate(3.335 26.683)">
          <path id="Trazado_916686" data-name="Trazado 916686" d="M40,264h8.338v3.335H40Z" transform="translate(-40 -264)" fill="#cf9e76"/>
        </g>
        <g id="Grupo_1119394" data-name="Grupo 1119394" transform="translate(46.695 20.012)">
          <path id="Trazado_916687" data-name="Trazado 916687" d="M459.335,200.834v29.184H456V200.834a.834.834,0,0,1,.834-.834H458.5A.834.834,0,0,1,459.335,200.834Z" transform="translate(-456 -200)" fill="#d3a06c"/>
        </g>
        <g id="Grupo_1119395" data-name="Grupo 1119395" transform="translate(35.021 20.012)">
          <path id="Trazado_916688" data-name="Trazado 916688" d="M347.335,226.683v3.335H344V200.834a.834.834,0,0,1,.834-.834H346.5a.834.834,0,0,1,.834.834v25.849Z" transform="translate(-344 -200)" fill="#d3a06c"/>
        </g>
        <g id="Grupo_1119396" data-name="Grupo 1119396" transform="translate(11.674 20.012)">
          <path id="Trazado_916689" data-name="Trazado 916689" d="M123.335,226.683v3.335H120V200.834a.834.834,0,0,1,.834-.834H122.5a.834.834,0,0,1,.834.834v25.849Z" transform="translate(-120 -200)" fill="#d3a06c"/>
        </g>
        <g id="Grupo_1119397" data-name="Grupo 1119397" transform="translate(0 20.012)">
          <path id="Trazado_916690" data-name="Trazado 916690" d="M11.335,226.683v3.335H8V200.834A.834.834,0,0,1,8.834,200H10.5a.834.834,0,0,1,.834.834v25.849Z" transform="translate(-8 -200)" fill="#d3a06c"/>
        </g>
        <g id="Grupo_1119398" data-name="Grupo 1119398" transform="translate(26.683 42.077)">
          <path id="Trazado_916691" data-name="Trazado 916691" d="M268.86,417.692a1.349,1.349,0,0,1-1.206,1.952h-2.306a1.348,1.348,0,0,1-1.206-1.952l.691-1.383-.577-4.618.545.817a4.547,4.547,0,0,0,2.348,1.794,4.561,4.561,0,0,1,1.342.715l-.323,1.292Z" transform="translate(-264 -411.69)" fill="#969faa"/>
        </g>
        <g id="Grupo_1119399" data-name="Grupo 1119399" transform="translate(18.345 42.077)">
          <path id="Trazado_916692" data-name="Trazado 916692" d="M188.86,417.692a1.348,1.348,0,0,1-1.206,1.952h-2.306a1.348,1.348,0,0,1-1.206-1.952l.691-1.383-.323-1.292a4.561,4.561,0,0,1,1.342-.715,4.547,4.547,0,0,0,2.348-1.794l.545-.817-.577,4.618Z" transform="translate(-184 -411.69)" fill="#969faa"/>
        </g>
        <g id="Grupo_1119400" data-name="Grupo 1119400" transform="translate(15.009 22.185)">
          <path id="Trazado_916693" data-name="Trazado 916693" d="M155.328,237.021a11.61,11.61,0,0,0-.6-3.335c-.03-.089-.06-.177-.093-.265l-2.038-5.6a9.888,9.888,0,0,1,.079-6.968l1.327,1a3.335,3.335,0,0,1,1.334,2.668v.51a3.337,3.337,0,0,0,2.787,3.291l.833.139h0a6.027,6.027,0,0,0,1.382,2.334v2.9a2.953,2.953,0,0,0-2.913,2.467l-.148.891a1.969,1.969,0,0,1-1.942,1.645V237.41C155.335,237.281,155.333,237.151,155.328,237.021Z" transform="translate(-152 -220.85)" fill="#969faa"/>
        </g>
        <g id="Grupo_1119401" data-name="Grupo 1119401" transform="translate(15.684 18.337)">
          <path id="Trazado_916694" data-name="Trazado 916694" d="M164.752,195.381h0l-.833-.139a3.337,3.337,0,0,1-2.787-3.291v-.51a3.335,3.335,0,0,0-1.334-2.668l-1.327-1a9.878,9.878,0,0,1,2.221-3.4l.447-.447c-.005.085-.007.171-.007.256A4.626,4.626,0,0,0,165,188.751l1.136.19v1.668h3.335V188.94l1.136-.19a4.609,4.609,0,0,0,2.443-1.225,5.471,5.471,0,0,1,1.424,3.681,5.47,5.47,0,0,0,2.189,4.378l.194.145-1.68,4.619c-.032.088-.063.176-.093.265a11.609,11.609,0,0,0-.6,3.335c-.005.129-.007.26-.007.389v2.113l-.331-.166a3.249,3.249,0,0,1-1.7-2.118,2.489,2.489,0,0,0-2.415-1.886h-.558v-4.567a6.041,6.041,0,0,1-1.668,1.232,6.026,6.026,0,0,1-3.05-3.566Z" transform="translate(-158.47 -183.93)" fill="#969faa"/>
        </g>
        <g id="Grupo_1119402" data-name="Grupo 1119402" transform="translate(30.262 18.337)">
          <path id="Trazado_916695" data-name="Trazado 916695" d="M303.1,191.368a9.9,9.9,0,0,1-.6,3.378l-.357.984-.194-.145a5.469,5.469,0,0,1-2.189-4.378,5.471,5.471,0,0,0-1.424-3.681,4.7,4.7,0,0,0,.327-.348,4.618,4.618,0,0,0,1.1-2.991c0-.085,0-.171-.007-.256l.447.447A9.885,9.885,0,0,1,303.1,191.368Z" transform="translate(-298.34 -183.93)" fill="#ccd1d9"/>
        </g>
        <g id="Grupo_1119403" data-name="Grupo 1119403" transform="translate(26.683 36.689)">
          <path id="Trazado_916696" data-name="Trazado 916696" d="M269,364.169v1.064a11.617,11.617,0,0,1-.089,1.437,11.764,11.764,0,0,1-.26,1.395l-.163.648A4.561,4.561,0,0,0,267.15,368,4.547,4.547,0,0,1,264.8,366.2l-.545-.817-.167-1.331a11.793,11.793,0,0,1-.09-1.448V360h.558a2.489,2.489,0,0,1,2.415,1.886,3.249,3.249,0,0,0,1.7,2.118Z" transform="translate(-264 -360)" fill="#ccd1d9"/>
        </g>
        <g id="Grupo_1119404" data-name="Grupo 1119404" transform="translate(18.345 35.021)">
          <path id="Trazado_916697" data-name="Trazado 916697" d="M189,344v4.277a11.8,11.8,0,0,1-.09,1.448l-.167,1.331-.545.817a4.547,4.547,0,0,1-2.348,1.794,4.561,4.561,0,0,0-1.342.715l-.163-.648a11.767,11.767,0,0,1-.26-1.395A11.619,11.619,0,0,1,184,350.9V349a1.969,1.969,0,0,0,1.942-1.645l.148-.891A2.953,2.953,0,0,1,189,344Z" transform="translate(-184 -344)" fill="#ccd1d9"/>
        </g>
        <g id="Grupo_1119405" data-name="Grupo 1119405" transform="translate(29.856)">
          <path id="Trazado_916698" data-name="Trazado 916698" d="M302.941,8l-1.368.586a15.038,15.038,0,0,0-5.513,4.058,4.286,4.286,0,0,0-1.052-1.715,4.4,4.4,0,0,0-.569-.479A6.66,6.66,0,0,1,299.606,8Z" transform="translate(-294.44 -8)" fill="#aab2bd"/>
        </g>
        <g id="Grupo_1119406" data-name="Grupo 1119406" transform="translate(11.674 0)">
          <path id="Trazado_916699" data-name="Trazado 916699" d="M128.5,10.449a4.305,4.305,0,0,0-1.621,2.194,15.038,15.038,0,0,0-5.513-4.058L120,8h3.335A6.66,6.66,0,0,1,128.5,10.449Z" transform="translate(-120 -8)" fill="#aab2bd"/>
        </g>
        <g id="Grupo_1119407" data-name="Grupo 1119407" transform="translate(31.477 0)">
          <path id="Trazado_916700" data-name="Trazado 916700" d="M316.87,8l-1.036,4.144a3.335,3.335,0,0,1-3.235,2.527h-2.457a4.227,4.227,0,0,0,.057-.7,4.274,4.274,0,0,0-.21-1.329A15.038,15.038,0,0,1,315.5,8.586Z" transform="translate(-309.99 -8)" fill="#ccd1d9"/>
        </g>
        <g id="Grupo_1119408" data-name="Grupo 1119408" transform="translate(11.674 0)">
          <path id="Trazado_916701" data-name="Trazado 916701" d="M126.728,14.671h-2.457a3.335,3.335,0,0,1-3.235-2.527L120,8l1.368.586a15.038,15.038,0,0,1,5.513,4.058,4.274,4.274,0,0,0-.21,1.329A4.227,4.227,0,0,0,126.728,14.671Z" transform="translate(-120 -8)" fill="#ccd1d9"/>
        </g>
        <g id="Grupo_1119409" data-name="Grupo 1119409" transform="translate(18.9 1.668)">
          <path id="Trazado_916702" data-name="Trazado 916702" d="M202.116,28.3a4.227,4.227,0,0,1-.057.7,4.3,4.3,0,0,1-.164.663l-1.964,5.891a3.335,3.335,0,0,0-4.486-1.1,3.335,3.335,0,0,0-4.486,1.1l-1.629-4.886h2.915a3.2,3.2,0,0,0,2.662-4.976L193.777,24h4.034a4.284,4.284,0,0,1,2.474.782,4.4,4.4,0,0,1,.569.479,4.293,4.293,0,0,1,1.261,3.044Z" transform="translate(-189.33 -24)" fill="#ccd1d9"/>
        </g>
        <g id="Grupo_1119410" data-name="Grupo 1119410" transform="translate(18.345 1.668)">
          <path id="Trazado_916703" data-name="Trazado 916703" d="M190.133,25.695a3.2,3.2,0,0,1-2.662,4.976h-2.915l-.335-1a4.308,4.308,0,0,1-.164-.663,4.23,4.23,0,0,1-.057-.7,4.3,4.3,0,0,1,4.3-4.3h.7Z" transform="translate(-184 -24)" fill="#969faa"/>
        </g>
        <g id="Grupo_1119411" data-name="Grupo 1119411" transform="translate(20.012 11.674)">
          <path id="Trazado_916704" data-name="Trazado 916704" d="M209.489,121.551a3.335,3.335,0,0,1-2.818,5.12h-3.335A3.335,3.335,0,1,1,205,120.447a3.335,3.335,0,0,1,4.486,1.1Z" transform="translate(-200 -120)" fill="#969faa"/>
        </g>
        <g id="Grupo_1119412" data-name="Grupo 1119412" transform="translate(21.075 17.451)">
          <path id="Trazado_916705" data-name="Trazado 916705" d="M218.08,175.43l-.2,1.365a3.335,3.335,0,0,1-3.3,2.863H213.7a3.335,3.335,0,0,1-3.3-2.863l-.2-1.365a3.321,3.321,0,0,0,2.272.893h3.335A3.321,3.321,0,0,0,218.08,175.43Z" transform="translate(-210.2 -175.43)" fill="#ff826e"/>
        </g>
        <g id="Grupo_1119413" data-name="Grupo 1119413" transform="translate(25.015 15.009)">
          <path id="Trazado_916706" data-name="Trazado 916706" d="M254.663,155.328c.005.085.007.171.007.256a4.618,4.618,0,0,1-1.1,2.991,4.7,4.7,0,0,1-.327.348,4.61,4.61,0,0,1-2.443,1.225l-1.136.19A1.665,1.665,0,0,0,248,158.671h.443a3.335,3.335,0,0,0,3.3-2.863l.2-1.365A3.331,3.331,0,0,0,253,152l.313.313A4.628,4.628,0,0,1,254.663,155.328Z" transform="translate(-248 -152)" fill="#ffeaa7"/>
        </g>
        <g id="Grupo_1119414" data-name="Grupo 1119414" transform="translate(18.345 15.009)">
          <path id="Trazado_916707" data-name="Trazado 916707" d="M190.228,158.671h.443A1.667,1.667,0,0,0,189,160.338l-1.136-.19A4.626,4.626,0,0,1,184,155.584c0-.085,0-.171.007-.256a4.627,4.627,0,0,1,1.348-3.015l.313-.313a3.331,3.331,0,0,0,1.063,2.442l.2,1.365A3.335,3.335,0,0,0,190.228,158.671Z" transform="translate(-184 -152)" fill="#ffeaa7"/>
        </g>
        <g id="Grupo_1119415" data-name="Grupo 1119415" transform="translate(23.348 21.68)">
          <path id="Trazado_916708" data-name="Trazado 916708" d="M235.335,217.668v1.668H232v-1.668a1.668,1.668,0,1,1,3.335,0Z" transform="translate(-232 -216)" fill="#fcd770"/>
        </g>
      </g>
      <g id="Grupo_1119417" data-name="Grupo 1119417" transform="translate(0 0)">
        <ellipse id="Elipse_11802" data-name="Elipse 11802" cx="0.5" cy="1" rx="0.5" ry="1" transform="translate(22 4.698)"/>
        <circle id="Elipse_11803" data-name="Elipse 11803" cx="1" cy="1" r="1" transform="translate(28 4.698)"/>
        <circle id="Elipse_11804" data-name="Elipse 11804" cx="1" cy="1" r="1" transform="translate(23 14.698)"/>
        <ellipse id="Elipse_11805" data-name="Elipse 11805" cx="0.5" cy="1" rx="0.5" ry="1" transform="translate(27 14.698)"/>
        <path id="Trazado_916709" data-name="Trazado 916709" d="M50.031,20.012H48.363A1.67,1.67,0,0,0,46.7,21.68v5H40.024v-5a1.67,1.67,0,0,0-1.668-1.668H36.689a1.669,1.669,0,0,0-1.546,1.044,10.8,10.8,0,0,0-1.594-2.028l-.233-.233a5.418,5.418,0,0,0-1.562-3.23l-.085-.085a4.136,4.136,0,0,0-.427-1.506L33.09,8.431c.01-.031.019-.062.029-.092h1.8A4.163,4.163,0,0,0,38.963,5.18L40.259,0h-4.4a7.474,7.474,0,0,0-5.326,2.22,5.105,5.105,0,0,0-2.314-.553H23.483a5.105,5.105,0,0,0-2.314.553A7.474,7.474,0,0,0,15.843,0h-4.4l1.3,5.18a4.163,4.163,0,0,0,4.045,3.158h1.8c.01.031.019.062.029.093l1.848,5.544a4.135,4.135,0,0,0-.427,1.506l-.085.085a5.419,5.419,0,0,0-1.562,3.23l-.233.233a10.791,10.791,0,0,0-1.594,2.028,1.669,1.669,0,0,0-1.546-1.044H13.341a1.67,1.67,0,0,0-1.668,1.668v5H5v-5a1.67,1.67,0,0,0-1.668-1.668H1.668A1.67,1.67,0,0,0,0,21.68V51.7H51.7V21.68A1.67,1.67,0,0,0,50.031,20.012ZM3.335,50.031H1.668V21.68H3.335ZM46.7,28.351v1.668H40.024V28.351ZM40.024,43.36V40.024H46.7V43.36ZM46.7,45.028V46.7H40.024V45.028Zm-6.671-6.671V36.689H46.7v1.668Zm0-3.335V31.686H46.7v3.335ZM36.689,21.68h1.668V50.031H36.689ZM18.409,50.031H16.677V48.363h1.986l-.088.176a2.2,2.2,0,0,0-.23.976,2.172,2.172,0,0,0,.064.515ZM17.344,24.682a2.514,2.514,0,0,1,1,2v.51a4.156,4.156,0,0,0,3.484,4.113l.346.058a6.8,6.8,0,0,0,1.174,1.921v1.829a3.773,3.773,0,0,0-2.9,3.072l-.148.89a1.133,1.133,0,0,1-.286.583v-.08a12.471,12.471,0,0,0-.753-4.274l-2.037-5.6a9.1,9.1,0,0,1-.272-5.316ZM18.718,45.79l.226.905H16.677V45.028h1.876Q18.624,45.411,18.718,45.79Zm-2.041-9.1h1.274a10.783,10.783,0,0,1,.323,1.668h-1.6Zm0,3.335h1.668v2.732c0,.2.006.4.016.6H16.677Zm.7-5h-.7V33.084Zm2.854,9.92a10.854,10.854,0,0,1-.224-2.184V41.564a2.791,2.791,0,0,0,1.931-2.214l.148-.891a2.11,2.11,0,0,1,1.256-1.6v3.271a10.879,10.879,0,0,1-.084,1.344l-.142,1.136-.435.653a3.738,3.738,0,0,1-1.918,1.465A5.394,5.394,0,0,0,20.236,44.941Zm4.549,3.6-.579-1.157.712-5.7a12.553,12.553,0,0,0,.1-1.551V34.68q.224.134.461.253l.373.186.373-.186q.237-.118.461-.253v5.451a12.553,12.553,0,0,0,.1,1.551l.712,5.7-.579,1.157a2.2,2.2,0,0,0-.23.976,2.171,2.171,0,0,0,.064.515h-1.8a2.172,2.172,0,0,0,.064-.515A2.2,2.2,0,0,0,24.785,48.539Zm3.65-7.063a10.879,10.879,0,0,1-.084-1.344V38.38a1.654,1.654,0,0,1,1.33,1.231A4.076,4.076,0,0,0,31.686,42.2v.554a10.853,10.853,0,0,1-.224,2.184,5.384,5.384,0,0,0-.532-.211,3.738,3.738,0,0,1-1.918-1.465l-.435-.653ZM35.021,46.7H32.754l.226-.905q.095-.379.165-.763h1.876Zm0-3.335H33.338c.01-.2.016-.4.016-.6V40.024h1.668Zm0-10.276v1.938h-.7Zm-1.274,3.605h1.274v1.668h-1.6A10.783,10.783,0,0,1,33.748,36.689Zm-.624,11.85-.088-.176h1.986v1.668H33.29a2.172,2.172,0,0,0,.064-.515A2.2,2.2,0,0,0,33.123,48.539Zm1.9-21.93a9.023,9.023,0,0,1-.488,2.926,4.662,4.662,0,0,1-1.18-3.086A6.29,6.29,0,0,0,32.192,22.8a5.435,5.435,0,0,0,.918-1.755,8.982,8.982,0,0,1,1.911,5.561Zm-6.86-3.38a2.507,2.507,0,0,0-.13-.267,4.188,4.188,0,0,0,2.387-3.194l.157-1.1a4.188,4.188,0,0,0,.684-.994,3.8,3.8,0,0,1-2.744,5.492Zm1.857-7.386a2.5,2.5,0,0,1-2.5,2.5H24.181a2.5,2.5,0,1,1,1.25-4.668l.418.242.418-.242a2.5,2.5,0,0,1,3.752,2.166Zm-5.837,4.169h3.335A4.153,4.153,0,0,0,28.7,19.84a2.514,2.514,0,0,1-2.41,1.84h-.885A2.514,2.514,0,0,1,23,19.84,4.153,4.153,0,0,0,24.181,20.012Zm.834,4.169a.834.834,0,0,1,1.668,0v.834H25.015ZM32.528,4.018a5.172,5.172,0,0,0-.636-.8,5.809,5.809,0,0,1,3.616-1.543A16.009,16.009,0,0,0,32.528,4.018Zm4.818.758a2.5,2.5,0,0,1-2.427,1.895H33.35a5.136,5.136,0,0,0-.119-.977,14.291,14.291,0,0,1,4.742-3.428Zm-5.66,2.03a3.465,3.465,0,0,1-.178,1.1l-1.526,4.579a4.161,4.161,0,0,0-4.132-.461,4.161,4.161,0,0,0-4.132.461l-.826-2.477h1.758a4.034,4.034,0,0,0,3.357-6.272l-.266-.4h2.476A3.475,3.475,0,0,1,31.686,6.806ZM16.19,1.678a5.809,5.809,0,0,1,3.616,1.543,5.176,5.176,0,0,0-.636.8,16.018,16.018,0,0,0-2.98-2.339Zm7.545,1.657.883,1.324a2.366,2.366,0,0,1-1.969,3.679H20.335L20.19,7.9a3.471,3.471,0,0,1,3.292-4.568ZM14.353,4.776l-.627-2.51a14.291,14.291,0,0,1,4.742,3.428,5.128,5.128,0,0,0-.119.977H16.779a2.5,2.5,0,0,1-2.427-1.895Zm6.086,12.9a4.187,4.187,0,0,0,.684.994l.157,1.1a4.188,4.188,0,0,0,2.387,3.194,2.507,2.507,0,0,0-.13.267l-.354-.059a3.8,3.8,0,0,1-2.744-5.492Zm-1.851,3.37a5.442,5.442,0,0,0,4.32,3.767l.44.073v1.8h5v-1.8l.44-.073a5.471,5.471,0,0,0,2.166-.862,4.627,4.627,0,0,1,.73,2.5,6.34,6.34,0,0,0,2.226,4.807l-1.473,4.05a12.471,12.471,0,0,0-.753,4.274v.458a2.414,2.414,0,0,1-.387-.831A3.318,3.318,0,0,0,28.351,36.7V33.284a6.835,6.835,0,0,0,1.668-4.493v-.44H28.351v.44a5.168,5.168,0,0,1-2.5,4.445,5.168,5.168,0,0,1-2.5-4.445v-.44H21.68v.44a7,7,0,0,0,.043.774,2.491,2.491,0,0,1-1.711-2.372v-.51a4.189,4.189,0,0,0-1.668-3.335l-.806-.6a8.99,8.99,0,0,1,1.05-1.7Zm-3.579.632V50.031H13.341V21.68ZM11.674,35.021H5V31.686h6.671Zm0,1.668v1.668H5V36.689Zm0,3.335V43.36H5V40.024Zm0,5V46.7H5V45.028Zm0-16.677v1.668H5V28.351ZM5,48.363h6.671v1.668H5Zm15.524,1.668a.515.515,0,0,1-.461-.746l.829-1.659L20.641,46.6a3.714,3.714,0,0,1,.655-.292,5.382,5.382,0,0,0,1.458-.752l-.264,2.115.8,1.609a.515.515,0,0,1-.461.746h-2.3Zm8.338,0a.515.515,0,0,1-.461-.746l.8-1.609-.264-2.115a5.387,5.387,0,0,0,1.458.752,3.714,3.714,0,0,1,.655.292L30.8,47.626l.829,1.659a.515.515,0,0,1-.461.746Zm11.158,0V48.363H46.7v1.668Zm10.006,0H48.363V21.68h1.668Z" transform="translate(0 0)"/>
      </g>
    </g>
  </g>
</svg>
