<svg xmlns="http://www.w3.org/2000/svg" width="77" height="77" viewBox="0 0 77 77">
  <g id="Grupo_1119876" data-name="Grupo 1119876" transform="translate(-1077.781 -1764.622)">
    <g id="Grupo_1098742" data-name="Grupo 1098742" transform="translate(1077.781 1764.622)">
      <rect id="Rectángulo_400898" data-name="Rectángulo 400898" width="77" height="77" rx="38.5" transform="translate(0 0)" fill="#ccda2d"/>
      <rect id="Rectángulo_400907" data-name="Rectángulo 400907" width="77" height="77" rx="38.5" transform="translate(0 0)" fill="none"/>
    </g>
    <g id="_FILLED_OUTLINE" data-name="/ FILLED_OUTLINE" transform="translate(1029.65 1758.011)">
      <rect id="Rectángulo_405506" data-name="Rectángulo 405506" width="43.922" height="55.748" rx="3" transform="translate(64.797 16.758)" fill="#00b378"/>
      <path id="Trazado_917867" data-name="Trazado 917867" d="M85.324,163.874a1.912,1.912,0,0,0,.319.029h40.085a1.909,1.909,0,0,0,1.909-1.909V120a43.9,43.9,0,0,1-42.313,43.873Z" transform="translate(-18.78 -91.593)" fill="#009866"/>
      <path id="Trazado_917868" data-name="Trazado 917868" d="M104,56h36.267v47.72H104Z" transform="translate(-35.228 -35.228)" fill="#aae5cf"/>
      <path id="Trazado_917869" data-name="Trazado 917869" d="M244.447,292.454V270.3a44.066,44.066,0,0,1-22.155,22.154Z" transform="translate(-139.408 -223.962)" fill="#91c3b0"/>
      <path id="Trazado_917870" data-name="Trazado 917870" d="M413.332,106.067a1.909,1.909,0,0,1,3.709.9l-.681,2.8-3.684-1Z" transform="translate(-307.078 -78.038)"/>
      <path id="Trazado_917871" data-name="Trazado 917871" d="M359.9,106.067a1.909,1.909,0,1,1,3.709.9l-7.895,32.457-2.531,2.331L352,138.525Z" transform="translate(-253.642 -78.038)" fill="#ff8662"/>
      <path id="Trazado_917872" data-name="Trazado 917872" d="M413.332,106.067a1.909,1.909,0,0,1,3.709.9l-.681,2.8-3.684-1Z" transform="translate(-307.078 -78.038)" fill="#ef7154"/>
      <path id="Trazado_917873" data-name="Trazado 917873" d="M353.244,239.369,352,244.485l1.178,3.233,2.531-2.331,4.978-20.464a43.771,43.771,0,0,1-7.443,14.446Z" transform="translate(-253.642 -183.999)" fill="#d97253"/>
      <path id="Trazado_917874" data-name="Trazado 917874" d="M192,88h15.27v1.909H192Z" transform="translate(-112.73 -63.41)" fill="#70d6b1"/>
      <path id="Trazado_917875" data-name="Trazado 917875" d="M216,152h19.088v1.909H216Z" transform="translate(-133.867 -119.775)" fill="#70d6b1"/>
      <rect id="Rectángulo_405507" data-name="Rectángulo 405507" width="5.913" height="5.913" rx="2.956" transform="translate(73.244 39.564)" fill="#ff9879"/>
      <rect id="Rectángulo_405508" data-name="Rectángulo 405508" width="5.913" height="5.068" rx="2.534" transform="translate(73.244 49.699)" fill="#ff9879"/>
      <path id="Trazado_917876" data-name="Trazado 917876" d="M216,232h17.179v1.909H216Z" transform="translate(-133.867 -190.231)" fill="#70d6b1"/>
      <path id="Trazado_917877" data-name="Trazado 917877" d="M216,312h15.27v1.909H216Z" transform="translate(-133.867 -260.687)" fill="#70d6b1"/>
      <rect id="Rectángulo_405509" data-name="Rectángulo 405509" width="5.913" height="5.913" rx="2.956" transform="translate(73.244 58.991)" fill="#ff9879"/>
      <rect id="Rectángulo_405510" data-name="Rectángulo 405510" width="5.726" height="5.726" rx="2.863" transform="translate(73.595 30.359)" fill="#31c292"/>
      <path id="Trazado_917878" data-name="Trazado 917878" d="M0,0H5.4V1.909H0Z" transform="translate(75.728 32.503) rotate(-45)" fill="#00a16c"/>
      <path id="Trazado_917879" data-name="Trazado 917879" d="M216,392h13.362v1.909H216Z" transform="translate(-133.867 -331.143)" fill="#70d6b1"/>
      <path id="Trazado_917880" data-name="Trazado 917880" d="M304.3,393.909V392h-.971q-1.087.991-2.238,1.909Z" transform="translate(-208.808 -331.143)" fill="#5fb697"/>
      <path id="Trazado_917881" data-name="Trazado 917881" d="M109.811,26.179V18.863A2.866,2.866,0,0,0,106.948,16H66.863A2.866,2.866,0,0,0,64,18.863V70.4a2.866,2.866,0,0,0,2.863,2.863h40.085a2.866,2.866,0,0,0,2.863-2.863V33.593l1.079-4.436a2.868,2.868,0,0,0-1.079-2.978ZM107.9,70.4a.955.955,0,0,1-.954.954H66.863a.956.956,0,0,1-.954-.954V18.863a.956.956,0,0,1,.954-.954h40.085a.955.955,0,0,1,.954.954v6.761a2.877,2.877,0,0,0-1.909.926V19.818H67.818V69.446h38.176V49.288L107.9,41.44ZM99.13,65.392l3.8-3.5,1.158-4.76v10.4H69.726V21.726h34.358v11.18L97.363,60.542Zm4.959-16.349h0v.016l-2.876,11.824-1.266,1.165-.589-1.617,6.629-27.252h.011v-.044l.285-1.171,1.855.451Zm4.947-20.337-.451,1.855-1.855-.451.451-1.855h0a.954.954,0,1,1,1.855.451Z"/>
      <path id="Trazado_917882" data-name="Trazado 917882" d="M192,88h15.27v1.909H192Z" transform="translate(-112.73 -63.41)"/>
      <path id="Trazado_917883" data-name="Trazado 917883" d="M216,152h19.088v1.909H216Z" transform="translate(-133.867 -119.775)"/>
      <path id="Trazado_917884" data-name="Trazado 917884" d="M141.726,132.772a.955.955,0,0,1-.954.954h-1.909a.956.956,0,0,1-.954-.954v-1.909a.955.955,0,0,1,.954-.954h.954V128h-.954A2.866,2.866,0,0,0,136,130.863v1.909a2.866,2.866,0,0,0,2.863,2.863h1.909a2.866,2.866,0,0,0,2.863-2.863v-.954h-1.909Z" transform="translate(-63.41 -98.638)"/>
      <path id="Trazado_917885" data-name="Trazado 917885" d="M140.772,208h-1.909A2.866,2.866,0,0,0,136,210.863v1.909a2.866,2.866,0,0,0,2.863,2.863h1.909a2.866,2.866,0,0,0,2.863-2.863v-1.909A2.866,2.866,0,0,0,140.772,208Zm.954,4.772a.955.955,0,0,1-.954.954h-1.909a.955.955,0,0,1-.954-.954v-1.909a.955.955,0,0,1,.954-.954h1.909a.955.955,0,0,1,.954.954Z" transform="translate(-63.41 -169.095)"/>
      <path id="Trazado_917886" data-name="Trazado 917886" d="M140.772,288h-1.909A2.866,2.866,0,0,0,136,290.863v1.909a2.866,2.866,0,0,0,2.863,2.863h1.909a2.866,2.866,0,0,0,2.863-2.863v-1.909A2.866,2.866,0,0,0,140.772,288Zm.954,4.772a.955.955,0,0,1-.954.954h-1.909a.955.955,0,0,1-.954-.954v-1.909a.955.955,0,0,1,.954-.954h1.909a.955.955,0,0,1,.954.954Z" transform="translate(-63.41 -239.551)"/>
      <path id="Trazado_917887" data-name="Trazado 917887" d="M216,232h17.179v1.909H216Z" transform="translate(-133.867 -190.231)"/>
      <path id="Trazado_917888" data-name="Trazado 917888" d="M216,312h15.27v1.909H216Z" transform="translate(-133.867 -260.687)"/>
      <path id="Trazado_917889" data-name="Trazado 917889" d="M140.772,368h-1.909A2.866,2.866,0,0,0,136,370.863v1.909a2.866,2.866,0,0,0,2.863,2.863h1.909a2.866,2.866,0,0,0,2.863-2.863v-1.909A2.866,2.866,0,0,0,140.772,368Zm.954,4.772a.956.956,0,0,1-.954.954h-1.909a.956.956,0,0,1-.954-.954v-1.909a.955.955,0,0,1,.954-.954h1.909a.955.955,0,0,1,.954.954Z" transform="translate(-63.41 -310.007)"/>
      <path id="Trazado_917890" data-name="Trazado 917890" d="M216,392h13.362v1.909H216Z" transform="translate(-133.867 -331.143)"/>
      <path id="Trazado_917891" data-name="Trazado 917891" d="M0,0H5.4V1.909H0Z" transform="translate(75.728 32.503) rotate(-45)"/>
    </g>
  </g>
</svg>
